<svg width="43" height="19" viewBox="0 0 43 19" fill="none" xmlns="http://www.w3.org/2000/svg">
<path d="M1.3458 1.46619C1.02559 1.46619 0.835321 1.47083 0.408379 1.52652C0.361973 1.5358 0.34341 1.54972 0.34341 1.59613V4.84924C0.34341 4.88637 0.361973 4.90957 0.403739 4.90957H0.62185C0.658976 4.90957 0.677538 4.88637 0.677538 4.84924V3.99536C0.89565 4.01856 1.08128 4.0232 1.31331 4.0232C2.20432 4.0232 2.36674 3.77725 2.36674 2.7563C2.36674 1.72143 2.20432 1.46619 1.3458 1.46619ZM1.3458 1.7632C1.95836 1.7632 2.02797 1.9581 2.02797 2.75166C2.02797 3.53593 1.95372 3.7262 1.31331 3.7262C1.11376 3.7262 0.881728 3.71228 0.677538 3.69372V1.7632H1.3458ZM3.92779 1.46619C3.0739 1.46619 2.89756 1.72143 2.89756 2.74238C2.89756 3.76797 3.0739 4.0232 3.92779 4.0232C4.78631 4.0232 4.96266 3.76797 4.96266 2.74238C4.96266 1.72143 4.78631 1.46619 3.92779 1.46619ZM3.92779 1.7632C4.53571 1.7632 4.62853 1.9581 4.62853 2.74238C4.62853 3.52665 4.53571 3.7262 3.92779 3.7262C3.3245 3.7262 3.23169 3.52665 3.23169 2.74238C3.23169 1.9581 3.3245 1.7632 3.92779 1.7632ZM8.55265 1.4894C8.52017 1.4894 8.51089 1.50332 8.5016 1.55437L8.09787 3.44312C8.04682 3.67979 8.01433 3.70764 7.94008 3.70764C7.84727 3.70764 7.83335 3.68907 7.77766 3.44312L7.33216 1.65182C7.31823 1.59149 7.30431 1.57757 7.27183 1.57757H6.96554C6.93306 1.57757 6.91914 1.59149 6.90521 1.65182L6.45971 3.44312C6.40402 3.68907 6.3901 3.70764 6.29728 3.70764C6.22303 3.70764 6.19055 3.67979 6.1395 3.44312L5.73576 1.55437C5.72648 1.50332 5.7172 1.4894 5.68472 1.4894H5.44804C5.39699 1.4894 5.38771 1.50332 5.39699 1.55437L5.81001 3.46632C5.92139 3.96287 5.97244 4.0232 6.30193 4.0232C6.64534 4.0232 6.66854 3.96287 6.78456 3.46632L7.11868 2.06484L7.45281 3.46632C7.56883 3.96287 7.59203 4.0232 7.93544 4.0232C8.26029 4.0232 8.31598 3.96287 8.42735 3.46632L8.84037 1.55437C8.84966 1.50332 8.84037 1.4894 8.78933 1.4894H8.55265ZM10.2901 1.46619C9.45019 1.46619 9.27848 1.71679 9.27848 2.74238C9.27848 3.76797 9.45019 4.0232 10.2901 4.0232C10.5268 4.0232 10.8053 4.01392 11.0234 3.99072C11.0605 3.98608 11.0791 3.96287 11.0791 3.93039V3.78653C11.0791 3.74476 11.0559 3.7262 11.0187 3.7262H10.2901C9.74719 3.7262 9.63117 3.5545 9.61725 2.90944H11.1348C11.2647 2.90944 11.2786 2.87232 11.2786 2.79342V2.65885C11.2693 1.70287 11.0837 1.46619 10.2901 1.46619ZM10.2901 1.7632C10.8238 1.7632 10.9306 1.92098 10.9398 2.6078H9.61725C9.62653 1.93026 9.72863 1.7632 10.2901 1.7632ZM12.5046 1.46619C12.3004 1.46619 11.8317 1.47083 11.8317 1.9581V3.93967C11.8317 3.98144 11.8549 4 11.892 4H12.1101C12.1519 4 12.1705 3.98144 12.1705 3.93967V2.02771C12.1705 1.80496 12.305 1.7632 12.5788 1.7632H12.9826C13.0197 1.76784 13.0429 1.74927 13.0429 1.70751V1.57293C13.0429 1.5358 13.0243 1.52188 12.9872 1.50796C12.9083 1.48011 12.616 1.46619 12.5046 1.46619ZM14.3915 1.46619C13.5516 1.46619 13.3799 1.71679 13.3799 2.74238C13.3799 3.76797 13.5516 4.0232 14.3915 4.0232C14.6282 4.0232 14.9066 4.01392 15.1248 3.99072C15.1619 3.98608 15.1804 3.96287 15.1804 3.93039V3.78653C15.1804 3.74476 15.1572 3.7262 15.1201 3.7262H14.3915C13.8486 3.7262 13.7325 3.5545 13.7186 2.90944H15.2361C15.3661 2.90944 15.38 2.87232 15.38 2.79342V2.65885C15.3707 1.70287 15.1851 1.46619 14.3915 1.46619ZM14.3915 1.7632C14.9252 1.7632 15.0319 1.92098 15.0412 2.6078H13.7186C13.7279 1.93026 13.83 1.7632 14.3915 1.7632ZM17.6083 0.528776C17.5712 0.528776 17.5527 0.55198 17.5527 0.589105V1.49404C17.3856 1.47547 17.1721 1.46619 16.9122 1.46619C16.0212 1.46619 15.8588 1.71679 15.8588 2.74238C15.8588 3.77261 16.0212 4.0232 16.8798 4.0232C17.2 4.0232 17.3949 4.01392 17.8218 3.94895C17.8682 3.94431 17.8868 3.92575 17.8868 3.87934V0.589105C17.8868 0.55198 17.8682 0.528776 17.8265 0.528776H17.6083ZM17.5527 1.7632V3.67979C17.3067 3.71228 17.0793 3.7262 16.8798 3.7262C16.2718 3.7262 16.1976 3.53129 16.1976 2.73774C16.1976 1.95346 16.2718 1.7632 16.9122 1.7632H17.5527ZM19.7278 0.528776C19.6907 0.528776 19.6675 0.55198 19.6675 0.589105V3.87934C19.6675 3.92575 19.686 3.94431 19.7324 3.94895C20.1594 4.01392 20.3543 4.0232 20.6745 4.0232C21.5377 4.0232 21.6954 3.76797 21.6954 2.74238C21.6954 1.71679 21.533 1.46619 20.6466 1.46619C20.3821 1.46619 20.1687 1.47547 20.0062 1.49404V0.589105C20.0062 0.55198 19.983 0.528776 19.9459 0.528776H19.7278ZM20.6466 1.7632C21.2824 1.7632 21.3613 1.95346 21.3613 2.73774C21.3613 3.52665 21.2871 3.7262 20.6745 3.7262C20.4749 3.7262 20.2475 3.71228 20.0062 3.67979V1.7632H20.6466ZM24.0314 1.4894C23.9942 1.4894 23.971 1.5126 23.971 1.54972V3.68443C23.7297 3.71692 23.5023 3.7262 23.3074 3.7262C22.6949 3.7262 22.6206 3.52665 22.6206 2.7331V1.54972C22.6206 1.5126 22.602 1.4894 22.5603 1.4894H22.3422C22.305 1.4894 22.2865 1.5126 22.2865 1.54972V2.74238C22.2865 3.76797 22.4443 4.0232 23.3074 4.0232C23.5395 4.0232 23.7251 4.01856 23.971 3.98608V4.0232C23.971 4.49191 23.8457 4.63577 23.2749 4.63577H22.6252C22.5881 4.63577 22.5696 4.65433 22.5696 4.69146V4.83532C22.5696 4.87245 22.5881 4.89565 22.6252 4.90029C22.848 4.92349 23.0151 4.93278 23.2749 4.93278C24.1242 4.93278 24.3052 4.69146 24.3098 3.80045V1.54972C24.3098 1.5126 24.2866 1.4894 24.2495 1.4894H24.0314Z" fill="#FF8E02"/>
<path d="M6.39241 12.315L3.92546 11.4649C3.22319 11.2169 3.0071 10.9512 3.0071 10.597V10.4022C3.0071 9.92394 3.38525 9.72911 4.14154 9.72911H7.61689C7.86899 9.72911 7.94101 9.64055 7.94101 9.428V7.99334C7.94101 7.81622 7.86899 7.74538 7.6349 7.69224C6.51846 7.49741 5.42004 7.44427 4.59172 7.44427C1.81864 7.44427 0.216023 8.15275 0.216023 10.1719V10.5261C0.216023 11.7305 0.666197 12.8995 2.17878 13.4132L4.5557 14.2456C5.40203 14.529 5.61811 14.777 5.61811 15.1312V15.3083C5.61811 15.822 5.312 15.946 4.2856 15.946H0.324064C0.0899738 15.946 -6.10352e-05 16.0168 -6.10352e-05 16.2294V17.7703C-6.10352e-05 17.9828 0.0719668 18.0537 0.324064 18.0537C1.24242 18.1422 2.62896 18.2485 4.30361 18.2485C6.75255 18.2485 8.40919 17.6817 8.40919 15.4855V15.1844C8.40919 13.8737 8.03105 12.8818 6.39241 12.315Z" fill="white"/>
<path fill-rule="evenodd" clip-rule="evenodd" d="M9.38556 12.8399C9.38556 8.49404 10.3205 7.42975 14.2042 7.42975C17.998 7.42975 18.915 8.4763 18.933 12.7157V13.3011C18.933 13.6913 18.8251 13.8155 18.3216 13.8155H12.2803C12.3163 15.5183 12.7838 15.8199 14.4559 15.8199H17.8541C18.0519 15.8199 18.1418 15.9086 18.1418 16.1037V17.6824C18.1418 17.8952 18.0519 17.9662 17.8721 17.9839C16.8652 18.1968 15.4808 18.25 14.2042 18.25C10.3205 18.25 9.38556 17.168 9.38556 12.8399ZM14.204 9.8599C12.7656 9.8599 12.2801 10.3033 12.2622 11.9707H16.0739C16.0559 10.3033 15.6064 9.8599 14.204 9.8599Z" fill="white"/>
<path d="M25.4846 7.39575C24.0429 7.39575 22.1688 7.43137 20.8713 7.7163C20.6731 7.75191 20.583 7.76972 20.583 8.00122V17.849C20.583 18.0627 20.6731 18.1518 20.8713 18.1518H23.1599C23.3581 18.1518 23.4483 18.0627 23.4483 17.849V9.83544H25.1962C26.9622 9.83544 27.2506 9.9601 27.2506 12.6847V17.849C27.2506 18.0627 27.3407 18.1518 27.5389 18.1518H29.8095C30.0077 18.1518 30.1158 18.0627 30.1158 17.849V11.9546C30.1518 8.09026 29.1787 7.39575 25.4846 7.39575Z" fill="white"/>
<path d="M37.3235 15.8134H36.5353C35.6934 15.8134 35.4068 15.6535 35.4068 14.8359V9.64589H37.1623C37.3772 9.64589 37.4847 9.55702 37.4847 9.36151V7.85072C37.4847 7.65521 37.3772 7.56634 37.1623 7.56634H35.4068V4.84693C35.4068 4.63364 35.2993 4.50923 35.1023 4.56255L32.8452 5.14909C32.6481 5.18463 32.5765 5.25573 32.5765 5.45124V7.56634H31.448C31.233 7.56634 31.1434 7.65521 31.1434 7.85072V9.37928C31.1434 9.57479 31.233 9.66366 31.448 9.66366H32.5765V15.7957C32.5765 18.1951 34.0633 18.2485 35.7113 18.2485C36.1412 18.2485 36.6607 18.2129 37.3414 18.0707C37.5564 18.0352 37.6459 17.9463 37.6459 17.7152V16.0978C37.6459 15.8845 37.5564 15.8134 37.3235 15.8134Z" fill="white"/>
<path d="M41.759 7.54108H39.4976C39.3002 7.54108 39.2104 7.63005 39.2104 7.82581V17.8981C39.2104 18.1116 39.3002 18.2006 39.4976 18.2006H41.759C41.9564 18.2006 42.0461 18.1116 42.0461 17.8981V7.82581C42.0461 7.63005 41.9384 7.54108 41.759 7.54108Z" fill="white"/>
<path d="M39.4412 5.99711H41.7665C41.8907 5.99711 41.9972 5.8902 41.9972 5.76547V3.43123C41.9972 3.3065 41.8907 3.19958 41.7665 3.19958H39.4412C39.317 3.19958 39.2104 3.3065 39.2104 3.43123V5.76547C39.2104 5.8902 39.317 5.99711 39.4412 5.99711Z" fill="#FF8E02"/>
</svg>
