<?xml version="1.0" encoding="UTF-8"?>
<svg width="67px" height="52px" viewBox="0 0 67 52" version="1.1" xmlns="http://www.w3.org/2000/svg" xmlns:xlink="http://www.w3.org/1999/xlink">
    <!-- Generator: Sketch 52.3 (67297) - http://www.bohemiancoding.com/sketch -->
    <title>icon_mist_day</title>
    <desc>Created with Sketch.</desc>
    <g id="Page-1" stroke="none" stroke-width="1" fill="none" fill-rule="evenodd" stroke-linecap="round" stroke-linejoin="round">
        <g id="Weather-icons" transform="translate(-545.000000, -285.000000)" stroke="#FBFBFB" stroke-width="4">
            <g id="icons" transform="translate(195.000000, 158.000000)">
                <g id="icon_mist_day" transform="translate(352.000000, 129.000000)">
                    <path d="M0.046799969,3.91756012 C7.49358124,0.439328516 16.0573797,-1.29978728 24.2488391,1.13497484 C29.0892469,2.52626748 33.1849766,5.30885276 38.0253845,6.7001454 C46.2168439,9.13490752 54.7806423,7.39579172 62.2274236,3.91756012" id="Page-1"></path>
                    <path d="M0.046799969,17.1217124 C7.49358124,13.6434808 16.0573797,11.904365 24.2488391,14.3391271 C29.0892469,15.7304197 33.1849766,18.513005 38.0253845,19.9042976 C46.2168439,22.3390598 54.7806423,20.599944 62.2274236,17.1217124" id="Page-1" opacity="0.699999988"></path>
                    <path d="M0.046799969,30.3258646 C7.49358124,26.847633 16.0573797,25.1085172 24.2488391,27.5432793 C29.0892469,28.934572 33.1849766,31.7171573 38.0253845,33.1084499 C46.2168439,35.543212 54.7806423,33.8040962 62.2274236,30.3258646" id="Page-1" opacity="0.400000006"></path>
                    <path d="M0.046799969,43.5300169 C7.49358124,40.0517853 16.0573797,38.3126695 24.2488391,40.7474316 C29.0892469,42.1387242 33.1849766,44.9213095 38.0253845,46.3126021 C46.2168439,48.7473643 54.7806423,47.0082485 62.2274236,43.5300169" id="Page-1" opacity="0.200000003"></path>
                </g>
            </g>
        </g>
    </g>
</svg>