<svg id="Layer_1" data-name="Layer 1" xmlns="http://www.w3.org/2000/svg" xmlns:xlink="http://www.w3.org/1999/xlink" viewBox="0 0 800 800"><defs><style>.cls-1{fill:url(#Degradado_sin_nombre_10);}.cls-2{fill:url(#Degradado_sin_nombre_10-2);}.cls-3{fill:url(#Degradado_sin_nombre_10-3);}.cls-4{fill:url(#Degradado_sin_nombre_10-4);}.cls-5{fill:#181638;}</style><linearGradient id="Degradado_sin_nombre_10" x1="647.3" y1="381.84" x2="118.84" y2="625.93" gradientUnits="userSpaceOnUse"><stop offset="0" stop-color="#ff8f00"/><stop offset="0.16" stop-color="#ff8e03"/><stop offset="0.28" stop-color="#ff8b0c"/><stop offset="0.38" stop-color="#ff861c"/><stop offset="0.45" stop-color="#ff802d"/><stop offset="0.6" stop-color="#ff7c27"/><stop offset="0.81" stop-color="#ff6f16"/><stop offset="1" stop-color="#ff5f00"/></linearGradient><linearGradient id="Degradado_sin_nombre_10-2" x1="652.93" y1="404.86" x2="126.54" y2="647.99" xlink:href="#Degradado_sin_nombre_10"/><linearGradient id="Degradado_sin_nombre_10-3" x1="659.35" y1="427.86" x2="135.24" y2="669.94" xlink:href="#Degradado_sin_nombre_10"/><linearGradient id="Degradado_sin_nombre_10-4" x1="803.72" y1="390.17" x2="216.66" y2="661.32" xlink:href="#Degradado_sin_nombre_10"/></defs><title>de endelige </title><rect class="cls-1" x="175.96" y="491.38" width="72.11" height="183.02" rx="1"/><rect class="cls-2" x="297.48" y="430.36" width="72.11" height="244.05" rx="1"/><rect class="cls-3" x="419" y="370.04" width="72.11" height="304.36" rx="1"/><rect class="cls-4" x="538.82" y="316.12" width="72.11" height="359.49" rx="1"/><path class="cls-5" d="M242.08,482.39H182a15,15,0,0,0-15,15v171a15,15,0,0,0,15,15h60.13a15,15,0,0,0,15-15v-171A15,15,0,0,0,242.08,482.39Zm-3,183H184.94v-165h54.14Z"/><path class="cls-5" d="M363.6,421.37H303.47a15,15,0,0,0-15,15V668.41a15,15,0,0,0,15,15H363.6a15,15,0,0,0,15-15V436.35A15,15,0,0,0,363.6,421.37Zm-3,244H306.46V439.35h54.15Z"/><path class="cls-5" d="M485.12,360.35H425a15,15,0,0,0-15,15V668.41a15,15,0,0,0,15,15h60.14a15,15,0,0,0,15-15V375.33A15,15,0,0,0,485.12,360.35Zm-3,305.07H428V378.32h54.15Z"/><path class="cls-5" d="M606.64,299.33H546.51a15,15,0,0,0-15,15v354.1a15,15,0,0,0,15,15h60.13a15,15,0,0,0,15-15V314.31A15,15,0,0,0,606.64,299.33Zm-3,366.09H549.51V317.3h54.13Z"/><path class="cls-5" d="M175.78,317.3h1.45c19.86,0,209.46-5.51,441.29-206.54a9,9,0,0,0-11.77-13.58C372.5,300.32,178,299.45,176.12,299.33a9.21,9.21,0,0,0-9.15,8.82A9,9,0,0,0,175.78,317.3Z"/><path class="cls-5" d="M603.58,186.53a9.31,9.31,0,0,1-2-.21,9,9,0,0,1-6.83-10.72l14.91-67.13H548.33a9,9,0,1,1,0-18H632.1l-19.75,89A9,9,0,0,1,603.58,186.53Z"/></svg>