<svg id="Layer_1" data-name="Layer 1" xmlns="http://www.w3.org/2000/svg" xmlns:xlink="http://www.w3.org/1999/xlink" viewBox="0 0 800 800"><defs><style>.cls-1{fill:url(#linear-gradient);}.cls-2{fill:url(#linear-gradient-2);}.cls-3{fill:#fdffff;}.cls-4{fill:url(#linear-gradient-3);}.cls-5{fill:#2b34ed;}.cls-6{fill:#fff;}.cls-7{fill:#001062;}</style><linearGradient id="linear-gradient" x1="389.07" y1="321.44" x2="418.65" y2="559.41" gradientUnits="userSpaceOnUse"><stop offset="0" stop-color="#ff8f00"/><stop offset="0.58" stop-color="#ff7500"/><stop offset="1" stop-color="#ff5f00"/></linearGradient><linearGradient id="linear-gradient-2" x1="337.74" y1="261.53" x2="295.18" y2="484.94" gradientUnits="userSpaceOnUse"><stop offset="0" stop-color="#2c138b"/><stop offset="0.54" stop-color="#16135e"/><stop offset="0.71" stop-color="#16135b"/><stop offset="0.83" stop-color="#161352"/><stop offset="0.94" stop-color="#161342"/><stop offset="1" stop-color="#161336"/></linearGradient><linearGradient id="linear-gradient-3" x1="611.08" y1="313.6" x2="568.53" y2="537.01" xlink:href="#linear-gradient-2"/></defs><title>de endelige </title><g id="BIL"><path class="cls-1" d="M667.53,341.87V531.34a28.91,28.91,0,0,1-28.76,29.07H190.39c-29.92,0-54.16-24.51-54.16-54.75V481.58a36.39,36.39,0,0,1,16.17-30.32l8.61-5.72.06,0L292.39,358l3.44-2.29,60.59-40.35a33,33,0,0,1,18.36-5.57H635.83A31.87,31.87,0,0,1,667.53,341.87Z"/><ellipse class="cls-2" cx="282.98" cy="548.98" rx="48.88" ry="49.41"/><rect class="cls-3" x="496.93" y="358.03" width="111.63" height="91.17" rx="3.55" transform="translate(1105.49 807.24) rotate(180)"/><rect class="cls-3" x="348.72" y="358.03" width="111.63" height="91.17" rx="3.55" transform="translate(809.07 807.24) rotate(180)"/><path class="cls-3" d="M315.34,369.77v65.37a13.84,13.84,0,0,1-13.57,14.07H170.19a13.18,13.18,0,0,1-9.12-3.71L292.39,358l3.44-2.29h5.94A13.82,13.82,0,0,1,315.34,369.77Z"/><ellipse class="cls-4" cx="566.25" cy="548.98" rx="48.88" ry="49.41"/><ellipse class="cls-3" cx="566.25" cy="548.98" rx="27.41" ry="27.71"/><ellipse class="cls-5" cx="282.98" cy="548.98" rx="27.41" ry="27.71"/><ellipse class="cls-6" cx="282.98" cy="548.98" rx="27.41" ry="27.71"/></g><path class="cls-7" d="M222.31,307.46a7.7,7.7,0,0,1-5.63,1.87,7.22,7.22,0,0,1-1.52-.21,7.7,7.7,0,0,1-1.38-.53,6.12,6.12,0,0,1-1.27-.82,6.26,6.26,0,0,1-1.1-1,6.57,6.57,0,0,1-.85-1.23,5.69,5.69,0,0,1-.6-1.36,6.08,6.08,0,0,1-.32-1.49,5.45,5.45,0,0,1,0-1.51,7.06,7.06,0,0,1,.26-1.49,8.63,8.63,0,0,1,.55-1.38,6.46,6.46,0,0,1,.82-1.32,7.85,7.85,0,0,1,6.68-3,7.59,7.59,0,0,1,1.49.24,9,9,0,0,1,1.41.56,8.77,8.77,0,0,1,1.27.77,8.94,8.94,0,0,1,1.1,1,10.08,10.08,0,0,1,.86,1.23,9.41,9.41,0,0,1,.62,1.38,9.1,9.1,0,0,1,.29,1.47,6.93,6.93,0,0,1,0,1.51,7.81,7.81,0,0,1-.81,2.93A7.91,7.91,0,0,1,222.31,307.46Z"/><path class="cls-7" d="M240.18,276.65a6.51,6.51,0,0,1-5.5,1c-12.55-3.28-23.14-2.33-31.48,2.82-13.56,8.36-17.17,24.91-17.2,25.08a6.55,6.55,0,0,1-12.81-2.7c.19-.91,4.89-22.25,23.13-33.52,11.5-7.1,25.52-8.56,41.67-4.34a6.54,6.54,0,0,1,2.19,11.63Z"/><path class="cls-7" d="M250,250.32a6.52,6.52,0,0,1-5.5,1c-21.48-5.61-39.73-3.93-54.25,5-23.41,14.39-29.84,43.18-29.9,43.46a6.55,6.55,0,0,1-12.81-2.72c.3-1.4,7.56-34.46,35.74-51.82,17.7-10.93,39.41-13.15,64.53-6.58A6.55,6.55,0,0,1,250,250.32Z"/><path class="cls-7" d="M258.07,223.15a6.51,6.51,0,0,1-5.5,1c-30.49-8-56.47-5.52-77.21,7.29-33.41,20.62-42.31,61.3-42.4,61.71a6.54,6.54,0,0,1-12.8-2.71c.4-1.89,10.22-46.6,48.33-70.13,23.9-14.77,53.3-17.73,87.39-8.82a6.54,6.54,0,0,1,2.19,11.63Z"/></svg>