<svg id="Layer_1" data-name="Layer 1" xmlns="http://www.w3.org/2000/svg" xmlns:xlink="http://www.w3.org/1999/xlink" viewBox="0 0 800 800"><defs><style>.cls-1{fill:url(#Degradado_sin_nombre_10);}.cls-2{fill:#181638;}.cls-3{fill:url(#Degradado_sin_nombre_10-2);}.cls-4{fill:none;}</style><linearGradient id="Degradado_sin_nombre_10" x1="542.22" y1="394.53" x2="273.07" y2="562.98" gradientUnits="userSpaceOnUse"><stop offset="0" stop-color="#ff8f00"/><stop offset="0.16" stop-color="#ff8e03"/><stop offset="0.28" stop-color="#ff8b0c"/><stop offset="0.38" stop-color="#ff861c"/><stop offset="0.45" stop-color="#ff802d"/><stop offset="0.6" stop-color="#ff7c27"/><stop offset="0.81" stop-color="#ff6f16"/><stop offset="1" stop-color="#ff5f00"/></linearGradient><linearGradient id="Degradado_sin_nombre_10-2" x1="433.48" y1="91.57" x2="255.43" y2="399.29" xlink:href="#Degradado_sin_nombre_10"/></defs><title>de endelige </title><path class="cls-1" d="M237.41,447.39H430.29v-195c106.53,0,192.88,87.29,192.88,195s-86.35,195-192.88,195S237.41,555.08,237.41,447.39Z"/><path class="cls-2" d="M430.29,649.5c-110.28,0-200-90.66-200-202.11v-7.12H423.17v-195h7.12c110.29,0,200,90.67,200,202.11S540.58,649.5,430.29,649.5Zm-185.63-195c3.72,100.3,85.56,180.74,185.63,180.74,102.43,0,185.76-84.28,185.76-187.87,0-101.18-79.49-183.93-178.64-187.73V454.52Z"/><path class="cls-3" d="M177.46,393.82c0-107.69,86.35-195,192.88-195v195Z"/><line class="cls-4" x1="370.34" y1="296.33" x2="290.97" y2="216.09"/><line class="cls-4" x1="370.34" y1="389.86" x2="234.37" y2="252.41"/><line class="cls-4" x1="283.68" y1="395.79" x2="197.02" y2="308.19"/><path class="cls-2" d="M377.46,400.94H170.34v-7.12c0-111.44,89.72-202.11,200-202.11h7.12ZM184.71,386.7H363.22V206.09C266.41,209.79,188.34,288.78,184.71,386.7Z"/><rect class="cls-2" x="323.53" y="199.78" width="14.24" height="112.85" transform="translate(-84.6 306.61) rotate(-44.69)"/><rect class="cls-2" x="295.23" y="224.46" width="14.24" height="193.35" transform="translate(-138.44 305.46) rotate(-44.69)"/><rect class="cls-2" x="233.23" y="290.37" width="14.24" height="123.23" transform="translate(-178.06 270.77) rotate(-44.69)"/></svg>