<svg id="Layer_1" data-name="Layer 1" xmlns="http://www.w3.org/2000/svg" xmlns:xlink="http://www.w3.org/1999/xlink" viewBox="0 0 1929 1224"><defs><style>.cls-1{fill:url(#linear-gradient);}.cls-2{fill:#1d2ad6;}.cls-3{fill:url(#linear-gradient-2);}.cls-4{fill:url(#linear-gradient-3);}.cls-5{fill:url(#linear-gradient-4);}.cls-6{fill:url(#linear-gradient-5);}.cls-7{fill:url(#linear-gradient-6);}.cls-8{fill:url(#linear-gradient-7);}.cls-9{fill:url(#linear-gradient-8);}.cls-10{fill:url(#linear-gradient-9);}.cls-11{fill:url(#linear-gradient-10);}.cls-12{fill:url(#linear-gradient-11);}.cls-13{fill:url(#linear-gradient-12);}.cls-14{fill:url(#linear-gradient-13);}.cls-15{fill:url(#linear-gradient-14);}.cls-16{fill:url(#linear-gradient-15);}.cls-17{fill:url(#linear-gradient-16);}.cls-18{fill:url(#linear-gradient-17);}.cls-19{fill:url(#linear-gradient-18);}.cls-20{fill:url(#linear-gradient-19);}.cls-21{fill:url(#linear-gradient-20);}.cls-22{fill:url(#linear-gradient-21);}.cls-23{fill:url(#linear-gradient-22);}.cls-24{fill:url(#linear-gradient-23);}.cls-25{fill:url(#linear-gradient-24);}.cls-26{fill:url(#linear-gradient-25);}.cls-27{fill:url(#linear-gradient-26);}.cls-28{fill:url(#linear-gradient-27);}.cls-29{fill:url(#linear-gradient-28);}.cls-30{fill:url(#linear-gradient-29);}.cls-31{fill:url(#linear-gradient-30);}.cls-32{fill:url(#linear-gradient-31);}.cls-33{fill:url(#linear-gradient-32);}.cls-34{fill:url(#linear-gradient-33);}.cls-35{fill:url(#linear-gradient-34);}.cls-36{fill:url(#linear-gradient-35);}.cls-37{fill:url(#linear-gradient-36);}.cls-38{fill:#001062;}.cls-39{fill:url(#linear-gradient-37);}.cls-40{fill:#ff7017;}</style><linearGradient id="linear-gradient" x1="1574.78" y1="989.32" x2="1698.14" y2="497.34" gradientUnits="userSpaceOnUse"><stop offset="0" stop-color="#2b34ed"/><stop offset="0.34" stop-color="#2b4ced"/><stop offset="0.47" stop-color="#2b57ed"/><stop offset="0.8" stop-color="#2b67ed"/><stop offset="1" stop-color="#2b73ed"/></linearGradient><linearGradient id="linear-gradient-2" x1="1416.36" y1="444.97" x2="1910.66" y2="662.72" gradientUnits="userSpaceOnUse"><stop offset="0.22" stop-color="#2c138b"/><stop offset="0.4" stop-color="#211375"/><stop offset="0.61" stop-color="#16135e"/><stop offset="0.84" stop-color="#161349"/><stop offset="1" stop-color="#161336"/></linearGradient><linearGradient id="linear-gradient-3" x1="308.24" y1="1019.52" x2="303.59" y2="662.62" gradientUnits="userSpaceOnUse"><stop offset="0" stop-color="#2b34ed"/><stop offset="1" stop-color="#2b73ed"/></linearGradient><linearGradient id="linear-gradient-4" x1="153.24" y1="494.25" x2="647.51" y2="1060" gradientUnits="userSpaceOnUse"><stop offset="0" stop-color="#2b34ed"/><stop offset="0.19" stop-color="#2b37ed"/><stop offset="0.32" stop-color="#2b40ed"/><stop offset="0.43" stop-color="#2b50ed"/><stop offset="0.47" stop-color="#2b57ed"/><stop offset="0.7" stop-color="#2b5aed"/><stop offset="0.86" stop-color="#2b63ed"/><stop offset="1" stop-color="#2b73ed"/><stop offset="1" stop-color="#2b73ed"/></linearGradient><linearGradient id="linear-gradient-5" x1="183.55" y1="467.78" x2="677.81" y2="1033.52" gradientUnits="userSpaceOnUse"><stop offset="0" stop-color="#2c138b"/><stop offset="0.54" stop-color="#16135e"/><stop offset="0.71" stop-color="#16135b"/><stop offset="0.83" stop-color="#161352"/><stop offset="0.94" stop-color="#161342"/><stop offset="1" stop-color="#161336"/></linearGradient><linearGradient id="linear-gradient-6" x1="177.79" y1="472.81" x2="672.05" y2="1038.55" xlink:href="#linear-gradient-5"/><linearGradient id="linear-gradient-7" x1="157.4" y1="490.62" x2="651.67" y2="1056.36" xlink:href="#linear-gradient-5"/><linearGradient id="linear-gradient-8" x1="131.04" y1="513.65" x2="625.3" y2="1079.39" xlink:href="#linear-gradient-5"/><linearGradient id="linear-gradient-9" x1="234.5" y1="447.43" x2="290.48" y2="734.97" xlink:href="#linear-gradient-5"/><linearGradient id="linear-gradient-10" x1="125.28" y1="518.69" x2="619.54" y2="1084.43" xlink:href="#linear-gradient-5"/><linearGradient id="linear-gradient-11" x1="151.64" y1="495.65" x2="645.9" y2="1061.4" xlink:href="#linear-gradient-5"/><linearGradient id="linear-gradient-12" x1="262.96" y1="682.64" x2="284.22" y2="682.64" xlink:href="#linear-gradient-3"/><linearGradient id="linear-gradient-13" x1="307.4" y1="538.87" x2="291.37" y2="957.22" xlink:href="#linear-gradient-3"/><linearGradient id="linear-gradient-14" x1="1435.07" y1="1062.2" x2="1378.78" y2="817.18" gradientUnits="userSpaceOnUse"><stop offset="0" stop-color="#1da493"/><stop offset="0.22" stop-color="#2eb09f"/><stop offset="1" stop-color="#68d9c8"/></linearGradient><linearGradient id="linear-gradient-15" x1="1438.83" y1="1073.74" x2="1468.74" y2="731.12" gradientTransform="translate(2919.88 1663.88) rotate(-180)" gradientUnits="userSpaceOnUse"><stop offset="0" stop-color="#009193"/><stop offset="1" stop-color="#00a79d"/></linearGradient><linearGradient id="linear-gradient-16" x1="1371.07" y1="1067.79" x2="1400.99" y2="725.17" gradientTransform="translate(2783.33 1663.88) rotate(-180)" xlink:href="#linear-gradient-15"/><linearGradient id="linear-gradient-17" x1="1303.32" y1="1061.83" x2="1333.23" y2="719.22" gradientTransform="translate(2646.78 1663.88) rotate(-180)" xlink:href="#linear-gradient-15"/><linearGradient id="linear-gradient-18" x1="1310.13" y1="1061.95" x2="1340.04" y2="719.33" gradientTransform="translate(2646.78 1820.08) rotate(-180)" xlink:href="#linear-gradient-15"/><linearGradient id="linear-gradient-19" x1="1377.88" y1="1067.9" x2="1407.79" y2="725.28" gradientTransform="translate(2783.33 1820.08) rotate(-180)" xlink:href="#linear-gradient-15"/><linearGradient id="linear-gradient-20" x1="1445.85" y1="1073.86" x2="1475.76" y2="731.24" gradientTransform="translate(2919.88 1824.98) rotate(-180)" xlink:href="#linear-gradient-15"/><linearGradient id="linear-gradient-21" x1="1389.9" y1="785.7" x2="1396.56" y2="712.47" gradientTransform="translate(2783.33 1527.14) rotate(-180)" gradientUnits="userSpaceOnUse"><stop offset="0.01" stop-color="#1da493"/><stop offset="0.49" stop-color="#3fbcab"/><stop offset="1" stop-color="#68d9c8"/></linearGradient><linearGradient id="linear-gradient-22" x1="672.1" y1="1086.5" x2="505.69" y2="422.84" xlink:href="#linear-gradient-14"/><linearGradient id="linear-gradient-23" x1="576.88" y1="722" x2="605.7" y2="432.97" gradientUnits="userSpaceOnUse"><stop offset="0.56" stop-color="#1da493"/><stop offset="0.65" stop-color="#23a897"/><stop offset="0.77" stop-color="#33b3a2"/><stop offset="0.9" stop-color="#4dc6b5"/><stop offset="1" stop-color="#68d9c8"/></linearGradient><linearGradient id="linear-gradient-24" x1="503.58" y1="91.61" x2="502.7" y2="88.97" gradientTransform="translate(1370.28 1272.55) rotate(-180)" gradientUnits="userSpaceOnUse"><stop offset="0" stop-color="#009193"/><stop offset="0.46" stop-color="#009494"/><stop offset="0.8" stop-color="#009d99"/><stop offset="1" stop-color="#00a79d"/></linearGradient><linearGradient id="linear-gradient-25" x1="448.52" y1="110.2" x2="447.64" y2="107.55" gradientTransform="translate(1247.76 1272.55) rotate(-180)" xlink:href="#linear-gradient-24"/><linearGradient id="linear-gradient-26" x1="393.81" y1="128.66" x2="392.93" y2="126.01" gradientTransform="translate(1126.04 1272.55) rotate(-180)" xlink:href="#linear-gradient-24"/><linearGradient id="linear-gradient-27" x1="338.75" y1="147.24" x2="337.86" y2="144.59" gradientTransform="translate(1003.52 1272.55) rotate(-180)" xlink:href="#linear-gradient-24"/><linearGradient id="linear-gradient-28" x1="472.56" y1="100.82" x2="471.67" y2="98.18" gradientTransform="translate(1370.28 1477.13) rotate(-180)" xlink:href="#linear-gradient-24"/><linearGradient id="linear-gradient-29" x1="417.49" y1="119.41" x2="416.61" y2="116.76" gradientTransform="translate(1247.76 1477.13) rotate(-180)" xlink:href="#linear-gradient-24"/><linearGradient id="linear-gradient-30" x1="362.79" y1="137.87" x2="361.9" y2="135.22" gradientTransform="translate(1126.04 1477.13) rotate(-180)" xlink:href="#linear-gradient-24"/><linearGradient id="linear-gradient-31" x1="307.72" y1="156.45" x2="306.84" y2="153.8" gradientTransform="translate(1003.52 1477.13) rotate(-180)" xlink:href="#linear-gradient-24"/><linearGradient id="linear-gradient-32" x1="442.16" y1="109.85" x2="441.28" y2="107.2" gradientTransform="translate(1370.28 1677.54) rotate(-180)" xlink:href="#linear-gradient-24"/><linearGradient id="linear-gradient-33" x1="277.33" y1="165.47" x2="276.44" y2="162.82" gradientTransform="translate(1003.52 1677.54) rotate(-180)" xlink:href="#linear-gradient-24"/><linearGradient id="linear-gradient-34" x1="351.57" y1="166.62" x2="350.72" y2="164.06" gradientTransform="matrix(1, 0, 0, 1, 0, 0)" xlink:href="#linear-gradient-24"/><linearGradient id="linear-gradient-35" x1="786.72" y1="1158.15" x2="784.09" y2="616.39" xlink:href="#linear-gradient-3"/><linearGradient id="linear-gradient-36" x1="1109.62" y1="1095.78" x2="1116.73" y2="589.92" xlink:href="#linear-gradient-3"/><linearGradient id="linear-gradient-37" x1="885.37" y1="665.63" x2="962.6" y2="1050.17" xlink:href="#linear-gradient-2"/></defs><title>de endelige </title><path class="cls-1" d="M1788.32,534.17V966H1481.79V534.17a17.82,17.82,0,0,1,17.55-18.09h271.42A17.83,17.83,0,0,1,1788.32,534.17Z"/><rect class="cls-2" x="1512.52" y="554.06" width="37.84" height="77.19" rx="1.37"/><rect class="cls-2" x="1581.8" y="554.06" width="37.84" height="77.19" rx="1.37"/><rect class="cls-2" x="1650.62" y="554.06" width="37.84" height="77.19" rx="1.37"/><rect class="cls-2" x="1719.9" y="554.06" width="37.84" height="77.19" rx="1.37"/><rect class="cls-2" x="1512.52" y="669.74" width="37.84" height="77.19" rx="1.37"/><rect class="cls-2" x="1581.8" y="669.74" width="37.84" height="77.19" rx="1.37"/><rect class="cls-2" x="1650.62" y="669.74" width="37.84" height="77.19" rx="1.37"/><rect class="cls-2" x="1719.9" y="669.74" width="37.84" height="77.19" rx="1.37"/><rect class="cls-2" x="1512.52" y="783.06" width="37.84" height="77.19" rx="1.37"/><rect class="cls-2" x="1719.9" y="783.06" width="37.84" height="77.19" rx="1.37"/><path class="cls-2" d="M1688.47,790.17V966H1582.32V790.17a7,7,0,0,1,7-7h92.18A7,7,0,0,1,1688.47,790.17Z"/><path class="cls-3" d="M1564.73,500.57v17.16h-39.47V500.57A23.48,23.48,0,0,1,1531,485a18.82,18.82,0,0,1,14-6.45C1555.9,478.5,1564.73,488.39,1564.73,500.57Z"/><rect class="cls-4" x="154" y="729.5" width="304" height="236.5"/><rect class="cls-2" x="250.98" y="841.46" width="40.69" height="75.91" rx="1.89" transform="translate(542.65 1758.82) rotate(180)"/><path class="cls-2" d="M193.2,917.35a.75.75,0,0,0,.21,0H226a4,4,0,0,0,4-4V845.49a4,4,0,0,0-4-4H193.41a4,4,0,0,0-4,4V908.6Z"/><rect class="cls-2" x="378.97" y="841.46" width="40.69" height="75.91" rx="1.89" transform="translate(798.62 1758.82) rotate(180)"/><rect class="cls-2" x="317.36" y="841.46" width="40.69" height="75.91" rx="1.89" transform="translate(675.41 1758.82) rotate(180)"/><rect class="cls-2" x="250.98" y="745.93" width="40.69" height="75.91" rx="1.89" transform="translate(542.65 1567.78) rotate(180)"/><rect class="cls-2" x="189.38" y="745.93" width="40.69" height="75.91" rx="1.89" transform="translate(419.44 1567.78) rotate(180)"/><rect class="cls-2" x="378.97" y="745.93" width="40.69" height="75.91" rx="1.89" transform="translate(798.62 1567.78) rotate(180)"/><rect class="cls-2" x="317.36" y="745.93" width="40.69" height="75.91" rx="1.89" transform="translate(675.41 1567.78) rotate(180)"/><g id="SOLCELLE"><path class="cls-5" d="M322.24,584.93H173.41a4.15,4.15,0,0,0-3.7,2.3h0a4.22,4.22,0,0,0,.1,3.95l42.31,75.22a4.12,4.12,0,0,0,3.59,2.12H364.55a4.14,4.14,0,0,0,3.69-2.3h0a4.22,4.22,0,0,0-.1-4l-42.31-75.22A4.11,4.11,0,0,0,322.24,584.93Z"/><polygon class="cls-6" points="294.31 622.33 286.39 608.25 278.48 594.18 318.25 594.18 334.08 622.33 294.31 622.33"/><polygon class="cls-7" points="336.61 626.83 352.44 654.97 312.67 654.97 304.76 640.9 296.84 626.83 336.61 626.83"/><polygon class="cls-8" points="273.35 594.18 289.18 622.33 246.99 622.33 239.08 608.25 231.16 594.18 273.35 594.18"/><polygon class="cls-9" points="226.04 594.18 241.87 622.33 201.34 622.33 185.51 594.18 226.04 594.18"/><path class="cls-10" d="M300.64,642.68l-1.76-3.12-5.5-9.75v0l-1.66-3H249.54v0h0L265.37,655h42.19ZM255.18,646l-2.86-5.06-7.91-14.07H203.88l0,0L219.72,655h40.52Zm-15.45-27.44-.21-.38-.65-1.16-1.37-2.44-.5-.88-1-1.78-2-3.63-7.9-14.07H185.51L199.9,619.7l1.47,2.61h40.48Zm33.62-24.34H231.17l7.92,14.07L247,622.31h42.19Zm54.43,16.94-1.39-2.46-.92-1.64-1.21-2.15-1.57-2.79-4.45-7.9H278.5l7.9,14.07L292.47,619v0l.34.61,1.14,2,.35.63h39.8Zm17.68,31.41-1.8-3.17-.24-.42-1.11-2-5.7-10.13v0H296.85v0h0l7.89,14,7.9,14.06h39.8Z"/><polygon class="cls-11" points="203.88 626.83 244.4 626.83 252.31 640.9 260.23 654.97 219.7 654.97 203.88 626.83"/><polygon class="cls-12" points="291.72 626.83 307.55 654.97 265.35 654.97 249.53 626.83 291.72 626.83"/><path class="cls-13" d="M263,668.52v23c0,2.9,4.76,5.25,10.63,5.25s10.63-2.35,10.63-5.25v-23Z"/></g><path class="cls-14" d="M458,730.08H152.26a5.81,5.81,0,0,1-5.77-5.16l-3-27.31a5.8,5.8,0,0,1,5.77-6.44H458Z"/><rect class="cls-15" x="1271.34" y="780.52" width="240.65" height="185.48"/><rect class="cls-16" x="1444.92" y="803.92" width="30.03" height="56.04" rx="1.89" transform="translate(2919.88 1663.88) rotate(180)"/><rect class="cls-17" x="1376.65" y="803.92" width="30.03" height="56.04" rx="1.89" transform="translate(2783.33 1663.88) rotate(180)"/><rect class="cls-18" x="1308.37" y="803.92" width="30.03" height="56.04" rx="1.89" transform="translate(2646.78 1663.88) rotate(180)"/><rect class="cls-19" x="1308.37" y="882.02" width="30.03" height="56.04" rx="1.89" transform="translate(2646.78 1820.08) rotate(180)"/><rect class="cls-20" x="1376.65" y="882.02" width="30.03" height="56.04" rx="1.89" transform="translate(2783.33 1820.08) rotate(180)"/><rect class="cls-21" x="1444.92" y="884.47" width="30.03" height="56.04" rx="1.89" transform="translate(2919.88 1824.98) rotate(180)"/><path class="cls-22" d="M1271.34,745.28H1512a0,0,0,0,1,0,0v30.93a5.65,5.65,0,0,1-5.65,5.65H1277a5.65,5.65,0,0,1-5.65-5.65V745.28a0,0,0,0,1,0,0Z" transform="translate(2783.33 1527.14) rotate(180)"/><g id="HUS2"><rect class="cls-23" x="458.01" y="580.38" width="271.05" height="385.62"/><path class="cls-24" d="M458,580.44H729.06V553.51a10.32,10.32,0,0,0-9.27-10.32L470.54,518.65A11.48,11.48,0,0,0,458,530.15Z"/><rect class="cls-25" x="668.41" y="602.15" width="33.46" height="68.25" rx="1.37" transform="translate(1370.28 1272.55) rotate(180)"/><rect class="cls-26" x="607.15" y="602.15" width="33.46" height="68.25" rx="1.37" transform="translate(1247.76 1272.55) rotate(180)"/><rect class="cls-27" x="546.29" y="602.15" width="33.46" height="68.25" rx="1.37" transform="translate(1126.04 1272.55) rotate(180)"/><rect class="cls-28" x="485.03" y="602.15" width="33.46" height="68.25" rx="1.37" transform="translate(1003.52 1272.55) rotate(180)"/><rect class="cls-29" x="668.41" y="704.44" width="33.46" height="68.25" rx="1.37" transform="translate(1370.28 1477.13) rotate(180)"/><rect class="cls-30" x="607.15" y="704.44" width="33.46" height="68.25" rx="1.37" transform="translate(1247.76 1477.13) rotate(180)"/><rect class="cls-31" x="546.29" y="704.44" width="33.46" height="68.25" rx="1.37" transform="translate(1126.04 1477.13) rotate(180)"/><rect class="cls-32" x="485.03" y="704.44" width="33.46" height="68.25" rx="1.37" transform="translate(1003.52 1477.13) rotate(180)"/><rect class="cls-33" x="668.41" y="804.65" width="33.46" height="68.25" rx="1.37" transform="translate(1370.28 1677.54) rotate(180)"/><rect class="cls-34" x="485.03" y="804.65" width="33.46" height="68.25" rx="1.37" transform="translate(1003.52 1677.54) rotate(180)"/><path class="cls-35" d="M640.16,819.61V966H546.3V819.61a14.85,14.85,0,0,1,14.85-14.85h64.13A14.87,14.87,0,0,1,640.16,819.61Z"/></g><g id="HUS3"><path class="cls-36" d="M884.16,645.23,884,785.78l-.16,129.84L883.76,966H685.86l.26-93.1.2-68.25.09-32,.19-68.25.1-34,.07-25.17a20.09,20.09,0,0,1,20.11-20.11H864.05A20.11,20.11,0,0,1,884.16,645.23Z"/><path class="cls-2" d="M801.14,868.64V966H765.19V868.64a3.1,3.1,0,0,1,3.08-3.12h29.79A3.1,3.1,0,0,1,801.14,868.64Z"/><rect class="cls-2" x="819.25" y="664.5" width="35.96" height="74.48" rx="1.34" transform="translate(1674.46 1403.48) rotate(180)"/><rect class="cls-2" x="765.18" y="664.5" width="35.96" height="74.48" rx="1.34" transform="translate(1566.33 1403.48) rotate(180)"/><rect class="cls-2" x="711.08" y="664.5" width="35.96" height="74.48" rx="1.34" transform="translate(1458.12 1403.48) rotate(180)"/><rect class="cls-2" x="819.25" y="765.01" width="35.96" height="74.48" rx="1.34" transform="translate(1674.46 1604.51) rotate(180)"/><rect class="cls-2" x="765.18" y="765.01" width="35.96" height="74.48" rx="1.34" transform="translate(1566.33 1604.51) rotate(180)"/><rect class="cls-2" x="711.08" y="765.01" width="35.96" height="74.48" rx="1.34" transform="translate(1458.12 1604.51) rotate(180)"/><rect class="cls-2" x="819.25" y="865.52" width="35.96" height="74.48" rx="1.34" transform="translate(1674.46 1805.53) rotate(180)"/><rect class="cls-2" x="711.08" y="865.52" width="35.96" height="74.48" rx="1.34" transform="translate(1458.12 1805.53) rotate(180)"/></g><path class="cls-37" d="M1231.43,537.15V966h-234V537.15a8,8,0,0,1,8-8.06h217.84A8.06,8.06,0,0,1,1231.43,537.15Z"/><path class="cls-2" d="M1140.19,867.42V966h-50V867.42a1.9,1.9,0,0,1,1.9-1.9h46.2A1.9,1.9,0,0,1,1140.19,867.42Z"/><rect class="cls-2" x="1096.78" y="580.38" width="34.9" height="69.61" rx="1.21" transform="translate(2228.45 1230.38) rotate(180)"/><rect class="cls-2" x="1032.92" y="580.38" width="34.9" height="69.61" rx="1.21" transform="translate(2100.75 1230.38) rotate(180)"/><rect class="cls-2" x="1160.32" y="580.38" width="34.9" height="69.61" rx="1.21" transform="translate(2355.54 1230.38) rotate(180)"/><rect class="cls-2" x="1096.78" y="677.28" width="34.9" height="69.61" rx="1.21" transform="translate(2228.45 1424.18) rotate(180)"/><rect class="cls-2" x="1160.32" y="677.28" width="34.9" height="69.61" rx="1.21" transform="translate(2355.54 1424.18) rotate(180)"/><rect class="cls-2" x="1032.54" y="677.28" width="34.9" height="69.61" rx="1.21" transform="translate(2099.98 1424.18) rotate(180)"/><rect class="cls-2" x="1096.78" y="774.18" width="34.9" height="69.61" rx="1.21" transform="translate(2228.45 1617.97) rotate(180)"/><rect class="cls-2" x="1160.32" y="774.18" width="34.9" height="69.61" rx="1.21" transform="translate(2355.54 1617.97) rotate(180)"/><rect class="cls-2" x="1160.32" y="867.96" width="34.9" height="69.61" rx="1.21" transform="translate(2355.54 1805.53) rotate(180)"/><rect class="cls-2" x="1032.54" y="867.96" width="34.9" height="69.61" rx="1.21" transform="translate(2099.98 1805.53) rotate(180)"/><rect class="cls-2" x="1032.54" y="774.18" width="34.9" height="69.61" rx="1.21" transform="translate(2099.98 1617.97) rotate(180)"/><path class="cls-38" d="M269,572.36a4.24,4.24,0,0,1-3.06-1.24,3.78,3.78,0,0,1-.57-.63,5,5,0,0,1-.39-.72,3.8,3.8,0,0,1-.25-.81,3.7,3.7,0,0,1-.09-.83,3.89,3.89,0,0,1,.08-.83,3.58,3.58,0,0,1,.23-.79,3.92,3.92,0,0,1,.41-.75,3.22,3.22,0,0,1,.53-.64,3.92,3.92,0,0,1,1.38-.92,3.94,3.94,0,0,1,.82-.27,4.35,4.35,0,0,1,3.9,1.15,3.66,3.66,0,0,1,.55.63,5.37,5.37,0,0,1,.66,1.53,5.85,5.85,0,0,1,.09.83,5.43,5.43,0,0,1-.08.83,4.21,4.21,0,0,1-.23.81,5.24,5.24,0,0,1-.41.73,4.1,4.1,0,0,1-.53.64,4.4,4.4,0,0,1-1.4.95A4.61,4.61,0,0,1,269,572.36Z"/><path class="cls-38" d="M287.66,565.74a3.64,3.64,0,0,1-2.7-1.54c-4.13-5.91-9-9.32-14.35-10.14-8.75-1.34-16.24,4.38-16.31,4.43a3.64,3.64,0,1,1-4.45-5.75c.41-.31,10.07-7.66,21.86-5.87,7.42,1.13,13.89,5.55,19.21,13.15a3.64,3.64,0,0,1-3.26,5.72Z"/><path class="cls-38" d="M301.29,558.12a3.69,3.69,0,0,1-2.7-1.54c-7.07-10.11-15.41-16-24.77-17.41-15.1-2.33-28.18,7.55-28.31,7.65a3.64,3.64,0,0,1-4.44-5.76c.62-.48,15.6-11.88,33.78-9.09,11.43,1.74,21.43,8.61,29.7,20.43a3.64,3.64,0,0,1-3.26,5.72Z"/><path class="cls-38" d="M314.49,549.51a3.61,3.61,0,0,1-2.7-1.54c-10.05-14.35-21.93-22.66-35.33-24.69-21.57-3.29-40,10.73-40.16,10.87a3.64,3.64,0,1,1-4.45-5.75c.85-.66,21.1-16.06,45.71-12.31,15.43,2.34,29,11.67,40.19,27.71a3.64,3.64,0,0,1-3.26,5.71Z"/><ellipse class="cls-39" cx="922.56" cy="850.76" rx="67.37" ry="79.26"/><g id="TRÆ1"><path class="cls-2" d="M927.63,867v99H919.7V867a4,4,0,0,1,7.93,0Z"/></g><path class="cls-40" d="M1363.39,621.86c0,1.52.06,3,.07,4.55,0,3.54-1.65,5.52-5,5.67s-6.7.19-10,.14c-3-.05-4.35-1.48-4.46-4.65-.13-3.68-.16-7.37-.16-11.06,0-3.43,1.1-4.81,4.4-5s6.9-.25,10.35-.16c2.82.08,4.53,2,4.72,5C1363.41,618.17,1363.37,620,1363.39,621.86Z"/><path class="cls-40" d="M1582.28,416.39c-1.57,0-3.14.06-4.71.06-3.65,0-5.17-1.41-5.34-5.21-.14-3.25-.19-6.52-.13-9.77s1.92-5.15,5.09-5.23,6.49-.12,9.73-.13c3,0,5,1.69,5.2,4.76.2,3.47.23,6.95.15,10.42a4.75,4.75,0,0,1-5,5C1585.63,416.36,1584,416.36,1582.28,416.39Z"/><path class="cls-40" d="M640,447.67c0-1.41-.05-2.82-.06-4.24,0-4.49,1.09-5.9,5.37-6.18a78.13,78.13,0,0,1,8.79-.12c3.71.18,5.22,1.92,5.32,5.8.08,3.14.12,6.3.14,9.45,0,3.47-1.71,5.39-5.12,5.53-3.25.13-6.5.17-9.74.14s-4.48-1.47-4.62-4.84C640,451.37,640,449.52,640,447.67Z"/><path class="cls-40" d="M554.75,321.5c0,1.64.11,3.29.06,4.93a2.82,2.82,0,0,1-2.95,3c-3.42.13-6.84.15-10.26.16-2.13,0-3-1.46-3.06-3.21-.19-3.1-.26-6.23-.14-9.34a3.51,3.51,0,0,1,3.73-3.55q4.33-.17,8.67-.12c2.76,0,3.82,1.08,3.9,3.73,0,1.47,0,2.94.06,4.41Z"/><path class="cls-40" d="M307.3,405.89c8.19-.11,8.19-.11,8.31,8.27,0,1.3.09,2.61,0,3.9a4.61,4.61,0,0,1-4.53,4.72c-2.19.1-4.38.1-6.58.1-3.14,0-5-1.79-5.21-5.09-.12-2.06-.09-4.12-.1-6.18,0-4.44,1-5.6,5.25-5.68Z"/><path class="cls-40" d="M892.44,477.43l-2.82,0c-4.16,0-5.17-1-5.25-5.26,0-2.38-.11-4.76-.08-7.14,0-2.86,1.49-4.41,4.24-4.52,2.3-.09,4.6-.14,6.89-.1,3.22.07,5,1.88,5.19,5.2.1,1.95.08,3.9.1,5.85,0,4.54-1.13,5.8-5.45,5.89C894.32,477.41,893.38,477.41,892.44,477.43Z"/><path class="cls-40" d="M940.19,368.56c.12,8.67,0,8.81-8.48,8.93-6.83.1-7.75-.83-7.85-7.89,0-1.3-.07-2.6-.05-3.9,0-3.36,1.52-5,4.71-5.11,2.19-.08,4.39-.08,6.58-.1,3.94,0,5,1,5,5.15C940.17,366.61,940.18,367.59,940.19,368.56Z"/><path class="cls-40" d="M803,391c.17-1.65-.59-3.72.3-5.5,1.26-2.52,3.61-3.06,6.18-2.9,3.33.21,7.69-1.42,9.26,2.72a19.42,19.42,0,0,1,0,12.11,3,3,0,0,1-3.24,2.06c-2.51,0-5,.07-7.53.09-3.6,0-4.81-1.21-5-5C803,393.43,803,392.34,803,391Z"/><path class="cls-40" d="M419.38,433.56c5.69-.08,6.54.82,6.62,7,.07,5.24-1.32,6.6-6.86,6.67-4.94.07-6.27-1.44-6.35-7.22C412.73,434.69,413.8,433.64,419.38,433.56Z"/><path class="cls-40" d="M805,500.24c-.09-6,.39-6.44,6.55-6.52,5.42-.07,6,.53,6,6.73.08,5.72-1,6.89-6.47,7C805.9,507.5,805.05,506.49,805,500.24Z"/><path class="cls-40" d="M1245,433.24c-.09-6,.39-6.44,6.55-6.52,5.42-.07,6,.53,6,6.73.08,5.72-1,6.89-6.47,7C1245.9,440.5,1245.05,439.49,1245,433.24Z"/><path class="cls-40" d="M1112.4,354.94c-.09-6,.39-6.44,6.55-6.52,5.42-.08,6,.52,6,6.73.08,5.72-1,6.89-6.47,7C1113.34,362.19,1112.48,361.19,1112.4,354.94Z"/><path class="cls-40" d="M1400.4,499.94c-.09-6,.39-6.44,6.55-6.52,5.42-.08,6,.52,6,6.73.08,5.72-1,6.89-6.47,7C1401.34,507.19,1400.48,506.19,1400.4,499.94Z"/></svg>