<svg id="Layer_1" data-name="Layer 1" xmlns="http://www.w3.org/2000/svg" xmlns:xlink="http://www.w3.org/1999/xlink" viewBox="0 0 800 800"><defs><style>.cls-1{fill:#fff0e6;}.cls-2{fill:#fff;}.cls-3{fill:url(#Degradado_sin_nombre_10);}.cls-4{fill:url(#Degradado_sin_nombre_10-2);}.cls-5{fill:url(#Degradado_sin_nombre_10-3);}.cls-6{fill:url(#Degradado_sin_nombre_10-4);}.cls-7{fill:#1b1464;}.cls-8{fill:url(#Degradado_sin_nombre_10-5);}.cls-9{fill:url(#Degradado_sin_nombre_10-6);}.cls-10,.cls-14{fill:none;}.cls-11{fill:url(#linear-gradient);}.cls-12{fill:#181638;}.cls-13{fill:#001062;}.cls-14{stroke:#1b1464;stroke-miterlimit:10;stroke-width:3px;}.cls-15{fill:url(#linear-gradient-2);}.cls-16{fill:url(#linear-gradient-3);}</style><linearGradient id="Degradado_sin_nombre_10" x1="252.64" y1="418" x2="177.28" y2="452.8" gradientUnits="userSpaceOnUse"><stop offset="0" stop-color="#ff8f00"/><stop offset="0.16" stop-color="#ff8e03"/><stop offset="0.28" stop-color="#ff8b0c"/><stop offset="0.38" stop-color="#ff861c"/><stop offset="0.45" stop-color="#ff802d"/><stop offset="0.6" stop-color="#ff7c27"/><stop offset="0.81" stop-color="#ff6f16"/><stop offset="1" stop-color="#ff5f00"/></linearGradient><linearGradient id="Degradado_sin_nombre_10-2" x1="254.11" y1="421.07" x2="178.73" y2="455.89" xlink:href="#Degradado_sin_nombre_10"/><linearGradient id="Degradado_sin_nombre_10-3" x1="255.52" y1="424.22" x2="180.25" y2="458.99" xlink:href="#Degradado_sin_nombre_10"/><linearGradient id="Degradado_sin_nombre_10-4" x1="276.68" y1="418.7" x2="192.18" y2="457.73" xlink:href="#Degradado_sin_nombre_10"/><linearGradient id="Degradado_sin_nombre_10-5" x1="611.1" y1="411.21" x2="561.33" y2="442.36" xlink:href="#Degradado_sin_nombre_10"/><linearGradient id="Degradado_sin_nombre_10-6" x1="590.99" y1="355.19" x2="558.07" y2="412.09" xlink:href="#Degradado_sin_nombre_10"/><linearGradient id="linear-gradient" x1="350.61" y1="442.79" x2="405" y2="418.01" gradientUnits="userSpaceOnUse"><stop offset="0" stop-color="#1da493"/><stop offset="0.22" stop-color="#2eb09f"/><stop offset="1" stop-color="#68d9c8"/></linearGradient><linearGradient id="linear-gradient-2" x1="396.82" y1="239.22" x2="412.19" y2="235.51" xlink:href="#linear-gradient"/><linearGradient id="linear-gradient-3" x1="401.9" y1="246.8" x2="432.1" y2="239.49" xlink:href="#linear-gradient"/></defs><title>de endelige </title><path class="cls-1" d="M466.07,213.86c-8.1.93-13.78,9.22-12.67,18.53s8.59,16.09,16.69,15.17,13.79-9.23,12.68-18.53S474.18,212.93,466.07,213.86Z"/><path class="cls-2" d="M92.78,438.57c.24-41.76,30.93-75.44,68.55-75.22A62.64,62.64,0,0,1,195,373.48a89.32,89.32,0,0,1-4.86-29.69c.27-45,33.36-81.35,73.92-81.11a66.59,66.59,0,0,1,21.71,3.76c19.36-56.36,68.62-96.28,126.12-95.94,62.34.37,114.46,47.95,129.06,112.07a76.53,76.53,0,0,1,17.41-1.91c45.38.27,82.14,40.27,83.76,90.15a64.64,64.64,0,0,1,28.18-6.3c39.17.23,70.71,35.67,70.45,79.16-.2,33.91-21.9,68.05-52.33,75.16-37.37,8.74-75.8,3.61-113.58,2.93l-124-2.26L202.73,515l-24.8-.45C136.29,513.77,92.47,492.06,92.78,438.57Z"/><rect class="cls-3" x="185.28" y="433.26" width="10.57" height="26.82" rx="1"/><rect class="cls-4" x="203.09" y="424.32" width="10.57" height="35.76" rx="1"/><rect class="cls-5" x="220.9" y="415.48" width="10.57" height="44.6" rx="1"/><rect class="cls-6" x="238.46" y="407.58" width="10.57" height="52.68" rx="1"/><path class="cls-7" d="M195,431.94h-8.81a2.19,2.19,0,0,0-2.19,2.2V459.2a2.19,2.19,0,0,0,2.19,2.19H195a2.2,2.2,0,0,0,2.2-2.19V434.14A2.2,2.2,0,0,0,195,431.94Zm-.44,26.82H186.6V434.57h7.93Z"/><path class="cls-7" d="M212.78,423H204a2.2,2.2,0,0,0-2.2,2.19v34a2.2,2.2,0,0,0,2.2,2.19h8.81a2.2,2.2,0,0,0,2.2-2.19v-34A2.2,2.2,0,0,0,212.78,423Zm-.44,35.76h-7.93V425.63h7.93Z"/><path class="cls-7" d="M230.59,414.06h-8.82a2.19,2.19,0,0,0-2.19,2.19V459.2a2.19,2.19,0,0,0,2.19,2.19h8.82a2.19,2.19,0,0,0,2.19-2.19V416.25A2.19,2.19,0,0,0,230.59,414.06Zm-.44,44.7h-7.94V416.69h7.94Z"/><path class="cls-7" d="M248.39,405.12h-8.81a2.19,2.19,0,0,0-2.19,2.19V459.2a2.19,2.19,0,0,0,2.19,2.19h8.81a2.2,2.2,0,0,0,2.2-2.19V407.31A2.2,2.2,0,0,0,248.39,405.12ZM248,458.76H240v-51H248Z"/><path class="cls-7" d="M185.26,407.75h.21c2.91,0,30.69-.81,64.66-30.26a1.32,1.32,0,1,0-1.72-2c-34.33,29.76-62.83,29.63-63.1,29.62a1.34,1.34,0,0,0-1.34,1.29A1.32,1.32,0,0,0,185.26,407.75Z"/><path class="cls-7" d="M247.94,388.59a1.33,1.33,0,0,1-.28,0,1.32,1.32,0,0,1-1-1.57l2.18-9.84h-9a1.32,1.32,0,1,1,0-2.63h12.27l-2.89,13A1.32,1.32,0,0,1,247.94,388.59Z"/><path class="cls-8" d="M554.74,421H590.4V384.93A36.06,36.06,0,1,1,554.74,421Z"/><path class="cls-7" d="M590.4,458.36a37.22,37.22,0,0,1-37-37.37v-1.32h35.67V383.62h1.31a37.37,37.37,0,0,1,0,74.74ZM556.08,422.3a34.36,34.36,0,1,0,35.64-36v36Z"/><path class="cls-9" d="M543.65,411.08A35.86,35.86,0,0,1,579.32,375v36.05Z"/><line class="cls-10" x1="579.32" y1="393.05" x2="564.64" y2="378.22"/><line class="cls-10" x1="579.32" y1="410.35" x2="554.18" y2="384.93"/><line class="cls-10" x1="563.29" y1="411.44" x2="547.27" y2="395.25"/><path class="cls-7" d="M580.63,412.4H542.34v-1.32a37.22,37.22,0,0,1,37-37.37h1.31ZM545,409.76h33V376.37A34.59,34.59,0,0,0,545,409.76Z"/><rect class="cls-7" x="570.66" y="375.2" width="2.63" height="20.87" transform="translate(-105.86 513.74) rotate(-44.69)"/><rect class="cls-7" x="565.43" y="379.77" width="2.63" height="35.75" transform="translate(-115.82 513.51) rotate(-44.69)"/><rect class="cls-7" x="553.97" y="391.95" width="2.63" height="22.79" transform="translate(-123.14 507.1) rotate(-44.69)"/><path class="cls-11" d="M445.93,418.92A42.94,42.94,0,1,1,403,376,42.93,42.93,0,0,1,445.93,418.92Z"/><path class="cls-12" d="M403.14,462.87a44.26,44.26,0,1,1,44.27-44.25A44.3,44.3,0,0,1,403.14,462.87Zm0-85.87a41.62,41.62,0,1,0,41.64,41.62A41.66,41.66,0,0,0,403.14,377Z"/><path class="cls-12" d="M373.38,449.88l-2-1.7,9.54-11.3a2.8,2.8,0,0,0,.46-2.77l-2.68-7a5.27,5.27,0,0,1-.33-1.85v-4.76a3.12,3.12,0,0,0-.68-1.94l-4.61-5.79a4.62,4.62,0,0,1-1-2.84V388.28h2.64V409.9a1.93,1.93,0,0,0,.42,1.2l4.6,5.79a5.75,5.75,0,0,1,1.25,3.58v4.76a2.53,2.53,0,0,0,.17.91l2.67,7a5.45,5.45,0,0,1-.9,5.4Z"/><path class="cls-12" d="M383,458l-.75-2.52,19.33-5.7a3.32,3.32,0,0,0,2.33-2.65l2.42-15.29a1.15,1.15,0,0,0-.69-1.24l-15-6.34a5.41,5.41,0,0,1-3.3-5v-4.21a3.34,3.34,0,0,1,2.64-3.25l2.48-.52a2.42,2.42,0,0,0,1.89-2c2-13.81,2.25-14.05,3.58-14.06.29,0,1.73-.35,9-2.27a2,2,0,0,0,1.5-2v-5a3,3,0,0,0-1.4-2.53l-10.49-5.93,1.3-2.29,10.53,6A5.57,5.57,0,0,1,411,386v5a4.66,4.66,0,0,1-3.47,4.5c-5.32,1.41-7.6,2-8.64,2.21-.32,1.29-1,4.94-2,11.95a5.06,5.06,0,0,1-4,4.22l-2.48.52a.7.7,0,0,0-.54.68v4.21a2.76,2.76,0,0,0,1.69,2.55l15,6.35a3.77,3.77,0,0,1,2.26,4.07l-2.42,15.29a6,6,0,0,1-4.18,4.77Z"/><path class="cls-12" d="M437.74,444l-5.11-4a4.12,4.12,0,0,1-1.26-4.84l2.71-6.44-7.94-1.37a3.84,3.84,0,0,1-3.19-3.52l-.8-11.24a2.18,2.18,0,0,1,1.56-2.25l8.61-2.54a3,3,0,0,0,2.12-2.63l1-12.95,2.63.2-1,12.95a5.61,5.61,0,0,1-4,5l-8.27,2.44.77,10.88a1.22,1.22,0,0,0,1,1.11l8.55,1.48a2.13,2.13,0,0,1,1.61,2.94l-2.94,7a1.48,1.48,0,0,0,.45,1.74l5.11,4Z"/><path class="cls-12" d="M418.1,404.28a2,2,0,0,1-2-2v-7.52a2,2,0,0,1,2-2h8a2,2,0,0,1,2,2v6.15a2,2,0,0,1-1.64,1.94l-8,1.37Zm.66-8.83v6.07l6.71-1.14v-4.93Zm7.26,4.84Z"/><path class="cls-13" d="M401.71,337.45a2.19,2.19,0,0,1,2.19-2.2h0a2.2,2.2,0,0,1,2.2,2.2h0a2.2,2.2,0,0,1-2.2,2.19h0A2.19,2.19,0,0,1,401.71,337.45Zm0-13.17a2.2,2.2,0,0,1,2.19-2.2h0a2.21,2.21,0,0,1,2.2,2.2h0a2.2,2.2,0,0,1-2.2,2.19h0A2.19,2.19,0,0,1,401.71,324.28Zm0-13.17a2.19,2.19,0,0,1,2.19-2.19h0a2.2,2.2,0,0,1,2.2,2.19h0a2.21,2.21,0,0,1-2.2,2.2h0A2.2,2.2,0,0,1,401.71,311.11Z"/><path class="cls-13" d="M315.8,429.54a2.19,2.19,0,0,1,2.2-2.19h0a2.18,2.18,0,0,1,2.19,2.19h0a2.2,2.2,0,0,1-2.19,2.2h0A2.2,2.2,0,0,1,315.8,429.54Zm-13.17,0a2.19,2.19,0,0,1,2.2-2.19h0a2.18,2.18,0,0,1,2.19,2.19h0a2.2,2.2,0,0,1-2.19,2.2h0A2.21,2.21,0,0,1,302.63,429.54Zm-13.17,0a2.19,2.19,0,0,1,2.2-2.19h0a2.18,2.18,0,0,1,2.19,2.19h0a2.2,2.2,0,0,1-2.19,2.2h0A2.21,2.21,0,0,1,289.46,429.54Zm-13.17,0a2.19,2.19,0,0,1,2.2-2.19h0a2.18,2.18,0,0,1,2.19,2.19h0a2.2,2.2,0,0,1-2.19,2.2h0A2.21,2.21,0,0,1,276.29,429.54Zm-13.16,0a2.18,2.18,0,0,1,2.19-2.19h0a2.19,2.19,0,0,1,2.2,2.19h0a2.21,2.21,0,0,1-2.2,2.2h0A2.2,2.2,0,0,1,263.13,429.54Z"/><path class="cls-13" d="M534.18,429.54a2.2,2.2,0,0,1,2.2-2.19h0a2.19,2.19,0,0,1,2.19,2.19h0a2.2,2.2,0,0,1-2.19,2.2h0A2.21,2.21,0,0,1,534.18,429.54Zm-13.16,0a2.19,2.19,0,0,1,2.19-2.19h0a2.2,2.2,0,0,1,2.2,2.19h0a2.21,2.21,0,0,1-2.2,2.2h0A2.2,2.2,0,0,1,521,429.54Zm-13.17,0a2.19,2.19,0,0,1,2.19-2.19h0a2.2,2.2,0,0,1,2.2,2.19h0a2.21,2.21,0,0,1-2.2,2.2h0A2.2,2.2,0,0,1,507.85,429.54Zm-13.17,0a2.19,2.19,0,0,1,2.19-2.19h0a2.2,2.2,0,0,1,2.2,2.19h0a2.21,2.21,0,0,1-2.2,2.2h0A2.2,2.2,0,0,1,494.68,429.54Zm-13.17,0a2.19,2.19,0,0,1,2.19-2.19h0a2.19,2.19,0,0,1,2.2,2.19h0a2.2,2.2,0,0,1-2.2,2.2h0A2.2,2.2,0,0,1,481.51,429.54Z"/><path class="cls-1" d="M364.76,286.53,378,300.28a1.62,1.62,0,0,0,2.35,0l6.62-6.83h28a3.3,3.3,0,0,0,2.3-.93l36.54-34.87a6.18,6.18,0,0,0,.26-8.67h0a6.18,6.18,0,0,0-8.77-.3l-17.47,16.46-42.3-1a2.66,2.66,0,0,0-2,.81l-18.78,19.34A1.64,1.64,0,0,0,364.76,286.53Z"/><path class="cls-14" d="M364.76,287.72,378,301.47a1.64,1.64,0,0,0,2.35,0l6.62-6.84h28a3.33,3.33,0,0,0,2.3-.92l36.54-34.87a6.19,6.19,0,0,0,.26-8.68h0a6.19,6.19,0,0,0-8.77-.29l-17.47,16.46-42.3-1a2.67,2.67,0,0,0-2,.82l-18.78,19.34A1.64,1.64,0,0,0,364.76,287.72Z"/><path class="cls-13" d="M424.43,279.17H403.48a1.32,1.32,0,1,1,0-2.63h20.95a5,5,0,0,0,5-5c0-2.77-2.65-4-5.28-4a1.32,1.32,0,1,1,0-2.63c4.66,0,7.92,2.73,7.92,6.64A7.63,7.63,0,0,1,424.43,279.17Z"/><path class="cls-15" d="M411.76,237.69a31.09,31.09,0,0,1-5.65,15.94,1.76,1.76,0,0,1-2.45.45,2.16,2.16,0,0,1-.41-.39c-12.33-16.27-3.5-28.76.26-32.88a1.78,1.78,0,0,1,2.73.12A25.76,25.76,0,0,1,411.76,237.69Z"/><path class="cls-16" d="M430.62,234.19c-4.19,17.29-19.42,20.24-25.31,20.73a1.75,1.75,0,0,1-1.65-.84,1.76,1.76,0,0,0,2.45-.45,31.09,31.09,0,0,0,5.65-15.94c6.17-5.45,13.67-5.85,17.21-5.68A1.78,1.78,0,0,1,430.62,234.19Z"/><path class="cls-12" d="M431.38,231.94a3.14,3.14,0,0,0-2.34-1.25A26.23,26.23,0,0,0,413,235a27.49,27.49,0,0,0-5.74-14.89,3.05,3.05,0,0,0-2.33-1.23,3.13,3.13,0,0,0-2.43,1c-3.39,3.73-13.45,17.25-.33,34.56a2.9,2.9,0,0,0,.49.5,3.09,3.09,0,0,0,2.48,1.26h.25c6.51-.54,22.12-3.75,26.48-21.73A3,3,0,0,0,431.38,231.94Zm-26.9-10.25a.5.5,0,0,1,.34-.15h0a.5.5,0,0,1,.35.18,24.56,24.56,0,0,1,5.25,15.92c0,.29,0,.58-.06.87s0,.28,0,.41l0,.26a30.27,30.27,0,0,1-5.3,13.71.39.39,0,0,1-.27.17.44.44,0,0,1-.34-.07h0a.47.47,0,0,1-.1-.1C392.73,237.63,400.57,226,404.48,221.69Zm24.86,12.19c-3.44,14.17-14.63,18.23-21.4,19.38l0-.07.14-.22c.1-.15.19-.3.28-.46l.17-.28.26-.45.19-.32.26-.49.18-.34c.09-.18.19-.36.28-.55s.11-.21.16-.32c.14-.29.29-.59.43-.9,0-.06.05-.13.08-.19.11-.25.23-.51.34-.78l.15-.38c.08-.21.17-.42.25-.64l.16-.43c.08-.21.15-.43.22-.64s.11-.3.15-.46.14-.44.21-.67.09-.31.14-.46.13-.49.19-.74.07-.28.11-.43c.08-.34.15-.68.22-1a1.18,1.18,0,0,0,0-.2q.12-.59.21-1.2l.06-.45c0-.27.07-.55.1-.82s0-.36,0-.54,0-.31,0-.48a23.09,23.09,0,0,1,15.87-5,.46.46,0,0,1,.35.19.43.43,0,0,1,.08.37Z"/><path class="cls-13" d="M270.58,375.24a2.19,2.19,0,0,1,.15-3.1h0a2.21,2.21,0,0,1,3.1.15h0a2.21,2.21,0,0,1-.15,3.1h0a2.14,2.14,0,0,1-1.48.57h0A2.15,2.15,0,0,1,270.58,375.24Zm9.74-8.86a2.2,2.2,0,0,1,.15-3.09h0a2.21,2.21,0,0,1,3.11.14h0a2.2,2.2,0,0,1-.15,3.1h0a2.16,2.16,0,0,1-1.48.58h0A2.18,2.18,0,0,1,280.32,366.38Zm9.76-8.85a2.18,2.18,0,0,1,.15-3.09h0a2.2,2.2,0,0,1,3.1.14h0a2.21,2.21,0,0,1-.15,3.1h0a2.2,2.2,0,0,1-1.48.57h0A2.16,2.16,0,0,1,290.08,357.53Zm9.74-8.85a2.21,2.21,0,0,1,.15-3.1h0a2.2,2.2,0,0,1,3.1.15h0a2.19,2.19,0,0,1-.15,3.1h0a2.19,2.19,0,0,1-1.47.57h0A2.19,2.19,0,0,1,299.82,348.68Zm9.75-8.85a2.2,2.2,0,0,1,.15-3.1h0a2.19,2.19,0,0,1,3.1.15h0a2.21,2.21,0,0,1-.14,3.1h0a2.27,2.27,0,0,1-1.48.57h0A2.23,2.23,0,0,1,309.57,339.83Zm9.75-8.85a2.21,2.21,0,0,1,.15-3.11h0a2.2,2.2,0,0,1,3.1.15h0a2.19,2.19,0,0,1-.15,3.1h0a2.19,2.19,0,0,1-1.47.57h0A2.21,2.21,0,0,1,319.32,331Zm9.75-8.86a2.19,2.19,0,0,1,.15-3.1h0a2.19,2.19,0,0,1,3.1.14h0a2.22,2.22,0,0,1-.15,3.11h0a2.2,2.2,0,0,1-1.48.57h0A2.21,2.21,0,0,1,329.07,322.12Zm9.74-8.86a2.21,2.21,0,0,1,.15-3.1h0a2.22,2.22,0,0,1,3.11.15h0a2.21,2.21,0,0,1-.15,3.1h0a2.15,2.15,0,0,1-1.48.57h0A2.21,2.21,0,0,1,338.81,313.26Zm9.76-8.85a2.2,2.2,0,0,1,.14-3.1h0a2.2,2.2,0,0,1,3.1.15h0a2.19,2.19,0,0,1-.15,3.1h0a2.18,2.18,0,0,1-1.47.57h0A2.16,2.16,0,0,1,348.57,304.41Z"/><path class="cls-13" d="M527.56,375.39a2.2,2.2,0,0,1-.14-3.1h0a2.21,2.21,0,0,1,3.1-.15h0a2.2,2.2,0,0,1,.15,3.1h0a2.17,2.17,0,0,1-1.62.72h0A2.19,2.19,0,0,1,527.56,375.39Zm-9.74-8.86a2.19,2.19,0,0,1-.15-3.1h0a2.21,2.21,0,0,1,3.1-.14h0a2.19,2.19,0,0,1,.15,3.1h0a2.17,2.17,0,0,1-1.63.71h0A2.15,2.15,0,0,1,517.82,366.53Zm-9.75-8.85a2.19,2.19,0,0,1-.14-3.1h0a2.18,2.18,0,0,1,3.09-.14h0a2.18,2.18,0,0,1,.15,3.09h0a2.16,2.16,0,0,1-1.62.72h0A2.22,2.22,0,0,1,508.07,357.68Zm-9.74-8.85a2.2,2.2,0,0,1-.16-3.1h0a2.2,2.2,0,0,1,3.11-.14h0a2.19,2.19,0,0,1,.14,3.1h0a2.18,2.18,0,0,1-1.62.71h0A2.18,2.18,0,0,1,498.33,348.83ZM488.58,340a2.19,2.19,0,0,1-.15-3.1h0a2.19,2.19,0,0,1,3.1-.15h0a2.2,2.2,0,0,1,.15,3.1h0a2.23,2.23,0,0,1-1.63.72h0A2.23,2.23,0,0,1,488.58,340Zm-9.75-8.86a2.21,2.21,0,0,1-.15-3.1h0a2.19,2.19,0,0,1,3.1-.15h0a2.19,2.19,0,0,1,.15,3.1h0a2.19,2.19,0,0,1-1.62.72h0A2.2,2.2,0,0,1,478.83,331.12Zm-9.75-8.85a2.19,2.19,0,0,1-.14-3.1h0A2.18,2.18,0,0,1,472,319h0a2.21,2.21,0,0,1,.15,3.1h0a2.23,2.23,0,0,1-1.63.72h0A2.22,2.22,0,0,1,469.08,322.27Zm-9.75-8.86a2.22,2.22,0,0,1-.15-3.1h0a2.21,2.21,0,0,1,3.1-.15h0a2.19,2.19,0,0,1,.15,3.1h0a2.17,2.17,0,0,1-1.62.72h0A2.15,2.15,0,0,1,459.33,313.41Zm-9.74-8.85a2.2,2.2,0,0,1-.15-3.11h0a2.21,2.21,0,0,1,3.1-.14h0a2.21,2.21,0,0,1,.15,3.1h0a2.18,2.18,0,0,1-1.63.72h0A2.19,2.19,0,0,1,449.59,304.56Z"/><path class="cls-13" d="M403.94,488.35Zm-2.2-2.2a2.19,2.19,0,0,1,2.2-2.19h0a2.19,2.19,0,0,1,2.19,2.19h0a2.2,2.2,0,0,1-2.19,2.2h0A2.21,2.21,0,0,1,401.74,486.15Zm-11.41.88a2.2,2.2,0,0,1-1.73-2.58h0a2.2,2.2,0,0,1,2.58-1.73h0a2.2,2.2,0,0,1,1.73,2.58h0a2.2,2.2,0,0,1-2.15,1.76h0A3.11,3.11,0,0,1,390.33,487ZM415,485.28a2.19,2.19,0,0,1,1.73-2.57h0a2.19,2.19,0,0,1,2.58,1.72h0a2.21,2.21,0,0,1-1.73,2.58h0a2.18,2.18,0,0,1-.44,0h0A2.2,2.2,0,0,1,415,485.28Zm-37.74-2.21h0A2.2,2.2,0,0,1,376,480.2h0a2.21,2.21,0,0,1,2.88-1.19h0a2.2,2.2,0,0,1,1.18,2.87h0a2.2,2.2,0,0,1-2,1.36h0A2.29,2.29,0,0,1,377.23,483.07Zm50.54-1.22A2.19,2.19,0,0,1,429,479h0a2.19,2.19,0,0,1,2.87,1.18h0a2.18,2.18,0,0,1-1.19,2.86h0a2.08,2.08,0,0,1-.84.18h0A2.2,2.2,0,0,1,427.77,481.85Zm-62.6-5.23a2.19,2.19,0,0,1-.61-3h0a2.2,2.2,0,0,1,3.05-.61h0a2.2,2.2,0,0,1,.6,3h0a2.21,2.21,0,0,1-1.82,1h0A2.17,2.17,0,0,1,365.17,476.62Zm74.48-.64a2.2,2.2,0,0,1,.61-3.05h0a2.18,2.18,0,0,1,3,.6h0a2.18,2.18,0,0,1-.6,3h0a2.1,2.1,0,0,1-1.22.38h0A2.21,2.21,0,0,1,439.65,476Zm-85.06-8a2.18,2.18,0,0,1,0-3.1h0a2.21,2.21,0,0,1,3.11,0h0a2.19,2.19,0,0,1,0,3.1h0a2.2,2.2,0,0,1-1.56.64h0A2.18,2.18,0,0,1,354.59,467.94Zm95.57-.05a2.22,2.22,0,0,1,0-3.11h0a2.22,2.22,0,0,1,3.11,0h0a2.2,2.2,0,0,1,0,3.11h0a2.2,2.2,0,0,1-1.56.64h0A2.18,2.18,0,0,1,450.16,467.89ZM345.9,457.38a2.18,2.18,0,0,1,.6-3h0a2.19,2.19,0,0,1,3,.6h0a2.19,2.19,0,0,1-.6,3.05h0a2.26,2.26,0,0,1-1.22.37h0A2.2,2.2,0,0,1,345.9,457.38Zm113,.55a2.2,2.2,0,0,1-.6-3.05h0a2.2,2.2,0,0,1,3-.6h0a2.2,2.2,0,0,1,.61,3.05h0a2.19,2.19,0,0,1-1.83,1h0A2.28,2.28,0,0,1,458.9,457.93Zm-119.47-12.6a2.2,2.2,0,0,1,1.18-2.87h0a2.2,2.2,0,0,1,2.87,1.18h0a2.2,2.2,0,0,1-1.18,2.87h0a2.15,2.15,0,0,1-.85.17h0A2.19,2.19,0,0,1,339.43,445.33Zm126.11,1.11a2.18,2.18,0,0,1-1.19-2.86h0a2.19,2.19,0,0,1,2.87-1.19h0a2.19,2.19,0,0,1,1.18,2.87h0a2.2,2.2,0,0,1-2,1.35h0A2,2,0,0,1,465.54,446.44Zm-130.09-14.2h0a2.19,2.19,0,0,1,1.72-2.59h0a2.19,2.19,0,0,1,2.58,1.73h0A2.2,2.2,0,0,1,338,434h0a3.28,3.28,0,0,1-.43,0h0A2.2,2.2,0,0,1,335.45,432.24Zm134.34,1.65a2.19,2.19,0,0,1-1.73-2.57h0a2.18,2.18,0,0,1,2.57-1.72h0a2.18,2.18,0,0,1,1.73,2.57h0a2.2,2.2,0,0,1-2.15,1.77h0A3.13,3.13,0,0,1,469.79,433.89ZM334.11,418.63a2.2,2.2,0,0,1,2.19-2.2h0a2.2,2.2,0,0,1,2.2,2.19h0a2.21,2.21,0,0,1-2.2,2.2h0A2.19,2.19,0,0,1,334.11,418.63Zm135.2-.08v-.08h0v-.07h0a2.2,2.2,0,0,1,2.18-2.2h0a2.21,2.21,0,0,1,2.21,2.19h0v.08h0v.08h0a2.21,2.21,0,0,1-2.2,2.2h0A2.2,2.2,0,0,1,469.31,418.55Zm-132.17-11a2.2,2.2,0,0,1-1.73-2.57h0a2.2,2.2,0,0,1,2.58-1.73h0a2.19,2.19,0,0,1,1.73,2.57h0a2.19,2.19,0,0,1-2.15,1.78h0A1.63,1.63,0,0,1,337.14,407.59ZM468,405.64a2.2,2.2,0,0,1,1.72-2.58h0a2.18,2.18,0,0,1,2.58,1.72h0a2.19,2.19,0,0,1-1.72,2.59h0a3.13,3.13,0,0,1-.43,0h0A2.2,2.2,0,0,1,468,405.64ZM340.56,394.78a2.2,2.2,0,0,1-1.2-2.87h0a2.21,2.21,0,0,1,2.88-1.18h0a2.2,2.2,0,0,1,1.18,2.87h0a2.19,2.19,0,0,1-2,1.36h0A2,2,0,0,1,340.56,394.78Zm123.73-1.39h0a2.18,2.18,0,0,1,1.18-2.86h0a2.18,2.18,0,0,1,2.87,1.17h0a2.2,2.2,0,0,1-1.18,2.88h0a2.28,2.28,0,0,1-.84.16h0A2.19,2.19,0,0,1,464.29,393.39Zm-117.88-10.5a2.2,2.2,0,0,1-.6-3h0a2.18,2.18,0,0,1,3-.6h0a2.18,2.18,0,0,1,.61,3h0a2.19,2.19,0,0,1-1.83,1h0A2.22,2.22,0,0,1,346.41,382.89Zm111.81-.79a2.18,2.18,0,0,1,.59-3.05h0a2.2,2.2,0,0,1,3.05.6h0a2.2,2.2,0,0,1-.6,3.05h0a2.18,2.18,0,0,1-1.22.37h0A2.18,2.18,0,0,1,458.22,382.1Zm-103.74-9.73a2.18,2.18,0,0,1,0-3.1h0a2.18,2.18,0,0,1,3.1,0h0a2.21,2.21,0,0,1,0,3.11h0A2.21,2.21,0,0,1,356,373h0A2.18,2.18,0,0,1,354.48,372.37Zm95.57-.17a2.18,2.18,0,0,1,0-3.09h0a2.19,2.19,0,0,1,3.1,0h0a2.19,2.19,0,0,1,0,3.1h0a2.15,2.15,0,0,1-1.55.65h0A2.16,2.16,0,0,1,450.05,372.2Zm-85.61-8.58a2.2,2.2,0,0,1,.59-3.05h0a2.19,2.19,0,0,1,3.05.6h0a2.19,2.19,0,0,1-.6,3.05h0a2.25,2.25,0,0,1-1.22.36h0A2.19,2.19,0,0,1,364.44,363.62Zm75.69.47a2.18,2.18,0,0,1-.6-3h0a2.17,2.17,0,0,1,3-.61h0a2.19,2.19,0,0,1,.62,3h0a2.19,2.19,0,0,1-1.83,1h0A2.21,2.21,0,0,1,440.13,364.09ZM375.9,357a2.21,2.21,0,0,1,1.18-2.87h0a2.19,2.19,0,0,1,2.87,1.19h0a2.19,2.19,0,0,1-1.18,2.87h0a2.13,2.13,0,0,1-.85.18h0A2.18,2.18,0,0,1,375.9,357Zm52.92,1.1a2.2,2.2,0,0,1-1.19-2.87h0a2.18,2.18,0,0,1,2.86-1.18h0a2.19,2.19,0,0,1,1.2,2.86h0a2.21,2.21,0,0,1-2,1.36h0A2.1,2.1,0,0,1,428.82,358.06Zm-40.37-5.37a2.18,2.18,0,0,1,1.72-2.58h0a2.19,2.19,0,0,1,2.58,1.72h0a2.19,2.19,0,0,1-1.72,2.58h0a2.09,2.09,0,0,1-.43,0h0A2.19,2.19,0,0,1,388.45,352.69Zm28.1,1.68a2.22,2.22,0,0,1-1.74-2.58h0a2.2,2.2,0,0,1,2.58-1.73h0a2.19,2.19,0,0,1,1.73,2.58h0a2.19,2.19,0,0,1-2.15,1.77h0A3,3,0,0,1,416.55,354.37Zm-15-3.42a2.18,2.18,0,0,1,2.19-2.19h0a2.19,2.19,0,0,1,2.2,2.18h0a2.21,2.21,0,0,1-2.19,2.21h0A2.19,2.19,0,0,1,401.59,351Z"/></svg>