<svg id="Layer_1" data-name="Layer 1" xmlns="http://www.w3.org/2000/svg" xmlns:xlink="http://www.w3.org/1999/xlink" viewBox="0 0 800 800"><defs><style>.cls-1{fill:url(#linear-gradient);}.cls-2{fill:#fff0e6;}.cls-3{fill:url(#linear-gradient-2);}.cls-4{fill:url(#linear-gradient-3);}.cls-5{fill:url(#linear-gradient-4);}.cls-6{fill:url(#linear-gradient-5);}.cls-7{fill:url(#linear-gradient-6);}.cls-8{fill:url(#linear-gradient-7);}.cls-9{fill:url(#linear-gradient-8);}.cls-10{fill:url(#linear-gradient-9);}.cls-11{fill:url(#linear-gradient-10);}.cls-12{fill:#fff;}.cls-13{fill:url(#linear-gradient-11);}.cls-14{fill:url(#linear-gradient-12);}.cls-15{fill:#1b1464;}.cls-16{fill:url(#linear-gradient-13);}.cls-17{fill:url(#linear-gradient-14);}.cls-18{fill:url(#linear-gradient-15);}.cls-19{fill:#1d2ad6;}.cls-20,.cls-21{fill:none;stroke-linecap:round;stroke-miterlimit:10;}.cls-20{stroke:#fff;}.cls-21{stroke:#999da3;stroke-width:2px;opacity:0.4;}.cls-22{fill:url(#linear-gradient-16);}.cls-23{fill:url(#linear-gradient-17);}.cls-24{fill:url(#linear-gradient-18);}.cls-25{fill:url(#linear-gradient-19);}.cls-26{fill:url(#linear-gradient-20);}.cls-27{fill:url(#linear-gradient-21);}.cls-28{fill:url(#linear-gradient-22);}.cls-29{fill:url(#linear-gradient-23);}.cls-30{fill:url(#linear-gradient-24);}.cls-31{fill:url(#linear-gradient-25);}.cls-32{fill:url(#linear-gradient-26);}.cls-33{fill:url(#linear-gradient-27);}.cls-34{fill:url(#linear-gradient-28);}.cls-35{fill:url(#linear-gradient-29);}.cls-36{fill:#161336;}.cls-37{fill:url(#linear-gradient-30);}.cls-38{fill:#ff7017;}</style><linearGradient id="linear-gradient" x1="391.64" y1="113.51" x2="538.16" y2="449.51" gradientUnits="userSpaceOnUse"><stop offset="0" stop-color="#ff8f00"/><stop offset="0.35" stop-color="#ff8c00"/><stop offset="0.6" stop-color="#ff8300"/><stop offset="0.81" stop-color="#ff7300"/><stop offset="1" stop-color="#ff5f00"/></linearGradient><linearGradient id="linear-gradient-2" x1="491.75" y1="613.44" x2="190.17" y2="389.51" gradientUnits="userSpaceOnUse"><stop offset="0.3" stop-color="#1da493"/><stop offset="0.44" stop-color="#2eb09f"/><stop offset="0.91" stop-color="#68d9c8"/></linearGradient><linearGradient id="linear-gradient-3" x1="654.52" y1="623.67" x2="229.81" y2="351.05" gradientUnits="userSpaceOnUse"><stop offset="0" stop-color="#1da493"/><stop offset="0.22" stop-color="#2eb09f"/><stop offset="1" stop-color="#68d9c8"/></linearGradient><linearGradient id="linear-gradient-4" x1="263.35" y1="460.62" x2="828.68" y2="579.43" xlink:href="#linear-gradient-3"/><linearGradient id="linear-gradient-5" x1="287.54" y1="489.09" x2="852.86" y2="607.89" gradientTransform="translate(-80.52 15.36) rotate(2.98)" xlink:href="#linear-gradient-3"/><linearGradient id="linear-gradient-6" x1="310.23" y1="268.73" x2="646.33" y2="660.24" xlink:href="#linear-gradient"/><linearGradient id="linear-gradient-7" x1="303.3" y1="414.07" x2="868.63" y2="532.88" gradientTransform="translate(-80.52 15.36) rotate(2.98)" gradientUnits="userSpaceOnUse"><stop offset="0" stop-color="#161336"/><stop offset="0.11" stop-color="#161346"/><stop offset="0.26" stop-color="#161358"/><stop offset="0.37" stop-color="#16135e"/><stop offset="1" stop-color="#2c138b"/></linearGradient><linearGradient id="linear-gradient-8" x1="302.2" y1="419.33" x2="867.52" y2="538.13" gradientTransform="translate(-80.52 15.36) rotate(2.98)" gradientUnits="userSpaceOnUse"><stop offset="0" stop-color="#2b34ed"/><stop offset="0.47" stop-color="#2b57ed"/><stop offset="1" stop-color="#2b73ed"/></linearGradient><linearGradient id="linear-gradient-9" x1="292.54" y1="465.3" x2="857.86" y2="584.11" xlink:href="#linear-gradient-8"/><linearGradient id="linear-gradient-10" x1="296.53" y1="446.29" x2="861.86" y2="565.09" gradientTransform="translate(-80.52 15.36) rotate(2.98)" xlink:href="#linear-gradient"/><linearGradient id="linear-gradient-11" x1="214.94" y1="506.26" x2="203.25" y2="516.61" gradientUnits="userSpaceOnUse"><stop offset="0.22" stop-color="#2c138b"/><stop offset="0.4" stop-color="#211375"/><stop offset="0.61" stop-color="#16135e"/><stop offset="0.84" stop-color="#161349"/><stop offset="1" stop-color="#161336"/></linearGradient><linearGradient id="linear-gradient-12" x1="173.76" y1="419.82" x2="111.01" y2="475.37" xlink:href="#linear-gradient-11"/><linearGradient id="linear-gradient-13" x1="172.5" y1="385.99" x2="117.44" y2="487.17" gradientUnits="userSpaceOnUse"><stop offset="0" stop-color="#2c138b"/><stop offset="0.54" stop-color="#16135e"/><stop offset="0.71" stop-color="#16135b"/><stop offset="0.83" stop-color="#161352"/><stop offset="0.94" stop-color="#161342"/><stop offset="1" stop-color="#161336"/></linearGradient><linearGradient id="linear-gradient-14" x1="174.45" y1="425.44" x2="174.13" y2="426.02" xlink:href="#linear-gradient-13"/><linearGradient id="linear-gradient-15" x1="86.39" y1="349.69" x2="135.03" y2="435.53" xlink:href="#linear-gradient"/><linearGradient id="linear-gradient-16" x1="305.72" y1="1092.79" x2="317.35" y2="1115.02" gradientTransform="translate(224.27 -680.04) rotate(17.08)" xlink:href="#linear-gradient-11"/><linearGradient id="linear-gradient-17" x1="286.56" y1="1100.41" x2="327.02" y2="1120.15" gradientTransform="translate(224.27 -680.04) rotate(17.08)" xlink:href="#linear-gradient-8"/><linearGradient id="linear-gradient-18" x1="300.83" y1="1098.26" x2="308.1" y2="1129.34" gradientTransform="translate(224.27 -680.04) rotate(17.08)" xlink:href="#linear-gradient"/><linearGradient id="linear-gradient-19" x1="285.94" y1="1142.06" x2="305.66" y2="1142.06" gradientTransform="translate(224.27 -680.04) rotate(17.08)" xlink:href="#linear-gradient-8"/><linearGradient id="linear-gradient-20" x1="282.09" y1="1144.68" x2="288.86" y2="1144.68" gradientTransform="translate(224.27 -680.04) rotate(17.08)" xlink:href="#linear-gradient"/><linearGradient id="linear-gradient-21" x1="282.03" y1="1135.37" x2="301.87" y2="1135.37" gradientTransform="translate(224.27 -680.04) rotate(17.08)" xlink:href="#linear-gradient-11"/><linearGradient id="linear-gradient-22" x1="574.74" y1="1277.34" x2="531.52" y2="1253.77" gradientTransform="matrix(1.08, 0.41, -0.22, 1.03, -189.74, -1063.63)" xlink:href="#linear-gradient"/><linearGradient id="linear-gradient-23" x1="138.9" y1="1051.4" x2="95.67" y2="1027.83" gradientTransform="matrix(0.92, 0.25, -0.32, 0.93, 362.76, -539.13)" xlink:href="#linear-gradient"/><linearGradient id="linear-gradient-24" x1="-890.01" y1="534.09" x2="-933.27" y2="510.5" gradientTransform="matrix(0.72, 0.07, -0.45, 0.8, 1042.45, 103.47)" xlink:href="#linear-gradient"/><linearGradient id="linear-gradient-25" x1="-3019.78" y1="-666.91" x2="-3063.05" y2="-690.5" gradientTransform="matrix(0.58, -0.09, -0.54, 0.71, 1543.7, 658.48)" xlink:href="#linear-gradient"/><linearGradient id="linear-gradient-26" x1="348.1" y1="1217.12" x2="304.85" y2="1193.53" gradientTransform="matrix(0.96, 0.34, -0.31, 0.96, 217.13, -822.64)" xlink:href="#linear-gradient"/><linearGradient id="linear-gradient-27" x1="-148.17" y1="948.49" x2="-191.44" y2="924.9" gradientTransform="matrix(0.83, 0.2, -0.4, 0.87, 674.39, -340.3)" xlink:href="#linear-gradient"/><linearGradient id="linear-gradient-28" x1="267.46" y1="1068.34" x2="266.64" y2="1050.42" gradientTransform="translate(214.53 -691.4) rotate(17.17)" xlink:href="#linear-gradient-2"/><linearGradient id="linear-gradient-29" x1="424.41" y1="98.69" x2="570.52" y2="433.76" xlink:href="#linear-gradient"/><linearGradient id="linear-gradient-30" x1="569.3" y1="389.69" x2="574.89" y2="532.47" gradientTransform="translate(-46.16 -21.09) rotate(6.91)" xlink:href="#linear-gradient-3"/></defs><title>de endelige </title><path class="cls-1" d="M747.66,426.67a.06.06,0,0,1,0,0c-.51,1.81-1,3.6-1.63,5.35h0c-.46,1.4-1,2.78-1.45,4.12-9.91,26.31-28.85,47.52-51.49,62h0a140.92,140.92,0,0,1-29.31,14.31,83.47,83.47,0,0,1-9,2.64c-3.71.88-7.44,1.56-11.17,2.07-16.41,2.22-33,1.19-49.57-.41l-4.89-.47c-4.46-.46-8.93-.93-13.38-1.36-5.35-.53-10.68-1-16-1.35-31.34-2-62.72-3.43-93.95-6.37-10.89-1-21.76-2.25-32.61-3.75-.27,0-.55-.07-.82-.12-2-.27-4-.56-6-.86-7.84-1.17-15.66-2.49-23.47-4l-1.09-.21c-5.71-1.13-11.42-2.33-17.09-3.68A230.93,230.93,0,0,1,346,482.17c-1.87-.81-3.71-1.65-5.55-2.53a137.58,137.58,0,0,1-31.22-20.27,110,110,0,0,1-18.91-21.18,90,90,0,0,1-14.9-38.48c-.11-.8-.21-1.59-.3-2.39a100.46,100.46,0,0,1,4.69-42.15q.76-2.34,1.64-4.65a128,128,0,0,1,21.82-37.06c.48-.58,1-1.16,1.47-1.73,15.07-17.38,27.52-38.06,33.63-61.08,6.4-24.1,5.8-49.71,18.51-71.7,19.12-33.11,54.93-47.25,90-45.22,18.89,1.09,37.18,5.57,52.17,18.43,8.46,7.24,16.17,15.59,25.44,21.58,21.24,13.7,46.87,12.77,70.52,17C618,195,637.57,206,649.5,228.42c11,20.64,13.18,44.4,18.8,67,4.33,17.42,13.32,35.89,31.38,39,13.85,2.41,26.7,6.9,36.18,16.08a46.74,46.74,0,0,1,10.19,14.64C754.25,383.37,753.18,406.93,747.66,426.67Z"/><path class="cls-2" d="M488.5,252.85l-4.16-50.67-14.43.53c-.23-2.29-.54-4.57-1-6.82a50.35,50.35,0,0,0-2.27-8.44c-3.52-9.6-9.81-18.51-18.31-24.32-8.67-5.91-20.12-4.93-30-3.52-13.22,1.88-29.65,5.88-37.65,17.48-3.26,4.73,3.26,11.91,1.38,17.31-1.35,3.84-13.12,67.18-13.12,67.18a4.19,4.19,0,0,0,4.14,4.27l10.81.12a34.72,34.72,0,0,0,7,12.16q.92,1,1.92,2C403,290,419,294.39,435.27,290.84l3.4,43.92c1,12.74,11.35,12.1,24.1,11.06,10.6-.86,21.61-6.92,27.51-10.66,2.73-1.72,4.36-3,4.36-3Z"/><path class="cls-3" d="M412.82,332.08,400.44,476.15l-2.93,45.94s-3.08,12.3-9.43,29.47q-.93,2.55-2,5.33h0c-14.74,39-44.54,106.64-90.06,112-55.89,6.54-93-61.28-113.11-113.62-3.5-9.12-6.48-17.77-9-25.47-3-9.19-5.2-17-6.72-22.74-.52-1.91-.95-3.57-1.31-5-.81-3.2-1.21-5-1.21-5l10.71-5.53,3.66-1.89,10.28-5.3,2.56-1.33,1.68-.88,8.54-4.4,4.75-2.46L217.31,470l.07,0,2.15-1.11s.5,1.76,1.45,4.83a.07.07,0,0,1,0,.07c.59,1.87,1.33,4.22,2.22,7,2.29,7,5.55,16.5,9.53,26.89,11.77,30.72,29.88,69.09,48,72.8,16.85,3.46,41.79-59.28,62.45-119.44,16.85-49,30.85-96.34,35.34-104.73a40.49,40.49,0,0,1,12-13.91,41.21,41.21,0,0,1,8-4.15c1.29-.53,3-1.29,4.83-2.13l2-.79c.73-.28,1.43-.56,2.12-.86l2.06-.85C410.65,333,411.76,332.55,412.82,332.08Z"/><path class="cls-4" d="M637.3,473.13c-.21-.71-.39-1.39-.58-2.08q-.69-2.57-1.35-5c-.17-.58-.33-1.19-.5-1.76-1.14-3.95-2.33-7.88-3.55-11.82q-.75-2.46-1.55-4.91c-.63-2-1.26-3.93-1.91-5.89-.23-.69-.46-1.38-.68-2.07-.76-2.33-1.54-4.66-2.33-7-.85-2.5-1.7-5-2.58-7.5-.27-.75-.53-1.52-.81-2.31-7.26-21.22-12.84-42.82-30.1-57.14l-.06-.05c-.55-.47-1.13-.92-1.71-1.37a59.58,59.58,0,0,0-5.72-3.87,118.71,118.71,0,0,0-22.11-10.06l-.48-.16-1.07-.38c-1.83-.65-3.69-1.28-5.56-1.93-5.5-1.91-11.19-3.95-17.49-6.84l-5.88-2.67-.13-.05a2.16,2.16,0,0,1-.2-.09l-.37-.14h0l-.15-.05-.73-.24a3.22,3.22,0,0,1-.37-.12c-6.42-2.2-30.51-11.22-32.22-24.77-1-7.88-2.29-11.94-2.68-14.34,0-.07,0-.16,0-.22-.43,0-1.24,0-2.36.05l-5.66.11h-.75c-11.92.25-38.7.59-49.7.72l-4.87.07s2.68,18.72.6,21.21c-2.64,3.19-7.28,5.43-10.81,7.51a77.53,77.53,0,0,1-8,4c-1.06.47-2.17.95-3.29,1.41l-2.06.85c-.69.3-1.39.58-2.12.86l-2,.79c-1.81.83-3.49,1.58-4.78,2.11l-.05,0a41.21,41.21,0,0,0-8,4.15q-1.72,19.69-3.44,39.41c-.08.77-.14,1.55-.2,2.31q-1.35,15.31-2.66,30.63c-.74,8.44-1.4,16.74-1.84,25-.54,9.88-.75,19.76-.4,29.86,0,1,.08,2,.12,3,.92,25.05,2.39,50.06,3.52,75.1V667.15A11.81,11.81,0,0,0,397.47,679H607.11V524h-5.64A97,97,0,0,0,598,508s-1-2.71-1-2.71l-1.47-4.09,0-.07-1.15-3.26-1.67-4.7-1.37-3.86-.68-1.91-.45-1.26-3.44-9.67,3.15.6c4.32.81,8.66,1.62,13,2.37,7.15,1.26,14.34,2.36,21.52,3.07q1.63.18,3.27.3,6.12.54,12.2.6H640C639.11,479.9,638.18,476.43,637.3,473.13Z"/><path class="cls-5" d="M653.88,652a78.49,78.49,0,0,1-23.29,31.7,83.61,83.61,0,0,1-18.76,11.77,76.93,76.93,0,0,1-8.34,3.25,86.65,86.65,0,0,1-51,1.33,94.94,94.94,0,0,1-12.83-4.62c-32.28-14.25-58.24-44.88-74.91-74.94-.52-.93-2-3.67-3.92-7.41-.39-.74-.8-1.53-1.24-2.35C452,596.17,439,571.11,439,571.11l4.38-1.94c2.37-1,5.57-2.45,9.25-4.09l11.24-5,9.53-4.27.13-.06.12-.06,1.36-.6,1.36-.61,5.3-2.39,2.56-1.16,1.54-.69c3.53-1.59,6.75-3.07,9.44-4.31v0c.15.29,1.38,2.42,2.9,5a.24.24,0,0,0,0,.09c0,.08.07.18.12.32a1,1,0,0,0,.09.19c.05.11.12.23.18.37l.13.24c.09.16.19.32.27.48a0,0,0,0,0,0,0l.33.57a2.92,2.92,0,0,0,.18.33l.81,1.35.06.09c.21.36.44.74.69,1.12l0,.06.49.79.05.08,1.67,2.65a.48.48,0,0,0,.09.14c.61,1,1.26,2,1.91,3l.19.3c.17.23.32.47.47.72.32.51.65,1,1,1.51s.66,1,1,1.49l.33.49,1.84,2.77,1.44,2.13.44.66c.64.93,1.19,1.71,1.59,2.26.55.74,1.12,1.48,1.68,2.22.31.42.63.86,1,1.28.18.24.35.47.55.71.52.7,1.06,1.4,1.61,2.1q1.42,1.83,2.89,3.62c.38.47.77.93,1.16,1.4h0c.32.41.67.82,1,1.23.84,1,1.68,2,2.53,2.94q1.07,1.23,2.16,2.43l.71.8c.6.66,1.2,1.3,1.81,1.94.34.39.71.77,1.07,1.15.62.65,1.25,1.31,1.89,2,.18.2.36.38.56.57.79.82,1.6,1.63,2.41,2.43.3.32.59.61.89.89.53.54,1.07,1.06,1.61,1.58a2.18,2.18,0,0,1,.27.24q2,2,4.14,3.86l0,0,.21.2c1.76,1.77,3.54,3.47,5.38,5.1q2.05,1.85,4.19,3.56c.46.39.94.77,1.42,1.13s1,.75,1.43,1.11.88.67,1.34,1a87.06,87.06,0,0,0,7.57,5l1.24.7.79.44,1.48.79.26-.1a79,79,0,0,0,13.41,5.4,59.79,59.79,0,0,0,12.55,1.84,16.47,16.47,0,0,0,4.72-.68c2.27-.64,4.46-1.62,6.72-2.43l14-5.09,1.54-.56a12.73,12.73,0,0,0,7.58-16.25l-4.43-12.5-13.61-1.73-4.11-11.53-11.77-33.22-.45-1.28-1.82-5.09-1.94-5.46L574.36,491.5l-10.28-29-.73-2.07a11.59,11.59,0,0,0-5.64-6.45l-2.44-6.89a11.28,11.28,0,0,0-9.37-7.47,9.72,9.72,0,0,0-2.47,0,11,11,0,0,0-2.57.59s-3.2,1.17-3.23,1.17a4.4,4.4,0,0,0,.79-1.49c0-.09.05-.18.08-.27,3-10.11-3.62-51-7.56-83.61-.06-.55-.13-1.09-.19-1.63-.69-5.77-1.29-11.23-1.71-16.2,0,0,0-.05,0-.09l0-.47.31.09a3.22,3.22,0,0,0,.37.12l.73.23.1,0,.44.16.11,0,.09,0,.13.05c7.92,3,16.17,6.17,23.88,9.29l5.15,2.12,1,.41.48.19c1,.44,2.09.87,3.1,1.31,9.25,4,18.49,8,26.44,14l.06.05a55,55,0,0,1,9.44,8.9c8.22,9.9,12.43,22.44,16.46,34.67q3.86,11.68,7.59,23.38c.75,2.33,1.48,4.65,2.21,7,4.57,14.54,8.92,29.12,12.89,43.81.91,3.37,1.81,6.75,2.67,10.14q2.65,10.28,5,20.64Q649.39,522,651,529.8c4.36,22,9.56,47.33,10.23,72C661.68,619.32,659.87,636.53,653.88,652Z"/><path class="cls-6" d="M568.78,627.46l-.25.1-1.48-.79c-.24-.14-.5-.29-.79-.44l-1.25-.7a106.84,106.84,0,0,1-21.53-17q2.21,2,4.46,3.94,3.94,3.38,8,6.58c1.26,1,2.54,2,3.86,2.89.92.65,3,2.69,4.13,2.75Q566.33,626.21,568.78,627.46Z"/><path class="cls-2" d="M461.75,462.56l-3.38,7.65-17.77,6.47,10.46-20.48,3.75-7.32.25-.5a1.61,1.61,0,0,1,1.48-.91,1.57,1.57,0,0,1,.7.2C462.19,450.53,464.17,457.06,461.75,462.56Z"/><path class="cls-2" d="M472.84,468.07l-3.38,7.65-17.76,6.47,10.51-20.6,3.74-7.3.2-.4a1.61,1.61,0,0,1,1.48-.9,1.64,1.64,0,0,1,.71.19C473.28,456,475.26,462.58,472.84,468.07Z"/><path class="cls-2" d="M443.52,539.46l-10,3.46L423.57,518a47.38,47.38,0,0,1-1.6-30.16l8.85-33.88,2.95-10.59s1.26-1.67,2.09-1.38a11.88,11.88,0,0,1,7.94,11.64,11.17,11.17,0,0,1-.26,2.13l-4.16,21.38L434.07,479a11.47,11.47,0,0,0-6.81,14.6Z"/><path class="cls-7" d="M621.72,625.94l-23,8.34v0h0v0a4.45,4.45,0,0,1-.76.2,12.8,12.8,0,0,1-2.52.3,35.06,35.06,0,0,1-5.09-.25c-1.43-.16-2.8-.38-3.9-.6l-1.14-.23c-1.52-.33-3-.71-4.5-1.15-1.2-.35-2.38-.74-3.58-1.16l-1.27-.46h0a70.89,70.89,0,0,1-7.45-3.34l-1.48-.79c-.27-.14-.53-.29-.79-.44l-1.25-.7a108.06,108.06,0,0,1-22.64-18.19h0q-2.22-2.3-4.37-4.67c-.22-.26-20.45-27-20.77-27.48-2.61-4-22-29.29-22-29.34-5.58,2.59-13.46,6.15-21.56,9.77l-9.78,4.38-11.24,5-7.22-20.33-.14-.38-17.94-50.6a12.82,12.82,0,0,1,1.18-11,11.44,11.44,0,0,1,1.06-1.49c.31-.36.63-.7,1-1l.32-.29.37-.31a13.19,13.19,0,0,1,2.78-1.75,8.44,8.44,0,0,1,.9-.36l5.9-2.15h0l1.36-.49,19-6.92.75-.26v0l17.15-6.22L506,451.67l21.42-7.77,21-7.66h0a1.64,1.64,0,0,0,1.62-.59l3.6-1.31A12.5,12.5,0,0,1,569.82,442l8.2,23.13,26,73.16,17.92,50.51,7.4,20.89A12.75,12.75,0,0,1,621.72,625.94Z"/><path class="cls-8" d="M607.62,613.13a10.86,10.86,0,0,1-2,1l-18.57,6.74-18.27,6.63-.25.1-1.48-.79c-.24-.14-.5-.29-.79-.44l-1.25-.7a106.84,106.84,0,0,1-21.53-17l0,0c-.36-.36-.71-.74-1.08-1.1,0,0-1.11-1-3-2.76l-.27-.25a216.88,216.88,0,0,1-23.85-27c-.55-.75-1.11-1.49-1.66-2.23-3.23-4.42-15.42-23.12-15.39-24.19-1.62-2.77-2.92-5-2.91-5-5.58,2.59-13.46,6.15-21.56,9.77l-9.78,4.38-8.48-23.92-11.48-32.32a11.71,11.71,0,0,1,7-14.9L529,460.58l8.4-3.06h0l11.21-4.09a11.7,11.7,0,0,1,3.24-.67,10.21,10.21,0,0,1,1.84.05,11.68,11.68,0,0,1,4,1.18,11.55,11.55,0,0,1,5.64,6.45l.73,2.07,27.09,76.35,4.21,11.84,11.77,33.21,4.11,11.54,1.32,3.73A11.74,11.74,0,0,1,607.62,613.13Z"/><path class="cls-9" d="M527.68,503.42,525.61,528h-.26a26,26,0,0,0-27.18,23.14.31.31,0,0,1,0-.08c-1.62-2.77-2.92-5-2.91-5-5.58,2.59-13.46,6.15-21.56,9.77l-.25.11c-.07-1.51-.07-3,0-4.57a50.68,50.68,0,0,1,53.19-47.91Z"/><path class="cls-10" d="M556.41,592.74c-4.51,3.77-15.59,8.88-19.87,9.24a214.54,214.54,0,0,1-20.37-23.3,17.16,17.16,0,0,0,1.9.52,24.67,24.67,0,0,0,4.58.66,25.93,25.93,0,0,0,17.25-5.42Z"/><path class="cls-11" d="M574.47,557.89a50.52,50.52,0,0,1-18.07,34.86l-16.5-18.31a26,26,0,0,0,10-17.83Z"/><path class="cls-12" d="M574.55,556.53c0,.46,0,.91-.08,1.36l-24.61-1.28c0-.45.07-.91.1-1.36A26,26,0,0,0,525.61,528l2.07-24.54A50.69,50.69,0,0,1,574.55,556.53Z"/><path class="cls-2" d="M484.27,551c-3.36,1.53-6.95,3.15-10.59,4.77l-.25.11-9.53,4.27-11.24,5-9.25,4.1-9.91-26.26,5.56-1.91a3.17,3.17,0,0,1,.36-.13,28.88,28.88,0,0,0,4-1.77h0a30.43,30.43,0,0,0,9.06-7.35,31.07,31.07,0,0,0,7.24-18.93l.63-18.22a6.26,6.26,0,0,1,6.25-6.1h.21a7.35,7.35,0,0,1,7,6.6L482,538.79v0Z"/><path class="cls-13" d="M215.82,508.81a4.14,4.14,0,0,1-1.22,2.93l-5.27,5.19a4.08,4.08,0,1,1-5.75-5.8l5.28-5.2a4.06,4.06,0,0,1,7,2.88Z"/><path class="cls-14" d="M225.56,478.33l-2.33,2.33-33,33.06-5.46,5.39L174,529.72,172.78,531h0L94,451.53l-4.07-4.1L79.17,436.62l-.83-.85-6.09-6.13-.84-.86L56.28,413.56l65-41.18,22.53,22.9,1.54,1.55a6.2,6.2,0,0,0-4,4.26,6.4,6.4,0,0,0-.19.93c0,.13,0,.26,0,.4v0a8.17,8.17,0,0,0,.18,2.31h0a12.57,12.57,0,0,0,1.07,2.89h0c.2.37.4.72.62,1.08h0c.23.35.45.69.69,1s.59.78.9,1.14.42.47.62.69c5,5.3,11.93,8.21,18.74,10.49l9.4,3.15c.28.1.56.2.84.28s.29.1.43.15l-.43-.14,43.23,44.39,3.6,3.72Z"/><path class="cls-15" d="M170.32,421.38l0,0-5.59-5.73-10.82-11.13a.47.47,0,0,1-.12.09l10.76,11.05,5.51,5.66,4.12,4.23.27.1h0Z"/><path class="cls-15" d="M246.91,490.31a5.8,5.8,0,0,0-.72-2c-1.06-1.89-3-3.34-4.46-4.83-1.65-1.66-3.3-3.33-5-5l-11.08-11.18c-1.54-1.55-3.1-3.11-4.63-4.67,0,0,0,0,0,0l-4.82-4.86-8.26-8.33-5.22-5.24-4.53-4.56L190.57,432l-.53-.53L185.68,427l0,0-3.2-3.23-9.07-9.14-12.44-12.53-1.56-1.58-8.9-3.33,8.9,3.32L156.86,398h0L143,384l-2.3-2.31-19-19.2a4.37,4.37,0,0,0-5.28-.72L86.46,379.67l-3.35,2L80,383.57h0L47.3,403l-5.5,3.26c-2.32,1.41-2,7,0,9l22.72,23.07,1.31,1.33L178.22,553.78a6.38,6.38,0,0,0,4.69,1.47,4.29,4.29,0,0,0,2.65-1l47.2-46.66,7.77-7.69C243,497.4,247.53,494.26,246.91,490.31ZM214.6,511.74l-5.27,5.19a4.08,4.08,0,1,1-5.75-5.8l5.28-5.2a4.08,4.08,0,1,1,5.74,5.81Zm-24.39,2-5.46,5.39L174,529.72,172.78,531h0L94,451.53l-4-4-.09-.09-7.73-7.79-1.31-1.33-1.69-1.69v0l-.82-.83-6.09-6.13-.84-.86L56.28,413.56l7.79-4.93,57.22-36.25,22.53,22.9,1.54,1.55,7.86,8,.45-.34.09.09a.47.47,0,0,0,.12-.09l10.82,11.13,5.59,5.73,0,0,4.1,4.22h0l.13.14,3.73,3.83L188,439.64l1.46,1.52c2.54,2.63,5.29,5.46,8.11,8.36.75.78,1.53,1.58,2.36,2.42,0,0,0,0,.06.07l2.37,2.45,14.26,14.7.73.75,1.91,2c.59.6,1.15,1.19,1.68,1.74v0l.57.56.65.68c.22.22.43.42.61.63l.82.84a3.57,3.57,0,0,1,.27.28l.23.23c.05,0,.09.11.15.16l0,0,.14.15.14.14.25.26.22.22h0l.06.05a.13.13,0,0,0,.06.07l.08.1,0,0,.14.14.09.09,0,0-2.33,2.33Z"/><path class="cls-16" d="M174.15,425.51c-.28-.08-.56-.18-.84-.28l-9.4-3.15c-6.81-2.28-13.72-5.19-18.74-10.49-.2-.22-.42-.45-.62-.69s-.61-.74-.9-1.14-.46-.66-.69-1h0c-.22-.36-.42-.71-.62-1.08h0a11.32,11.32,0,0,1-1.07-2.89h0a8.17,8.17,0,0,1-.18-2.31v0c0-.14,0-.27,0-.4a6.4,6.4,0,0,1,.19-.93,6.2,6.2,0,0,1,4-4.26l7.86,8,.45-.34L170,421.28Z"/><path class="cls-17" d="M174.58,425.66l-.43-.14h0C174.29,425.57,174.44,425.61,174.58,425.66Z"/><polygon class="cls-18" points="225.56 478.33 223.23 480.66 190.21 513.72 184.75 519.11 174.01 529.72 172.78 530.95 172.77 530.95 93.97 451.53 89.9 447.43 79.17 436.62 78.34 435.77 72.25 429.64 71.41 428.79 56.28 413.56 121.29 372.38 143.82 395.28 145.36 396.82 153.22 404.82 169.11 420.96 173.31 425.23 217.31 469.95 221.01 473.7 225.56 478.33"/><path class="cls-19" d="M215.82,508.81a4.14,4.14,0,0,1-1.22,2.93l-5.27,5.19a4.08,4.08,0,1,1-5.75-5.8l5.28-5.2a4.06,4.06,0,0,1,7,2.88Z"/><path class="cls-12" d="M225.56,478.33l-2.33,2.33-33,33.06-5.46,5.39L174,529.72,172.78,531h0L94,451.53l-4-4c10.1-7.28,38.56-25.59,54.74-36.6l1.41-1c3-2.06,5.51-3.81,7.29-5.14l.33-.25a.47.47,0,0,0,.12-.09l16.41,16.86,4.13,4.26h0C174.34,425.58,225.56,478.33,225.56,478.33Z"/><path class="cls-20" d="M131.69,401.18c-7,6.18-19.13-2.84-23.2.76-6,5.29,2.88,13.24-5.44,20.6-8,7.09-22.72-6.62-28.23-4.73"/><line class="cls-21" x1="143.64" y1="488.1" x2="186.87" y2="449.95"/><path class="cls-22" d="M205.24,470l-3.64,1.92h0a7.76,7.76,0,0,0-4.58-3.8,6.71,6.71,0,0,0-1.18-.26,7,7,0,0,0-3.12.29l-1.92-3.6a11.75,11.75,0,0,1,5.33-.49A12.67,12.67,0,0,1,205.24,470Z"/><path class="cls-23" d="M206.45,479a10.87,10.87,0,0,1-12.06,7.26,13,13,0,0,1-2-.44,12.21,12.21,0,0,1-1.2-.43l1.14-3.66a7.24,7.24,0,0,0,2.35.73,6.86,6.86,0,0,0,7.8-6.33,7.49,7.49,0,0,0-.89-4.18l3.64-1.92a11.16,11.16,0,0,1,1.64,6.69A10.1,10.1,0,0,1,206.45,479Z"/><path class="cls-24" d="M192.34,481.69l-1.14,3.66a12,12,0,0,1-7.56-11.75,10.24,10.24,0,0,1,3.92-7.32,11,11,0,0,1,3.23-1.74l1.92,3.6a6.6,6.6,0,0,0-2.06,1.09,6.9,6.9,0,0,0-2.61,4.94A7.79,7.79,0,0,0,192.34,481.69Z"/><path class="cls-25" d="M181.44,500.26a10.86,10.86,0,0,1-12.05,7.26,13.16,13.16,0,0,1-2-.43,12.08,12.08,0,0,1-1.19-.44,12.67,12.67,0,0,1-5.84-4.93l3.64-1.91a7.88,7.88,0,0,0,3.33,3.19,7.3,7.3,0,0,0,2.35.72,6.84,6.84,0,0,0,7.8-6.32,7.52,7.52,0,0,0-.89-4.19l3.64-1.92a11.26,11.26,0,0,1,1.65,6.69A10.7,10.7,0,0,1,181.44,500.26Z"/><path class="cls-26" d="M164,499.81l-3.64,1.91a11.33,11.33,0,0,1-1.73-6.81,10.43,10.43,0,0,1,.15-1.14l4.34,1c0,.25-.07.49-.09.75A7.67,7.67,0,0,0,164,499.81Z"/><path class="cls-27" d="M180.23,491.29l-3.64,1.92h0a7.65,7.65,0,0,0-5.76-4.06,6.79,6.79,0,0,0-3.11.3,6.39,6.39,0,0,0-2.06,1.09,6.87,6.87,0,0,0-2.53,4.19l-4.34-1a10.19,10.19,0,0,1,3.77-6.18,10.65,10.65,0,0,1,3.23-1.74,11.79,11.79,0,0,1,5.34-.5A12.66,12.66,0,0,1,180.23,491.29Z"/><path class="cls-28" d="M144,476a.84.84,0,0,1-.31-.19l-27.17-28.72a.75.75,0,0,1,0-1,.72.72,0,0,1,1,0l27.17,28.72a.75.75,0,0,1,0,1A.73.73,0,0,1,144,476Z"/><path class="cls-29" d="M149.68,470.5a.69.69,0,0,1-.31-.2l-21-22.75a.75.75,0,0,1,0-1,.69.69,0,0,1,1,0l21,22.75a.75.75,0,0,1,0,1A.73.73,0,0,1,149.68,470.5Z"/><path class="cls-30" d="M154.16,465.69a.75.75,0,0,1-.32-.21l-13.3-15.3a.75.75,0,0,1,.08-1,.7.7,0,0,1,1,.05l13.3,15.3a.75.75,0,0,1-.07,1A.73.73,0,0,1,154.16,465.69Z"/><path class="cls-31" d="M159.25,460.55a.77.77,0,0,1-.33-.22l-7.73-9a.74.74,0,0,1,.08-1,.71.71,0,0,1,1,.05l7.73,9a.75.75,0,0,1-.08,1A.71.71,0,0,1,159.25,460.55Z"/><path class="cls-32" d="M165.35,456.19A.6.6,0,0,1,165,456l-22.35-25.69a.75.75,0,0,1,.07-1,.7.7,0,0,1,1,.05L166.12,455a.74.74,0,0,1-.07,1A.73.73,0,0,1,165.35,456.19Z"/><path class="cls-33" d="M171.21,450.93a.65.65,0,0,1-.33-.21L153.61,430.5a.75.75,0,0,1,.08-1,.71.71,0,0,1,1,.06L172,449.74a.74.74,0,0,1-.08,1A.71.71,0,0,1,171.21,450.93Z"/><ellipse class="cls-12" cx="73.82" cy="417.56" rx="2.15" ry="2.13" transform="translate(-21.57 4.39) rotate(-2.97)"/><ellipse class="cls-12" cx="103.19" cy="422.51" rx="2.15" ry="2.13" transform="translate(-21.78 5.92) rotate(-2.97)"/><ellipse class="cls-12" cx="132.24" cy="401.22" rx="2.15" ry="2.13" transform="translate(-20.64 7.4) rotate(-2.97)"/><path class="cls-2" d="M218.35,460l-9.43-9.31-5.22-5.24-12.15-12.25-.53-.53-3.91-4a.71.71,0,0,0-.09-.07,1.64,1.64,0,0,0-.36-.32l0,0a17.27,17.27,0,0,0-4-1.72l-11.61-4-.92-.31-7.18-2.48c-5.72-2-11.51-4.4-16-8.55-.46-.42-.89-.87-1.33-1.32a14.36,14.36,0,0,1-3.53-6.18v0a7.43,7.43,0,0,1,0-3.63,5.77,5.77,0,0,1,2.73-3.51,6,6,0,0,1,5-.38l.61.24.1,0,7.3,2.79.93.36,4.64,1.76,1.79.68,23.51,9a30.1,30.1,0,0,1,17.85,18.73C210.3,441,217.57,457.91,218.35,460Z"/><path class="cls-34" d="M163.66,401.32a7,7,0,0,1-13-4.88l0-.07.1,0Z"/><path class="cls-35" d="M610.25,323.15a19.54,19.54,0,0,0-2-3.22c-28.65-38.53-61.06-73.31-94.12-108.06-14.72-15.49-29.22-32.52-46.88-44.78-9.86-6.85-21.13-12.11-33.11-13.7-13.1-1.74-25.93,1.84-38.3,5.81-5.76,1.85-18.4,4.73-21.36,10.92-5.78,12.1,3.17,23.08,12.24,30.56a97.65,97.65,0,0,0,45.36,20.63c9.16,1.57,43.94-4.53,35.75,14.51-1.3,3-3.35,5.66-5,8.51a32.56,32.56,0,0,0-2.8,26.33c4.55,13.25,16,16.55,27.46,21.84-2.33,7.41-4.87,14.07-4.33,22.14,1.3,19.28,16.13,32.41,33.86,37.54,18.72,5.43,37.31.34,54.89-6.53C577.82,343.36,614.86,333,610.25,323.15Z"/><path class="cls-2" d="M464.07,213.86c-8.1.93-13.78,9.22-12.67,18.53s8.59,16.09,16.69,15.17,13.79-9.23,12.68-18.53S472.18,212.93,464.07,213.86Z"/><path class="cls-36" d="M491.52,469.83l9.62-3.5a2.28,2.28,0,0,0,1.36-2.91l-.38-1.08a2.24,2.24,0,0,0-2.88-1.36l-9.62,3.49a2.29,2.29,0,0,0-1.35,2.91l.38,1.08A2.24,2.24,0,0,0,491.52,469.83Z"/><path class="cls-37" d="M465.59,491.92h2.61a3.06,3.06,0,0,1,3.06,3.06v5.88a1.31,1.31,0,0,1-1.31,1.31h-6.09a1.31,1.31,0,0,1-1.31-1.31V495a3.06,3.06,0,0,1,3.06-3.06Z" transform="translate(-33.02 33.23) rotate(-3.94)"/><path class="cls-38" d="M696.83,545.31c0-8,0-8,8.19-8,1.27,0,2.54,0,3.8,0a4.5,4.5,0,0,1,4.54,4.49c.07,2.14,0,4.28,0,6.42,0,3.07-1.82,4.87-5,5-2,.09-4,0-6,0-4.34,0-5.46-1.11-5.47-5.2Z"/><path class="cls-38" d="M226.93,310.53v2.75c0,4.06-1,5-5.21,5.05-2.33,0-4.65,0-7,0-2.79-.07-4.28-1.52-4.35-4.2-.06-2.24-.08-4.49,0-6.72.11-3.15,1.91-4.87,5.15-5,1.9-.07,3.8,0,5.7,0,4.44,0,5.65,1.18,5.68,5.4C226.93,308.7,226.93,309.61,226.93,310.53Z"/><path class="cls-38" d="M212.33,208.44c8.46,0,8.6.13,8.6,8.39,0,6.67-.92,7.56-7.82,7.56-1.26,0-2.53,0-3.8,0-3.29-.09-4.84-1.55-4.92-4.67,0-2.14,0-4.28,0-6.42,0-3.84,1.06-4.83,5.09-4.85Z"/><path class="cls-38" d="M126.31,302.62c-1.6-.18-3.64.53-5.36-.37-2.45-1.26-2.94-3.56-2.75-6.06.25-3.25-1.28-7.53,2.78-9a18.9,18.9,0,0,1,11.82.13,2.93,2.93,0,0,1,2,3.18c-.06,2.45,0,4.9,0,7.35,0,3.52-1.24,4.68-5,4.77C128.71,302.64,127.65,302.62,126.31,302.62Z"/><path class="cls-38" d="M552.33,133.16c0-5.55.89-6.37,6.94-6.36,5.12,0,6.42,1.38,6.42,6.78,0,4.82-1.5,6.1-7.14,6.1C553.34,139.67,552.33,138.61,552.33,133.16Z"/><path class="cls-38" d="M183,369.2c-5.82,0-6.28-.48-6.27-6.48,0-5.3.59-5.82,6.65-5.81,5.59,0,6.71,1.07,6.71,6.4C190.08,368.38,189.09,369.2,183,369.2Z"/><path class="cls-38" d="M102.4,624.23c-5.82,0-6.28-.47-6.27-6.48,0-5.3.59-5.81,6.65-5.81,5.59,0,6.71,1.07,6.71,6.4C109.49,623.41,108.5,624.23,102.4,624.23Z"/></svg>