<svg id="Layer_1" data-name="Layer 1" xmlns="http://www.w3.org/2000/svg" xmlns:xlink="http://www.w3.org/1999/xlink" viewBox="0 0 800 800"><defs><style>.cls-1{fill:none;}.cls-2{fill:#ff7017;}.cls-3{clip-path:url(#clip-path);}.cls-4{fill:#2c138b;}.cls-5{fill:#2b138a;}.cls-6{fill:#2b1389;}.cls-7{fill:#2a1388;}.cls-8{fill:#2a1386;}.cls-9{fill:#291385;}.cls-10{fill:#291384;}.cls-11{fill:#281383;}.cls-12{fill:#281382;}.cls-13{fill:#271381;}.cls-14{fill:#261380;}.cls-15{fill:#26137f;}.cls-16{fill:#25137d;}.cls-17{fill:#25137c;}.cls-18{fill:#24137b;}.cls-19{fill:#24137a;}.cls-20{fill:#231379;}.cls-21{fill:#231378;}.cls-22{fill:#221377;}.cls-23{fill:#221376;}.cls-24{fill:#211375;}.cls-25{fill:#211374;}.cls-26{fill:#201373;}.cls-27{fill:#201372;}.cls-28{fill:#1f1370;}.cls-29{fill:#1f136f;}.cls-30{fill:#1e136e;}.cls-31{fill:#1e136d;}.cls-32{fill:#1d136c;}.cls-33{fill:#1d136b;}.cls-34{fill:#1c136a;}.cls-35{fill:#1c1369;}.cls-36{fill:#1b1368;}.cls-37{fill:#1b1367;}.cls-38{fill:#1a1366;}.cls-39{fill:#191365;}.cls-40{fill:#191364;}.cls-41{fill:#181363;}.cls-42{fill:#181362;}.cls-43{fill:#171361;}.cls-44{fill:#171360;}.cls-45{fill:#17135f;}.cls-46{fill:#16135f;}.cls-47{fill:#16135e;}.cls-48{fill:#16135d;}.cls-49{fill:#16135c;}.cls-50{fill:#16135b;}.cls-51{fill:#16135a;}.cls-52{fill:#161359;}.cls-53{fill:#161358;}.cls-54{fill:#161357;}.cls-55{fill:#161356;}.cls-56{fill:#161355;}.cls-57{fill:#161354;}.cls-58{fill:#161353;}.cls-59{fill:#161351;}.cls-60{fill:#161350;}.cls-61{fill:#16134f;}.cls-62{fill:#16134e;}.cls-63{fill:#16134d;}.cls-64{fill:#16134c;}.cls-65{fill:#16134b;}.cls-66{fill:#16134a;}.cls-67{fill:#161349;}.cls-68{fill:#161348;}.cls-69{fill:#161347;}.cls-70{fill:#161346;}.cls-71{fill:#161345;}.cls-72{fill:#161344;}.cls-73{fill:#161343;}.cls-74{fill:#161341;}.cls-75{fill:#161340;}.cls-76{fill:#16133f;}.cls-77{fill:#16133e;}.cls-78{fill:#16133d;}.cls-79{fill:#16133c;}.cls-80{fill:#16133b;}.cls-81{fill:#161339;}.cls-82{fill:#161338;}.cls-83{fill:#161337;}.cls-84{fill:#161336;}.cls-85{fill:#1b1464;}.cls-86{clip-path:url(#clip-path-2);}.cls-87{fill:#2c138a;}.cls-88{fill:#2b1388;}.cls-89{fill:#2a1387;}.cls-90{fill:#271380;}.cls-91{fill:#26137e;}.cls-92{fill:#1f1371;}.cls-93{fill:#1e136f;}.cls-94{fill:#1d136d;}.cls-95{fill:#1c136b;}.cls-96{fill:#1a1365;}.cls-97{fill:#191363;}.cls-98{fill:#181361;}.cls-99{fill:#1d2ad6;}.cls-100{fill:#fff;}.cls-101{opacity:0.4;}.cls-102{fill:#999da3;}.cls-103{fill:url(#linear-gradient);}.cls-104{fill:url(#linear-gradient-2);}.cls-105{fill:url(#linear-gradient-3);}.cls-106{fill:url(#linear-gradient-4);}.cls-107{fill:url(#linear-gradient-5);}.cls-108{fill:url(#linear-gradient-6);}.cls-109{fill:url(#linear-gradient-7);}</style><clipPath id="clip-path"><path class="cls-1" d="M635.32,567.56a12.31,12.31,0,0,1-3.61,8.7L616.1,591.61a12.09,12.09,0,1,1-17-17.18l15.6-15.38a12.2,12.2,0,0,1,17.18,0A12.06,12.06,0,0,1,635.32,567.56Z"/></clipPath><clipPath id="clip-path-2"><path class="cls-1" d="M513.21,321.35l-1.28-.42v0C512.35,321.06,512.79,321.18,513.21,321.35Z"/></clipPath><linearGradient id="linear-gradient" x1="483.4" y1="529.62" x2="540.97" y2="529.62" gradientUnits="userSpaceOnUse"><stop offset="0" stop-color="#ff8f00"/><stop offset="0.35" stop-color="#ff8c00"/><stop offset="0.6" stop-color="#ff8300"/><stop offset="0.81" stop-color="#ff7300"/><stop offset="1" stop-color="#ff5f00"/></linearGradient><linearGradient id="linear-gradient-2" x1="969.2" y1="1524.01" x2="831.73" y2="1449.05" gradientTransform="matrix(1.08, 0.41, -0.22, 1.03, -264, -1457.44)" xlink:href="#linear-gradient"/><linearGradient id="linear-gradient-3" x1="451.33" y1="1238.4" x2="313.83" y2="1163.42" gradientTransform="matrix(0.92, 0.25, -0.32, 0.93, 443.59, -786.07)" xlink:href="#linear-gradient"/><linearGradient id="linear-gradient-4" x1="-788.25" y1="601.06" x2="-925.85" y2="526.03" gradientTransform="matrix(0.72, 0.07, -0.45, 0.8, 1312.6, 34.95)" xlink:href="#linear-gradient"/><linearGradient id="linear-gradient-5" x1="-3369.33" y1="-870.62" x2="-3506.95" y2="-945.66" gradientTransform="matrix(0.58, -0.09, -0.54, 0.71, 1955.78, 747.09)" xlink:href="#linear-gradient"/><linearGradient id="linear-gradient-6" x1="721.96" y1="1401.22" x2="584.37" y2="1326.19" gradientTransform="matrix(0.96, 0.34, -0.31, 0.96, 253.38, -1153.8)" xlink:href="#linear-gradient"/><linearGradient id="linear-gradient-7" x1="130.79" y1="1063.83" x2="-6.83" y2="988.79" gradientTransform="matrix(0.83, 0.2, -0.4, 0.87, 839.17, -536.14)" xlink:href="#linear-gradient"/></defs><title>Slut</title><path class="cls-2" d="M515.86,58.54c2.43,0,4.87,0,7.3,0,5.67.05,8.8,2.76,9,8.1s.15,10.73,0,16.09c-.15,4.78-2.47,6.92-7.55,7-5.91.12-11.83.09-17.74,0-5.48-.08-7.68-1.87-8-7.16-.31-5.52-.26-11.07,0-16.59.19-4.53,3.31-7.23,8.17-7.45C509.94,58.43,512.91,58.54,515.86,58.54Z"/><path class="cls-2" d="M700,130.24c0,2.52,0,5,0,7.55-.07,5.85-2.38,8.25-8.47,8.44-5.22.16-10.45.17-15.66,0s-8.21-3.2-8.26-8.28,0-10.4,0-15.6c0-4.88,2.83-8,7.76-8.23,5.56-.23,11.14-.21,16.7,0,5,.19,7.84,3.3,7.93,8.08C700.06,124.87,700,127.56,700,130.24Z"/><path class="cls-2" d="M696.11,326.24h-6.79c-7.2,0-9.44-1.88-9.79-8.75a125.14,125.14,0,0,1,0-14.1c.36-5.93,3.2-8.31,9.41-8.38,5-.06,10.1-.05,15.14,0,5.58.05,8.62,2.86,8.76,8.33q.2,7.8,0,15.61c-.13,5.06-2.44,7.14-7.85,7.29C702,326.31,699.07,326.24,696.11,326.24Z"/><path class="cls-2" d="M174,117.25c2.64,0,5.28-.1,7.91,0,2.92.14,4.66,1.84,4.73,4.79.12,5.48.07,11,0,16.44,0,3.42-2.41,4.7-5.21,4.83a146.57,146.57,0,0,1-15,0c-3.49-.18-5.52-2.44-5.61-6q-.16-7,0-13.91c.1-4.42,1.83-6.1,6.07-6.16,2.36,0,4.72,0,7.07,0Z"/><path class="cls-2" d="M695.79,715.2c0-13.14,0-13.14,13.44-13.14,2.08,0,4.17-.07,6.25,0a7.4,7.4,0,0,1,7.45,7.38c.11,3.51.06,7,0,10.54-.07,5-3,8-8.28,8.23-3.3.15-6.6.06-9.9,0-7.12-.06-9-1.82-9-8.54C695.78,718.21,695.79,716.71,695.79,715.2Z"/><path class="cls-2" d="M269.06,574.31c0,1.51,0,3,0,4.52,0,6.67-1.67,8.27-8.55,8.29-3.82,0-7.64.07-11.45,0-4.59-.12-7-2.5-7.15-6.91-.09-3.68-.12-7.36,0-11,.18-5.16,3.12-8,8.44-8.2,3.12-.12,6.25,0,9.37,0,7.28,0,9.27,1.94,9.33,8.87C269.07,571.3,269.06,572.81,269.06,574.31Z"/><path class="cls-2" d="M95.68,495.32c13.9,0,14.12.22,14.12,13.79,0,10.95-1.51,12.41-12.83,12.41-2.08,0-4.16.05-6.24,0-5.4-.14-8-2.54-8.08-7.67-.09-3.51,0-7,0-10.54,0-6.32,1.73-7.93,8.36-8Z"/><path class="cls-2" d="M128.49,715.71c-2.63-.29-6,.87-8.8-.6-4-2.08-4.83-5.85-4.51-10,.41-5.33-2.11-12.36,4.56-14.78,6-2.17,13-1.78,19.41.21,2.35.73,3.29,2.76,3.23,5.23-.09,4,0,8.05,0,12.07,0,5.78-2,7.68-8.18,7.83C132.43,715.75,130.69,715.71,128.49,715.71Z"/><path class="cls-2" d="M557.05,172.94c0-9.12,1.46-10.46,11.39-10.45,8.4,0,10.55,2.27,10.54,11.15,0,7.92-2.46,10-11.72,10C558.71,183.64,557.05,181.89,557.05,172.94Z"/><path class="cls-2" d="M303.64,715c-9.55,0-10.3-.78-10.29-10.64,0-8.7,1-9.55,10.92-9.55,9.17,0,11,1.76,11,10.52C315.29,713.67,313.67,715,303.64,715Z"/><path class="cls-2" d="M77.74,219.05c-9.55,0-10.3-.78-10.3-10.64,0-8.7,1-9.55,10.92-9.55,9.18,0,11,1.76,11,10.52C89.39,217.7,87.76,219.05,77.74,219.05Z"/><path class="cls-2" d="M565,376.18l-6.94,6.9L459.78,481l-16.27,16-31.95,31.4L407.89,532h0L173.31,296.82,161.48,285c30.06-21.56,114.77-75.8,162.93-108.4,1.44-1,2.83-1.91,4.18-2.84,9-6.11,16.42-11.29,21.7-15.23.35-.25.67-.48,1-.73a2.11,2.11,0,0,0,.35-.26l48.84,49.93L412.78,220v0C412.52,220,565,376.18,565,376.18Z"/><g class="cls-3"><polygon class="cls-4" points="635.32 578.5 613.94 554.35 635.32 554.35 635.32 578.5"/><polygon class="cls-4" points="635.32 579.1 613.41 554.35 613.94 554.35 635.32 578.5 635.32 579.1"/><polygon class="cls-5" points="635.32 579.7 612.88 554.35 613.41 554.35 635.32 579.1 635.32 579.7"/><polygon class="cls-6" points="635.32 580.3 612.35 554.35 612.88 554.35 635.32 579.7 635.32 580.3"/><polygon class="cls-7" points="635.32 580.9 611.82 554.35 612.35 554.35 635.32 580.3 635.32 580.9"/><polygon class="cls-8" points="635.32 581.5 611.29 554.35 611.82 554.35 635.32 580.9 635.32 581.5"/><polygon class="cls-9" points="635.32 582.1 610.75 554.35 611.29 554.35 635.32 581.5 635.32 582.1"/><polygon class="cls-10" points="635.32 582.7 610.23 554.35 610.75 554.35 635.32 582.1 635.32 582.7"/><polygon class="cls-11" points="635.32 583.29 609.69 554.35 610.23 554.35 635.32 582.7 635.32 583.29"/><polygon class="cls-12" points="635.32 583.89 609.16 554.35 609.69 554.35 635.32 583.29 635.32 583.89"/><polygon class="cls-13" points="635.32 584.49 608.63 554.35 609.16 554.35 635.32 583.89 635.32 584.49"/><polygon class="cls-14" points="635.32 584.8 635.18 584.93 608.26 554.53 608.47 554.35 608.63 554.35 635.32 584.49 635.32 584.8"/><rect class="cls-15" x="621.37" y="549.56" width="0.4" height="40.61" transform="translate(-221.56 555.2) rotate(-41.52)"/><rect class="cls-16" x="621.08" y="549.82" width="0.4" height="40.61" transform="translate(-221.81 555.06) rotate(-41.52)"/><rect class="cls-17" x="620.78" y="550.08" width="0.4" height="40.61" transform="translate(-222.06 554.93) rotate(-41.52)"/><rect class="cls-18" x="620.48" y="550.35" width="0.4" height="40.61" transform="translate(-222.31 554.8) rotate(-41.52)"/><rect class="cls-19" x="620.18" y="550.61" width="0.4" height="40.61" transform="translate(-222.56 554.67) rotate(-41.52)"/><rect class="cls-20" x="619.89" y="550.87" width="0.4" height="40.61" transform="translate(-222.81 554.54) rotate(-41.52)"/><rect class="cls-21" x="619.59" y="551.14" width="0.4" height="40.61" transform="translate(-223.06 554.41) rotate(-41.52)"/><rect class="cls-22" x="619.29" y="551.4" width="0.4" height="40.61" transform="translate(-223.31 554.28) rotate(-41.52)"/><rect class="cls-23" x="618.99" y="551.66" width="0.4" height="40.61" transform="translate(-223.56 554.15) rotate(-41.52)"/><rect class="cls-24" x="618.7" y="551.93" width="0.4" height="40.61" transform="translate(-223.81 554.02) rotate(-41.52)"/><rect class="cls-25" x="618.4" y="552.19" width="0.4" height="40.61" transform="translate(-224.06 553.89) rotate(-41.52)"/><rect class="cls-26" x="618.1" y="552.45" width="0.4" height="40.61" transform="translate(-224.31 553.75) rotate(-41.52)"/><rect class="cls-27" x="617.8" y="552.72" width="0.4" height="40.61" transform="translate(-224.56 553.62) rotate(-41.52)"/><rect class="cls-28" x="617.51" y="552.98" width="0.4" height="40.61" transform="translate(-224.81 553.49) rotate(-41.52)"/><rect class="cls-29" x="617.21" y="553.24" width="0.4" height="40.61" transform="translate(-225.05 553.36) rotate(-41.52)"/><rect class="cls-30" x="616.91" y="553.51" width="0.4" height="40.61" transform="translate(-225.3 553.23) rotate(-41.52)"/><rect class="cls-31" x="616.61" y="553.77" width="0.4" height="40.61" transform="translate(-225.55 553.1) rotate(-41.52)"/><rect class="cls-32" x="616.32" y="554.03" width="0.4" height="40.61" transform="translate(-225.8 552.97) rotate(-41.52)"/><rect class="cls-33" x="616.02" y="554.3" width="0.4" height="40.61" transform="translate(-226.05 552.84) rotate(-41.52)"/><rect class="cls-34" x="615.72" y="554.56" width="0.4" height="40.61" transform="translate(-226.3 552.71) rotate(-41.52)"/><rect class="cls-35" x="615.42" y="554.82" width="0.4" height="40.61" transform="translate(-226.55 552.58) rotate(-41.52)"/><rect class="cls-36" x="615.13" y="555.09" width="0.4" height="40.61" transform="translate(-226.8 552.44) rotate(-41.52)"/><rect class="cls-37" x="614.83" y="555.35" width="0.4" height="40.61" transform="translate(-227.05 552.32) rotate(-41.52)"/><rect class="cls-38" x="614.53" y="555.61" width="0.4" height="40.61" transform="translate(-227.3 552.18) rotate(-41.52)"/><rect class="cls-38" x="614.23" y="555.88" width="0.4" height="40.61" transform="translate(-227.55 552.05) rotate(-41.52)"/><rect class="cls-39" x="613.94" y="556.14" width="0.4" height="40.61" transform="translate(-227.8 551.92) rotate(-41.52)"/><rect class="cls-40" x="613.64" y="556.4" width="0.4" height="40.61" transform="translate(-228.05 551.79) rotate(-41.52)"/><rect class="cls-41" x="613.34" y="556.67" width="0.4" height="40.61" transform="translate(-228.3 551.66) rotate(-41.52)"/><rect class="cls-42" x="613.04" y="556.93" width="0.4" height="40.61" transform="translate(-228.54 551.53) rotate(-41.52)"/><rect class="cls-43" x="612.75" y="557.19" width="0.4" height="40.61" transform="translate(-228.79 551.4) rotate(-41.52)"/><rect class="cls-44" x="612.45" y="557.46" width="0.4" height="40.61" transform="translate(-229.04 551.27) rotate(-41.52)"/><rect class="cls-45" x="612.15" y="557.72" width="0.4" height="40.61" transform="translate(-229.29 551.13) rotate(-41.52)"/><rect class="cls-46" x="611.85" y="557.98" width="0.4" height="40.61" transform="translate(-229.54 551) rotate(-41.52)"/><rect class="cls-47" x="611.56" y="558.25" width="0.4" height="40.61" transform="translate(-229.79 550.87) rotate(-41.52)"/><rect class="cls-47" x="611.21" y="558.53" width="0.45" height="40.61" transform="translate(-230.06 550.73) rotate(-41.52)"/><rect class="cls-48" x="610.87" y="558.83" width="0.45" height="40.61" transform="translate(-230.34 550.58) rotate(-41.52)"/><rect class="cls-48" x="610.54" y="559.13" width="0.45" height="40.61" transform="translate(-230.62 550.44) rotate(-41.52)"/><rect class="cls-49" x="610.2" y="559.43" width="0.45" height="40.61" transform="translate(-230.91 550.29) rotate(-41.52)"/><rect class="cls-50" x="609.86" y="559.73" width="0.45" height="40.61" transform="translate(-231.19 550.14) rotate(-41.52)"/><rect class="cls-51" x="609.52" y="560.03" width="0.45" height="40.61" transform="translate(-231.47 549.99) rotate(-41.52)"/><rect class="cls-52" x="609.18" y="560.33" width="0.45" height="40.61" transform="translate(-231.76 549.84) rotate(-41.52)"/><rect class="cls-53" x="608.85" y="560.62" width="0.45" height="40.61" transform="matrix(0.75, -0.66, 0.66, 0.75, -232.04, 549.69)"/><polygon class="cls-54" points="622.36 596.28 622.33 596.31 621.78 596.31 595.11 566.17 595.44 565.88 622.36 596.28"/><polygon class="cls-55" points="621.18 596.31 594.77 566.47 595.11 566.17 621.78 596.31 621.18 596.31"/><polygon class="cls-56" points="620.58 596.31 594.43 566.77 594.77 566.47 621.18 596.31 620.58 596.31"/><polygon class="cls-57" points="619.98 596.31 594.26 567.26 594.26 566.93 594.43 566.77 620.58 596.31 619.98 596.31"/><polygon class="cls-57" points="619.37 596.31 594.26 567.94 594.26 567.26 619.98 596.31 619.37 596.31"/><polygon class="cls-58" points="618.77 596.31 594.26 568.62 594.26 567.94 619.37 596.31 618.77 596.31"/><polygon class="cls-59" points="618.17 596.31 594.26 569.3 594.26 568.62 618.77 596.31 618.17 596.31"/><polygon class="cls-60" points="617.56 596.31 594.26 569.98 594.26 569.3 618.17 596.31 617.56 596.31"/><polygon class="cls-61" points="616.96 596.31 594.26 570.66 594.26 569.98 617.56 596.31 616.96 596.31"/><polygon class="cls-62" points="616.36 596.31 594.26 571.34 594.26 570.66 616.96 596.31 616.36 596.31"/><polygon class="cls-63" points="615.75 596.31 594.26 572.02 594.26 571.34 616.36 596.31 615.75 596.31"/><polygon class="cls-64" points="615.15 596.31 594.26 572.71 594.26 572.02 615.75 596.31 615.15 596.31"/><polygon class="cls-65" points="614.55 596.31 594.26 573.39 594.26 572.71 615.15 596.31 614.55 596.31"/><polygon class="cls-66" points="613.95 596.31 594.26 574.07 594.26 573.39 614.55 596.31 613.95 596.31"/><polygon class="cls-67" points="613.34 596.31 594.26 574.75 594.26 574.07 613.95 596.31 613.34 596.31"/><polygon class="cls-68" points="612.74 596.31 594.26 575.43 594.26 574.75 613.34 596.31 612.74 596.31"/><polygon class="cls-69" points="612.14 596.31 594.26 576.11 594.26 575.43 612.74 596.31 612.14 596.31"/><polygon class="cls-70" points="611.53 596.31 594.26 576.79 594.26 576.11 612.14 596.31 611.53 596.31"/><polygon class="cls-71" points="610.93 596.31 594.26 577.47 594.26 576.79 611.53 596.31 610.93 596.31"/><polygon class="cls-72" points="610.33 596.31 594.26 578.15 594.26 577.47 610.93 596.31 610.33 596.31"/><polygon class="cls-73" points="609.73 596.31 594.26 578.84 594.26 578.15 610.33 596.31 609.73 596.31"/><polygon class="cls-74" points="609.12 596.31 594.26 579.52 594.26 578.84 609.73 596.31 609.12 596.31"/><polygon class="cls-75" points="608.52 596.31 594.26 580.2 594.26 579.52 609.12 596.31 608.52 596.31"/><polygon class="cls-76" points="607.92 596.31 594.26 580.88 594.26 580.2 608.52 596.31 607.92 596.31"/><polygon class="cls-77" points="607.31 596.31 594.26 581.56 594.26 580.88 607.92 596.31 607.31 596.31"/><polygon class="cls-78" points="606.71 596.31 594.26 582.24 594.26 581.56 607.31 596.31 606.71 596.31"/><polygon class="cls-79" points="606.11 596.31 594.26 582.92 594.26 582.24 606.71 596.31 606.11 596.31"/><polygon class="cls-80" points="605.5 596.31 594.26 583.6 594.26 582.92 606.11 596.31 605.5 596.31"/><polygon class="cls-81" points="604.9 596.31 594.26 584.28 594.26 583.6 605.5 596.31 604.9 596.31"/><polygon class="cls-82" points="604.3 596.31 594.26 584.97 594.26 584.28 604.9 596.31 604.3 596.31"/><polygon class="cls-83" points="603.7 596.31 594.26 585.65 594.26 584.97 604.3 596.31 603.7 596.31"/><polygon class="cls-84" points="603.09 596.31 594.26 586.33 594.26 585.65 603.7 596.31 603.09 596.31"/><polygon class="cls-84" points="594.26 586.33 603.09 596.31 594.26 596.31 594.26 586.33"/></g><path class="cls-85" d="M500.58,308.65l-.1-.1-16.54-17-32.05-32.95a1.67,1.67,0,0,1-.35.26L483.4,291.6l16.31,16.76,12.22,12.54.8.28v0Z"/><g class="cls-86"><polygon class="cls-4" points="513.21 320.91 513.18 320.9 513.21 320.9 513.21 320.91"/><polygon class="cls-4" points="513.21 320.94 513.13 320.9 513.18 320.9 513.21 320.91 513.21 320.94"/><polygon class="cls-87" points="513.21 320.96 513.09 320.9 513.13 320.9 513.21 320.94 513.21 320.96"/><polygon class="cls-6" points="513.21 320.99 513.04 320.9 513.09 320.9 513.21 320.96 513.21 320.99"/><polygon class="cls-88" points="513.21 321.02 512.99 320.9 513.04 320.9 513.21 320.99 513.21 321.02"/><polygon class="cls-89" points="513.21 321.04 512.94 320.9 512.99 320.9 513.21 321.02 513.21 321.04"/><polygon class="cls-8" points="513.21 321.07 512.89 320.9 512.94 320.9 513.21 321.04 513.21 321.07"/><polygon class="cls-9" points="513.21 321.1 512.84 320.9 512.89 320.9 513.21 321.07 513.21 321.1"/><polygon class="cls-10" points="513.21 321.12 512.79 320.9 512.84 320.9 513.21 321.1 513.21 321.12"/><polygon class="cls-11" points="513.21 321.15 512.74 320.9 512.79 320.9 513.21 321.12 513.21 321.15"/><polygon class="cls-12" points="513.21 321.18 512.69 320.9 512.74 320.9 513.21 321.15 513.21 321.18"/><polygon class="cls-13" points="513.21 321.2 512.64 320.9 512.69 320.9 513.21 321.18 513.21 321.2"/><polygon class="cls-90" points="513.21 321.23 512.6 320.9 512.64 320.9 513.21 321.2 513.21 321.23"/><polygon class="cls-15" points="513.21 321.26 512.55 320.9 512.6 320.9 513.21 321.23 513.21 321.26"/><polygon class="cls-91" points="513.21 321.28 512.5 320.9 512.55 320.9 513.21 321.26 513.21 321.28"/><polygon class="cls-16" points="513.21 321.31 512.45 320.9 512.5 320.9 513.21 321.28 513.21 321.31"/><polygon class="cls-17" points="513.21 321.34 512.4 320.9 512.45 320.9 513.21 321.31 513.21 321.34"/><polygon class="cls-18" points="513.18 321.35 512.35 320.9 512.4 320.9 513.21 321.34 513.21 321.35 513.18 321.35"/><polygon class="cls-19" points="513.13 321.35 512.3 320.9 512.35 320.9 513.18 321.35 513.13 321.35"/><polygon class="cls-20" points="513.08 321.35 512.25 320.9 512.3 320.9 513.13 321.35 513.08 321.35"/><polygon class="cls-21" points="513.03 321.35 512.21 320.9 512.25 320.9 513.08 321.35 513.03 321.35"/><polygon class="cls-22" points="512.98 321.35 512.16 320.9 512.21 320.9 513.03 321.35 512.98 321.35"/><polygon class="cls-23" points="512.93 321.35 512.11 320.9 512.16 320.9 512.98 321.35 512.93 321.35"/><polygon class="cls-24" points="512.88 321.35 512.06 320.9 512.11 320.9 512.93 321.35 512.88 321.35"/><polygon class="cls-25" points="512.84 321.35 512.01 320.9 512.06 320.9 512.88 321.35 512.84 321.35"/><polygon class="cls-26" points="512.79 321.35 511.96 320.9 512.01 320.9 512.84 321.35 512.79 321.35"/><polygon class="cls-27" points="512.74 321.35 511.93 320.91 511.93 320.9 511.96 320.9 512.79 321.35 512.74 321.35"/><polygon class="cls-92" points="512.69 321.35 511.93 320.93 511.93 320.91 512.74 321.35 512.69 321.35"/><polygon class="cls-28" points="512.64 321.35 511.93 320.96 511.93 320.93 512.69 321.35 512.64 321.35"/><polygon class="cls-93" points="512.59 321.35 511.93 320.99 511.93 320.96 512.64 321.35 512.59 321.35"/><polygon class="cls-30" points="512.54 321.35 511.93 321.01 511.93 320.99 512.59 321.35 512.54 321.35"/><polygon class="cls-94" points="512.49 321.35 511.93 321.04 511.93 321.01 512.54 321.35 512.49 321.35"/><polygon class="cls-32" points="512.44 321.35 511.93 321.06 511.93 321.04 512.49 321.35 512.44 321.35"/><polygon class="cls-95" points="512.39 321.35 511.93 321.09 511.93 321.06 512.44 321.35 512.39 321.35"/><polygon class="cls-34" points="512.35 321.35 511.93 321.12 511.93 321.09 512.39 321.35 512.35 321.35"/><polygon class="cls-36" points="512.3 321.35 511.93 321.14 511.93 321.12 512.35 321.35 512.3 321.35"/><polygon class="cls-37" points="512.25 321.35 511.93 321.17 511.93 321.14 512.3 321.35 512.25 321.35"/><polygon class="cls-38" points="512.2 321.35 511.93 321.2 511.93 321.17 512.25 321.35 512.2 321.35"/><polygon class="cls-96" points="512.15 321.35 511.93 321.23 511.93 321.2 512.2 321.35 512.15 321.35"/><polygon class="cls-40" points="512.1 321.35 511.93 321.25 511.93 321.23 512.15 321.35 512.1 321.35"/><polygon class="cls-97" points="512.05 321.35 511.93 321.28 511.93 321.25 512.1 321.35 512.05 321.35"/><polygon class="cls-42" points="512 321.35 511.93 321.31 511.93 321.28 512.05 321.35 512 321.35"/><polygon class="cls-98" points="511.96 321.35 511.93 321.33 511.93 321.31 512 321.35 511.96 321.35"/><polygon class="cls-44" points="511.93 321.33 511.96 321.35 511.93 321.35 511.93 321.33"/></g><path class="cls-99" d="M640,565.73a15.2,15.2,0,0,1-4.46,10.74l-19.27,19a14.93,14.93,0,1,1-21-21.21l19.27-19a15,15,0,0,1,21.21,0A14.85,14.85,0,0,1,640,565.73Z"/><path class="cls-100" d="M664.17,477.3l-6.91,6.91-97.77,97.9-16.19,16-31.79,31.41-3.64,3.64h0L274.48,398l-11.77-11.87c29.91-21.56,114.18-75.8,162.1-108.39l4.15-2.85c8.93-6.11,16.35-11.29,21.59-15.22.35-.26.67-.48,1-.74a1.67,1.67,0,0,0,.35-.26l48.59,49.93,12.25,12.6v0C512.47,321.09,664.17,477.3,664.17,477.3Z"/><path class="cls-100" d="M284.42,320c-12.54,0-26.56-6.47-38.64-12.06-11.18-5.16-21.74-10-27.41-8.09a1.82,1.82,0,1,1-1.18-3.44c7.05-2.43,17.75,2.51,30.12,8.23,18.41,8.5,39.27,18.14,52.85,6.13,12.62-11.15,11.15-22.66,9.73-33.79-1.21-9.53-2.47-19.37,6.38-27.2,5.93-5.24,16-2.78,27.57.08C358,253.29,374,257.24,385,247.48a1.82,1.82,0,0,1,2.41,2.74c-12.45,11-29.44,6.83-44.43,3.13-10.61-2.6-19.78-4.85-24.29-.88-7.4,6.55-6.37,14.64-5.17,24,1.46,11.5,3.12,24.55-10.94,37C297.27,318.15,291.05,320,284.42,320Z"/><g class="cls-101"><path class="cls-102" d="M421.57,509.88a3.65,3.65,0,0,1-2.41-6.38l128-113A3.65,3.65,0,1,1,552,396L424,509A3.62,3.62,0,0,1,421.57,509.88Z"/></g><ellipse class="cls-100" cx="214.82" cy="297.34" rx="6.37" ry="6.3" transform="translate(-15.14 11.55) rotate(-2.97)"/><ellipse class="cls-100" cx="301.8" cy="312.01" rx="6.37" ry="6.3" transform="translate(-15.78 16.08) rotate(-2.97)"/><ellipse class="cls-100" cx="387.8" cy="248.97" rx="6.37" ry="6.3" transform="translate(-12.4 20.46) rotate(-2.97)"/><path class="cls-103" d="M541,525c0,18.17-15.13,33-33.73,33a34,34,0,0,1-23.84-9.67l8.29-8.11a22.17,22.17,0,0,0,15.55,6.31,21.78,21.78,0,0,0,22-21.5,21.19,21.19,0,0,0-7-15.67l8.3-8.11A32.58,32.58,0,0,1,541,525Z"/><path class="cls-85" d="M491.69,540.22l-8.29,8.11a32.51,32.51,0,0,1-9.9-23.3q0-.72,0-1.44H485.3q-.06.72-.06,1.44A21.16,21.16,0,0,0,491.69,540.22Z"/><path class="cls-99" d="M530.59,501.25l-8.3,8.11a22.16,22.16,0,0,0-15-5.84,21.79,21.79,0,0,0-21.94,20.07H473.53c.77-17.51,15.6-31.53,33.71-31.53A34,34,0,0,1,530.59,501.25Z"/><path class="cls-99" d="M577.78,494c-18.34,3-35.75-9.2-38.8-27.13a32.28,32.28,0,0,1,5.86-24.57l9.54,6.67a21.06,21.06,0,0,0-3.82,16c2,11.7,13.33,19.64,25.3,17.7a22,22,0,0,0,14.68-9.27l9.54,6.68A33.75,33.75,0,0,1,577.78,494Z"/><path class="cls-85" d="M554.38,449l-9.54-6.67A33.72,33.72,0,0,1,566.74,429c.48-.08,1-.15,1.45-.21l1.93,11.34c-.49.05-1,.1-1.46.18A22,22,0,0,0,554.38,449Z"/><path class="cls-2" d="M600.08,480.1l-9.54-6.68A21,21,0,0,0,594,458a21.93,21.93,0,0,0-23.85-17.88l-1.93-11.34c17.81-2.12,34.39,9.88,37.35,27.34A32.29,32.29,0,0,1,600.08,480.1Z"/><line class="cls-1" x1="531" y1="499.5" x2="525.38" y2="505.12"/><line class="cls-1" x1="516.89" y1="513.61" x2="506" y2="524.5"/><line class="cls-1" x1="477.12" y1="554.38" x2="474" y2="557.5"/><line class="cls-1" x1="493" y1="538.5" x2="485.6" y2="545.9"/><path class="cls-85" d="M469.34,247.39,462,240l0,0-40.81-41.15L414.33,192l-56.13-56.6a12.89,12.89,0,0,0-15.56-2.13L254.45,186,244.58,192l-9.33,5.57,0,0L139,254.62l-16.2,9.61c-6.85,4.14-5.92,20.69-.13,26.61l67,68,3.86,3.92L524.93,699.12c3.09,3.09,8.79,4.68,13.82,4.33a12.57,12.57,0,0,0,7.79-3.05L685.67,562.89c7.64-7.54,15.28-15.12,22.92-22.66,7.35-7.26,20.63-16.52,18.78-28.17a17.54,17.54,0,0,0-2.1-5.83c-3.12-5.57-8.82-9.83-13.15-14.22L697.51,477.3l-32.66-32.94c-4.55-4.59-9.14-9.17-13.66-13.78a.14.14,0,0,0-.13-.07l-14.2-14.32-24.35-24.57-15.38-15.44-13.34-13.43-22.47-22.67-1.56-1.56-12.86-13s-.07-.07-.1-.07L537.34,316,510.63,289l-36.67-37-4.62-4.64M632.15,575.24l-15.53,15.28a12,12,0,1,1-16.94-17.09l15.54-15.31a12.13,12.13,0,0,1,17.09,0,12,12,0,0,1,3.44,8.43A12.25,12.25,0,0,1,632.15,575.24Zm-123.27,56.6h0l-343.35-346L357.12,164.54,664.46,476.76Z"/><path class="cls-104" d="M423.89,481.94a2.2,2.2,0,0,1-1-.6L336.49,390a2.38,2.38,0,0,1,.1-3.3,2.24,2.24,0,0,1,3.23,0l86.43,91.34a2.38,2.38,0,0,1-.1,3.31A2.29,2.29,0,0,1,423.89,481.94Z"/><path class="cls-105" d="M442,464.54a2.22,2.22,0,0,1-1-.62l-66.81-72.37a2.39,2.39,0,0,1,.13-3.31,2.26,2.26,0,0,1,3.24.07l66.81,72.37a2.38,2.38,0,0,1-.13,3.3A2.3,2.3,0,0,1,442,464.54Z"/><path class="cls-106" d="M456.26,449.25a2.2,2.2,0,0,1-1-.68l-42.29-48.65a2.38,2.38,0,0,1,.23-3.3,2.24,2.24,0,0,1,3.23.16l42.29,48.66a2.36,2.36,0,0,1-.23,3.29A2.27,2.27,0,0,1,456.26,449.25Z"/><path class="cls-107" d="M472.44,432.9a2.28,2.28,0,0,1-1-.68l-24.59-28.64a2.36,2.36,0,0,1,.24-3.29,2.24,2.24,0,0,1,3.23.18l24.59,28.63a2.37,2.37,0,0,1-.24,3.3A2.29,2.29,0,0,1,472.44,432.9Z"/><path class="cls-108" d="M491.85,419.05a2.25,2.25,0,0,1-1-.67l-71.09-81.72a2.37,2.37,0,0,1,.22-3.3,2.25,2.25,0,0,1,3.23.15l71.1,81.73a2.38,2.38,0,0,1-.22,3.3A2.32,2.32,0,0,1,491.85,419.05Z"/><path class="cls-109" d="M510.47,402.32a2.25,2.25,0,0,1-1.05-.69l-54.91-64.3a2.37,2.37,0,0,1,.25-3.3,2.25,2.25,0,0,1,3.23.19l54.91,64.3a2.37,2.37,0,0,1-.25,3.3A2.27,2.27,0,0,1,510.47,402.32Z"/></svg>