<?xml version="1.0" encoding="utf-8"?>
<!-- Generator: Adobe Illustrator 22.0.0, SVG Export Plug-In . SVG Version: 6.00 Build 0)  -->
<svg version="1.1" id="Layer_1" xmlns="http://www.w3.org/2000/svg" xmlns:xlink="http://www.w3.org/1999/xlink" x="0px" y="0px"
	 viewBox="0 0 424.7 194.4" style="enable-background:new 0 0 424.7 194.4;" xml:space="preserve">
<style type="text/css">
	.st0{fill:#C9C9C9;}
</style>
<g>
	<path class="st0" d="M351.9,0h-9.2c-3.6,0-6.5,2.9-6.5,6.5v9.2c0,3.6,2.9,6.5,6.5,6.5h9.2c3.6,0,6.5-2.9,6.5-6.5V6.5
		C358.4,2.9,355.5,0,351.9,0z"/>
	<path class="st0" d="M415.8,105.5h-5.4c-4.9,0-8.9,4-8.9,8.9v5.4c0,4.9,4,8.9,8.9,8.9h5.4c4.9,0,8.9-4,8.9-8.9v-5.4
		C424.7,109.5,420.7,105.5,415.8,105.5z"/>
	<path class="st0" d="M255.4,174.9h-8.1c-3.2,0-5.7,2.6-5.7,5.7v8.1c0,3.2,2.6,5.7,5.7,5.7h8.1c3.2,0,5.7-2.6,5.7-5.7v-8.1
		C261.1,177.4,258.6,174.9,255.4,174.9z"/>
	<path class="st0" d="M259,25.4h4c1.3,0,2.4-1.1,2.4-2.4v-4c0-1.3-1.1-2.4-2.4-2.4h-4c-1.3,0-2.4,1.1-2.4,2.4v4
		C256.6,24.3,257.6,25.4,259,25.4z"/>
	<path class="st0" d="M399,25.4h-4.5c-0.8,0-1.4,0.6-1.4,1.4v4.5c0,0.8,0.6,1.4,1.4,1.4h4.5c0.8,0,1.4-0.6,1.4-1.4v-4.5
		C400.4,26,399.8,25.4,399,25.4z"/>
	<path class="st0" d="M352,83.5h-3.3c-2.7,0-5,2.2-5,5v3.3c0,2.7,2.2,5,5,5h3.3c2.7,0,5-2.2,5-5v-3.3C357,85.7,354.7,83.5,352,83.5z
		"/>
	<path class="st0" d="M341.1,154.1h-5.8c-0.9,0-1.6,0.7-1.6,1.6v5.8c0,0.9,0.7,1.6,1.6,1.6h5.8c0.9,0,1.6-0.7,1.6-1.6v-5.8
		C342.7,154.8,342,154.1,341.1,154.1z"/>
	<path class="st0" d="M393.4,170.1h-0.6c-1.1,0-2,0.9-2,2v0.6c0,1.1,0.9,2,2,2h0.6c1.1,0,2-0.9,2-2v-0.6
		C395.4,171.1,394.5,170.1,393.4,170.1z"/>
	<path class="st0" d="M46.2,108.2l-17.8-6.3c-5-1.8-6.7-3.8-6.7-6.4v-1.4c0-3.5,2.8-5,8.2-5H55c1.8,0,2.4-0.7,2.4-2.2V76.3
		c0-1.3-0.6-1.8-2.2-2.2c-8.1-1.4-16-1.8-22-1.8c-20,0-31.6,5.2-31.6,20V95c0,8.9,3.2,17.4,14.2,21.2l17.1,6.1
		c6.1,2.1,7.7,3.9,7.7,6.5v1.3c0,3.8-2.2,4.7-9.6,4.7H2.4c-1.7,0-2.4,0.6-2.4,2.1v11.3c0,1.5,0.6,2.1,2.4,2.1
		c6.7,0.7,16.7,1.4,28.8,1.4c17.7,0,29.7-4.2,29.7-20.3v-2.2C60.8,119.6,58,112.4,46.2,108.2z"/>
	<path class="st0" d="M102.9,72.3C74.8,72.3,68,80.1,68,112c0,31.7,6.8,39.7,34.9,39.7c9.2,0,19.2-0.4,26.6-1.9
		c1.3-0.1,1.9-0.7,1.9-2.2V136c0-1.4-0.7-2.1-2.1-2.1h-24.6c-12.1,0-15.5-2.2-15.7-14.8h43.7c3.6,0,4.5-1,4.5-3.8V111
		C137,79.9,130.3,72.3,102.9,72.3z M88.8,105.5C88.9,93.2,92.4,90,102.9,90c10.2,0,13.4,3.2,13.5,15.5H88.8z"/>
	<path class="st0" d="M184.3,72.3c-10.4,0-23.9,0.3-33.3,2.4c-1.4,0.3-2.1,0.4-2.1,2.1v72c0,1.5,0.7,2.2,2.1,2.2h16.6
		c1.4,0,2.1-0.7,2.1-2.2V90.1h12.7c12.8,0,14.9,1,14.9,20.9v37.7c0,1.5,0.7,2.2,2.1,2.2h16.4c1.4,0,2.2-0.7,2.2-2.2v-43
		C218,77.3,211,72.3,184.3,72.3z"/>
	<path class="st0" d="M270.2,133.8h-5.7c-6.1,0-8.2-1.1-8.2-7.1v-38h12.8c1.5,0,2.4-0.7,2.4-2.1V75.5c0-1.4-0.8-2.1-2.4-2.1h-12.8
		V53.5c0-1.5-0.8-2.5-2.2-2.1l-16.4,4.3c-1.4,0.3-1.9,0.8-1.9,2.2v15.5h-8.2c-1.5,0-2.2,0.7-2.2,2.1v11.1c0,1.4,0.7,2.1,2.2,2.1h8.2
		v45c0,17.5,10.9,18,22.8,18c3.1,0,7-0.3,11.8-1.3c1.5-0.3,2.2-1,2.2-2.6V136C272.6,134.4,271.9,133.8,270.2,133.8z"/>
	<path class="st0" d="M302.2,73h-16.4c-1.4,0-2.1,0.7-2.1,2.1v73.6c0,1.5,0.7,2.2,2.1,2.2h16.4c1.4,0,2.1-0.7,2.1-2.2V75.1
		C304.3,73.7,303.6,73,302.2,73z"/>
	<path class="st0" d="M285.5,61.6h17.1c1,0,1.7-0.8,1.7-1.7V42.8c0-1-0.8-1.7-1.7-1.7h-17.1c-1,0-1.7,0.8-1.7,1.7v17.1
		C283.7,60.8,284.5,61.6,285.5,61.6z"/>
</g>
</svg>
