<?xml version="1.0" encoding="iso-8859-1"?>
<!-- Generator: Adobe Illustrator 18.1.0, SVG Export Plug-In . SVG Version: 6.00 Build 0)  -->
<!DOCTYPE svg PUBLIC "-//W3C//DTD SVG 1.1//EN" "http://www.w3.org/Graphics/SVG/1.1/DTD/svg11.dtd">
<svg version="1.1" xmlns="http://www.w3.org/2000/svg" xmlns:xlink="http://www.w3.org/1999/xlink" x="0px" y="0px"
	 viewBox="0 0 500 550.817" style="enable-background:new 0 0 500 550.817;" xml:space="preserve">
<g id="_x23_snow-ball">
	<path style="fill:#FFD99B;" d="M429.624,76.14C384.176,29.194,320.502,0,250,0S115.824,29.194,70.376,76.14
		C26.817,121.133,0,182.43,0,250c0,38.631,8.767,75.212,24.412,107.871C64.685,441.939,150.559,500,250,500
		s185.315-58.061,225.588-142.129C491.232,325.212,500,288.631,500,250C500,182.43,473.182,121.133,429.624,76.14z"/>
	<g>
		<path style="fill:#730202;" d="M415.851,466.665c-2.251-12.117-35.912-11.368-43.251-17.239
			c-7.339-5.871,5.871-16.469,5.871-16.469c3.578-4.902,2.553-9.776,0.075-13.836c-3.9-6.389-10.985-10.142-18.468-10.293
			l-106.37-2.137l-106.37,2.137c-7.484,0.15-14.569,3.904-18.468,10.293c-2.478,4.06-3.503,8.935,0.075,13.836
			c0,0,13.21,10.598,5.871,16.469c-7.339,5.871-41.001,5.122-43.252,17.239c-2.251,12.117,0,17.419,0,17.419h162.144h162.144
			C415.851,484.084,418.101,478.782,415.851,466.665z"/>
		<path style="fill:#661414;" d="M419.292,486.039H88.122c-1.692,0-3.077-1.384-3.077-3.077v-10.039
			c0-1.692,1.384-3.077,3.077-3.077h331.17c1.692,0,3.077,1.384,3.077,3.077v10.039
			C422.368,484.654,420.984,486.039,419.292,486.039z"/>
		<g>
			<defs>
				<circle id="SVGID_1_" cx="253.707" cy="255.683" r="194.603"/>
			</defs>
			<clipPath id="SVGID_2_">
				<use xlink:href="#SVGID_1_"  style="overflow:visible;"/>
			</clipPath>
			<circle style="clip-path:url(#SVGID_2_);fill:#346066;" cx="253.707" cy="255.683" r="194.603"/>
			<path style="opacity:0.25;clip-path:url(#SVGID_2_);fill:#231F20;" d="M68.035,244.634c7.28-14.044,29.703-70.492,49.538-72.789
				c12.903-1.494,33.823,38.787,47.718,54.877c2.27,2.628,6.38,2.492,8.461-0.288c18.78-25.08,19.967-22.765,41.066,0.215
				c2.171,2.365,5.959,2.375,8.056-0.056c14.749-17.097,15.685-43.803,30.65-60.336c3.148-3.478,8.905-1.697,9.44,2.964
				c2.437,21.234,8.448,42.196,17.501,61.485c3.819,8.137,24.556,52.371,36.733,51.86c16.203-0.68,11.577-27.654,17.582-35.573
				c6.753-8.905,3.354-3.568,16.022-0.235c2.595,0.683,5.312-0.657,6.364-3.126c10.516-24.682,20.518-49.586,29.995-74.686
				c1.548-4.101,7.066-4.763,9.533-1.14c2.18,3.201,4.056,6.409,11.185,3.891c7.689-2.716,8.165-12.722,12.123-19.29
				c2.467-4.093,8.609-3.164,9.847,1.452c14.908,55.566,58.776,119.778,21.617,175.421
				c-31.637,47.373-118.472,65.639-170.044,77.282c-57.53,12.989-138.83,27.302-188.639-13.129
				c-23.486-19.065-45.167-49.964-49.498-80.4C38.87,282.009,54.989,269.8,68.035,244.634z"/>
			<path style="clip-path:url(#SVGID_2_);fill:#FFFFFF;" d="M423.653,372.33c-5.819,12.434-16.075,22.146-26.218,31.399
				c-13.973,12.747-28.182,25.232-42.391,37.716c-9.001,7.909-18.32,16.005-29.665,19.858c-10.533,3.577-21.937,3.194-33.058,2.919
				c-29.934-0.742-60.018-0.427-89.632-4.857c-29.614-4.429-59.123-13.934-82.742-32.338c-7.201-5.611-13.872-12.101-18.509-19.964
				c-3.938-6.678-6.301-14.145-8.625-21.541c-2.678-8.523-5.377-17.496-3.608-26.253c1.9-9.403,8.897-17.244,17.316-21.843
				s18.142-6.286,27.725-6.724c11.84-0.541,23.949,0.69,35.363-2.501c4.756-1.33,9.501-3.434,14.413-2.928
				c5.435,0.56,10.172,4.258,15.611,4.787c8.675,0.843,15.744-6.27,22.673-11.559c16.212-12.376,37.635-16.457,57.962-14.775
				c20.327,1.682,39.831,8.663,58.622,16.595c9.135-22.009,32.329-37.393,56.158-37.248c1.783,0.011,3.641,0.086,5.261-0.658
				c2.019-0.928,3.274-2.934,4.565-4.743c8.907-12.481,25.043-19.379,40.22-17.193c1.539,0.222,3.171,0.584,4.246,1.708
				c1.784,1.867,1.265,4.875,0.592,7.368c-5.47,20.27-4.638,40.732-14.046,61.711C429.977,344.446,429.775,359.249,423.653,372.33z"
				/>
			<polygon style="clip-path:url(#SVGID_2_);fill:#C4A474;" points="119.994,332.494 117.985,281.117 177.676,300.199 
				177.676,358.422 			"/>
			<polygon style="clip-path:url(#SVGID_2_);fill:#FFD99B;" points="177.676,300.199 177.676,358.422 214.126,348.636 
				210.457,290.902 194.311,274.757 			"/>
			<polygon style="clip-path:url(#SVGID_2_);fill:#A66933;" points="111.624,285.276 143.916,255.683 194.311,274.757 
				174.74,307.048 			"/>
			<polygon style="clip-path:url(#SVGID_2_);fill:#A66933;" points="194.311,274.757 216.328,296.04 218.04,294.327 			"/>
			<polygon style="clip-path:url(#SVGID_2_);fill:#F9CC07;" points="193.332,296.04 193.332,311.941 200.182,309.739 
				200.182,294.327 			"/>
			<polygon style="clip-path:url(#SVGID_2_);fill:#F9CC07;" points="191.663,354.667 191.663,337.628 206.176,333.469 
				207.353,350.455 			"/>
			<polygon style="clip-path:url(#SVGID_2_);fill:#F9CC07;" points="124.59,298.731 124.59,313.409 132.418,316.589 
				134.131,303.134 			"/>
			<polygon style="clip-path:url(#SVGID_2_);fill:#F9CC07;" points="140.491,304.847 139.023,319.769 147.83,322.95 
				149.543,308.761 			"/>
			<polygon style="clip-path:url(#SVGID_2_);fill:#231F20;fill-opacity:0.3;" points="158.865,364.339 158.492,365.838 
				161.714,365.838 161.362,364.109 			"/>
			<path style="clip-path:url(#SVGID_2_);fill:#F9CC07;" d="M155.903,311.941c0-0.245,0,12.966,0,12.966l9.541,4.403l1.468-15.412
				L155.903,311.941z"/>
			<g style="clip-path:url(#SVGID_2_);">
				<path style="fill:#B86E0C;" d="M168.221,371.037l-3.859,14.742c0,0,11.531,0.75,11.07-1.249
					c-0.461-1.999-4.151-14.493-4.151-14.493L168.221,371.037z"/>
				<polyline style="fill:#88A34F;" points="144.779,374.432 191.663,373.942 169.99,339.659 				"/>
				<polygon style="fill:#231F20;fill-opacity:0.3;" points="157.771,356.638 155.672,359.48 182.882,360.123 181.082,357.278 				
					"/>
				<polyline style="fill:#88A34F;" points="147.949,356.645 190.633,357.876 171.493,319.141 				"/>
				<polygon style="fill:#231F20;fill-opacity:0.3;" points="159.203,338.509 157.674,341.177 182.811,342.047 181.176,338.739 				
					"/>
				<path style="fill:#88A34F;" d="M169.452,307.629c0,0-11.586,25.182-19.389,30.886l36.899,1.145L169.452,307.629z"/>
			</g>
			<path style="clip-path:url(#SVGID_2_);fill:#FFFFFF;" d="M131.51,205.43c-2.624,0.817-3.635,3.936-5.559,5.898
				c-3.538,3.607-9.601,2.768-14.181,0.633c-2.096-0.977-4.291-2.202-6.573-1.826c-3.105,0.511-4.911,3.663-7.211,5.811
				c-4.897,4.575-13.48,4.354-18.136-0.467c12.433-9.482,16.214-26.385,25.486-38.975c2.496-3.389,5.616-6.607,9.665-7.757
				c6.954-1.974,14.161,2.834,18.375,8.708s6.596,12.918,10.935,18.699c3.015,4.018,6.9,7.321,9.905,11.348s5.12,9.196,3.812,14.046
				c-9.204-2.308-13.948-13.553-23.114-16.009C133.803,205.241,132.609,205.088,131.51,205.43z"/>
			<path style="clip-path:url(#SVGID_2_);fill:#FFFFFF;" d="M222.005,221.3c8.72-11.782,16.018-24.615,21.687-38.132
				c2.157-5.144,4.116-10.455,7.407-14.959c1.685-2.307,3.8-4.434,6.488-5.4c2.688-0.966,6.03-0.511,7.877,1.668
				c1.177,1.389,1.608,3.245,1.962,5.03c2.075,10.466,2.786,21.246,6.087,31.392c3.538,10.871,10.058,21.169,9.904,32.6
				c-5.15,1.44-10.119-2.697-13.441-6.888c-3.322-4.19-6.668-9.13-11.906-10.205c-3.245-0.666-6.798,0.448-9.082,2.846
				c-2.149,2.255-3.658,5.78-6.761,6.05c-2.715,0.237-5.139-2.341-7.834-1.935c-1.973,0.297-3.331,2.078-4.447,3.732
				c-2.371,3.515-4.702,7.174-8.06,9.763s-8.047,3.919-11.906,2.164c-6.089-2.768-7.515-11.589-13.614-14.336
				c-2.986-1.345-6.425-0.901-9.691-1.136c-3.266-0.234-6.962-1.634-7.883-4.776c-1.002-3.419,1.885-6.787,4.992-8.532
				c9.164-5.148,22.103-1.863,27.703,7.032c1.027,1.632,1.847,3.433,3.224,4.783s3.553,2.149,5.26,1.252
				C220.825,222.868,221.432,222.074,222.005,221.3z"/>
			<path style="clip-path:url(#SVGID_2_);fill:#FFFFFF;" d="M406.718,164.844c1.166-0.256,2.164-0.999,3.043-1.807
				c4.705-4.324,7.457-11.22,13.524-13.225c2.102-0.695,4.67-0.583,6.218,1c0.848,0.867,1.277,2.048,1.672,3.194
				c3.26,9.468,5.765,19.196,7.484,29.061c0.129,0.74,0.233,1.575-0.216,2.177c-0.403,0.54-1.126,0.716-1.794,0.805
				c-4.878,0.646-9.657-1.359-14.363-2.797c-4.706-1.438-10.169-2.23-14.259,0.506c-4.41,2.95-5.585,8.826-8.578,13.206
				c-5.714,8.361-19.182,9.875-26.61,2.991c1.997-7.238,3.994-14.477,5.991-21.715c1.292-4.684,2.665-9.525,5.787-13.249
				c3.121-3.723,8.512-6.012,12.964-4.065C400.695,162.287,403.396,165.573,406.718,164.844z"/>
			<path style="clip-path:url(#SVGID_2_);fill:#FFFFFF;" d="M174.61,310.612c1.746,0.536,3.465-1.165,3.916-2.936
				c0.451-1.77,0.122-3.647,0.376-5.456c0.427-3.039,2.433-5.587,4.365-7.971c3.607-4.451,7.215-8.902,10.822-13.354
				c0.981-1.21,2.177-2.528,3.734-2.529c1.174,0,2.192,0.765,3.111,1.494c2.991,2.372,5.982,4.744,8.973,7.115
				c2.032,1.611,4.245,3.565,4.318,6.158c0.022,0.768-0.151,1.568,0.119,2.288c0.553,1.478,2.839,1.663,3.935,0.529
				c1.096-1.135,1.091-3.004,0.407-4.426s-1.909-2.497-3.11-3.519c-5.178-4.406-10.53-8.61-16.037-12.597
				c-2.886-2.089-5.823-4.124-8.959-5.815c-4.997-2.693-10.425-4.473-15.82-6.238c-10.956-3.586-21.912-7.171-32.868-10.757
				c-6.216,7.378-13.499,13.856-21.553,19.167c-2.701,1.781-5.614,3.564-7.133,6.42c-0.302,0.568-0.546,1.19-0.53,1.833
				c0.063,2.448,3.387,3.198,5.811,2.849c2.424-0.349,5.444-0.814,6.832,1.204c1.751,2.546-1.159,6.164-0.006,9.031
				c1.02,2.536,5.424,2.454,6.349-0.118c0.471-1.31,0.323-3.138,1.607-3.676c1.968-0.825,3.299,2.806,5.432,2.733
				c1.053-0.036,1.82-0.976,2.759-1.453c1.845-0.936,4.422,0.368,4.76,2.409c0.164,0.989-0.105,2.098,0.44,2.939
				c1.171,1.807,3.921,0.215,6.074,0.251c3.374,0.056,5.192,4.41,8.485,5.149c3.364,0.755,7.515-2.391,9.964,0.035
				C173.65,303.813,171.293,309.593,174.61,310.612z"/>
			<g style="clip-path:url(#SVGID_2_);">
				<path style="fill:#B86E0C;" d="M339.453,317.131l-2.587,9.885c0,0,7.732,0.503,7.422-0.838s-2.783-9.717-2.783-9.717
					L339.453,317.131z"/>
				<polyline style="fill:#88A34F;" points="323.735,319.407 355.171,319.078 340.639,296.092 				"/>
				<polygon style="fill:#231F20;fill-opacity:0.3;" points="332.447,307.476 331.039,309.382 349.283,309.813 348.076,307.905 				
					"/>
				<polyline style="fill:#88A34F;" points="325.861,307.481 354.48,308.306 341.647,282.334 				"/>
				<polygon style="fill:#231F20;fill-opacity:0.3;" points="333.406,295.32 332.381,297.11 349.236,297.693 348.14,295.475 				"/>
				<path style="fill:#88A34F;" d="M340.279,274.615c0,0-7.768,16.885-13,20.709l24.741,0.768L340.279,274.615z"/>
			</g>
			<g style="clip-path:url(#SVGID_2_);">
				<path style="fill:#B86E0C;" d="M320.092,314.373l1.9,7.003c0,0-5.677,0.356-5.45-0.593c0.227-0.95,2.044-6.884,2.044-6.884
					L320.092,314.373z"/>
				<polyline style="fill:#88A34F;" points="331.632,315.986 308.551,315.753 319.221,299.468 				"/>
				<polygon style="fill:#231F20;fill-opacity:0.3;" points="325.236,307.533 326.27,308.883 312.874,309.188 313.76,307.837 				
					"/>
				<polyline style="fill:#88A34F;" points="330.072,307.536 309.058,308.121 318.481,289.721 				"/>
				<polygon style="fill:#231F20;fill-opacity:0.3;" points="324.531,298.921 325.284,300.189 312.908,300.602 313.713,299.03 				
					"/>
				<path style="fill:#88A34F;" d="M319.485,284.252c0,0,5.704,11.962,9.545,14.672l-18.166,0.544L319.485,284.252z"/>
			</g>
			<g style="clip-path:url(#SVGID_2_);">
				<path style="fill:#B86E0C;" d="M358.022,301.869l1.397,5.151c0,0-4.176,0.262-4.009-0.437s1.503-5.064,1.503-5.064
					L358.022,301.869z"/>
				<polyline style="fill:#88A34F;" points="366.512,303.056 349.533,302.884 357.382,290.905 				"/>
				<polygon style="fill:#231F20;fill-opacity:0.3;" points="361.806,296.838 362.567,297.831 352.713,298.056 353.365,297.062 				
					"/>
				<polyline style="fill:#88A34F;" points="365.363,296.841 349.906,297.271 356.838,283.736 				"/>
				<polygon style="fill:#231F20;fill-opacity:0.3;" points="361.288,290.503 361.842,291.436 352.739,291.74 353.331,290.584 				
					"/>
				<path style="fill:#88A34F;" d="M357.576,279.713c0,0,4.196,8.799,7.021,10.792l-13.362,0.4L357.576,279.713z"/>
			</g>
			<path style="clip-path:url(#SVGID_2_);fill:#FFD99B;" d="M319.744,389.898c-0.669,2.283,1.777,60.388,1.777,60.388l70.641,4.608
				l-3.611-66.627L319.744,389.898z"/>
			<path style="clip-path:url(#SVGID_2_);fill:#BD3A23;" d="M302.439,385.917c1.468-0.096,80.729-72.997,80.729-72.997l55.777,2.446
				c0,0,4.01,13.283,1.957,21.039c-2.053,7.756-8.962,52.352-24.052,63.116C401.761,410.284,302.439,385.917,302.439,385.917z"/>
			<path style="clip-path:url(#SVGID_2_);fill:#F8F8F8;" d="M393.239,386.782c2.786,0.33,5.042,2.54,7.803,3.034
				c4.764,0.852,8.719-3.468,11.622-7.341c4.964-6.623,9.928-13.246,14.892-19.87c3.137-4.185,6.298-8.412,8.47-13.17
				c4.647-10.184,4.375-21.836,4.015-33.024c-0.032-1.001-0.102-2.096-0.784-2.828c-0.667-0.716-1.723-0.874-2.695-0.99
				c-13.933-1.669-27.867-3.338-41.8-5.007c-2.783-0.333-5.599-0.667-8.38-0.32c-6.596,0.823-12.075,5.292-17.154,9.58
				c-14.742,12.445-29.615,25.028-41.251,40.416c-1.595,2.109-3.154,4.297-5.236,5.928c-2.946,2.307-6.73,3.336-9.69,5.625
				c-2.96,2.289-4.857,6.877-2.428,9.723c2.493,2.921,7.222,1.713,10.647-0.025c3.424-1.738,7.521-3.791,10.854-1.883
				c4.154,2.378,3.957,9.329,8.302,11.336c4.676,2.16,9.153-3.261,14.04-4.89c9.667-3.223,19.172,8.991,29.067,6.556
				C386.839,388.818,389.854,386.381,393.239,386.782z"/>
			<path style="clip-path:url(#SVGID_2_);fill:#F9CC07;" d="M332.774,441.108c0-1.468,0-30.239,0-30.239l41.588,2.35l-6.85,28.378
				L332.774,441.108z"/>
			<g style="clip-path:url(#SVGID_2_);">
				<path style="fill:#B86E0C;" d="M253.707,509.819l-10.632,40.618c0,0,31.77,2.065,30.499-3.442
					c-1.271-5.508-11.437-39.93-11.437-39.93L253.707,509.819z"/>
				<polyline style="fill:#88A34F;" points="189.119,519.174 318.294,517.823 258.581,423.368 				"/>
				<polygon style="fill:#231F20;fill-opacity:0.3;" points="224.917,470.148 219.132,477.979 294.101,479.749 289.141,471.912 				
					"/>
				<polyline style="fill:#88A34F;" points="197.854,470.167 315.456,473.559 262.721,366.835 				"/>
				<polygon style="fill:#231F20;fill-opacity:0.3;" points="228.86,420.197 224.648,427.55 293.906,429.947 289.402,420.832 				
					"/>
				<path style="fill:#88A34F;" d="M257.099,335.117c0,0-31.922,69.383-53.42,85.096l101.664,3.155L257.099,335.117z"/>
			</g>
			<path style="clip-path:url(#SVGID_2_);fill:#F8F8F8;" d="M164.956,329.287c-2.171-0.462-4.094,2.941-6.068,1.926
				c-0.776-0.399-1.095-1.345-1.17-2.214c-0.217-2.543,1.025-4.96,2.282-7.181c2.223-3.924,4.626-7.782,6.189-12.013
				c0.571-1.545,1.334-3.405,2.966-3.625c1.736-0.234,2.982,1.574,3.781,3.133c2.074,4.044,4.148,8.088,6.223,12.131
				c1.812,3.532,3.661,7.196,3.895,11.159c-1.602,1.002-3.904,0.68-5.169-0.724c-0.602-0.668-1.015-1.562-1.826-1.95
				c-2.452-1.174-4.741,3.349-7.33,2.521C167.135,331.94,166.593,329.635,164.956,329.287z"/>
			<path style="clip-path:url(#SVGID_2_);fill:#F8F8F8;" d="M232.268,377.765c1.55-2.486,2.922-5.083,4.101-7.766
				c2.83-6.438,4.532-13.317,7.196-19.824c2.665-6.508,6.5-12.844,12.422-16.637c0.604-0.387,1.248-0.753,1.959-0.848
				c2.279-0.304,3.885,2.105,4.895,4.17c5.504,11.261,11.007,22.522,16.511,33.783c2.007,4.108,4.042,8.302,4.674,12.83
				c0.074,0.533,0.12,1.113-0.157,1.575c-0.399,0.665-1.282,0.814-2.053,0.895c-4.038,0.426-8.127,0.852-12.145,0.267
				c-4.864-0.708-9.503-2.882-14.418-2.931c-7.411-0.074-15.416,4.562-21.75,0.714c-1.254-0.762-2.401-2.004-2.364-3.472
				C231.164,379.516,231.735,378.618,232.268,377.765z"/>
			<path style="clip-path:url(#SVGID_2_);fill:#F8F8F8;" d="M340.118,273.897c1.33,0.052,2.376,1.128,3.173,2.193
				c1.873,2.5,3.233,5.383,3.972,8.418c0.304,1.246,0.404,2.795-0.614,3.576c-0.856,0.657-2.103,0.417-3.06-0.081
				c-0.957-0.497-1.81-1.222-2.848-1.515c-3.006-0.848-6.072,2.199-9.098,1.423c1.233-3.682,2.762-7.264,4.567-10.702
				C337.05,275.61,338.312,273.826,340.118,273.897z"/>
			<path style="clip-path:url(#SVGID_2_);fill:#F8F8F8;" d="M354.145,284.751c0.466-0.924,0.931-1.848,1.397-2.772
				c0.667-1.324,1.584-2.824,3.062-2.934c1.361-0.101,2.494,1.09,3.031,2.344c0.537,1.254,0.702,2.653,1.326,3.866
				c-2.835,0.275-5.709,0.151-8.51-0.369"/>
			<circle style="clip-path:url(#SVGID_2_);fill:#F8F8F8;" cx="185.993" cy="101.188" r="4.403"/>
			<circle style="clip-path:url(#SVGID_2_);fill:#F8F8F8;" cx="258.65" cy="127.609" r="1.835"/>
			<circle style="clip-path:url(#SVGID_2_);fill:#F8F8F8;" cx="179.572" cy="168.891" r="2.018"/>
			<circle style="clip-path:url(#SVGID_2_);fill:#F8F8F8;" cx="321.399" cy="112.564" r="2.569"/>
			<circle style="clip-path:url(#SVGID_2_);fill:#F8F8F8;" cx="331.123" cy="198.247" r="4.22"/>
			<circle style="clip-path:url(#SVGID_2_);fill:#F8F8F8;" cx="197.369" cy="195.128" r="1.468"/>
			<circle style="clip-path:url(#SVGID_2_);fill:#F8F8F8;" cx="110.034" cy="134.581" r="2.569"/>
			<circle style="clip-path:url(#SVGID_2_);fill:#F8F8F8;" cx="107.099" cy="241.364" r="1.835"/>
			<circle style="clip-path:url(#SVGID_2_);fill:#F8F8F8;" cx="220.854" cy="261.913" r="4.403"/>
			<circle style="clip-path:url(#SVGID_2_);fill:#F8F8F8;" cx="290.092" cy="264.115" r="2.569"/>
			<circle style="clip-path:url(#SVGID_2_);fill:#F8F8F8;" cx="329.472" cy="139.718" r="2.569"/>
			<circle style="clip-path:url(#SVGID_2_);fill:#F8F8F8;" cx="376.625" cy="153.112" r="3.119"/>
			<circle style="clip-path:url(#SVGID_2_);fill:#F8F8F8;" cx="411.118" cy="240.447" r="3.486"/>
			<circle style="clip-path:url(#SVGID_2_);fill:#F8F8F8;" cx="273.878" cy="278.977" r="2.385"/>
			<ellipse style="clip-path:url(#SVGID_2_);fill:#F8F8F8;" cx="291.309" cy="161.185" rx="0" ry="1.284"/>
			<ellipse style="clip-path:url(#SVGID_2_);fill:#F8F8F8;" cx="274.062" cy="91.831" rx="0" ry="2.385"/>
			<circle style="clip-path:url(#SVGID_2_);fill:#F8F8F8;" cx="208.01" cy="137.883" r="2.569"/>
			<circle style="clip-path:url(#SVGID_2_);fill:#F8F8F8;" cx="165.261" cy="133.664" r="4.22"/>
			<circle style="clip-path:url(#SVGID_2_);fill:#F8F8F8;" cx="272.41" cy="91.831" r="2.385"/>
			<circle style="clip-path:url(#SVGID_2_);fill:#F8F8F8;" cx="290.275" cy="126.325" r="2.752"/>
			<circle style="clip-path:url(#SVGID_2_);fill:#F8F8F8;" cx="290.15" cy="164.729" r="2.627"/>
			<circle style="clip-path:url(#SVGID_2_);fill:#F8F8F8;" cx="317.913" cy="173.661" r="0.917"/>
			<circle style="clip-path:url(#SVGID_2_);fill:#F8F8F8;" cx="353.69" cy="127.976" r="1.468"/>
			<circle style="clip-path:url(#SVGID_2_);fill:#F8F8F8;" cx="225.257" cy="99.354" r="4.77"/>
			<circle style="clip-path:url(#SVGID_2_);fill:#F8F8F8;" cx="316.261" cy="236.227" r="2.569"/>
			<circle style="clip-path:url(#SVGID_2_);fill:#F8F8F8;" cx="83.063" cy="276.775" r="2.752"/>
			<circle style="clip-path:url(#SVGID_2_);fill:#F8F8F8;" cx="70.954" cy="227.603" r="2.018"/>
			<circle style="clip-path:url(#SVGID_2_);fill:#F8F8F8;" cx="88.372" cy="180.805" r="2.19"/>
			<circle style="clip-path:url(#SVGID_2_);fill:#F8F8F8;" cx="393.321" cy="253.84" r="2.202"/>
			<circle style="clip-path:url(#SVGID_2_);fill:#F8F8F8;" cx="424.879" cy="210.786" r="1.835"/>
			<path style="opacity:0.25;clip-path:url(#SVGID_2_);fill:#231F20;" d="M290.942,245.767c0,0,26.788-39.264,31.558-36.695
				c4.77,2.569,2.936,3.67,11.375,12.109c8.44,8.44,17.038,17.737,20.549,16.88c5.69-1.39,5.579-2.914,5.504,2.446
				c-0.075,5.361,0.367,13.7-9.908,11.131s-12.476-5.871-12.476-1.101c0,4.77-3.67,33.393-11.009,34.86
				c-7.339,1.468-10.642,5.871-16.146,0c-5.504-5.871-24.52-27.878-22.751-32.292C289.408,248.693,290.942,245.767,290.942,245.767z
				"/>
			<circle style="clip-path:url(#SVGID_2_);fill:#F8F8F8;" cx="286.538" cy="189.624" r="2.202"/>
			<path style="clip-path:url(#SVGID_2_);fill:#F8F8F8;" d="M318.53,297.909c-1.31,1.129-3.217,1.521-4.867,0.999
				c-0.366-0.116-0.737-0.287-0.959-0.601c-0.324-0.459-0.242-1.081-0.129-1.632c1.012-4.93,3.451-9.559,6.946-13.181
				c0.302-0.313,0.689-0.643,1.114-0.558c0.417,0.083,0.647,0.521,0.82,0.909c2.487,5.603,4.974,11.206,7.461,16.808
				c-3.003,0.577-6.273-0.535-8.302-2.823c-0.211-0.238-0.432-0.502-0.742-0.574C319.368,297.139,318.923,297.57,318.53,297.909z"/>
			<circle style="clip-path:url(#SVGID_2_);fill:#F8F8F8;" cx="223.055" cy="172.744" r="2.202"/>
			<ellipse style="clip-path:url(#SVGID_2_);fill:#F8F8F8;" cx="359.947" cy="161.919" rx="0" ry="1.284"/>
		</g>
		<polygon style="opacity:0.2;fill:#F9CC07;" points="191.663,354.667 238.312,365.101 243.565,350.175 207.353,350.455 		"/>
	</g>
</g>
<g id="Livello_1">
</g>
</svg>
