<?xml version="1.0" encoding="iso-8859-1"?>
<!-- Generator: Adobe Illustrator 18.1.0, SVG Export Plug-In . SVG Version: 6.00 Build 0)  -->
<!DOCTYPE svg PUBLIC "-//W3C//DTD SVG 1.1//EN" "http://www.w3.org/Graphics/SVG/1.1/DTD/svg11.dtd">
<svg version="1.1" xmlns="http://www.w3.org/2000/svg" xmlns:xlink="http://www.w3.org/1999/xlink" x="0px" y="0px"
	 viewBox="0 0 500 504.332" style="enable-background:new 0 0 500 504.332;" xml:space="preserve">
<pattern  x="976.648" y="960.779" width="173.207" height="138.427" patternUnits="userSpaceOnUse" id="stelline" viewBox="0 -138.427 173.207 138.427" style="overflow:visible;">
	<g>
		<polygon style="fill:none;" points="0,-138.427 173.207,-138.427 173.207,0 0,0 		"/>
		<polygon style="fill:#FFFFFF;" points="11.862,-122.756 17.195,-138.427 24.529,-126.427 37.845,-126.756 28.529,-119.094 
			33.862,-107.442 21.268,-114.427 11.862,-103.094 11.862,-114.427 0,-120.761 		"/>
		<polygon style="fill:#FFFFFF;" points="40.58,-94.874 45.667,-103.345 49.415,-94.874 57.178,-92.991 51.556,-89.54 
			55.572,-82.952 45.934,-87.658 38.706,-82.952 40.045,-88.913 33.851,-93.148 		"/>
		<polygon style="fill:#FFFFFF;" points="55.244,-118.225 53.213,-126.134 59.564,-124.338 66.826,-130.8 65.529,-121.337 
			73.461,-118.83 64.233,-111.874 64.569,-106.246 59.008,-112.871 51.203,-113.269 		"/>
		<polygon style="fill:#FFFFFF;" points="83.201,-97.081 85.164,-102.848 87.863,-98.432 92.762,-98.553 89.334,-95.734 
			91.297,-91.446 86.663,-94.016 83.201,-89.846 83.201,-94.016 78.837,-96.347 		"/>
		<polygon style="fill:#FFFFFF;" points="103.694,-73.803 108.781,-82.274 112.529,-73.803 120.292,-71.92 114.67,-68.469 
			118.686,-61.881 109.048,-66.587 101.82,-61.881 103.159,-67.842 96.965,-72.077 		"/>
		<polygon style="fill:#FFFFFF;" points="116.011,-96.721 114.524,-102.51 119.173,-101.195 124.489,-105.926 123.54,-98.998 
			129.347,-97.163 122.591,-92.07 122.837,-87.95 118.766,-92.8 113.052,-93.092 		"/>
		<polygon style="fill:#FFFFFF;" points="26.025,-60.875 31.359,-76.547 38.692,-64.547 52.008,-64.875 42.692,-57.213 
			48.025,-45.561 35.431,-52.547 26.025,-41.213 26.025,-52.547 14.163,-58.88 		"/>
		<polygon style="fill:#FFFFFF;" points="54.743,-32.993 59.83,-41.464 63.578,-32.993 71.341,-31.111 65.719,-27.66 
			69.735,-21.071 60.097,-25.777 52.869,-21.071 54.208,-27.032 48.014,-31.268 		"/>
		<polygon style="fill:#FFFFFF;" points="69.408,-56.345 67.376,-64.253 73.727,-62.457 80.989,-68.92 79.692,-59.456 
			87.624,-56.949 78.396,-49.993 78.732,-44.365 73.171,-50.99 65.366,-51.388 		"/>
		<polygon style="fill:#FFFFFF;" points="97.365,-35.201 99.327,-40.967 102.026,-36.552 106.926,-36.672 103.498,-33.853 
			105.46,-29.565 100.826,-32.136 97.365,-27.965 97.365,-32.136 93,-34.466 		"/>
		<polygon style="fill:#FFFFFF;" points="117.857,-11.922 122.944,-20.393 126.692,-11.922 134.455,-10.04 128.833,-6.589 
			132.849,0 123.212,-4.706 115.983,0 117.322,-5.961 111.129,-10.197 		"/>
		<polygon style="fill:#FFFFFF;" points="130.174,-34.84 128.687,-40.63 133.336,-39.315 138.652,-44.046 137.703,-37.118 
			143.51,-35.282 136.754,-30.19 137,-26.07 132.929,-30.92 127.215,-31.211 		"/>
		<polygon style="fill:#FFFFFF;" points="147.225,-66.602 152.558,-82.274 159.891,-70.274 173.207,-70.602 163.891,-62.94 
			169.225,-51.288 156.63,-58.274 147.225,-46.94 147.225,-58.274 135.362,-64.607 		"/>
		<polygon style="fill:#FFFFFF;" points="149.35,-107.652 154.437,-116.123 158.185,-107.652 165.948,-105.77 160.326,-102.318 
			164.342,-95.73 154.704,-100.436 147.476,-95.73 148.815,-101.691 142.621,-105.926 		"/>
		<polygon style="fill:#FFFFFF;" points="101.991,-129.957 107.077,-138.427 110.825,-129.957 118.589,-128.074 112.967,-124.623 
			116.983,-118.035 107.345,-122.741 100.117,-118.035 101.456,-123.996 95.262,-128.231 		"/>
		<polygon style="fill:#FFFFFF;" points="9.361,-88.684 11.324,-94.451 14.022,-90.035 18.922,-90.156 15.494,-87.337 
			17.457,-83.049 12.822,-85.62 9.361,-81.449 9.361,-85.62 4.996,-87.95 		"/>
		<polygon style="fill:#FFFFFF;" points="83.201,-7.909 85.164,-13.676 87.863,-9.26 92.762,-9.381 89.334,-6.562 91.297,-2.274 
			86.663,-4.845 83.201,-0.674 83.201,-4.845 78.837,-7.175 		"/>
		<polygon style="fill:#FFFFFF;" points="161.65,-31.7 163.612,-37.466 166.311,-33.051 171.211,-33.171 167.783,-30.352 
			169.745,-26.064 165.111,-28.635 161.65,-24.465 161.65,-28.635 157.285,-30.965 		"/>
		<polygon style="fill:#FFFFFF;" points="151.687,-7.909 153.649,-13.676 156.348,-9.26 161.248,-9.381 157.82,-6.562 
			159.782,-2.274 155.148,-4.845 151.687,-0.674 151.687,-4.845 147.322,-7.175 		"/>
	</g>
</pattern>
<g id="_x23_santa-chimney">
	<circle style="fill:#26424B;" cx="250" cy="250" r="250"/>
	<pattern  id="SVGID_1_" xlink:href="#stelline" patternTransform="matrix(1 0 0 1 -101.2298 126.4168)">
	</pattern>
	<circle style="opacity:0.15;fill:url(#SVGID_1_);" cx="250" cy="250" r="250"/>
	<path style="fill:#DB605A;" d="M278.227,88.097"/>
	<g>
		<g>
			<g>
				<g>
					<rect x="39.582" y="233.387" style="fill:#730202;" width="205.761" height="270.945"/>
					<polygon style="fill:#890B0B;" points="244.462,504.332 243.087,271.346 265.479,242.679 265.479,467.013 					"/>
					<g style="opacity:0.25;">
						<path style="fill:#FFFFFF;" d="M99.709,344.679H58.105c-3.692,0-6.685-2.993-6.685-6.685v-20.631
							c0-3.692,2.993-6.685,6.685-6.685h41.604c3.692,0,6.685,2.993,6.685,6.685v20.631
							C106.394,341.687,103.401,344.679,99.709,344.679z"/>
						<g>
							<path style="fill:#FFFFFF;" d="M165.578,344.679h-41.604c-3.692,0-6.685-2.993-6.685-6.685v-20.631
								c0-3.692,2.993-6.685,6.685-6.685h41.604c3.692,0,6.685,2.993,6.685,6.685v20.631
								C172.262,341.687,169.27,344.679,165.578,344.679z"/>
						</g>
						<g>
							<path style="fill:#FFFFFF;" d="M230.736,344.679h-41.604c-3.692,0-6.685-2.993-6.685-6.685v-20.631
								c0-3.692,2.993-6.685,6.685-6.685h41.604c3.692,0,6.685,2.993,6.685,6.685v20.631
								C237.42,341.687,234.428,344.679,230.736,344.679z"/>
						</g>
						<path style="fill:#FFFFFF;" d="M137.736,392.013H96.132c-3.692,0-6.685-2.993-6.685-6.685v-20.631
							c0-3.692,2.993-6.685,6.685-6.685h41.604c3.692,0,6.685,2.993,6.685,6.685v20.631
							C144.42,389.02,141.428,392.013,137.736,392.013z"/>
						<g>
							<path style="fill:#FFFFFF;" d="M203.605,392.013h-41.604c-3.692,0-6.685-2.993-6.685-6.685v-20.631
								c0-3.692,2.993-6.685,6.685-6.685h41.604c3.692,0,6.685,2.993,6.685,6.685v20.631
								C210.289,389.02,207.296,392.013,203.605,392.013z"/>
						</g>
						<path style="fill:#FFFFFF;" d="M98.752,440.013H57.148c-3.692,0-6.685-2.993-6.685-6.685v-20.631
							c0-3.692,2.993-6.685,6.685-6.685h41.604c3.692,0,6.685,2.993,6.685,6.685v20.631
							C105.437,437.02,102.444,440.013,98.752,440.013z"/>
						<g>
							<path style="fill:#FFFFFF;" d="M164.621,440.013h-41.604c-3.692,0-6.685-2.993-6.685-6.685v-20.631
								c0-3.692,2.993-6.685,6.685-6.685h41.604c3.692,0,6.685,2.993,6.685,6.685v20.631
								C171.305,437.02,168.313,440.013,164.621,440.013z"/>
						</g>
						<g>
							<path style="fill:#FFFFFF;" d="M229.779,440.013h-41.604c-3.692,0-6.685-2.993-6.685-6.685v-20.631
								c0-3.692,2.993-6.685,6.685-6.685h41.604c3.692,0,6.685,2.993,6.685,6.685v20.631
								C236.463,437.02,233.471,440.013,229.779,440.013z"/>
						</g>
						<path style="fill:#FFFFFF;" d="M130.196,484.013H88.591c-3.692,0-6.685-2.993-6.685-6.685v-20.631
							c0-3.692,2.993-6.685,6.685-6.685h41.604c3.692,0,6.685,2.993,6.685,6.685v20.631
							C136.88,481.02,133.887,484.013,130.196,484.013z"/>
						<g>
							<path style="fill:#FFFFFF;" d="M196.064,484.013H154.46c-3.692,0-6.685-2.993-6.685-6.685v-20.631
								c0-3.692,2.993-6.685,6.685-6.685h41.604c3.692,0,6.685,2.993,6.685,6.685v20.631
								C202.749,481.02,199.756,484.013,196.064,484.013z"/>
						</g>
					</g>
					<g style="opacity:0.25;">
						<path style="fill:#FFFFFF;" d="M227.159,358.013c-3.692,0-6.685,2.993-6.685,6.685v20.631c0,3.692,2.993,6.685,6.685,6.685
							l15.928,0v-34L227.159,358.013z"/>
						<path style="fill:#FFFFFF;" d="M212.934,456.697v20.631c0,3.692,2.993,6.685,6.685,6.685l24.523,0v-34h-24.523
							C215.927,450.013,212.934,453.005,212.934,456.697z"/>
						<path style="fill:#FFFFFF;" d="M75.447,385.328v-20.631c0-3.692-2.993-6.685-6.685-6.685H39.582v34h29.181
							C72.454,392.013,75.447,389.02,75.447,385.328z"/>
						<path style="fill:#FFFFFF;" d="M67.907,477.328v-20.631c0-3.692-2.993-6.685-6.685-6.685H39.582v34h21.641
							C64.914,484.013,67.907,481.02,67.907,477.328z"/>
					</g>
					<path style="opacity:0.35;fill:#FFFFFF;" d="M243.087,358.013l9.965-7.88c1.768-1.398,4.368-0.139,4.368,2.115v24.63
						c0,0.726-0.293,1.421-0.812,1.929l-13.521,13.207V358.013z"/>
					<path style="fill:#EFEFEF;" d="M267.42,254.348c-0.889-9.155,1.225-20.822-3.491-29.168c-0.409-0.723-0.84-1.252-1.289-1.63
						c-0.829-1.976-2.351-3.722-4.304-4.871c-4.65-2.736-9.498-3.752-15.117-2.503c-3.413,0.759-5.594,2.181-9.069,2.429
						c-1.932,0.138-3.574,0.165-5.309,0.415c-1.896-0.684-3.931-1.335-6.128-1.957c-10.685-3.027-18.661-2.451-30.975-3.077
						c-9.234-0.469-15.442-5.77-23.805-7.572c-11.35-2.446-19.622,4.302-29.641,5.816c-10.928,1.65-18.65-3.214-28.819-5.598
						c-20.927-4.906-35.069,5.728-54.746,7.354c-17.877,1.478-31.7,1.662-33.205,25.499c-0.645,10.212,2.886,41.027,10.347,41.998
						c6.479,7.934,17.958,11.775,26.562,2.279c4.385-4.839,0.76-11.471,8.059-15.512c5.7-3.156,13.074,2.146,18.016,4.158
						c12.082,4.919,9.697,4.191,21.42,1.914c9.641-1.873,15.458-0.86,24.253,0.835c13.087,2.523,11.675,0.419,21.358-2.856
						c10.099-3.416,15.317-6.104,26.505,0.48c15.545,9.15,13.085,12.339,29.513,1.284c8.358-5.625,9.548-10.773,17.621-1.244
						c3.91,4.615,0.756,23.938,12.339,14.598c2.099-1.692,3.981-4.341,5.604-7.389c2.745-0.659,4.655-3.233,7.568-3.715
						c3.456-0.571,8.46,1.981,11.265-0.447c1.627-1.409,3.558-6.206,4.208-8.313C267.499,263.218,267.858,258.856,267.42,254.348z"
						/>
				</g>
				<path style="fill:#7A3001;" d="M116.652,106.707c4.862-9.948,4.929-18.278,4.929-28.858c-8.735-0.464-17.152-2.783-25.891-2.364
					c-0.014,2.253-0.05,1.319-0.134,3.574c-3.871,0.727-6.909-0.996-10.789-1.709c-6.444-1.184-13.865-1.717-20.361-1.991
					c-11.571-0.489-26.294-2.851-34.428,6.442C9.1,105.655,54.334,111.923,78.436,113.415l0.985,5.514l19.582-2.031
					c2.447,0.254,4.931,0.02,7.289-0.756l6.879-0.713l-0.523-3.139C114.187,110.807,115.551,108.959,116.652,106.707z"/>
				<path style="fill:#7A3001;" d="M234.424,81.957c-8.122-3.304-14.782-7.256-23.198-9.724c-0.752,2.129-1.56,1.309-2.379,3.418
					c-3.905-0.581-6.217-3.209-9.659-5.156c-5.716-3.235-12.57-6.172-18.633-8.562c-10.8-4.256-23.971-11.321-34.722-5.185
					c-28.409,16.214,15.66,37.746,37.461,46.626l-1.004,1.555l15.812,6.848c1.335,0.787,2.76,1.409,4.242,1.837l7.075,3.064
					l4.633-3.909c1.976-0.902,3.905-2.217,5.712-4.016C227.632,100.925,230.781,92.679,234.424,81.957z"/>
				<g>
					<path style="fill:#FFFFFF;" d="M59.087,218.013c-3.461,1.793-11.333,6.978-7.918,8.664c4.452,4.69,11.941,3.35,17.951,3.336
						c10.923-0.026,19.857,2.724,29.65,4.838l-4.249-20.547C82.81,213.492,68.251,221.329,59.087,218.013z"/>
					<path style="fill:#FFFFFF;" d="M138.535,218.007c-2.274,0.354-5.14,0.213-8.193-0.098l2.282,19.235
						c1.474,0.036,2.904,0.096,4.255,0.201c1.824,0.142,4.028,0.082,6.462-0.101l4.857-20.216
						C144.714,217.226,141.419,217.558,138.535,218.007z"/>
					<path style="fill:#FFFFFF;" d="M215.452,222.704c-13.571-1.955-21.141,3.208-33.962-2.025c-0.185-0.075-0.39-0.139-0.58-0.212
						l-3.912,13.523c16.197,0.943,26.738,4.557,43.476,3.356c4.984-0.358,17.181,1.123,16.946-6.116
						C237.193,224.212,220.279,223.4,215.452,222.704z"/>
					<path style="fill:#DB605A;" d="M130.343,217.909l-12.691-106.952l-43.188,6.352l20.057,96.995l4.249,20.547
						c3.398,0.734,6.899,1.392,10.624,1.829c6.871,0.806,15.692,0.282,23.232,0.465L130.343,217.909z"/>
					<path style="fill:#DB605A;" d="M177.42,103.179l-29.221,113.85l-4.857,20.216c10.135-0.764,24.29-3.694,31.92-3.353
						c0.592,0.026,1.159,0.065,1.736,0.099l3.912-13.523l31.897-104.572L177.42,103.179z"/>
				</g>
			</g>
			<path style="opacity:0.35;fill:#FFFFFF;" d="M244.434,449.67l12.943-15.183c0.733-0.86,2.139-0.351,2.153,0.778l0.347,28.291
				c0.003,0.279-0.089,0.551-0.261,0.771l-15.461,19.67c-0.004,0.005-0.012,0.002-0.012-0.004v-33.53
				C244.141,450.172,244.245,449.891,244.434,449.67z"/>
		</g>
		<path style="opacity:0.35;fill:#FFFFFF;" d="M256.94,311.12l8.078-8.384v33l-7.017,8.471c-1.772,1.214-4.179-0.055-4.179-2.203
			v-25.257C253.822,314.459,255.001,312.333,256.94,311.12z"/>
		<path style="opacity:0.36;fill:#FFFFFF;" d="M254.283,397.687l8.623-11.363c0.804-0.745,2.109-0.174,2.109,0.921v24.881
			c0,0.813-0.232,1.608-0.669,2.293l-10.409,11.618L254.283,397.687z"/>
	</g>
	<path style="fill:#FFE48F;" d="M438.454,147.134c-38.917,0-70.465-31.548-70.465-70.465c0-9.91,2.055-19.336,5.747-27.891
		c-34.529,4.545-61.187,34.068-61.187,69.838c0,38.917,31.548,70.465,70.465,70.465c29.007,0,53.911-17.532,64.718-42.574
		C444.693,146.907,441.601,147.134,438.454,147.134z"/>
	<g>
		<g>
			<path style="fill:#7B9144;" d="M249.862,232.415c0,0-14.817,26.897-29.615,24.527c14.798,2.37,20.474,32.549,20.474,32.549
				c3.71-11.692,29.631-3.566,29.631-3.566c4.83-15.488,30.579-16.062,30.579-16.062s-24.282-8.586-24.033-24.808
				C276.897,245.056,249.735,244.681,249.862,232.415z"/>
			<path style="fill:#B2D855;" d="M229.407,258.41c0,0,0.725,0.021,1.986,0.108c1.257,0.109,3.063,0.203,5.213,0.425
				c4.304,0.415,10.013,1.148,15.696,2.05c5.68,0.916,11.334,2,15.551,2.952c2.112,0.459,3.856,0.936,5.084,1.226
				c1.225,0.311,1.92,0.519,1.92,0.519s-0.725-0.02-1.986-0.107c-1.257-0.108-3.064-0.2-5.213-0.423
				c-4.304-0.414-10.013-1.149-15.695-2.053c-5.68-0.918-11.333-2.004-15.551-2.954c-2.111-0.46-3.856-0.935-5.085-1.224
				C230.103,258.616,229.407,258.41,229.407,258.41z"/>
		</g>
		<g>
			<path style="fill:#7B9144;" d="M221.704,294.057c0,0,6.316-28.785,18.808-30.875c-12.491,2.09-26.867-17.306-26.867-17.306
				c0.179,10.365-22.773,10.841-22.773,10.841c0.305,13.707-20.164,21.106-20.164,21.106s21.763,0.334,25.936,13.394
				C196.643,291.218,218.5,284.198,221.704,294.057z"/>
			<path style="fill:#B2D855;" d="M231.083,267.724c0,0-0.586,0.179-1.62,0.449c-1.036,0.252-2.508,0.663-4.29,1.064
				c-3.559,0.828-8.33,1.779-13.124,2.588c-4.797,0.797-9.617,1.452-13.252,1.827c-1.815,0.201-3.341,0.289-4.403,0.388
				c-1.065,0.081-1.678,0.102-1.678,0.102s0.586-0.179,1.619-0.449c1.036-0.252,2.508-0.665,4.29-1.066
				c3.559-0.829,8.33-1.778,13.125-2.586c4.797-0.796,9.618-1.449,13.252-1.824c1.815-0.2,3.341-0.291,4.403-0.39
				C230.47,267.746,231.083,267.724,231.083,267.724z"/>
		</g>
		<g>
			<path style="fill:#7B9144;" d="M264.828,274.563c0,0-36.07-0.649-40.599-17.128c4.529,16.478-22.959,34.598-22.959,34.598
				c13.888-1.671,17.696,29.07,17.696,29.07c18.356-2.302,31.114,24.152,31.114,24.152s-2.557-29.258,14.397-36.662
				C264.476,308.594,252.037,280.225,264.828,274.563z"/>
		</g>
		<circle style="fill:#B40201;" cx="211.865" cy="264.539" r="7.104"/>
		<g>
			<path style="fill:#88A34F;" d="M238.219,296.784c0,0-19.709-16.884-15.204-28.72c-4.505,11.837-30.452,11.346-30.452,11.346
				c9.037,5.08-2.143,25.13-2.143,25.13c11.985,6.658,8.034,28.063,8.034,28.063s11.279-18.616,24.658-15.622
				C223.112,316.981,228.091,294.571,238.219,296.784z"/>
			<path style="fill:#B2D855;" d="M220.226,275.391c0,0-0.142,0.596-0.431,1.624c-0.306,1.022-0.694,2.5-1.248,4.24
				c-1.083,3.49-2.671,8.088-4.394,12.635c-1.735,4.542-3.603,9.034-5.115,12.36c-0.743,1.668-1.437,3.03-1.888,3.996
				c-0.468,0.96-0.759,1.5-0.759,1.5s0.141-0.597,0.43-1.625c0.306-1.022,0.692-2.5,1.246-4.241
				c1.082-3.49,2.672-8.088,4.396-12.634c1.736-4.542,3.607-9.033,5.118-12.36c0.744-1.668,1.436-3.03,1.887-3.997
				C219.936,275.93,220.226,275.391,220.226,275.391z"/>
		</g>
		<circle style="fill:#B40201;" cx="236.968" cy="293.568" r="5.202"/>
		<circle style="fill:#B40201;" cx="222.72" cy="269.967" r="6.031"/>
		<circle style="fill:#B40201;" cx="245.487" cy="276.299" r="4.297"/>
		<circle style="fill:#B40201;" cx="238.219" cy="263.182" r="10.554"/>
		<circle style="fill:#B40201;" cx="224.228" cy="289.492" r="7.991"/>
		<circle style="fill:#B40201;" cx="245.487" cy="283.838" r="5.428"/>
		<circle style="fill:#B40201;" cx="235.687" cy="278.41" r="5.428"/>
	</g>
</g>
<g id="Livello_1">
</g>
</svg>
