<?xml version="1.0" encoding="iso-8859-1"?>
<!-- Generator: Adobe Illustrator 18.1.0, SVG Export Plug-In . SVG Version: 6.00 Build 0)  -->
<!DOCTYPE svg PUBLIC "-//W3C//DTD SVG 1.1//EN" "http://www.w3.org/Graphics/SVG/1.1/DTD/svg11.dtd">
<svg version="1.1" xmlns="http://www.w3.org/2000/svg" xmlns:xlink="http://www.w3.org/1999/xlink" x="0px" y="0px"
	 viewBox="0 0 596.021 500" style="enable-background:new 0 0 596.021 500;" xml:space="preserve">
<g id="_x23_card">
	<circle style="fill:#DAC242;" cx="292.425" cy="250" r="250"/>
	<g>
		<path style="opacity:0.12;fill:#231F20;" d="M384.009,397.426c0,0-141.879-18.619-249.284,20.779l-34.474-80.362l243.78,13.466
			L384.009,397.426z"/>
		<path style="fill:#F2EDE4;" d="M0,152.385c0,0,150.755-33.713,253.704,6.192l130.614,238.541c0,0-141.165-40.733-268.983,0
			L0,152.385z"/>
		<path style="opacity:0.12;fill:#231F20;" d="M384.009,397.426c0,0,114.335-48.745,194.774-36.966l-33.653-54.505l-161.121,58.341
			V397.426z"/>
		<path style="fill:#FCF7EB;" d="M253.396,158.885c0,0,124.29-65.159,205.55-38.893c0,0,137.075,229.006,137.075,225.723
			s-165.468,11.491-212.011,51.711L253.396,158.885z"/>
		<g>
			<path style="fill:#F22222;" d="M62.95,214.897l-0.133,0.014c-0.704,0.027-1.433-0.016-2.186-0.133
				c-0.748-0.113-1.525-0.371-2.327-0.771c-0.344-0.157-0.68-0.376-1.008-0.656c-0.328-0.279-0.593-0.577-0.794-0.897
				c-0.447-0.727-0.593-1.339-0.439-1.84c0.154-0.499,0.463-0.907,0.932-1.223c0.463-0.316,1.01-0.548,1.636-0.698
				c0.628-0.15,1.205-0.254,1.733-0.309c0.628-0.041,1.254-0.064,1.88-0.07c0.626-0.005,1.268,0.019,1.923,0.07
				c0.379,0.009,0.742,0.018,1.1,0.03c0.355,0.011,0.729,0.056,1.121,0.135c0.764,0.162,1.287,0.131,1.571-0.092
				c0.284-0.223,0.488-0.62,0.618-1.19c0.163-0.719,0.238-1.477,0.228-2.274c-0.011-0.797-0.027-1.593-0.049-2.391
				c-0.046-1.058-0.046-2.1,0.008-3.122c0.051-1.021,0.092-2.053,0.119-3.094c0.027-0.923,0.038-1.837,0.038-2.745
				c0-0.907,0.084-1.793,0.263-2.658c0.154-0.935,0.371-1.821,0.639-2.661c0.271-0.838,0.634-1.645,1.089-2.419
				c0.631-1.009,1.473-1.8,2.53-2.371c0.138-0.088,0.347-0.2,0.618-0.337c0.274-0.137,0.561-0.258,0.864-0.364
				c0.303-0.104,0.62-0.161,0.951-0.173c0.333-0.009,0.631,0.056,0.894,0.198c0.314,0.184,0.49,0.36,0.536,0.524
				c0.043,0.164,0.016,0.312-0.087,0.444c-0.103,0.131-0.244,0.242-0.425,0.335c-0.184,0.092-0.328,0.168-0.433,0.228
				c-0.471,0.243-0.788,0.59-0.943,1.042c-0.157,0.452-0.298,0.927-0.417,1.423c-0.233,0.846-0.382,1.733-0.452,2.659
				c-0.07,0.928-0.1,1.874-0.092,2.84c0.014,0.968,0.046,1.937,0.108,2.91c0.06,0.974,0.114,1.943,0.157,2.906
				c0.016,0.578,0.041,1.15,0.073,1.716c0.033,0.564,0.051,1.125,0.057,1.681c0.019,1.256-0.073,2.481-0.274,3.675
				c-0.2,1.194-0.534,2.3-0.994,3.316c-0.07,0.127-0.144,0.281-0.219,0.458c-0.076,0.177-0.035,0.366,0.122,0.567
				c0.146,0.178,0.363,0.313,0.658,0.404c0.295,0.089,0.542,0.148,0.745,0.174c0.46,0.122,0.915,0.207,1.36,0.257
				c0.447,0.05,0.888,0.112,1.327,0.188c0.748,0.09,1.487,0.123,2.216,0.093c0.729-0.028,1.408-0.131,2.048-0.305
				c0.634-0.176,1.205-0.429,1.706-0.76c0.504-0.332,0.894-0.753,1.17-1.266c0.683-1.209,1.135-2.526,1.36-3.953
				c0.222-1.426,0.257-2.954,0.103-4.584c-0.049-0.43-0.108-0.859-0.171-1.287c-0.062-0.429-0.127-0.871-0.19-1.324
				c-0.29-1.662-0.777-3.376-1.46-5.143c-0.688-1.768-1.622-3.495-2.811-5.183c-0.872-1.24-1.912-2.406-3.12-3.501
				c-1.211-1.094-2.541-1.904-3.995-2.429c-1.918-0.693-3.732-1.009-5.447-0.95c-1.712,0.06-3.283,0.332-4.713,0.821
				c-0.417,0.166-0.829,0.342-1.224,0.528c-0.395,0.187-0.764,0.395-1.102,0.624c-0.32,0.228-0.623,0.446-0.913,0.659
				c-0.287,0.213-0.563,0.441-0.823,0.686c-1.081,0.911-1.855,2.1-2.324,3.564c-0.471,1.464-0.637,3-0.496,4.606
				c0.035,0.481,0.13,1.045,0.29,1.694c0.163,0.647,0.406,1.3,0.731,1.955c0.328,0.655,0.737,1.271,1.23,1.848
				c0.496,0.577,1.083,1.024,1.769,1.337c0.596,0.278,1.157,0.43,1.685,0.459c0.528,0.029,1.016-0.017,1.46-0.137
				c0.447-0.118,0.85-0.307,1.208-0.561c0.358-0.257,0.669-0.53,0.924-0.823c0.095-0.083,0.168-0.222,0.222-0.423
				c0.051-0.198,0.192-0.261,0.417-0.189c0.214,0.05,0.371,0.167,0.474,0.35c0.1,0.183,0.168,0.345,0.198,0.488
				c0.135,0.371,0.173,0.702,0.111,0.986c-0.065,0.284-0.173,0.544-0.322,0.777c-0.149,0.234-0.336,0.447-0.555,0.639
				c-0.217,0.192-0.433,0.372-0.645,0.54c-0.531,0.467-1.154,0.878-1.866,1.231c-0.712,0.353-1.53,0.493-2.457,0.421
				c-1.067-0.081-2.129-0.429-3.177-1.045c-1.048-0.615-1.958-1.389-2.73-2.324c-0.425-0.513-0.85-1.085-1.281-1.717
				c-0.431-0.631-0.748-1.215-0.948-1.75c-0.566-1.489-0.807-2.904-0.72-4.243c0.084-1.339,0.293-2.595,0.623-3.767
				c0.306-1.048,0.72-2.004,1.243-2.87c0.523-0.864,1.203-1.633,2.045-2.301c0.997-0.806,2.118-1.505,3.361-2.095
				c1.243-0.59,2.562-1.056,3.96-1.396c1.056-0.233,2.175-0.325,3.35-0.28c1.178,0.045,2.386,0.136,3.624,0.272
				c1.024,0.087,2.037,0.245,3.039,0.479c1.002,0.233,2.045,0.595,3.131,1.085c0.593,0.277,1.181,0.589,1.758,0.94
				c0.577,0.351,1.135,0.716,1.668,1.094c1.07,0.759,2.034,1.589,2.895,2.492c0.859,0.901,1.647,1.858,2.37,2.87
				c1.222,1.71,2.245,3.441,3.061,5.194s1.357,3.485,1.631,5.199c0.163,0.926,0.244,1.82,0.241,2.677
				c-0.003,0.86-0.06,1.719-0.165,2.576c-0.016,0.268-0.062,0.514-0.133,0.739c-0.073,0.226-0.135,0.463-0.184,0.71
				c-0.618,2.169-1.777,3.959-3.472,5.372c-1.701,1.411-3.762,2.367-6.184,2.863c-1.051,0.208-2.148,0.318-3.291,0.329
				c-1.148,0.012-2.31-0.041-3.494-0.159c-0.691-0.072-1.411-0.197-2.159-0.372c-0.748-0.175-1.427-0.207-2.042-0.095
				c-0.588,0.111-1.078,0.344-1.463,0.699c-0.385,0.355-0.832,0.645-1.335,0.867c-0.669,0.264-1.395,0.449-2.172,0.555
				C64.532,214.792,63.747,214.862,62.95,214.897z M63.262,212.616c0.065-0.007,0.263-0.058,0.593-0.154
				c0.333-0.095,0.661-0.214,0.991-0.358c0.328-0.144,0.593-0.305,0.796-0.482c0.203-0.181,0.23-0.345,0.076-0.499
				c-0.06-0.066-0.163-0.104-0.309-0.113c-0.144-0.009-0.244-0.021-0.301-0.04c-0.417-0.078-0.821-0.156-1.213-0.236
				c-0.393-0.079-0.783-0.158-1.178-0.238l-0.707-0.144c-0.458-0.072-0.953-0.105-1.484-0.098c-0.534,0.007-0.921,0.146-1.17,0.412
				c-0.206,0.217-0.236,0.496-0.089,0.845c0.144,0.347,0.417,0.634,0.821,0.857c0.425,0.221,0.848,0.334,1.268,0.339
				c0.423,0.004,0.815-0.001,1.181-0.015C62.766,212.691,63.01,212.665,63.262,212.616z"/>
			<path style="fill:#F22222;" d="M100.512,211.056c-0.596,0.016-1.219-0.101-1.869-0.347c-0.85-0.322-1.549-0.768-2.099-1.339
				c-0.547-0.572-0.991-1.195-1.33-1.873c-0.341-0.678-0.593-1.366-0.758-2.063c-0.163-0.697-0.268-1.32-0.314-1.872
				c-0.19-1.479-0.179-2.878,0.035-4.195c0.217-1.317,0.699-2.498,1.446-3.545c0.455-0.652,1.027-1.227,1.72-1.723
				c0.691-0.495,1.479-0.85,2.362-1.064c0.97-0.223,1.771-0.054,2.408,0.508c0.672,0.583,1.146,1.168,1.425,1.756
				c0.276,0.587,0.412,1.155,0.398,1.7c-0.014,0.546-0.144,1.066-0.393,1.566c-0.249,0.498-0.55,0.965-0.902,1.4
				c-0.352,0.437-0.739,0.821-1.159,1.157c-0.42,0.335-0.802,0.617-1.138,0.844c-0.393,0.261-0.748,0.492-1.067,0.694
				c-0.32,0.202-0.569,0.434-0.748,0.695c-0.184,0.261-0.293,0.582-0.328,0.959c-0.035,0.379,0.03,0.863,0.192,1.449
				c0.089,0.379,0.238,0.743,0.447,1.096c0.206,0.353,0.463,0.67,0.769,0.953c0.306,0.282,0.642,0.494,0.999,0.639
				c0.358,0.143,0.758,0.193,1.197,0.146c0.417-0.044,0.78-0.167,1.089-0.369c0.306-0.202,0.569-0.446,0.78-0.735
				c0.214-0.288,0.393-0.603,0.542-0.945c0.149-0.343,0.265-0.689,0.355-1.035c0.233-0.798,0.436-1.618,0.615-2.459
				c0.173-0.841,0.303-1.69,0.39-2.545c0.005-0.073,0.003-0.236-0.008-0.49c-0.014-0.253-0.005-0.482,0.019-0.69
				c0.024-0.209,0.092-0.338,0.206-0.385c0.114-0.049,0.293,0.084,0.536,0.397c0.301,0.38,0.425,0.783,0.371,1.212
				c-0.054,0.43-0.116,0.793-0.184,1.09c-0.165,0.793-0.306,1.605-0.414,2.44c-0.111,0.833-0.265,1.635-0.469,2.408
				c-0.203,0.771-0.496,1.492-0.883,2.161c-0.387,0.671-0.918,1.234-1.595,1.692c-0.36,0.231-0.758,0.412-1.184,0.542
				C101.542,211.015,101.057,211.071,100.512,211.056z M98.283,201.711c0.149-0.063,0.298-0.165,0.444-0.301
				c0.146-0.135,0.236-0.217,0.265-0.245c0.425-0.456,0.767-0.987,1.021-1.595c0.257-0.607,0.444-1.231,0.553-1.873
				c0.076-0.371,0.114-0.786,0.116-1.245c0.003-0.46-0.111-0.92-0.341-1.38c-0.079-0.185-0.228-0.358-0.444-0.517
				c-0.214-0.158-0.409-0.203-0.582-0.137c-0.225,0.096-0.398,0.29-0.517,0.581c-0.116,0.29-0.214,0.538-0.29,0.739
				c-0.041,0.173-0.089,0.341-0.138,0.503c-0.051,0.163-0.092,0.318-0.127,0.468c-0.098,0.495-0.19,0.98-0.276,1.462
				c-0.081,0.48-0.146,0.976-0.187,1.488c-0.008,0.074-0.019,0.233-0.035,0.477c-0.016,0.242-0.016,0.497,0.003,0.762
				c0.016,0.263,0.062,0.482,0.135,0.656C97.955,201.727,98.091,201.78,98.283,201.711z"/>
			<path style="fill:#F22222;" d="M109.922,209.957l-0.084-0.027c-0.471-0.095-0.907-0.284-1.308-0.57
				c-0.404-0.283-0.767-0.614-1.089-0.991c-0.325-0.377-0.612-0.775-0.856-1.199c-0.244-0.421-0.444-0.817-0.604-1.188
				c-0.236-0.557-0.431-1.14-0.582-1.754c-0.176-0.779-0.26-1.545-0.255-2.294c0.022-1.092,0.119-2.142,0.282-3.151
				c0.165-1.008,0.466-1.96,0.902-2.851c0.116-0.255,0.249-0.499,0.398-0.733c0.152-0.234,0.314-0.469,0.488-0.704
				c0.265-0.318,0.542-0.625,0.834-0.922c0.287-0.297,0.626-0.562,1.008-0.797c0.309-0.2,0.62-0.402,0.937-0.606
				c0.32-0.201,0.699-0.327,1.138-0.373c0.211,0.002,0.428,0.003,0.65,0.005c0.222,0.001,0.45,0.026,0.685,0.072
				c0.358,0.06,0.674,0.22,0.948,0.481c0.271,0.263,0.563,0.51,0.88,0.743c-0.049-0.043-0.065-0.169-0.051-0.376
				c0.014-0.208,0.03-0.335,0.049-0.386c0.005-0.242,0.108-0.434,0.309-0.578c0.255-0.171,0.593-0.267,1.01-0.286
				c0.42-0.021,0.81-0.062,1.17-0.123c0.179-0.018,0.33-0.078,0.463-0.177c0.133-0.097,0.317-0.1,0.555-0.003
				c0.149,0.058,0.265,0.142,0.349,0.253c0.087,0.113,0.135,0.222,0.146,0.33c0.014,0.107,0.019,0.223,0.016,0.343
				s-0.008,0.217-0.014,0.291c-0.1,1.122-0.149,2.26-0.141,3.408c0.005,1.147,0.003,2.304-0.005,3.466c0,0.339,0,0.677,0.003,1.016
				c0,0.339-0.011,0.678-0.033,1.019c-0.03,0.705-0.068,1.436-0.116,2.189c-0.049,0.756,0.06,1.543,0.325,2.362
				c0.033,0.142,0.1,0.303,0.2,0.488c0.103,0.181,0.265,0.311,0.493,0.383c0.168,0.056,0.325,0.046,0.471-0.031
				c0.144-0.075,0.268-0.186,0.374-0.33c0.108-0.143,0.2-0.293,0.276-0.446c0.081-0.154,0.144-0.269,0.195-0.347
				c0.217-0.53,0.414-1.06,0.59-1.585c0.173-0.527,0.336-1.075,0.485-1.649c0.119-0.496,0.233-0.991,0.33-1.485
				c0.1-0.494,0.165-1.01,0.195-1.545c0.005-0.073,0.014-0.177,0.019-0.31c0.008-0.134,0.041-0.246,0.095-0.337
				c0.054-0.09,0.127-0.147,0.219-0.168c0.092-0.022,0.222,0.03,0.385,0.159c0.13,0.108,0.214,0.225,0.249,0.355
				c0.038,0.129,0.049,0.26,0.043,0.394c-0.008,0.134-0.027,0.256-0.057,0.368c-0.033,0.112-0.062,0.206-0.089,0.282
				c-0.068,0.298-0.119,0.605-0.154,0.923c-0.033,0.319-0.095,0.628-0.184,0.928c-0.03,0.245-0.068,0.478-0.119,0.7
				c-0.051,0.225-0.108,0.447-0.171,0.671c-0.13,0.523-0.271,1.039-0.417,1.55c-0.149,0.513-0.306,1.018-0.471,1.52
				c-0.108,0.35-0.274,0.737-0.493,1.159c-0.222,0.423-0.509,0.779-0.859,1.071c-0.349,0.29-0.761,0.473-1.232,0.546
				c-0.471,0.075-1.018-0.075-1.641-0.445c-0.577-0.325-1.059-0.746-1.449-1.262c-0.39-0.515-0.669-1.031-0.837-1.546
				c-0.019-0.118-0.038-0.236-0.057-0.356c-0.019-0.118-0.073-0.235-0.157-0.346c-0.095,0.035-0.16,0.12-0.187,0.256
				c-0.033,0.137-0.065,0.255-0.103,0.356c-0.087,0.178-0.157,0.355-0.211,0.53c-0.057,0.175-0.108,0.362-0.163,0.561
				c-0.265,0.826-0.688,1.537-1.268,2.13c-0.287,0.32-0.666,0.584-1.132,0.79C111.03,209.98,110.504,210.042,109.922,209.957z
				 M111.631,207.238c0.431-0.359,0.75-0.798,0.967-1.318c0.214-0.517,0.385-1.06,0.512-1.631c0.198-0.988,0.355-1.99,0.469-3.007
				c0.114-1.014,0.163-2.066,0.144-3.153c-0.011-0.483-0.022-0.965-0.033-1.448c-0.011-0.483-0.068-0.984-0.171-1.505
				c-0.076-0.307-0.181-0.634-0.314-0.983c-0.135-0.35-0.379-0.651-0.726-0.904c-0.42-0.294-0.802-0.376-1.148-0.244
				c-0.341,0.134-0.615,0.296-0.813,0.486c-0.539,0.541-0.902,1.244-1.086,2.111c-0.184,0.866-0.333,1.703-0.444,2.514
				c-0.081,0.444-0.133,0.897-0.157,1.358c-0.024,0.464-0.057,0.926-0.106,1.389c-0.043,0.466-0.062,0.94-0.051,1.423
				c0.011,0.483,0.027,0.976,0.051,1.482c0.024,0.214,0.046,0.454,0.065,0.718c0.019,0.265,0.057,0.539,0.122,0.823
				c0.065,0.283,0.152,0.559,0.263,0.823c0.114,0.267,0.287,0.51,0.525,0.726c0.39,0.37,0.742,0.569,1.062,0.595
				C111.078,207.52,111.368,207.435,111.631,207.238z"/>
			<path style="fill:#F22222;" d="M119.456,208.701c-0.309-0.306-0.417-0.586-0.325-0.838c0.098-0.251,0.225-0.459,0.393-0.62
				c0.181-0.214,0.376-0.421,0.58-0.624c0.203-0.202,0.382-0.433,0.544-0.692c0.325-0.543,0.572-1.144,0.731-1.801
				c0.16-0.657,0.265-1.341,0.314-2.048c0.054-0.538,0.122-1.059,0.203-1.563c0.084-0.504,0.149-1.025,0.2-1.564
				c0.041-0.56,0.073-1.115,0.095-1.661c0.024-0.546,0.057-1.1,0.098-1.66c0.043-0.683,0.03-1.376-0.033-2.083
				c-0.065-0.707-0.089-1.4-0.068-2.081c-0.003-0.338,0.057-0.598,0.179-0.779c0.119-0.182,0.425-0.167,0.915,0.048
				c1.062,0.445,1.972,0.578,2.736,0.402c0.764-0.176,1.495-0.433,2.188-0.775c0.206-0.095,0.441-0.107,0.715-0.039
				c0.268,0.069,0.479,0.265,0.637,0.588c0.154,0.322,0.179,0.639,0.073,0.953c-0.106,0.315-0.184,0.595-0.233,0.841
				c-0.087,0.349-0.168,0.689-0.238,1.024c-0.073,0.333-0.141,0.672-0.203,1.019c-0.225,1.45-0.341,2.903-0.355,4.355
				c-0.014,0.436-0.014,0.871,0.005,1.306c0.019,0.433,0.054,0.864,0.106,1.295c-0.003,0.121,0.022,0.355,0.073,0.7
				c0.051,0.346,0.133,0.706,0.246,1.08c0.114,0.375,0.26,0.711,0.433,1.006c0.176,0.297,0.404,0.467,0.683,0.509
				c0.282,0.043,0.515,0.013,0.699-0.092c0.19-0.103,0.352-0.241,0.488-0.414c0.138-0.171,0.249-0.364,0.325-0.578
				c0.081-0.213,0.154-0.409,0.219-0.585c0.279-0.803,0.463-1.658,0.558-2.562c0.092-0.905,0.203-1.787,0.333-2.648
				c0.024-0.173,0.051-0.405,0.087-0.699c0.035-0.293,0.168-0.441,0.401-0.441c0.276-0.006,0.466,0.114,0.566,0.358
				c0.1,0.243,0.149,0.516,0.154,0.818c0.003,0.302-0.019,0.589-0.065,0.861c-0.049,0.27-0.087,0.444-0.114,0.519
				c-0.081,0.444-0.165,0.883-0.252,1.314c-0.089,0.432-0.176,0.86-0.271,1.281c-0.054,0.368-0.111,0.743-0.181,1.125
				c-0.068,0.383-0.146,0.748-0.233,1.095c-0.192,0.746-0.474,1.447-0.845,2.102c-0.371,0.657-0.959,1.124-1.758,1.402
				c-0.282,0.079-0.588,0.123-0.921,0.133c-0.33,0.01-0.661-0.026-0.989-0.113c-0.325-0.087-0.655-0.228-0.983-0.423
				c-0.328-0.195-0.631-0.46-0.907-0.794c-0.339-0.399-0.607-0.8-0.807-1.204c-0.198-0.402-0.349-0.802-0.455-1.203
				c-0.103-0.401-0.187-0.803-0.246-1.208c-0.062-0.405-0.1-0.788-0.111-1.149c-0.087-1.08,0.011-2.106,0.287-3.08
				c0.276-0.972,0.58-1.898,0.91-2.781c0.054-0.149,0.163-0.343,0.325-0.578c0.163-0.234,0.222-0.446,0.19-0.635
				c-0.011-0.145-0.051-0.231-0.127-0.259c-0.073-0.03-0.16-0.039-0.257-0.028c-0.1,0.01-0.203,0.034-0.314,0.07
				c-0.106,0.036-0.195,0.056-0.26,0.063c-0.219,0.023-0.46-0.012-0.72-0.104c-0.26-0.095-0.515-0.152-0.758-0.175
				c-0.336-0.012-0.534,0.081-0.596,0.28c-0.065,0.2-0.103,0.434-0.119,0.702c-0.022,0.341-0.035,0.694-0.043,1.056
				c-0.011,0.363-0.016,0.728-0.027,1.092c-0.014,0.775-0.043,1.535-0.087,2.277c-0.043,0.744-0.116,1.483-0.222,2.219
				c-0.049,0.416-0.116,0.823-0.2,1.219c-0.081,0.395-0.179,0.792-0.284,1.19c-0.035,0.102-0.095,0.313-0.171,0.634
				c-0.079,0.324-0.187,0.686-0.325,1.087c-0.141,0.402-0.306,0.807-0.501,1.213c-0.192,0.409-0.398,0.756-0.609,1.045
				c-0.214,0.288-0.45,0.471-0.71,0.546C119.96,209.022,119.705,208.941,119.456,208.701z"/>
			<path style="fill:#F22222;" d="M154.599,205.223c-0.498-0.021-0.999-0.063-1.503-0.131c-0.501-0.068-1.016-0.173-1.533-0.31
				c-1.398-0.386-2.673-0.966-3.822-1.74c-1.148-0.774-2.235-1.748-3.256-2.923c-0.972-1.131-1.72-2.328-2.245-3.592
				c-0.52-1.264-0.856-2.505-0.991-3.724c-0.138-1.22-0.081-2.367,0.171-3.447c0.255-1.079,0.669-1.986,1.238-2.723
				c0.753-0.951,1.717-1.694,2.887-2.228c0.355-0.158,0.753-0.272,1.189-0.341c0.439-0.07,0.91-0.073,1.411-0.005
				c1.083,0.154,2.056,0.54,2.912,1.164c0.859,0.624,1.576,1.359,2.161,2.205c0.582,0.846,1.029,1.736,1.335,2.671
				c0.309,0.936,0.439,1.769,0.401,2.498c-0.038,0.391-0.108,0.761-0.206,1.111c-0.098,0.349-0.255,0.668-0.466,0.956
				c-0.049,0.077-0.125,0.175-0.222,0.296c-0.098,0.119-0.209,0.221-0.336,0.307c-0.127,0.085-0.265,0.148-0.42,0.189
				c-0.152,0.04-0.314,0.009-0.488-0.093c-0.138-0.083-0.228-0.17-0.265-0.263c-0.041-0.092-0.051-0.187-0.038-0.287
				c0.016-0.098,0.041-0.19,0.073-0.28c0.033-0.087,0.07-0.158,0.111-0.211c0.119-0.206,0.236-0.406,0.349-0.599
				c0.114-0.194,0.154-0.422,0.127-0.684c-0.019-0.458-0.122-0.991-0.309-1.601s-0.452-1.217-0.796-1.822
				c-0.344-0.605-0.772-1.164-1.276-1.68c-0.507-0.515-1.078-0.909-1.717-1.18c-0.842-0.347-1.601-0.496-2.272-0.451
				c-0.672,0.047-1.246,0.235-1.715,0.561c-0.471,0.328-0.834,0.754-1.094,1.276c-0.257,0.523-0.404,1.089-0.439,1.698
				c-0.049,1.094,0.098,2.288,0.441,3.581c0.344,1.295,0.902,2.542,1.685,3.742c0.32,0.5,0.707,1.008,1.157,1.529
				s0.915,0.987,1.398,1.396c0.542,0.475,1.181,0.915,1.918,1.322s1.414,0.746,2.031,1.02c0.81,0.374,1.617,0.622,2.416,0.744
				c0.802,0.121,1.549,0.139,2.245,0.053c0.699-0.085,1.324-0.278,1.882-0.578c0.553-0.301,0.997-0.699,1.327-1.193
				c0.171-0.283,0.322-0.591,0.455-0.919c0.133-0.328,0.23-0.665,0.295-1.011c0.106-0.567,0.149-1.207,0.127-1.918
				c-0.022-0.712-0.135-1.407-0.349-2.087c-0.219-0.774-0.561-1.585-1.027-2.431c-0.655-1.188-1.49-2.317-2.497-3.384
				c-1.008-1.068-2.004-2.131-2.985-3.189c-0.539-0.595-1.062-1.194-1.566-1.794c-0.507-0.601-1.018-1.2-1.536-1.799
				c-0.647-0.753-1.203-1.547-1.666-2.383c-0.46-0.834-0.815-1.656-1.062-2.464c-0.249-0.809-0.404-1.601-0.46-2.382
				c-0.06-0.78-0.005-1.505,0.157-2.176c0.119-0.375,0.26-0.741,0.425-1.098c0.165-0.353,0.363-0.677,0.599-0.97
				c0.265-0.318,0.569-0.616,0.905-0.893c0.333-0.276,0.699-0.521,1.094-0.732c0.515-0.247,1.081-0.433,1.696-0.559
				c0.618-0.125,1.157-0.152,1.617-0.078c0.111,0.035,0.222,0.053,0.328,0.056c0.103,0.001,0.184,0.011,0.244,0.028
				c0.848,0.106,1.641,0.391,2.375,0.857c0.734,0.468,1.395,1.027,1.991,1.678c0.59,0.651,1.1,1.353,1.528,2.106
				c0.428,0.754,0.742,1.46,0.943,2.115c0.217,0.728,0.33,1.387,0.341,1.977c0.011,0.592-0.089,1.178-0.303,1.756
				c-0.163,0.428-0.401,0.793-0.726,1.092c-0.32,0.302-0.71,0.523-1.165,0.667c-0.13,0.062-0.293,0.116-0.488,0.16
				c-0.198,0.045-0.398,0.06-0.604,0.045c-0.206-0.014-0.409-0.064-0.609-0.152c-0.2-0.088-0.363-0.247-0.488-0.476
				c-0.173-0.271-0.2-0.432-0.073-0.481c0.122-0.05,0.284-0.086,0.479-0.107c0.515-0.077,0.888-0.279,1.116-0.605
				c0.225-0.326,0.352-0.72,0.374-1.183c0.027-0.461-0.024-0.953-0.146-1.472c-0.125-0.518-0.298-1.02-0.52-1.506
				c-0.181-0.416-0.42-0.857-0.712-1.322c-0.29-0.465-0.626-0.915-1.005-1.346c-0.376-0.431-0.794-0.816-1.249-1.157
				c-0.455-0.338-0.94-0.591-1.446-0.755c-0.588-0.18-1.119-0.246-1.593-0.196c-0.474,0.049-0.88,0.197-1.224,0.438
				c-0.344,0.241-0.609,0.554-0.791,0.936c-0.187,0.382-0.284,0.792-0.298,1.229c-0.011,0.533,0.068,1.124,0.228,1.773
				c0.16,0.647,0.387,1.259,0.68,1.832c0.488,0.965,1.11,1.88,1.863,2.744c0.756,0.863,1.528,1.714,2.316,2.551
				c0.455,0.484,0.91,0.956,1.36,1.417c0.452,0.46,0.902,0.945,1.346,1.455c1.102,1.238,2.142,2.52,3.118,3.845
				c0.975,1.324,1.715,2.674,2.218,4.048c0.406,1.07,0.609,2.137,0.618,3.201c0.005,1.066-0.092,2.03-0.287,2.897
				c-0.2,0.818-0.55,1.562-1.054,2.233c-0.501,0.67-1.113,1.261-1.831,1.772c-0.718,0.511-1.511,0.927-2.381,1.248
				c-0.869,0.322-1.771,0.52-2.709,0.593C155.58,205.229,155.1,205.243,154.599,205.223z"/>
			<path style="fill:#F22222;" d="M169.794,203.661l-0.087-0.027c-0.471-0.095-0.907-0.284-1.308-0.57
				c-0.401-0.283-0.767-0.614-1.089-0.991c-0.325-0.377-0.612-0.776-0.856-1.199c-0.244-0.421-0.444-0.817-0.604-1.188
				c-0.236-0.557-0.431-1.141-0.582-1.754c-0.176-0.78-0.26-1.545-0.255-2.295c0.024-1.092,0.119-2.142,0.282-3.151
				c0.165-1.009,0.466-1.96,0.905-2.852c0.116-0.254,0.249-0.498,0.398-0.732s0.311-0.469,0.485-0.705
				c0.265-0.317,0.542-0.624,0.834-0.922c0.287-0.297,0.626-0.561,1.008-0.796c0.309-0.2,0.62-0.402,0.94-0.606
				c0.317-0.201,0.696-0.327,1.135-0.374c0.211,0.003,0.428,0.004,0.65,0.005c0.222,0.001,0.45,0.026,0.685,0.072
				c0.358,0.06,0.674,0.22,0.948,0.481c0.271,0.262,0.566,0.51,0.88,0.743c-0.049-0.044-0.065-0.169-0.051-0.376
				c0.014-0.208,0.03-0.335,0.049-0.387c0.005-0.241,0.108-0.434,0.309-0.577c0.257-0.171,0.593-0.267,1.01-0.286
				c0.42-0.021,0.81-0.062,1.173-0.123c0.176-0.018,0.328-0.078,0.46-0.177c0.133-0.097,0.317-0.1,0.555-0.003
				c0.149,0.058,0.265,0.142,0.352,0.253c0.084,0.113,0.133,0.222,0.146,0.33c0.011,0.108,0.016,0.223,0.014,0.344
				c0,0.121-0.008,0.217-0.014,0.29c-0.1,1.123-0.149,2.26-0.141,3.409c0.005,1.147,0.005,2.304-0.005,3.465
				c0,0.34,0,0.678,0.003,1.016c0,0.34-0.011,0.679-0.03,1.019c-0.033,0.706-0.07,1.436-0.119,2.189
				c-0.049,0.756,0.06,1.543,0.325,2.361c0.033,0.142,0.1,0.304,0.2,0.488c0.103,0.181,0.265,0.31,0.493,0.383
				c0.168,0.055,0.325,0.046,0.471-0.031c0.144-0.075,0.268-0.186,0.376-0.33c0.106-0.143,0.198-0.293,0.276-0.446
				c0.079-0.154,0.144-0.269,0.192-0.347c0.217-0.53,0.414-1.06,0.59-1.585c0.173-0.527,0.336-1.076,0.485-1.649
				c0.122-0.496,0.233-0.991,0.333-1.485c0.098-0.495,0.163-1.01,0.192-1.545c0.005-0.074,0.014-0.177,0.019-0.31
				c0.008-0.134,0.041-0.246,0.095-0.337s0.127-0.147,0.222-0.168c0.089-0.022,0.219,0.03,0.385,0.158
				c0.127,0.108,0.211,0.225,0.246,0.355c0.038,0.129,0.051,0.259,0.043,0.393c-0.008,0.134-0.027,0.257-0.057,0.369
				c-0.033,0.112-0.062,0.205-0.089,0.282c-0.068,0.298-0.119,0.605-0.154,0.923c-0.033,0.319-0.095,0.628-0.184,0.928
				c-0.03,0.245-0.068,0.479-0.119,0.701c-0.051,0.224-0.108,0.447-0.171,0.671c-0.13,0.522-0.271,1.039-0.417,1.55
				c-0.149,0.513-0.306,1.018-0.471,1.519c-0.108,0.349-0.274,0.737-0.493,1.158c-0.222,0.423-0.509,0.78-0.859,1.071
				c-0.349,0.29-0.761,0.473-1.232,0.546c-0.471,0.076-1.018-0.074-1.641-0.444c-0.577-0.325-1.059-0.746-1.449-1.262
				c-0.387-0.515-0.666-1.031-0.837-1.546c-0.019-0.118-0.038-0.236-0.054-0.357c-0.022-0.118-0.076-0.234-0.157-0.345
				c-0.098,0.035-0.163,0.12-0.19,0.256c-0.033,0.137-0.065,0.255-0.103,0.356c-0.087,0.178-0.157,0.355-0.211,0.53
				c-0.057,0.175-0.108,0.361-0.163,0.561c-0.265,0.826-0.688,1.536-1.268,2.13c-0.287,0.32-0.666,0.584-1.132,0.79
				C170.899,203.684,170.374,203.746,169.794,203.661z M171.5,200.942c0.431-0.36,0.753-0.798,0.967-1.318
				c0.214-0.517,0.385-1.06,0.512-1.631c0.198-0.988,0.355-1.99,0.469-3.007c0.114-1.014,0.163-2.066,0.144-3.153
				c-0.011-0.483-0.022-0.965-0.033-1.448c-0.011-0.483-0.068-0.985-0.171-1.505c-0.076-0.307-0.181-0.634-0.314-0.983
				c-0.135-0.349-0.376-0.651-0.726-0.903c-0.42-0.294-0.799-0.376-1.148-0.244c-0.341,0.134-0.615,0.296-0.813,0.486
				c-0.536,0.541-0.902,1.244-1.086,2.111c-0.181,0.866-0.333,1.702-0.444,2.514c-0.081,0.444-0.133,0.897-0.154,1.358
				c-0.024,0.464-0.06,0.926-0.108,1.389c-0.043,0.466-0.062,0.939-0.051,1.423c0.011,0.483,0.027,0.976,0.051,1.482
				c0.024,0.214,0.046,0.454,0.065,0.718c0.019,0.265,0.057,0.538,0.125,0.823c0.062,0.282,0.149,0.559,0.26,0.823
				c0.114,0.267,0.287,0.51,0.525,0.726c0.39,0.37,0.742,0.569,1.062,0.595C170.948,201.224,171.238,201.139,171.5,200.942z"/>
			<path style="fill:#F22222;" d="M193.727,201.688c-0.276,0.006-0.561-0.014-0.85-0.055c-0.29-0.042-0.569-0.134-0.832-0.276
				c-0.439-0.244-0.794-0.521-1.073-0.832c-0.274-0.309-0.504-0.642-0.688-0.996c-0.184-0.356-0.322-0.71-0.412-1.064
				c-0.092-0.353-0.16-0.696-0.206-1.032c-0.092-0.884-0.114-1.735-0.062-2.551c0.049-0.815,0.116-1.626,0.209-2.435
				c0.033-0.487,0.065-0.974,0.098-1.462c0.033-0.487,0.068-0.973,0.1-1.461c0.019-0.221,0.06-0.466,0.116-0.738
				c0.06-0.273,0.1-0.555,0.125-0.848c0.024-0.293,0.003-0.586-0.068-0.882c-0.07-0.295-0.228-0.562-0.479-0.802
				c-0.236-0.216-0.458-0.314-0.666-0.293c-0.209,0.022-0.401,0.097-0.574,0.224s-0.328,0.282-0.46,0.465
				c-0.13,0.183-0.219,0.313-0.271,0.391c-0.241,0.364-0.433,0.753-0.577,1.168c-0.144,0.414-0.274,0.832-0.387,1.256l-0.349,1.452
				c-0.265,0.995-0.409,2.032-0.428,3.11c-0.022,1.079-0.068,2.166-0.138,3.261c-0.049,0.709-0.108,1.404-0.173,2.088
				c-0.065,0.685-0.144,1.358-0.244,2.022c-0.008,0.194-0.054,0.362-0.141,0.504c-0.084,0.142-0.23,0.236-0.439,0.281
				c-0.206,0.046-0.417,0.074-0.631,0.085c-0.217,0.012-0.433,0.027-0.653,0.05c-0.704,0.074-1.154,0.116-1.346,0.124
				c-0.192,0.008-0.336-0.007-0.428-0.046c-0.184-0.125-0.336-0.303-0.452-0.534c-0.114-0.228-0.141-0.456-0.079-0.681
				c0.225-0.942,0.333-1.939,0.322-2.991c-0.011-1.051,0.016-2.087,0.081-3.109c0.019-0.633,0.041-1.251,0.054-1.859
				c0.014-0.605,0.038-1.213,0.076-1.821c0.06-0.562,0.098-1.141,0.106-1.735c0.008-0.593,0.041-1.184,0.087-1.769
				c0.008-0.195,0.014-0.394,0.019-0.601c0-0.205-0.022-0.414-0.068-0.629c-0.033-0.14-0.1-0.328-0.206-0.559
				c-0.106-0.23-0.181-0.452-0.228-0.664c-0.046-0.215-0.054-0.394-0.019-0.543c0.033-0.15,0.19-0.202,0.471-0.16
				c0.057,0.02,0.154,0.021,0.298,0.006c0.144-0.015,0.295-0.043,0.458-0.085c0.439-0.093,0.794-0.167,1.067-0.221
				c0.274-0.051,0.485-0.087,0.639-0.103s0.274-0.01,0.36,0.017c0.087,0.028,0.16,0.063,0.23,0.103
				c0.683,0.435,1.029,1.21,1.037,2.321c-0.003,0.122,0.003,0.212,0.011,0.272c0.011,0.06,0.016,0.114,0.019,0.161l0.005,0.072
				c-0.011-0.145,0.043-0.288,0.163-0.434c0.116-0.146,0.198-0.28,0.246-0.407c0.098-0.155,0.19-0.305,0.276-0.446
				c0.084-0.142,0.184-0.28,0.295-0.412c0.276-0.343,0.582-0.654,0.918-0.932c0.333-0.277,0.723-0.499,1.165-0.667
				c0.293-0.103,0.634-0.157,1.029-0.161c0.39-0.005,0.791,0.05,1.189,0.164c0.401,0.116,0.788,0.299,1.157,0.549
				c0.374,0.252,0.691,0.594,0.953,1.026c0.485,0.795,0.775,1.564,0.872,2.304c0.092,0.739,0.1,1.439,0.024,2.102
				c-0.084,0.734-0.173,1.464-0.274,2.187c-0.103,0.724-0.184,1.453-0.244,2.184c-0.119,1.006-0.149,2.025-0.089,3.059
				c0.019,0.118,0.022,0.263,0.014,0.433c-0.014,0.171,0,0.351,0.035,0.54c0.035,0.19,0.098,0.365,0.187,0.525
				c0.087,0.16,0.222,0.279,0.404,0.358c0.333,0.134,0.626,0.114,0.894-0.058c0.265-0.174,0.474-0.328,0.634-0.465
				c0.474-0.488,0.799-1.09,0.972-1.809c0.173-0.719,0.336-1.427,0.488-2.119c0.092-0.301,0.157-0.603,0.195-0.911
				c0.041-0.306,0.07-0.629,0.092-0.971c0.035-0.318,0.049-0.64,0.043-0.966c-0.005-0.326,0.043-0.627,0.146-0.905
				c0.046-0.125,0.141-0.225,0.284-0.303c0.146-0.075,0.311-0.026,0.501,0.148c0.249,0.24,0.406,0.483,0.471,0.729
				c0.068,0.249,0.092,0.5,0.07,0.756c-0.022,0.256-0.06,0.502-0.116,0.737c-0.057,0.237-0.106,0.441-0.149,0.616
				c-0.246,0.945-0.477,1.906-0.693,2.885c-0.217,0.978-0.55,1.878-1.002,2.699c-0.328,0.592-0.783,1.124-1.373,1.595
				C195.279,201.392,194.566,201.649,193.727,201.688z"/>
			<path style="fill:#F22222;" d="M202.659,200.169c-0.358-0.059-0.761-0.198-1.208-0.418c-0.756-0.356-1.371-0.829-1.847-1.421
				c-0.479-0.59-0.861-1.22-1.151-1.892c-0.287-0.672-0.49-1.339-0.601-2.004c-0.111-0.666-0.168-1.253-0.168-1.761
				c-0.062-1.712-0.049-3.405,0.035-5.085c0.084-1.678,0.246-3.314,0.479-4.911c0.103-0.447,0.152-0.863,0.149-1.251
				c-0.011-0.144-0.027-0.311-0.051-0.502c-0.024-0.191,0.022-0.329,0.138-0.414c-0.195-0.1-0.428-0.142-0.696-0.126
				c-0.271,0.015-0.531,0.031-0.78,0.046c-0.249,0.013-0.488-0.016-0.71-0.089c-0.228-0.074-0.395-0.25-0.504-0.527
				c-0.095-0.257-0.062-0.442,0.098-0.555c0.157-0.114,0.36-0.188,0.607-0.227c0.246-0.039,0.507-0.053,0.777-0.046
				c0.274,0.009,0.479-0.007,0.62-0.047c0.282-0.079,0.496-0.221,0.637-0.429c0.138-0.208,0.236-0.454,0.29-0.738
				c0.051-0.284,0.076-0.577,0.073-0.879c-0.005-0.302-0.008-0.585-0.016-0.851c-0.014-0.483-0.027-0.964-0.051-1.446
				c-0.019-0.482-0.065-0.972-0.13-1.473c-0.038-0.191-0.087-0.408-0.154-0.656c-0.065-0.246-0.127-0.495-0.181-0.741
				c-0.057-0.249-0.095-0.486-0.116-0.714c-0.022-0.227,0.008-0.418,0.087-0.571c0.1-0.156,0.257-0.269,0.474-0.341
				c0.217-0.072,0.458-0.12,0.72-0.148c0.265-0.028,0.536-0.045,0.813-0.049s0.509-0.041,0.707-0.11
				c0.236-0.074,0.517-0.135,0.842-0.18c0.325-0.045,0.661,0.083,1.013,0.383c0.238,0.217,0.385,0.474,0.444,0.771
				c0.06,0.296,0.108,0.563,0.146,0.801c0.114,0.544,0.157,1.071,0.125,1.584c-0.033,0.512-0.054,1.033-0.062,1.565
				c-0.003,0.581-0.054,1.186-0.149,1.813c-0.098,0.626-0.054,1.27,0.122,1.928c0.157,0.033,0.333,0.031,0.523-0.001
				c0.195-0.032,0.39-0.064,0.593-0.097c0.2-0.035,0.398-0.055,0.593-0.062c0.192-0.009,0.379,0.026,0.563,0.104
				c0.228,0.119,0.363,0.324,0.406,0.609c0.043,0.286,0.011,0.483-0.092,0.59c-0.209,0.217-0.52,0.315-0.937,0.297
				c-0.414-0.016-0.783,0.005-1.1,0.063c-0.46,0.048-0.745,0.23-0.85,0.544c-0.106,0.312-0.163,0.674-0.168,1.086
				c-0.073,1.848-0.141,3.68-0.206,5.502c-0.068,1.821-0.192,3.636-0.379,5.446c-0.043,0.465-0.062,0.938-0.051,1.421
				c0.008,0.483,0.1,0.98,0.268,1.496c0.103,0.4,0.274,0.731,0.515,0.997c0.238,0.264,0.496,0.455,0.769,0.571
				c0.274,0.118,0.547,0.149,0.821,0.096c0.274-0.053,0.525-0.189,0.753-0.406c0.395-0.38,0.666-0.849,0.81-1.409
				c0.146-0.56,0.271-1.123,0.374-1.691c0.144-0.667,0.268-1.339,0.374-2.015c0.103-0.676,0.225-1.35,0.366-2.018
				c0.03-0.076,0.068-0.247,0.116-0.519c0.049-0.272,0.116-0.538,0.2-0.802c0.089-0.263,0.198-0.474,0.333-0.632
				c0.133-0.16,0.298-0.165,0.496-0.016c0.211,0.171,0.341,0.429,0.393,0.775c0.051,0.346,0.073,0.707,0.057,1.083
				c-0.014,0.375-0.049,0.73-0.108,1.063c-0.062,0.333-0.103,0.561-0.13,0.685c-0.089,0.639-0.219,1.251-0.395,1.838
				c-0.179,0.588-0.363,1.169-0.555,1.745c-0.184,0.553-0.382,1.178-0.588,1.876c-0.206,0.699-0.498,1.341-0.875,1.925
				c-0.374,0.584-0.856,1.04-1.444,1.366C204.336,200.295,203.583,200.363,202.659,200.169z"/>
			<path style="fill:#F22222;" d="M212.112,199.211l-0.084-0.027c-0.471-0.095-0.91-0.284-1.311-0.57
				c-0.401-0.283-0.764-0.615-1.089-0.992c-0.325-0.377-0.609-0.775-0.853-1.198c-0.244-0.422-0.447-0.818-0.604-1.188
				c-0.236-0.557-0.431-1.142-0.585-1.754c-0.173-0.78-0.26-1.545-0.255-2.295c0.024-1.092,0.122-2.142,0.284-3.151
				c0.165-1.009,0.466-1.961,0.902-2.852c0.116-0.255,0.249-0.499,0.398-0.733c0.152-0.234,0.311-0.469,0.485-0.704
				c0.265-0.318,0.544-0.625,0.837-0.922c0.29-0.297,0.626-0.562,1.008-0.797c0.306-0.2,0.62-0.402,0.937-0.606
				c0.322-0.201,0.699-0.327,1.14-0.373c0.209,0.002,0.425,0.004,0.647,0.005c0.219,0.001,0.45,0.026,0.685,0.072
				c0.358,0.06,0.674,0.22,0.945,0.481c0.274,0.263,0.566,0.51,0.883,0.743c-0.049-0.043-0.065-0.169-0.051-0.376
				c0.014-0.207,0.03-0.335,0.049-0.386c0.005-0.242,0.108-0.435,0.309-0.577c0.255-0.172,0.59-0.267,1.01-0.287
				c0.42-0.021,0.81-0.062,1.173-0.123c0.173-0.018,0.328-0.077,0.46-0.177c0.13-0.097,0.317-0.099,0.558-0.003
				c0.146,0.058,0.263,0.142,0.347,0.253c0.087,0.113,0.135,0.223,0.146,0.33c0.014,0.108,0.022,0.223,0.016,0.344
				c-0.003,0.121-0.005,0.217-0.014,0.291c-0.1,1.123-0.149,2.26-0.144,3.408c0.008,1.147,0.005,2.304-0.003,3.465
				c0,0.34,0,0.678,0.003,1.016c0,0.34-0.011,0.679-0.033,1.02c-0.03,0.705-0.068,1.436-0.116,2.188
				c-0.049,0.756,0.06,1.543,0.328,2.362c0.03,0.142,0.098,0.303,0.198,0.488c0.1,0.181,0.265,0.31,0.49,0.383
				c0.173,0.055,0.328,0.046,0.471-0.031c0.146-0.075,0.271-0.186,0.379-0.33c0.106-0.143,0.198-0.293,0.276-0.446
				c0.076-0.154,0.141-0.268,0.19-0.347c0.219-0.53,0.417-1.059,0.59-1.585c0.173-0.527,0.339-1.076,0.488-1.649
				c0.119-0.496,0.233-0.99,0.33-1.485c0.1-0.495,0.165-1.01,0.195-1.545c0.005-0.073,0.011-0.177,0.019-0.31
				c0.008-0.133,0.041-0.246,0.095-0.337c0.054-0.09,0.127-0.146,0.222-0.168c0.092-0.022,0.219,0.03,0.382,0.158
				c0.13,0.108,0.214,0.226,0.249,0.355s0.051,0.26,0.043,0.393c-0.008,0.134-0.027,0.257-0.057,0.369
				c-0.033,0.112-0.062,0.205-0.089,0.282c-0.068,0.298-0.119,0.605-0.154,0.923c-0.033,0.319-0.095,0.628-0.184,0.928
				c-0.03,0.246-0.068,0.479-0.119,0.701c-0.054,0.224-0.108,0.447-0.171,0.671c-0.133,0.523-0.271,1.039-0.42,1.55
				c-0.146,0.513-0.303,1.018-0.469,1.519c-0.111,0.35-0.274,0.737-0.496,1.159c-0.219,0.423-0.504,0.78-0.856,1.07
				c-0.352,0.291-0.761,0.473-1.232,0.547c-0.471,0.075-1.021-0.075-1.644-0.445c-0.574-0.325-1.056-0.746-1.446-1.262
				c-0.39-0.515-0.669-1.03-0.834-1.546c-0.022-0.118-0.038-0.236-0.06-0.356c-0.019-0.118-0.07-0.234-0.157-0.346
				c-0.098,0.035-0.16,0.12-0.19,0.257c-0.03,0.136-0.065,0.255-0.1,0.355c-0.087,0.178-0.16,0.355-0.214,0.53
				c-0.054,0.175-0.108,0.361-0.16,0.561c-0.265,0.826-0.688,1.537-1.268,2.13c-0.29,0.32-0.666,0.584-1.135,0.79
				C213.22,199.233,212.695,199.295,212.112,199.211z M213.821,196.491c0.431-0.359,0.75-0.798,0.964-1.318
				c0.217-0.517,0.387-1.061,0.515-1.632c0.198-0.988,0.352-1.99,0.469-3.006c0.111-1.015,0.16-2.067,0.144-3.153
				c-0.011-0.483-0.022-0.965-0.033-1.448c-0.011-0.483-0.068-0.985-0.171-1.505c-0.076-0.307-0.181-0.634-0.317-0.983
				c-0.133-0.35-0.374-0.651-0.723-0.904c-0.42-0.294-0.802-0.376-1.146-0.243c-0.347,0.133-0.618,0.295-0.815,0.485
				c-0.539,0.541-0.902,1.245-1.086,2.111c-0.184,0.866-0.333,1.703-0.444,2.514c-0.081,0.444-0.133,0.897-0.157,1.358
				c-0.024,0.464-0.06,0.926-0.103,1.389c-0.046,0.467-0.065,0.939-0.054,1.423c0.011,0.483,0.027,0.976,0.051,1.482
				c0.024,0.213,0.046,0.454,0.065,0.718c0.019,0.264,0.057,0.538,0.122,0.822c0.065,0.283,0.152,0.559,0.263,0.823
				c0.114,0.268,0.287,0.511,0.523,0.726c0.393,0.37,0.748,0.569,1.064,0.595C213.269,196.773,213.556,196.688,213.821,196.491z"/>
			<path style="fill:#F22222;" d="M234.041,195.055c0.404,0.731,0.626,1.375,0.661,1.926c0.038,0.552-0.057,1.215-0.279,1.988
				c-0.092,0.299-0.225,0.563-0.404,0.786c-0.181,0.225-0.368,0.348-0.566,0.369c-0.065,0.007-0.127,0.001-0.181-0.018
				c-0.116-0.037-0.198-0.101-0.246-0.192c-0.076-0.137-0.06-0.236,0.046-0.295c0.106-0.06,0.217-0.156,0.328-0.288
				c0.07-0.129,0.168-0.339,0.298-0.632c0.13-0.292,0.119-0.574-0.033-0.849c-0.125-0.229-0.284-0.368-0.477-0.421
				c-0.417-0.125-0.829-0.3-1.23-0.523c-0.404-0.224-0.726-0.554-0.964-0.987c-0.293-0.527-0.374-1.026-0.255-1.498
				c0.125-0.472,0.439-0.735,0.945-0.789c0.374-0.039,0.799,0.08,1.278,0.356S233.8,194.621,234.041,195.055z"/>
		</g>
		<polygon style="opacity:0.36;fill:#F22222;" points="487.791,325.165 486.186,318.705 478.161,318.705 486.186,313.088 
			486.186,303.458 492.874,309.343 503.306,307.334 498.869,313.89 504.911,320.578 493.944,318.438 		"/>
		<polygon style="opacity:0.36;fill:#F22222;" points="529.301,309.679 531.186,305.91 534.954,309.679 539.8,309.679 
			536.57,313.783 538.723,317.082 532.263,315.052 527.308,318.36 528.494,313.783 523.379,309.948 		"/>
		<polygon style="opacity:0.36;fill:#F22222;" points="515.137,340.512 514.002,335.945 508.328,335.945 514.002,331.974 
			514.002,325.165 518.73,329.326 526.106,327.906 522.969,332.541 527.24,337.269 519.486,335.756 		"/>
		<path style="fill:#F9CC07;" d="M441.982,129.007c-5.647-2.941-14.501-2.766-23.256,10.382l22.162,12.601
			C440.888,151.989,454.51,135.53,441.982,129.007z"/>
		<path style="fill:#D99748;" d="M418.726,139.389c0,0,2.189,4.94,8.345,8.36c6.156,3.42,13.817,4.241,13.817,4.241
			S434.595,141.289,418.726,139.389z"/>
		<path style="fill:#F22222;" d="M430.6,142.935c0,0-8.415,5.036-3.799,8.083c4.617,3.047,5.366-7.142,5.366-7.142L430.6,142.935z"
			/>
		<g>
			<path style="fill:#FCDABF;" d="M142.532,352.071c1.622-1.037,3.266-2.092,4.544-3.531c1.964-2.212,2.922-5.284,2.564-8.221
				c-0.066-0.54-0.174-1.085-0.106-1.625c0.079-0.617,0.382-1.178,0.659-1.735c0.713-1.432,1.297-3.041,0.97-4.606
				c-0.327-1.566-1.891-2.959-3.442-2.565c-0.686-2.181-2.521-3.869-4.61-4.797c-2.089-0.929-4.417-1.178-6.703-1.197
				c-3.526-0.029-7.21,0.526-10.076,2.581s-4.31,6.507-3.098,9.819c-1.088-1.817-2.91-1.59-4.309,0c-1.4,1.59-1.277,2.616,0,4.306
				c1.628,2.155,2.086,2.594,5.027,1.27c1.112,2.597,4.272,7.914,6.865,9.037s5.42,1.566,8.215,1.982
				c0.656,0.098,1.332,0.193,1.976,0.037C141.562,352.688,142.052,352.377,142.532,352.071z"/>
			<path style="fill:#E8B69C;" d="M138.035,340.912c0.008-0.016-0.051,0.005-0.062-0.141c0-0.127,0.026-0.256,0.107-0.413
				c0.159-0.296,0.43-0.718,0.891-1.069c0.457-0.344,1.05-0.709,1.758-0.892c0.352-0.089,0.724-0.153,1.102-0.181
				c0.384-0.016,0.715-0.101,1.316,0.067c0.071,0.022,0.144,0.053,0.214,0.093l0.122,0.076l0.055,0.04
				c0.17,0.128,0.246,0.22,0.342,0.343c0.174,0.235,0.273,0.481,0.333,0.716c0.061,0.202,0.078,0.528,0.072,0.665
				c-0.003,0.201-0.04,0.498-0.098,0.679c-0.23,0.839-0.858,1.352-1.382,1.645c-0.541,0.313-1.088,0.293-1.413,0.257
				c-0.339-0.051-0.498-0.174-0.499-0.158l0.014-0.081c-0.026-0.024,0.749,0.206,1.616-0.419c0.418-0.292,0.821-0.789,0.969-1.411
				c0.145-0.578,0.013-1.443-0.621-1.676c-0.305-0.107-0.668-0.083-1.005-0.075c-0.34,0.009-0.675,0.051-0.993,0.115
				c-0.636,0.127-1.21,0.348-1.657,0.612c-0.448,0.262-0.777,0.553-0.962,0.788c-0.091,0.115-0.15,0.227-0.16,0.285
				c-0.033,0.045,0.026,0.103,0.015,0.098L138.035,340.912z"/>
			<path style="fill:#50535A;" d="M133.801,337.908c-1.022,0.036-1.793-1.066-1.771-2.088c0.01-0.455,0.162-0.946,0.544-1.195
				c0.519-0.34,1.266-0.072,1.631,0.43c0.366,0.501,0.435,1.158,0.432,1.778c-0.001,0.235-0.014,0.481-0.129,0.685
				c-0.115,0.205-0.365,0.353-0.588,0.278"/>
			<path style="fill:#50535A;" d="M142.514,337.19c1.022,0.036,1.793-1.066,1.771-2.088c-0.01-0.455-0.162-0.946-0.544-1.195
				c-0.519-0.34-1.266-0.072-1.631,0.43s-0.435,1.158-0.432,1.778c0.001,0.235,0.014,0.481,0.129,0.685
				c0.115,0.205,0.365,0.353,0.588,0.278"/>
			<path style="fill:#F8F8F8;" d="M126.604,347.662c-0.097-1.236,0.443-2.505,1.402-3.292c0.958-0.787,2.309-1.069,3.502-0.733
				c0.632,0.178,1.251,0.521,1.902,0.435c0.598-0.079,1.083-0.502,1.597-0.817c0.971-0.593,2.157-0.825,3.28-0.641
				c0.853,0.14,1.672,0.51,2.536,0.504c0.76-0.005,1.485-0.302,2.236-0.422c1.117-0.179,2.295,0.049,3.265,0.631
				c0.292,0.175,0.589,0.389,0.93,0.389c0.795,0,1.431-1.146,2.144-0.793c0.233,0.75,0.169,1.588-0.176,2.293
				c1.271,0.565,1.401,2.335,1.042,3.679c-0.115,0.43-0.257,0.905-0.057,1.303c0.382,0.76,1.697,0.663,2.014,1.452
				c0.218,0.543-0.19,1.216,0.1,1.725c0.227,0.399,0.753,0.478,1.193,0.609c1.699,0.506,2.75,2.563,2.163,4.236
				c1.596-0.23,3.09,1.604,2.543,3.12c-0.547,1.516-2.868,1.974-3.949,0.778c-0.183-0.203-0.358-0.454-0.627-0.502
				c-0.297-0.052-0.564,0.167-0.795,0.36c-1.297,1.085-3.242,1.779-4.649,0.841c-0.249-0.166-0.472-0.378-0.752-0.485
				c-0.471-0.181-0.996-0.028-1.484,0.104c-2.864,0.772-5.936,0.756-8.791-0.045c-0.916-0.257-1.829-0.605-2.556-1.219
				c-0.726-0.614-1.244-1.536-1.177-2.485c0.018-0.259,0.072-0.545-0.077-0.757c-0.096-0.137-0.257-0.21-0.411-0.275
				c-1.585-0.674-3.272-1.198-4.616-2.275c-1.343-1.077-2.274-2.915-1.685-4.533c0.083-0.227,0.193-0.479,0.093-0.699
				c-0.092-0.2-0.321-0.287-0.502-0.413C125.518,349.237,125.753,347.888,126.604,347.662z"/>
			<path style="fill:#F20505;" d="M135.564,325.763c-1.216,0.113-2.441,0.002-3.66,0.068c-2.874,0.154-5.755,1.281-8.559,0.637
				c-0.222-0.051-0.458-0.123-0.6-0.301c-0.123-0.154-0.153-0.36-0.177-0.555c-0.462-3.792,0.049-7.698,1.471-11.244
				c0.29-0.722,0.624-1.441,1.146-2.018c0.578-0.64,1.35-1.067,2.112-1.471c3.817-2.028,7.89-3.845,12.209-4.035
				c2.698-0.118,5.389,0.407,7.979,1.173c3.199,0.947,6.275,2.26,9.343,3.571c0.352,0.15,0.716,0.309,0.968,0.597
				s0.356,0.744,0.133,1.054c-1.34-0.812-2.972-1.13-4.519-0.88c-0.899,0.146-1.778,0.476-2.687,0.443
				c-0.467-0.017-0.924-0.129-1.385-0.206c-1.319-0.22-2.687-0.142-3.973,0.224c-1.082,0.308-2.282,1.124-2.12,2.237
				c0.083,0.573,0.516,1.024,0.938,1.421c1.262,1.189,2.656,2.318,3.432,3.868c0.405,0.81,0.624,1.712,0.635,2.618
				c0.005,0.416-0.05,0.87-0.343,1.165c-0.521,0.525-1.392,0.243-2.107,0.058C142.423,323.31,139.037,325.44,135.564,325.763z"/>
			<path style="fill:#F8F8F8;" d="M122.242,334.986c-0.719,0.087-1.25-4.522-1.25-4.522s-0.643-2.833,0.663-3.626
				s2.343-2.087,5.661-2.857c3.318-0.77,11.611-3.263,17.625-1.223c0,0,2.385,0.34,3.318,1.813c0.933,1.473,1.527,2.637,0.726,3.74
				c-0.801,1.103,0.588,1.809-0.313,2.278c-0.629,0.327-3.842-0.805-5.756-1.145c-1.914-0.34-3.854-1.096-5.061-1.02
				c-1.208,0.076-1.442-0.416-3.185,0.227s-4.554,0.227-5.902,1.587C127.419,331.597,123.568,334.825,122.242,334.986z"/>
			<path style="fill:#F8F8F8;" d="M158.178,317.287c0.156,0.201,0.392,0.321,0.622,0.429c1.218,0.572,2.65,0.991,3.888,0.463
				c1.036-0.442,1.721-1.481,2.013-2.569c0.292-1.088,0.249-2.234,0.197-3.359c-0.018-0.39-0.043-0.801-0.258-1.127
				c-0.355-0.536-1.079-0.649-1.718-0.714c-0.887-0.09-1.888-0.145-2.556,0.446c-0.289,0.255-0.476,0.603-0.719,0.902
				c-0.485,0.599-1.179,0.99-1.72,1.539c-0.541,0.549-0.928,1.393-0.587,2.084c0.115,0.234,0.304,0.427,0.416,0.662
				C157.945,316.442,157.908,316.939,158.178,317.287z"/>
		</g>
		<path style="fill:#F20505;" d="M347.089,123.445c0,0,163.213,82.111,163.648,82.834c0.435,0.724,11.447,19.014,11.447,19.014
			l-204.291-93.165C317.894,132.128,337.73,125.733,347.089,123.445z"/>
		<g>
			<path style="fill:#F20505;" d="M298.503,139.081c0,0-31.9-21.292-21.777-37.708c0,0,12.586-13.456,52.258,18.854
				c0,0,6.293,3.504,8.482,7.236C337.466,127.463,323.015,137.39,298.503,139.081z"/>
			<path style="fill:#F20505;" d="M363.19,120.729c1.597-1.165,2.65-2.939,2.906-4.899c1.216-9.311,3.522-37.292-11.94-41.544
				c0,0-13.784-6.131-20.794,44.552c0,0-1.669,4.403-0.727,8.626C332.635,127.463,345.374,133.726,363.19,120.729z"/>
			<path style="fill:#A60303;" d="M296.425,134.479c0,0-18.058-10.397-19.152-22.709c0,0-3.01-4.651,0-5.472
				S288.491,116.695,296.425,134.479z"/>
			<path style="fill:#A60303;" d="M340.343,124.695c0.209,1.223,0.278,2.552-0.606,3.595c-0.956,1.127-2.798,1.646-4.557,1.899
				c-3.093,0.444-6.849,0.071-8.474-1.936c-1.499-1.853-0.535-4.236,0.662-6.207c1.018-1.675,2.442-3.463,4.832-3.932
				c2.203-0.433,4.587,0.472,5.955,1.827C339.525,121.295,340.056,123.014,340.343,124.695z"/>
			<path style="fill:#F20505;" d="M338.292,124.659c0.156,1.223,0.207,2.552-0.45,3.595c-0.711,1.127-2.08,1.646-3.389,1.899
				c-2.3,0.444-5.093,0.071-6.301-1.936c-1.115-1.853-0.398-4.236,0.492-6.207c0.757-1.675,1.816-3.463,3.593-3.932
				c1.638-0.433,3.411,0.472,4.428,1.827C337.683,121.259,338.078,122.978,338.292,124.659z"/>
		</g>
	</g>
</g>
<g id="Livello_1">
</g>
</svg>
