<?xml version="1.0" encoding="iso-8859-1"?>
<!-- Generator: Adobe Illustrator 18.1.0, SVG Export Plug-In . SVG Version: 6.00 Build 0)  -->
<!DOCTYPE svg PUBLIC "-//W3C//DTD SVG 1.1//EN" "http://www.w3.org/Graphics/SVG/1.1/DTD/svg11.dtd">
<svg version="1.1" xmlns="http://www.w3.org/2000/svg" xmlns:xlink="http://www.w3.org/1999/xlink" x="0px" y="0px"
	 viewBox="0 0 512 539.591" style="enable-background:new 0 0 512 539.591;" xml:space="preserve">
<g id="_x23_candy">
	<circle style="fill:#26424B;" cx="256" cy="283.591" r="256"/>
	<g>
		<path style="fill:none;" d="M209.384,62.023c-26.842,10.029-42.593,35.041-46.63,49.406c-4.231,15.054-4.951,36.309,1.046,60.842
			l48.663-111.306C211.431,61.296,210.404,61.642,209.384,62.023z"/>
		<path style="fill:#FFFFFF;" d="M190.945,233.255c-1.604-2.454-3.117-4.896-4.581-7.331l-27.27,62.374
			c9.071,12.468,20.449,27.649,33.186,44.329l26.494-60.601C206.257,255.273,196.431,241.646,190.945,233.255z"/>
		<path style="fill:#FFFFFF;" d="M295.156,79.373c13.315,8.754,31.204,5.057,39.958-8.257c8.754-13.314,5.057-31.204-8.257-39.958
			c-16.012-10.528-31.18-17.875-45.382-22.782L258.26,61.475C270.049,64.997,282.365,70.963,295.156,79.373z"/>
		<path style="fill:#FFFFFF;" d="M247.986,310.473l-26.321,60.205c10.422,13.361,21.194,27.039,31.941,40.556l26.186-59.895
			C268.818,337.378,258.069,323.568,247.986,310.473z"/>
		<path style="fill:#FFFFFF;" d="M162.754,111.429c4.038-14.365,19.788-39.377,46.63-49.406c1.019-0.381,2.047-0.727,3.078-1.058
			l26.605-60.854c-19.219-0.784-35.599,2.69-48.619,7.396l-80.877,184.991c5.107,18.212,12.541,36.398,21.925,53.661l32.303-73.887
			C157.803,147.738,158.523,126.483,162.754,111.429z"/>
		<path style="fill:#FFFFFF;" d="M367.467,459.572l-25.602,58.559c4.386,4.936,8.272,9.179,11.556,12.597
			c5.665,5.895,13.23,8.862,20.809,8.862c7.19,0,14.392-2.672,19.986-8.047c11.49-11.04,11.855-29.304,0.815-40.794
			C388.309,483.754,378.781,472.925,367.467,459.572z"/>
		<path style="fill:#FFFFFF;" d="M309.457,388.749l-26.058,59.604c9.795,12.08,19.242,23.596,28.025,34.147l25.904-59.25
			C328.368,412.277,318.984,400.656,309.457,388.749z"/>
		<path style="fill:#DB605A;" d="M189.188,7.969c-20.516,7.666-39.326,20.886-54.395,38.231
			c-13.007,14.972-22.805,32.592-27.59,49.613c-7.708,27.421-7.476,57.838,0.689,90.405c0.525,2.092,1.092,4.185,1.678,6.278
			L190.448,7.507C190.025,7.66,189.604,7.814,189.188,7.969z"/>
		<path style="fill:#DB605A;" d="M258.26,61.475l23.215-53.099c-15.313-5.29-29.5-7.738-42.407-8.265l-26.605,60.854
			C226.626,56.423,241.938,56.6,258.26,61.475z"/>
		<path style="fill:#DB605A;" d="M163.8,172.271l-32.303,73.887c3.461,6.366,7.184,12.606,11.152,18.675
			c3.801,5.814,9.438,13.833,16.445,23.465l27.27-62.374C175.069,207.134,167.875,188.945,163.8,172.271z"/>
		<path style="fill:#DB605A;" d="M218.774,272.027l-26.494,60.601c9.209,12.061,19.126,24.9,29.385,38.051l26.321-60.205
			C237.319,296.621,227.406,283.58,218.774,272.027z"/>
		<path style="fill:#DB605A;" d="M279.792,351.339l-26.186,59.895c10.061,12.653,20.094,25.158,29.793,37.118l26.058-59.604
			C299.607,376.438,289.613,363.833,279.792,351.339z"/>
		<path style="fill:#DB605A;" d="M337.327,423.249l-25.904,59.25c11.542,13.864,21.936,26.06,30.442,35.633l25.602-58.559
			C358.398,448.87,348.178,436.539,337.327,423.249z"/>
	</g>
	<g>
		<path style="fill:#DB605A;" d="M212.246,427.129c12.317-12.974,34.325-36.775,26.259-56.559
			c-10.787-26.458-55.409-21.349-76.14-15.987C103.766,369.739,173.292,468.158,212.246,427.129z"/>
		<path style="fill:#DB605A;" d="M266.542,317.778c4.691-17.263,13.604-48.431,34.7-51.811c28.213-4.52,47.017,36.267,53.201,56.768
			C371.92,380.684,251.707,372.373,266.542,317.778z"/>
		<path style="opacity:0.24;fill:#231F20;" d="M222.743,353.281l16.771,19.276c0.751,0.863,1.128,1.99,1.048,3.132l-0.36,5.118
			c-0.055,0.784,0.181,1.534,0.463,2.267c0.179,0.466-0.656,0.821-6.387-0.599c-7.432-1.842-16.791-16.524-20.071-22.022
			c-0.757-1.269-0.815-2.835-0.15-4.155l0.769-1.525c0.303-0.601,0.742-1.122,1.283-1.523l0.814-0.603
			C218.732,351.307,221.266,351.583,222.743,353.281z"/>
		<path style="opacity:0.24;fill:#231F20;" d="M264.358,326.792c0,0,1.534-3.061,2.727-1.875c1.193,1.186,6.693,3.921,9.057,6.477
			c2.364,2.557,6.108,9.271,6.663,11.421c1.497,5.796-0.037,7.841-0.037,7.841s0.055,0.898-1.193,1.143
			c-1.249,0.246-2.046,1.414-2.046,1.414S263.676,335.826,264.358,326.792z"/>
		<path style="fill:#DB605A;" d="M217.993,353.859c0,0,11.01,21.804,20.455,25.507c9.445,3.703,45.683-23.937,44.319-28.71
			c-1.364-4.773-15.487-29.23-22.492-26.945C253.27,325.996,215.949,350.081,217.993,353.859z"/>
	</g>
</g>
<g id="Livello_1">
</g>
</svg>
