<?xml version="1.0" encoding="iso-8859-1"?>
<!-- Generator: Adobe Illustrator 18.1.0, SVG Export Plug-In . SVG Version: 6.00 Build 0)  -->
<!DOCTYPE svg PUBLIC "-//W3C//DTD SVG 1.1//EN" "http://www.w3.org/Graphics/SVG/1.1/DTD/svg11.dtd">
<svg version="1.1" xmlns="http://www.w3.org/2000/svg" xmlns:xlink="http://www.w3.org/1999/xlink" x="0px" y="0px"
	 viewBox="0 0 529.472 543.655" style="enable-background:new 0 0 529.472 543.655;" xml:space="preserve">
<g id="_x23_hut-gloves">
	<g>
		<circle style="fill:#FFD99B;" cx="256" cy="287.655" r="256"/>
		<g>
			<path style="fill:#F8F8F8;" d="M60.624,279.575c0.847-20.485-1.403-32.161-1.659-41.365c-0.651-23.435,7.808-63.315,17.35-84.42
				c14.373-31.788,26.069-56.425,59.41-71.838c24.342-11.253,56.811-13.139,80.59-0.079c28.793,15.814,42.771,49.52,47.707,76.351
				c4.861,26.42,11.468,55.065,13.554,81.974c0.812,10.469,0.143,39.297-8.213,46.163c-8.346,6.857-30.962,3.757-41.264,4.961
				c-24.584,2.872-49.555,2.424-74.272,4.341C133.825,297.213,71.392,301.07,60.624,279.575z"/>
			<path style="fill:#E2E1E0;" d="M214.745,53.285c-0.219,2.156,3.075,4.78,2.591,6.835c-0.494,2.103-1.272,4.247-2.023,6.227
				c-0.764,2.014-1.616,4.128-2.624,5.998c-1.019,1.891-4.1,2.477-5.347,4.203c-1.256,1.737-0.287,5.373-1.751,6.924
				c-1.469,1.556-5.236,0.7-6.892,2.05c-1.656,1.35-3.147,2.67-4.967,3.796c-1.814,1.122-2.52,4.398-4.475,5.278
				c-1.941,0.874-5.179-1.825-7.236-1.207c-2.034,0.611-3.109,5.507-5.235,5.85c-2.091,0.337-4.625-3.041-6.785-2.98
				c-2.11,0.06-3.975-1.03-6.132-1.249c-2.156-0.219-4.817,3.085-6.872,2.602c-2.103-0.494-3.103-4.389-5.083-5.14
				c-2.014-0.764-5.995,2.692-7.865,1.685c-1.891-1.019-0.757-6.852-2.482-8.099c-1.737-1.256-6.621,1.339-8.172-0.125
				c-1.556-1.469,0.083-5.952-1.267-7.607c-1.35-1.656-2.893-2.917-4.019-4.737c-1.122-1.814-1.098-3.965-1.978-5.92
				c-0.874-1.941-4.253-2.821-4.871-4.878c-0.611-2.034,0.926-4.499,0.583-6.625c-0.337-2.091,0.685-4.039,0.623-6.199
				c-0.06-2.11-3.297-4.214-3.078-6.37c0.219-2.156-0.24-4.519,0.243-6.574c0.494-2.103,1.359-4.243,2.11-6.223
				c0.764-2.014,3.275-3.253,4.282-5.122c1.019-1.891,0.187-5.022,1.434-6.747c1.256-1.737,3.012-3.325,4.476-4.876
				c1.469-1.556,4.743-1.204,6.399-2.554c1.656-1.35,1.959-4.645,3.779-5.77c1.814-1.122,3.494-3.035,5.448-3.916
				c1.941-0.874,5.725,3.252,7.782,2.634c2.034-0.611,3.723-1.145,5.849-1.488c2.091-0.337,3.791-2.898,5.95-2.96
				c2.11-0.06,4.014,1.838,6.171,2.057c2.156,0.219,4.215-0.455,6.27,0.028c2.103,0.494,4.3,0.281,6.28,1.032
				c2.014,0.764,3.691,2.057,5.56,3.065c1.891,1.019,3.983,1.586,5.709,2.833c1.737,1.256,4.716,1.175,6.268,2.639
				c1.556,1.469,0.318,5.533,1.668,7.188c1.35,1.656,3.159,2.757,4.285,4.577c1.122,1.814,2.287,3.478,3.168,5.433
				c0.874,1.941,2.488,3.573,3.106,5.63c0.611,2.034-0.981,4.469-0.638,6.595c0.337,2.091,0.944,3.948,1.005,6.108
				C216.055,49.296,214.964,51.128,214.745,53.285z"/>
			<path style="fill:#CE5959;" d="M77.258,254.407c-10.341-3.682-26.307-2.835-30.052,9.439c-3.857,12.64-4.166,26.741,5.776,34.544
				c17.202,13.501,35.585,12.425,57.082,11.912c11.983-0.286,23.859,1.55,35.8,1.505c11.449-0.043,22.157-0.708,33.641,0.456
				c26.047,2.641,54.388-1.182,79.88-6.7c14.263-3.088,27.841-5.204,31.88-21.249c2.163-8.595-0.674-17.25-5.795-24.239
				c-10.778-14.708-16.334-9.656-27.433-8.753c-13.081,1.064-25.956,0.237-38.847,2.6c-16.67,3.057-33.663,1.814-50.448,2.42
				c-16.046,0.579-31.626-2.055-47.589,0.481C105.519,259.308,91.946,253.33,77.258,254.407z"/>
			<g>
				<path style="fill:#CE5959;" d="M124.82,157.962l18.872-13.876l24.068,17.46l37.713-24.971l34.727,20.725l19.68-15.937
					c-2.884-9.355-6.855-18.909-12.126-27.8l-11.227,17.308l-34.791-19.267l-28.97,20.258l-29.074-20.258l-21.472,19.927
					l-24.508-18.137c-8.283,11.688-14.538,25.224-21.397,40.394c-0.955,2.112-1.898,4.42-2.824,6.873l27.542-17.898L124.82,157.962z
					"/>
				<path style="fill:#CE5959;" d="M127.515,217.594l20.969-19.822l23.787,13.38l33.202-22.796l31.715,14.867l32.386-16.209
					c-1.77-9.162-3.587-18.231-5.231-27.065l-29.137,21.965l-28.742-16.314l-34.193,19.269l-24.778-10.884l-19.978,18.336
					L91,170.516l-24.883,14.477c-2.247,9.14-4.115,18.73-5.381,27.822l30.76-17.522L127.515,217.594z"/>
				<path style="fill:#CE5959;" d="M102.646,256.667l27.999-15.287l21.309,10.902l25.273-10.902l25.273,8.377l23.787-15.315
					l23.787,11.893l26.559-15.936c-0.767-6.785-1.767-13.647-2.905-20.527l-27.124,19.119l-18.256-11.398l-28.327,13.876
					l-26.76-8.92l-21.804,14.371l-23.943-9.911l-23.135,13.38l-26.264-13.38l-19.17,9.954c0.006,0.417,0.008,0.84,0.019,1.247
					c0.082,2.945,0.368,6.149,0.692,9.808l17.468-4.159L102.646,256.667z"/>
			</g>
		</g>
		<g>
			<path style="fill:#CE5959;" d="M301.377,389.55c-25.532-89.251,68.004-146.099,103.368-63.81
				c15.786,36.732,15.502,123.413-23.003,144.441c-28.644,15.644-77.294,12.142-100.986-20.963
				C268.791,432.499,251.335,364.776,301.377,389.55z"/>
			<path style="fill:#F8F8F8;" d="M312.91,473.877l-1.562,11.054c-0.626,4.43,3.431,8.293,8.517,8.112l58.192-2.073
				c4.75-0.169,8.353-3.816,7.867-7.962l-1.274-10.868c-0.445-3.794-4.175-6.633-8.522-6.485l-55.356,1.888
				C316.735,467.68,313.407,470.362,312.91,473.877z"/>
			<path style="fill:#F8F8F8;" d="M392.197,377.851c-2.116-1.294-4.234-2.59-6.328-3.923c2.042-0.546,4.084-1.093,6.125-1.639
				c4.087-1.094,2.353-7.444-1.75-6.346c-3.392,0.907-6.784,1.816-10.176,2.724c-0.454,0.121-0.824,0.316-1.139,0.549
				c-1.502-1.105-2.971-2.256-4.392-3.472c-4.887-4.181-8.95-9.199-13.633-13.599c4.711-2.916,9.426-5.825,14.145-8.728
				c0.331-0.204,0.663-0.404,0.995-0.605c0.074,0.047,0.133,0.101,0.214,0.145c3.838,2.081,7.875,3.264,12.208,3.715
				c1.77,0.184,3.291-1.644,3.291-3.291c0-1.933-1.515-3.105-3.291-3.29c-2.021-0.21-3.975-0.724-5.856-1.446
				c2.197-1.546,4.26-3.258,6.027-5.367c2.704-3.225-1.928-7.904-4.654-4.654c-1.577,1.88-3.449,3.481-5.459,4.931
				c-0.276-1.852-0.656-3.686-1.171-5.493c-1.158-4.066-7.51-2.338-6.346,1.749c0.719,2.525,1.169,5.057,1.347,7.665
				c-1.717,1.004-3.434,1.986-5.08,2.999c-2.986,1.839-5.963,3.69-8.945,5.535c-0.138-4.603-0.286-9.204,0.023-13.769
				c0.038-0.013,0.077-0.013,0.114-0.028c3.99-1.612,7.752-3.568,11.268-6.057c3.429-2.427,0.146-8.137-3.322-5.683
				c-2.228,1.576-4.566,2.997-7.017,4.193c0.077-0.359,0.137-0.719,0.224-1.077c0.995-4.115-5.349-5.871-6.346-1.749
				c-0.166,0.687-0.298,1.374-0.432,2.06c-2.516-1.878-5.031-3.756-7.547-5.634c-1.425-1.064-3.676-0.232-4.502,1.181
				c-0.982,1.679-0.248,3.435,1.181,4.502c3.252,2.427,6.503,4.855,9.755,7.283c0.059,0.044,0.126,0.066,0.187,0.103
				c-0.272,4.339-0.166,8.681-0.052,13.045c-4.9-4.004-10.001-7.842-15.292-11.291c0.563-3.228,0.756-6.496,0.521-9.785
				c-0.3-4.2-6.883-4.233-6.581,0c0.145,2.039,0.115,4.041-0.074,6.032c-0.645-0.369-1.288-0.743-1.939-1.098
				c-3.72-2.028-7.045,3.652-3.322,5.683c0.996,0.543,1.988,1.107,2.977,1.682c-3.099,2.054-6.285,3.962-9.572,5.711
				c-3.74,1.99-0.419,7.673,3.322,5.683c4.061-2.161,7.977-4.553,11.753-7.181c0.207-0.144,0.388-0.302,0.548-0.468
				c5.475,3.584,10.781,7.585,15.776,11.829c-5.013,3.123-10.01,6.262-14.761,9.726c-3.034-2.83-7.722-3.139-11.284-5.142
				c-3.696-2.079-7.017,3.604-3.322,5.683c1.858,1.045,3.819,1.922,5.854,2.562c1.114,0.351,2.321,0.562,3.353,1.086
				c-1.997,1.668-3.928,3.424-5.765,5.303c-2.962,3.031,1.687,7.688,4.654,4.653c1.34-1.371,2.745-2.662,4.179-3.915
				c0.455,2.206,0.911,4.412,1.366,6.618c0.856,4.145,7.201,2.391,6.346-1.749c-0.653-3.163-1.306-6.326-1.959-9.489
				c4.218-3.127,8.657-5.969,13.136-8.74c-0.263,4.116-0.691,8.218-0.471,12.351c0.091,1.707,0.198,3.346,0.267,4.954
				c-0.413,0.16-0.809,0.389-1.169,0.683c-2.34,1.909-4.801,3.649-7.352,5.266c-3.568,2.262-0.27,7.959,3.322,5.683
				c1.658-1.051,3.266-2.172,4.845-3.334c-0.244,1.438-0.611,2.895-1.15,4.394c-1.436,3.992,4.92,5.711,6.346,1.75
				c0.793-2.202,1.275-4.444,1.573-6.71c0.241,0.189,0.478,0.371,0.706,0.53c1.411,0.981,2.821,1.963,4.232,2.945
				c1.459,1.015,3.655,0.267,4.502-1.181c0.958-1.638,0.282-3.485-1.181-4.502c-1.587-1.105-3.174-2.209-4.761-3.313
				c-1.022-0.711-2.011-1.439-3.087-2.024c-0.023-5.389-0.497-10.841-0.124-16.197c0.009-0.123,0.012-0.247,0.02-0.371
				c4.784,4.67,9.021,9.756,14.291,13.933c0.821,0.651,1.67,1.262,2.513,1.882c-0.648,1.257-0.304,2.621,0.523,3.582
				c0.005,2.575,0.01,5.151,0.015,7.726c0.008,4.234,6.589,4.242,6.581,0c-0.004-2.148-0.008-4.296-0.012-6.445
				c2.206,1.411,4.433,2.792,6.667,4.158C392.498,385.749,395.808,380.059,392.197,377.851z"/>
		</g>
		<g>
			<path style="fill:#CE5959;" d="M416.281,223.011c-25.532-89.251,68.004-146.099,103.368-63.81
				c15.786,36.732,15.502,123.413-23.003,144.441c-28.644,15.644-77.294,12.142-100.986-20.963
				C383.695,265.96,366.239,198.238,416.281,223.011z"/>
			<path style="fill:#F8F8F8;" d="M427.814,307.338l-1.562,11.054c-0.626,4.43,3.431,8.293,8.517,8.112l58.192-2.073
				c4.75-0.169,8.353-3.816,7.867-7.962l-1.274-10.868c-0.445-3.794-4.175-6.633-8.522-6.485l-55.356,1.888
				C431.639,301.141,428.311,303.823,427.814,307.338z"/>
			<path style="fill:#F8F8F8;" d="M507.101,211.312c-2.116-1.294-4.234-2.59-6.328-3.923c2.042-0.546,4.084-1.093,6.125-1.639
				c4.087-1.094,2.353-7.444-1.75-6.346c-3.392,0.907-6.784,1.816-10.176,2.724c-0.454,0.121-0.824,0.316-1.139,0.549
				c-1.502-1.105-2.971-2.256-4.392-3.472c-4.887-4.181-8.95-9.199-13.633-13.599c4.711-2.916,9.426-5.825,14.145-8.728
				c0.331-0.204,0.663-0.404,0.995-0.605c0.074,0.047,0.133,0.101,0.214,0.145c3.838,2.081,7.875,3.264,12.208,3.715
				c1.77,0.184,3.291-1.644,3.291-3.291c0-1.933-1.515-3.105-3.291-3.291c-2.021-0.21-3.975-0.724-5.856-1.446
				c2.197-1.546,4.26-3.258,6.027-5.367c2.704-3.225-1.928-7.904-4.654-4.654c-1.577,1.88-3.449,3.481-5.459,4.931
				c-0.276-1.852-0.656-3.686-1.171-5.493c-1.158-4.066-7.51-2.338-6.346,1.749c0.719,2.525,1.169,5.057,1.347,7.665
				c-1.717,1.004-3.434,1.986-5.08,2.999c-2.986,1.839-5.963,3.69-8.945,5.535c-0.138-4.603-0.286-9.204,0.023-13.769
				c0.038-0.013,0.077-0.013,0.114-0.028c3.99-1.612,7.752-3.568,11.268-6.057c3.429-2.427,0.146-8.137-3.322-5.683
				c-2.228,1.576-4.566,2.997-7.017,4.193c0.077-0.359,0.137-0.719,0.224-1.076c0.995-4.115-5.349-5.871-6.346-1.749
				c-0.166,0.687-0.298,1.374-0.432,2.06c-2.516-1.878-5.031-3.756-7.547-5.634c-1.425-1.064-3.676-0.232-4.502,1.181
				c-0.982,1.679-0.248,3.435,1.181,4.502c3.252,2.427,6.503,4.855,9.755,7.283c0.059,0.044,0.126,0.066,0.187,0.103
				c-0.272,4.339-0.166,8.681-0.052,13.045c-4.9-4.004-10.001-7.842-15.292-11.291c0.563-3.228,0.756-6.496,0.521-9.785
				c-0.3-4.2-6.883-4.233-6.581,0c0.146,2.039,0.115,4.041-0.074,6.032c-0.645-0.369-1.288-0.743-1.939-1.098
				c-3.72-2.028-7.045,3.652-3.322,5.683c0.996,0.543,1.988,1.107,2.977,1.682c-3.099,2.054-6.285,3.962-9.572,5.711
				c-3.74,1.99-0.419,7.673,3.322,5.683c4.061-2.161,7.977-4.553,11.753-7.181c0.207-0.144,0.388-0.302,0.548-0.468
				c5.475,3.584,10.781,7.585,15.776,11.829c-5.013,3.123-10.01,6.262-14.761,9.726c-3.034-2.83-7.722-3.139-11.284-5.142
				c-3.696-2.079-7.017,3.604-3.322,5.683c1.858,1.045,3.819,1.922,5.854,2.562c1.114,0.351,2.321,0.562,3.353,1.086
				c-1.997,1.668-3.928,3.424-5.765,5.303c-2.962,3.031,1.687,7.688,4.654,4.653c1.34-1.371,2.745-2.662,4.179-3.915
				c0.455,2.206,0.911,4.412,1.366,6.618c0.856,4.145,7.201,2.391,6.346-1.749c-0.653-3.163-1.306-6.326-1.959-9.489
				c4.218-3.127,8.657-5.969,13.136-8.74c-0.263,4.116-0.691,8.218-0.471,12.351c0.091,1.707,0.198,3.346,0.267,4.954
				c-0.413,0.16-0.809,0.389-1.169,0.683c-2.34,1.909-4.801,3.649-7.352,5.266c-3.568,2.262-0.27,7.959,3.322,5.683
				c1.658-1.051,3.266-2.172,4.845-3.334c-0.244,1.438-0.611,2.895-1.15,4.394c-1.436,3.992,4.92,5.711,6.346,1.75
				c0.793-2.202,1.275-4.444,1.573-6.71c0.241,0.189,0.478,0.371,0.706,0.53c1.411,0.981,2.821,1.963,4.232,2.945
				c1.459,1.015,3.655,0.267,4.502-1.181c0.958-1.638,0.282-3.485-1.181-4.502c-1.587-1.105-3.174-2.209-4.761-3.313
				c-1.022-0.711-2.011-1.439-3.087-2.024c-0.023-5.389-0.497-10.841-0.124-16.197c0.009-0.123,0.012-0.247,0.02-0.371
				c4.784,4.67,9.021,9.756,14.291,13.933c0.821,0.651,1.67,1.262,2.513,1.882c-0.648,1.257-0.304,2.621,0.523,3.582
				c0.005,2.575,0.01,5.151,0.015,7.726c0.008,4.234,6.589,4.242,6.581,0c-0.004-2.148-0.008-4.296-0.012-6.445
				c2.206,1.411,4.433,2.792,6.667,4.157C507.402,219.21,510.712,213.521,507.101,211.312z"/>
		</g>
		<circle style="fill:#FFFFFF;" cx="110.919" cy="394.198" r="20"/>
		<circle style="fill:#FFFFFF;" cx="331.758" cy="173.03" r="9.425"/>
		<circle style="fill:#FFFFFF;" cx="220.193" cy="351.865" r="8.726"/>
		<circle style="fill:#FFFFFF;" cx="353.915" cy="504.838" r="8.055"/>
		<circle style="fill:#FFFFFF;" cx="352.45" cy="232.553" r="6.591"/>
		<circle style="fill:#FFFFFF;" cx="241.517" cy="163.119" r="24.119"/>
		<circle style="fill:#FFFFFF;" cx="28.682" cy="265.068" r="3.763"/>
		<ellipse style="fill:#FFFFFF;" cx="329.096" cy="222.917" rx="2.662" ry="0"/>
	</g>
</g>
<g id="Livello_1">
</g>
</svg>
