<?xml version="1.0" encoding="iso-8859-1"?>
<!-- Generator: Adobe Illustrator 18.1.0, SVG Export Plug-In . SVG Version: 6.00 Build 0)  -->
<!DOCTYPE svg PUBLIC "-//W3C//DTD SVG 1.1//EN" "http://www.w3.org/Graphics/SVG/1.1/DTD/svg11.dtd">
<svg version="1.1" xmlns="http://www.w3.org/2000/svg" xmlns:xlink="http://www.w3.org/1999/xlink" x="0px" y="0px"
	 viewBox="0 0 512 542.717" style="enable-background:new 0 0 512 542.717;" xml:space="preserve">
<pattern  x="976.648" y="999.163" width="262.503" height="330.421" patternUnits="userSpaceOnUse" id="alberelli_2" viewBox="0 -330.42 262.503 330.421" style="overflow:visible;">
	<g>
		<polygon style="fill:none;" points="0,-330.42 262.503,-330.42 262.503,0 0,0 		"/>
		<polygon style="fill:#FFFFFF;" points="33.5,-257.136 44.926,-286.107 69,-263.256 56.351,-257.136 61.656,-248.975 
			49.414,-245.302 48.598,-256.727 		"/>
		<path style="fill:#FFFFFF;" d="M87.922-301.135c0.318-1.91,0-29.285,0-29.285l17.189,24.192l-4.775,1.273l4.775,9.868l-6.366,1.91
			L96.517-304L87.922-301.135z"/>
		<polygon style="fill:#FFFFFF;" points="101,-231.802 98.5,-263.802 129.5,-245.302 118.5,-239.302 129.5,-230.302 116.5,-223.302 
			113,-236.802 		"/>
		<polygon style="fill:#FFFFFF;" points="142.742,-279.354 146.621,-309.742 167.742,-286.682 160.845,-282.371 167.742,-272.026 
			156.966,-270.302 155.242,-281.94 		"/>
		<polygon style="fill:#FFFFFF;" points="75.653,-184.777 74.114,-212.882 96.137,-194.281 88.183,-190.704 96.517,-178.917 
			88.183,-176.342 83.902,-188.913 		"/>
		<polygon style="fill:#FFFFFF;" points="175.759,-230.57 158.058,-248.357 157.242,-222.67 164.357,-225.805 167.193,-213.251 
			173.871,-217.237 168.097,-227.573 		"/>
		<polygon style="fill:#FFFFFF;" points="165.5,-173.136 176.926,-202.107 201,-179.256 188.351,-173.136 193.656,-164.975 
			181.414,-161.302 180.598,-172.727 		"/>
		<path style="fill:#FFFFFF;" d="M219.922-217.135c0.318-1.91,0-29.285,0-29.285l17.189,24.192l-4.775,1.273l4.775,9.868
			l-6.366,1.91L228.517-220L219.922-217.135z"/>
		<polygon style="fill:#FFFFFF;" points="115.694,-140.99 113.194,-172.99 144.194,-154.49 133.194,-148.49 144.194,-139.49 
			131.194,-132.49 127.694,-145.99 		"/>
		<polygon style="fill:#FFFFFF;" points="228.517,-147.618 232.396,-178.006 253.517,-154.946 246.62,-150.636 253.517,-140.291 
			242.741,-138.567 241.017,-150.205 		"/>
		<polygon style="fill:#FFFFFF;" points="5.838,-184.777 4.299,-212.882 26.321,-194.281 18.367,-190.704 26.702,-178.917 
			18.367,-176.342 14.086,-188.913 		"/>
		<polygon style="fill:#FFFFFF;" points="64.492,-140.499 46.79,-158.286 45.974,-132.599 53.089,-135.735 55.925,-123.181 
			62.604,-127.166 56.83,-137.502 		"/>
		<path style="fill:#FFFFFF;" d="M82.422-77.833c0.318-1.91,0-29.285,0-29.285l17.189,24.192l-4.775,1.273l4.775,9.868l-6.366,1.91
			l-2.228-10.823L82.422-77.833z"/>
		<polygon style="fill:#FFFFFF;" points="95.5,-8.5 93,-40.5 124,-22 113,-16 124,-7 111,0 107.5,-13.5 		"/>
		<polygon style="fill:#FFFFFF;" points="137.242,-56.051 141.121,-86.439 162.242,-63.379 155.345,-59.069 162.242,-48.724 
			151.466,-47 149.742,-58.638 		"/>
		<polygon style="fill:#FFFFFF;" points="36.311,-41.769 34.773,-69.875 56.795,-51.274 48.841,-47.697 57.175,-35.91 
			48.841,-33.335 44.56,-45.906 		"/>
		<polygon style="fill:#FFFFFF;" points="210.259,-29.8 192.558,-47.587 191.742,-21.9 198.857,-25.035 201.693,-12.481 
			208.371,-16.467 202.597,-26.803 		"/>
		<polygon style="fill:#FFFFFF;" points="177.75,-93.981 189.176,-122.952 213.25,-100.102 200.601,-93.981 205.906,-85.82 
			193.664,-82.148 192.848,-93.573 		"/>
		<path style="fill:#FFFFFF;" d="M245.314-71.484c0.318-1.91,0-29.285,0-29.285l17.189,24.192l-4.775,1.273l4.775,9.868l-6.366,1.91
			l-2.228-10.823L245.314-71.484z"/>
		<polygon style="fill:#FFFFFF;" points="2.5,-111.202 0,-143.202 31,-124.702 20,-118.702 31,-109.702 18,-102.702 14.5,-116.202 
					"/>
		<polygon style="fill:#FFFFFF;" points="197.018,-275.439 200.897,-305.827 222.018,-282.766 215.121,-278.456 222.018,-268.111 
			211.242,-266.387 209.518,-278.025 		"/>
	</g>
</pattern>
<g id="_x23_toy">
	<g>
		<circle style="fill:#DF826F;" cx="256" cy="286.717" r="256"/>
		<pattern  id="SVGID_1_" xlink:href="#alberelli_2" patternTransform="matrix(1 0 0 1 -32.5057 144.9779)">
		</pattern>
		<circle style="opacity:0.3;fill:url(#SVGID_1_);" cx="256" cy="286.717" r="256"/>
		<g>
			<polygon style="fill:#E8B750;" points="102.167,241.316 153.839,189.644 411.101,189.644 372.622,241.316 			"/>
			<polygon style="fill:#C69C52;" points="153.839,189.644 155.305,241.316 406.486,241.316 411.101,189.644 			"/>
			<polygon style="fill:#E8B750;" points="353.932,478.24 372.427,241.091 411.101,189.644 394.885,398.236 			"/>
			<g>
				<polygon style="fill:#F8F8F8;" points="186.455,173.051 186.455,250.575 282.729,258.638 282.729,183.145 				"/>
				<g>
					<g>
						<polygon style="fill:#F8F8F8;" points="200.3,179.683 199.624,173.042 191.798,170.069 190.948,161.74 183.121,158.767 
							182.27,150.436 174.442,147.461 173.591,139.131 165.769,136.162 164.917,127.832 157.092,124.861 156.242,116.531 
							148.414,113.555 147.562,105.223 139.733,102.247 138.88,93.914 131.052,90.939 130.198,82.603 122.364,79.62 121.333,69.596 
							126.802,69.034 127.486,75.688 135.321,78.672 136.176,87.006 144.004,89.98 144.856,98.314 152.685,101.29 153.538,109.622 
							161.366,112.598 162.216,120.927 170.041,123.897 170.892,132.228 178.715,135.196 179.566,143.528 187.394,146.503 
							188.244,154.833 196.071,157.806 196.921,166.136 204.747,169.109 205.769,179.125 						"/>
					</g>
					<polygon style="fill:#DBD7D1;" points="186.455,173.051 215.407,144.299 317.285,147.231 282.729,183.145 					"/>
					<path style="fill:#B7B4B0;" d="M239.044,109.851l-6.963,59.368c0,0,20.706,9.528,27.302-1.466l-1.466-57.902H239.044z"/>
					<polygon style="fill:#F8F8F8;" points="192.858,110.584 282.47,116.448 289.8,28.767 201.114,21.62 					"/>
					<polygon style="fill:#DBD7D1;" points="201.481,21.899 230.981,0 317.285,4.308 288.7,28.767 					"/>
					<polygon style="fill:#DBD7D1;" points="282.729,116.652 288.7,28.767 317.285,4.308 321.316,79.068 					"/>
					<polygon style="fill:#26424B;" points="212.647,40.955 206.978,60.48 223.835,60.48 223.835,40.955 					"/>
					<polygon style="fill:#26424B;" points="248.022,40.955 241.329,60.48 265.613,60.48 265.613,40.955 					"/>
					<g>
						<rect x="201.481" y="89.695" style="fill:#DBD7D1;" width="75.126" height="6.596"/>
					</g>
					<polygon style="fill:#DBD7D1;" points="282.729,258.638 282.729,183.145 317.285,147.231 321.316,238.258 					"/>
					<g>
						<polygon style="fill:#F8F8F8;" points="311.125,186.81 311.801,180.169 319.627,177.196 320.477,168.866 328.304,165.893 
							329.154,157.563 336.982,154.588 337.834,146.258 345.656,143.289 346.508,134.959 354.332,131.988 355.183,123.658 
							363.011,120.682 363.863,112.35 371.692,109.374 372.545,101.041 380.373,98.066 381.227,89.73 389.06,86.746 390.092,76.723 
							384.623,76.16 383.939,82.815 376.104,85.798 375.249,94.132 367.421,97.107 366.569,105.441 358.74,108.417 357.887,116.749 
							350.059,119.725 349.209,128.054 341.384,131.024 340.533,139.354 332.71,142.323 331.859,150.654 324.031,153.63 
							323.181,161.96 315.354,164.932 314.504,173.262 306.678,176.235 						"/>
					</g>
					
						<ellipse transform="matrix(0.9275 -0.3739 0.3739 0.9275 -1.4458 151.6036)" style="fill:#B7B4B0;" cx="390.092" cy="79.529" rx="6.58" ry="7.747"/>
					
						<ellipse transform="matrix(0.9677 -0.2522 0.2522 0.9677 -13.4717 32.9687)" style="fill:#B7B4B0;" cx="121.865" cy="69.034" rx="9.62" ry="5.726"/>
					<path style="fill:#F8F8F8;" d="M389.296,71.922c1.655,1.183-0.114-8.135,0.002-10.623c0.145-3.127,0.1-6.836,3.572-8.299
						c4.851-2.044,7.283,2.426,6.984,6.661c5.452-9.609,20.802-11.852,28.363-4.242c8.336,8.39,0.793,18.084-7.613,22.643
						c-5.334,2.893-17.115,7.699-23.184,5.004C394.196,81.632,389.83,73.747,389.296,71.922z"/>
					<path style="fill:#F8F8F8;" d="M125.988,65.325c1.734-5.187,6.411-8.748,5.495-14.885c-0.54-3.617-3.977-7.93-7.158-2.874
						c-0.712-7.595-9.34-23.486-18.678-22.422c-10.131,1.155-12.039,13.879-8.93,21.381c3.035,7.323,9.581,13.32,16.078,17.578
						c2.331,1.528,3.807,2.763,6.596,2.884C122.296,67.112,124.016,64.587,125.988,65.325z"/>
				</g>
			</g>
			<polygon style="fill:#FFD99B;" points="101.973,241.541 111.157,475.55 354.126,475.146 372.427,241.091 			"/>
			<ellipse style="fill:#B7B4B0;" cx="306.678" cy="188.145" rx="6.257" ry="8.246"/>
			<polygon style="fill:#CE5959;" points="201.114,241.316 201.114,475.4 270.285,475.285 283.936,241.091 			"/>
			<polygon style="fill:#CE5959;" points="105.102,321.272 366.828,312.698 362.17,372.274 105.102,372.274 			"/>
			<polygon style="fill:#730202;" points="382.516,228.029 372.427,435.404 389.108,409.523 398.98,205.768 			"/>
			<polygon style="fill:#730202;" points="366.828,312.698 404.299,277.135 401.179,327.07 362.17,372.274 			"/>
			<polygon style="fill:#C69C52;" points="153.839,189.644 70.834,205.768 13.665,281.444 101.973,241.541 			"/>
			<polygon style="fill:#E8B750;" points="372.427,241.091 435.119,289.69 478.165,205.768 411.101,189.644 			"/>
		</g>
	</g>
</g>
<g id="Livello_1">
</g>
</svg>
