<?xml version="1.0" encoding="iso-8859-1"?>
<!-- Generator: Adobe Illustrator 18.1.0, SVG Export Plug-In . SVG Version: 6.00 Build 0)  -->
<!DOCTYPE svg PUBLIC "-//W3C//DTD SVG 1.1//EN" "http://www.w3.org/Graphics/SVG/1.1/DTD/svg11.dtd">
<svg version="1.1" xmlns="http://www.w3.org/2000/svg" xmlns:xlink="http://www.w3.org/1999/xlink" x="0px" y="0px"
	 viewBox="0 0 559.345 512" style="enable-background:new 0 0 559.345 512;" xml:space="preserve">
<g id="_x23_sleigh">
	<g>
		<circle style="fill:#DB605A;" cx="266.437" cy="256" r="256"/>
		<g>
			<path style="opacity:0.29;fill:#F9E9D4;" d="M51.899,376.625l0.365-0.086l0.183-0.043c0.111-0.021,0.009-0.012,0.296-0.06
				l0.687-0.13l1.382-0.261c0.924-0.174,1.854-0.351,2.791-0.527c0.951-0.169,1.846-0.373,2.86-0.517
				c1-0.151,2.006-0.304,3.019-0.457c2.023-0.307,4.095-0.623,6.135-0.815c2.053-0.211,4.13-0.465,6.235-0.646
				c2.108-0.148,4.239-0.297,6.393-0.448c4.314-0.167,8.724-0.344,13.223-0.258c1.125,0.013,2.255,0.025,3.391,0.038
				c1.135,0.055,2.275,0.109,3.42,0.165c2.29,0.136,4.605,0.185,6.932,0.432c2.326,0.231,4.682,0.361,7.041,0.685
				c2.359,0.33,4.736,0.662,7.132,0.997c2.388,0.417,4.782,0.912,7.197,1.373c2.407,0.519,4.82,1.128,7.243,1.739
				c9.672,2.567,19.407,6.254,28.724,11.331c4.627,2.514,9.263,5.547,13.387,8.493c4.388,3.123,8.512,6.345,12.656,9.679
				c8.223,6.695,16.255,13.71,24.547,20.517c2.087,1.679,4.163,3.391,6.283,5.04c2.12,1.656,4.273,3.267,6.432,4.885
				c4.365,3.156,8.821,6.217,13.46,8.985c4.622,2.794,9.444,5.248,14.397,7.355c2.474,1.068,5.015,1.944,7.554,2.811l3.865,1.107
				c1.293,0.345,2.607,0.601,3.906,0.907c5.242,1.037,10.557,1.528,15.853,1.489c5.303-0.139,10.557-0.91,15.708-2.059l3.835-1.011
				c1.279-0.312,2.524-0.809,3.784-1.201c2.527-0.758,4.969-1.844,7.43-2.796l0.461-0.181c0.189-0.074-0.001,0,0.107-0.049
				l0.238-0.108l0.951-0.433l1.902-0.865l1.901-0.865l1.737-0.895c1.152-0.606,2.292-1.165,3.446-1.799l3.477-1.967
				c4.62-2.67,9.148-5.504,13.588-8.58c4.468-3.028,8.882-6.154,13.346-9.319c4.457-3.163,8.929-6.346,13.507-9.47
				c2.263-1.575,4.61-3.095,6.917-4.631c2.368-1.489,4.688-3.016,7.118-4.43c2.381-1.464,4.856-2.818,7.316-4.177l0.461-0.255
				c0.146-0.077-0.002-0.008,0.386-0.204l0.223-0.113l0.893-0.453l1.784-0.901c1.206-0.6,2.314-1.197,3.691-1.797
				c1.32-0.596,2.637-1.191,3.952-1.786c1.315-0.585,2.607-1.066,3.909-1.602c2.579-1.097,5.244-1.945,7.868-2.874
				c21.195-6.979,43.371-8.271,63.352-5.293c0.686,0.101,1.371,0.193,2.055,0.29c24.215-39.104,38.208-85.205,38.208-134.581
				c0-9.43-0.525-18.735-1.519-27.9c-4.955-1.044-9.898-2.605-14.773-4.486c-7.473-2.924-14.765-6.674-21.968-10.708
				c-1.817-1.017-3.609-2.011-5.381-3.042c-1.72-0.948-3.454-1.904-5.201-2.868c-3.495-1.848-7.11-3.575-10.815-5.21
				c-14.838-6.494-31.401-11.047-49.086-12.633c-8.833-0.814-17.925-0.952-27.146-0.361c-9.221,0.618-18.554,1.967-27.896,3.883
				c-2.343,0.444-4.662,1.044-7.013,1.528c-2.335,0.571-4.675,1.143-7.018,1.716c-4.681,1.199-9.373,2.472-14.031,3.937
				l-3.512,1.058l-3.499,1.127c-2.343,0.73-4.655,1.563-6.985,2.358c-2.33,0.796-4.637,1.668-6.963,2.5
				c-2.303,0.883-4.625,1.757-6.917,2.667c-2.283,0.949-4.544,1.821-6.857,2.838l-3.453,1.484c-1.102,0.464-2.219,0.992-3.326,1.494
				c-4.432,2.076-8.83,4.414-13.275,6.734c-8.877,4.624-17.965,9.405-27.989,11.922c-0.626,0.15-1.243,0.332-1.877,0.456
				l-1.908,0.346c-0.641,0.104-1.259,0.252-1.915,0.338l-1.989,0.223c-0.655,0.064-1.343,0.162-1.971,0.194l-1.836,0.05
				l-0.917,0.024l-0.458,0.013l-0.229,0.006c-0.05,0.005-0.374-0.004-0.351-0.007l-1.915-0.096
				c-5.111-0.204-10.138-1.044-14.98-2.281c-4.852-1.214-9.588-2.729-14.153-4.486c-4.574-1.741-9.05-3.622-13.396-5.597
				c-8.722-3.92-16.999-8.177-25.044-11.911l-1.532-0.724l-1.467-0.634c-1-0.438-1.998-0.874-2.993-1.309
				c-1.991-0.864-3.938-1.776-5.922-2.585c-1.988-0.794-3.965-1.584-5.928-2.369c-0.976-0.402-1.948-0.804-2.917-1.204
				c-0.988-0.357-1.972-0.712-2.953-1.067c-1.966-0.698-3.898-1.438-5.819-2.163c-1.916-0.741-3.893-1.279-5.795-1.971
				c-1.919-0.647-3.809-1.333-5.71-1.936c-1.917-0.554-3.802-1.159-5.681-1.73c-3.732-1.232-7.495-2.118-11.156-3.116
				c-0.916-0.249-1.827-0.498-2.734-0.744c-0.911-0.232-1.827-0.421-2.734-0.633c-1.817-0.413-3.615-0.822-5.395-1.227
				c-14.267-3.157-27.601-5.011-39.498-6.079c-1.489-0.139-2.954-0.275-4.395-0.409c-1.442-0.154-2.862-0.159-4.257-0.259
				c-2.791-0.149-5.489-0.357-8.083-0.443c-5.183-0.09-9.977-0.318-14.297-0.188c-1.337,0.009-2.614,0.017-3.861,0.025
				c-7.347,23.854-11.309,49.19-11.309,75.455c0,44.738,11.488,86.789,31.657,123.383c1.341-0.449,2.701-0.886,4.098-1.299
				C48.031,377.52,49.965,377.113,51.899,376.625z"/>
			<path style="opacity:0.29;fill:#F9E9D4;" d="M424.112,412.505c-2.32,0.76-4.684,1.423-6.991,2.298
				c-1.15,0.423-2.351,0.815-3.468,1.263c-1.113,0.45-2.229,0.901-3.346,1.353c-1.081,0.404-2.341,1.016-3.541,1.557l-1.819,0.83
				l-0.911,0.414l-0.201,0.091c-0.04,0.02-0.083,0.042-0.083,0.042l-0.425,0.212c-2.267,1.132-4.55,2.249-6.806,3.508
				c-9.078,4.871-18.021,10.783-27.314,16.704c-4.624,2.979-9.403,5.924-14.294,8.765c-4.896,2.832-10.003,5.486-15.221,7.956
				l-3.973,1.759c-1.346,0.573-2.764,1.106-4.14,1.657l-2.071,0.806l-1.978,0.672l-1.978,0.671l-0.989,0.336l-0.247,0.084
				c-0.053,0.019-0.409,0.145-0.384,0.127l-0.529,0.15c-2.83,0.778-5.609,1.656-8.504,2.208c-1.441,0.288-2.849,0.672-4.309,0.875
				l-4.354,0.662c-5.832,0.713-11.719,0.958-17.556,0.55c-5.834-0.415-11.587-1.435-17.139-2.985
				c-5.572-1.49-10.92-3.573-16.052-5.961c-5.14-2.378-10.075-5.082-14.835-7.975c-9.509-5.812-18.386-12.279-27.171-18.545
				c-8.764-6.292-17.429-12.423-26.169-17.936c-4.367-2.726-8.787-5.37-13.081-7.723c-4.561-2.517-8.774-4.521-13.199-6.381
				c-8.811-3.653-17.839-6.237-26.758-8.241c-17.864-3.979-35.4-5.366-51.554-5.23c-2.021,0.045-4.021,0.09-6,0.135
				c-1.978,0.068-3.93,0.208-5.864,0.305c-1.952,0.076-3.801,0.289-5.658,0.428c-0.927,0.075-1.848,0.15-2.764,0.225
				c-0.905,0.062-1.895,0.215-2.83,0.317c-0.946,0.114-1.886,0.227-2.82,0.339l-1.396,0.168l-0.695,0.083l-0.523,0.088
				c-1.689,0.307-3.374,0.491-5.021,0.858c-0.25,0.06-0.5,0.113-0.75,0.168C93.482,463.279,174.265,512,266.437,512
				c84.746,0,159.86-41.189,206.453-104.629C457.027,406.295,440.441,407.727,424.112,412.505z"/>
			<path style="opacity:0.29;fill:#F9E9D4;" d="M119.38,58.074c1.776,0.074,3.563,0.148,5.36,0.223
				c1.806,0.099,3.622,0.198,5.448,0.298c7.29,0.467,14.737,1.093,22.294,1.889c15.116,1.616,30.649,3.564,46.369,5.984
				c1.968,0.285,3.927,0.657,5.9,0.965l1.479,0.241l1.495,0.28l2.932,0.542c1.961,0.353,3.96,0.805,5.946,1.203
				c1.969,0.439,3.94,0.88,5.914,1.32c3.937,0.907,7.874,1.86,11.781,2.907c3.921,1,7.835,2.042,11.721,3.125
				c15.586,4.229,30.933,8.835,45.898,12.139c1.93,0.424,3.856,0.848,5.778,1.27c1.865,0.349,3.726,0.696,5.582,1.042l2.778,0.517
				l2.816,0.429c1.874,0.282,3.742,0.564,5.605,0.845c3.741,0.403,7.443,0.947,11.139,1.188c1.846,0.141,3.682,0.326,5.514,0.432
				c1.832,0.087,3.657,0.174,5.474,0.26c1.815,0.122,3.625,0.119,5.425,0.14c1.8,0.001,3.592,0.074,5.373,0.056
				c3.562-0.086,7.092-0.086,10.571-0.322c1.741-0.096,3.475-0.151,5.194-0.278c1.717-0.154,3.424-0.308,5.12-0.46
				c0.849-0.07,1.695-0.14,2.539-0.209c0.84-0.104,1.678-0.206,2.512-0.309c1.671-0.204,3.331-0.406,4.979-0.607
				c13.167-1.815,25.457-4.783,36.624-8.266c1.355-0.419,2.696-0.834,4.023-1.245c1.388-0.497,2.761-0.988,4.118-1.474
				c1.237-0.497,2.46-0.988,3.668-1.473c1.21-0.477,2.444-1.07,3.644-1.589c4.795-2.209,9.349-4.488,13.583-6.803
				c0.166-0.092,0.325-0.18,0.49-0.272C398.394,27.46,335.627,0,266.437,0c-61.634,0-118.176,21.786-162.358,58.07
				c1.545-0.047,3.097-0.085,4.663-0.104C112.238,57.92,115.784,57.962,119.38,58.074z"/>
			<path style="opacity:0.29;fill:#F9E9D4;" d="M39.625,171.327c5.364-0.391,11.196-0.912,17.435-0.896
				c12.477-0.172,26.625,0.679,41.841,3.28c7.597,1.338,15.48,3.005,23.492,5.311c2.003,0.576,4.032,1.127,6.061,1.74
				c2.02,0.642,4.032,1.368,6.073,2.057c1.02,0.345,2.041,0.703,3.06,1.074c1.021,0.368,2.052,0.718,3.058,1.15
				c2.026,0.828,4.07,1.652,6.107,2.528c1.021,0.433,2.045,0.867,3.072,1.303c1.008,0.483,2.019,0.968,3.033,1.455
				c2.016,0.994,4.046,1.994,6.087,3c2.029,1.029,3.995,2.225,6.008,3.339c0.999,0.571,2.001,1.143,3.006,1.717l1.54,0.895
				l1.438,0.896c7.834,4.887,15.365,10.182,23.228,15.058c3.918,2.473,7.94,4.775,12.085,6.885
				c4.132,2.146,8.435,3.941,12.859,5.407c1.113,0.329,2.218,0.736,3.347,1.007l3.394,0.836c2.287,0.39,4.587,0.833,6.908,0.958
				l1.742,0.141c0.176,0.005,0.004,0.014,0.107,0.01l0.229-0.003l0.459-0.006l0.918-0.013l1.837-0.026
				c0.595-0.024,1.123-0.108,1.689-0.156l1.673-0.165c0.562-0.066,1.145-0.193,1.715-0.296l1.72-0.326
				c0.573-0.117,1.138-0.292,1.707-0.434c9.143-2.365,17.704-7.217,26.105-12.438c4.215-2.624,8.427-5.361,12.823-7.988
				c1.115-0.646,2.191-1.32,3.336-1.958l3.268-1.856c2.15-1.247,4.448-2.446,6.673-3.673c17.85-9.669,36.717-18,56.444-23.131
				c9.846-2.576,19.839-4.481,29.856-5.648c10.02-1.131,20.072-1.459,29.958-0.887c9.883,0.57,19.603,2.041,28.878,4.463
				c2.303,0.663,4.617,1.241,6.871,1.972c1.127,0.367,2.25,0.732,3.37,1.097c1.121,0.361,2.24,0.72,3.325,1.161
				c4.388,1.634,8.651,3.43,12.764,5.38c4.122,1.938,8.05,4.11,11.859,6.325c1.865,1.139,3.715,2.27,5.551,3.392
				c1.717,1.101,3.419,2.193,5.108,3.276c3.341,2.129,6.63,4.164,9.859,6.024c3.224,1.903,6.415,3.601,9.572,5.125
				c2.208,1.064,4.401,2.03,6.579,2.892c-8.811-51.565-33.034-97.866-67.773-133.992c-0.708,0.508-1.415,1.014-2.139,1.535
				c-4.067,2.858-8.48,5.883-13.423,8.732c-1.256,0.701-2.465,1.438-3.812,2.135c-1.349,0.687-2.715,1.381-4.096,2.084
				c-1.31,0.602-2.635,1.21-3.975,1.826l-0.251,0.115l-0.396,0.16l-0.529,0.214l-1.062,0.431c-0.711,0.286-1.426,0.573-2.145,0.862
				c-11.493,4.629-24.477,8.557-38.573,11.038c-7.062,1.104-14.366,2.088-21.875,2.356c-3.749,0.277-7.546,0.163-11.374,0.209
				c-1.914-0.001-3.833-0.121-5.762-0.198c-1.928-0.085-3.866-0.149-5.802-0.34c-1.937-0.166-3.881-0.332-5.834-0.499
				c-1.948-0.199-3.893-0.479-5.849-0.717c-3.92-0.427-7.811-1.197-11.745-1.822c-1.95-0.393-3.906-0.787-5.868-1.182l-2.943-0.599
				l-2.959-0.702c-1.973-0.472-3.95-0.946-5.932-1.42c-1.897-0.524-3.797-1.049-5.702-1.575
				c-15.726-4.338-30.557-10.863-45.37-16.92c-3.713-1.501-7.423-2.97-11.153-4.371c-3.739-1.373-7.492-2.663-11.261-3.887
				c-1.897-0.56-3.792-1.119-5.685-1.677c-1.904-0.482-3.77-1.002-5.705-1.45l-2.911-0.644l-1.423-0.311l-1.45-0.28
				c-1.932-0.378-3.864-0.74-5.802-1.045c-15.483-2.642-31.01-3.229-45.966-2.72c-7.483,0.237-14.836,0.66-22.031,1.107
				c-7.165,0.417-14.175,0.824-20.999,1.221c-6.786,0.433-13.386,0.854-19.771,1.261c-0.161,0.012-0.318,0.025-0.479,0.037
				c-29.1,28.012-51.59,62.838-64.892,101.919c0.314-0.056,0.611-0.108,0.93-0.165C29.356,172.444,34.264,171.97,39.625,171.327z"/>
		</g>
		<g>
			<polygon style="fill:#FFD99B;" points="74.558,239.389 312.589,329.385 464.539,222.89 215.414,173.05 			"/>
			<polygon style="fill:#D6AE78;" points="74.558,239.389 74.558,250.05 311.914,342.05 312.589,329.385 			"/>
			<path style="fill:#D6AE78;" d="M456.562,182.561c0,0,20.794-12.432,40.173-12.514c10.679-0.045,42.545,7.63,55.807,36.996
				c15.578,34.494,2.308,67.923-18.668,90.136c0,0,32.576-51.469,4.856-91.523C538.73,205.656,503.431,176.641,456.562,182.561z"/>
			<polygon style="fill:#D6AE78;" points="312.589,329.385 464.539,222.89 464.539,235.55 311.914,342.05 			"/>
			<g>
				<path style="fill:#BC9464;" d="M418.977,280.187l-11.285-5.223l-18.252,12.477c24.009,10.413,48.781,20.637,69.832,22.336
					c35.582,2.872,48.682-16.368,48.682-16.368C470.853,301.683,418.977,280.187,418.977,280.187z"/>
			</g>
			<path style="fill:#D6AE78;" d="M312.589,329.385l20.737-14.533c0,0-0.498-20.61,25.088-25.694
				C358.414,289.157,319.414,282.47,312.589,329.385z"/>
			<path style="fill:#D6AE78;" d="M328.158,265.567c0,0,25.589-12.519,43.049-12.515c11.51,0.003,50.981,9.143,66.873,44.332
				c18.667,41.333,2.765,81.391-22.369,108.008c0,0,39.036-61.675,5.818-109.671C421.53,295.721,384.248,251.218,328.158,265.567z"
				/>
			<path style="fill:#D6AE78;" d="M448.589,234.566l15.949-11.676c0,0,1.419-18.058,23.376-22.215
				C487.914,200.675,455.414,192.05,448.589,234.566z"/>
			<path style="opacity:0.06;fill:#231F20;" d="M368.735,302.402l10.798-7.936c0,0,4.756,1.96,5.631,3.21l-10.742,7.357
				L368.735,302.402z"/>
			<polygon style="fill:#D6AE78;" points="214.195,305.765 214.195,258.837 225.695,250.73 225.695,296.447 			"/>
			<g>
				<g>
					<path style="fill:#EAC081;" d="M538.73,205.656c-9.443-13.478-23.913-23.048-40.746-26.95
						c-14.576-3.379-29.674-2.75-41.422,3.854c-21.41,12.037-27.513,33.211-31.148,48.74l23.402,2.448
						c3.389-14.479,9.285-39.151,43.982-32.667c21.717,4.059,40.034,23.987,32.873,55.188
						c-5.174,22.544-14.926,38.094-28.986,46.217c-19.785,11.432-44.704,6.408-57.797,2.395
						c-11.783-3.611-28.563-10.408-47.78-18.923l-22.374,16.443c24.147,11.398,48.35,19.823,63.423,24.442
						c13.341,4.088,25.103,5.639,35.274,5.639c19.428,0,33.047-5.66,40.745-10.107c19.805-11.443,33.224-31.956,39.883-60.967
						C554.122,234.988,546.332,216.507,538.73,205.656z"/>
				</g>
				<polygon style="fill:#FFD99B;" points="74.558,239.389 37.414,88.05 218.914,42.55 215.414,173.05 				"/>
				<path style="fill:#D6AE78;" d="M289.081,391.384L145.748,325.05L44.414,274.717c-13.667-15-15-23.499-15-23.499l-21.5,7.166
					c1,15.167,15.297,24.086,15.297,24.086s36.846,20.257,91.162,46.915c35.296,17.323,77.185,38.41,121.93,58.838
					c30.584,13.962,65.11,29.494,93.072,31.751c35.582,2.872,49.938-13.982,49.938-13.982
					C342.213,414.266,289.081,391.384,289.081,391.384z"/>
				<polygon style="fill:#D6AE78;" points="37.414,88.05 25.414,96.05 66.914,244.55 74.558,250.05 74.558,239.389 				"/>
				<path style="fill:#EAC081;" d="M71.776,241.111c0,0-32.612,5.606-30.612,41.94l12.25,6c0,0,4-40,29.667-43L71.776,241.111z"/>
				<path style="fill:#D6AE78;" d="M53.414,289.05l9.825-4.983c0,0,1.451-27.756,19.842-31.129v-6.888
					C83.081,246.05,55.72,248.456,53.414,289.05z"/>
				<path style="fill:#EAC081;" d="M147.289,269.425c0,0-31.208,6.767-29.208,48.874l11.667,6.567c0,0,2.667-43.816,29.619-51.316
					L147.289,269.425z"/>
				<path style="fill:#D6AE78;" d="M129.748,324.867l6.491-0.366c0,0,4.737-37.668,23.128-41.578v-9.372
					C159.367,273.55,130.748,280.432,129.748,324.867z"/>
				<path style="fill:#EAC081;" d="M246.164,306.05c0,0-32.583,15.609-30.583,57.716l11.667,6.567c0,0,5.464-51.283,32.417-58.783
					L246.164,306.05z"/>
				<path style="fill:#D6AE78;" d="M227.248,370.334l6.491-0.366c0,0,7.534-44.259,25.925-48.169V311.55
					C259.664,311.55,233.414,313.8,227.248,370.334z"/>
				<path style="fill:#EAC081;" d="M421.53,295.721c-11.315-16.149-28.655-27.618-48.825-32.293
					c-17.466-4.048-35.558-3.296-49.636,4.619c-25.655,14.424-30.258,33.606-34.613,52.214l24.133,9.125
					c4.06-17.35,12.325-46.915,53.901-39.144c26.023,4.864,47.972,28.744,39.392,66.13c-6.2,27.015-17.886,45.648-34.734,55.382
					c-23.708,13.699-53.569,7.678-69.258,2.87c-65.87-20.186-261.942-123.4-277.679-131.633v-0.187c0,0-13.797-8.919-16.297-24.419
					l-4.94,9.28c-6.134,11.523-2.515,25.866,8.424,32.99c3.264,2.126,7.162,4.46,11.813,7.011v0.218
					c8.143,3.966,200.252,111.494,270.615,133.056c15.986,4.899,30.08,6.757,42.268,6.757c23.281,0,39.6-6.782,48.824-12.111
					c23.732-13.712,39.811-38.292,47.791-73.057C439.974,330.869,430.64,308.724,421.53,295.721z"/>
				<polygon style="fill:#EAC081;" points="49.661,207.17 214.195,258.837 214.195,305.765 59.339,247.009 				"/>
				<polygon style="fill:#D6AE78;" points="49.661,207.17 64.195,200.67 225.695,250.73 214.195,258.837 				"/>
				<polygon style="fill:#EAC081;" points="215.492,130.961 387.059,153.957 374.159,204.957 215.414,173.05 				"/>
				<polygon style="fill:#D6AE78;" points="215.492,130.961 224.464,125.81 393.492,148.123 387.059,153.957 				"/>
			</g>
			<polygon style="fill:#D6AE78;" points="374.159,205.115 387.059,154.115 393.492,148.281 380.545,202.415 			"/>
			<polygon style="opacity:0.23;fill:#231F20;" points="215.523,304.689 225.695,296.447 220.609,306.66 			"/>
			<g>
				<path style="fill:#88A34F;" d="M137.137,87.038c0,0-7.944,7.85-12.86,5.495c4.916,2.354,3.779,13.464,3.779,13.464
					c2.501-3.694,10.701,1.816,10.701,1.816c3.283-4.902,12.322-2.444,12.322-2.444s-7.581-5.501-5.819-11.132
					C145.259,94.237,135.826,91.302,137.137,87.038z"/>
				<path style="fill:#B2D855;" d="M127.32,93.99c0,0,0.251,0.082,0.681,0.243c0.427,0.168,1.047,0.387,1.774,0.686
					c1.458,0.589,3.373,1.434,5.262,2.335c1.886,0.906,3.746,1.868,5.118,2.635c0.689,0.378,1.248,0.725,1.646,0.952
					c0.395,0.235,0.616,0.379,0.616,0.379s-0.251-0.082-0.681-0.242c-0.427-0.168-1.048-0.386-1.774-0.686
					c-1.458-0.589-3.373-1.435-5.261-2.336c-1.886-0.906-3.745-1.869-5.118-2.636c-0.689-0.378-1.248-0.724-1.647-0.952
					C127.541,94.134,127.32,93.99,127.32,93.99z"/>
			</g>
			<g>
				<g>
					<path style="fill:#7B9144;" d="M132.711,53.064c0,0-8.673,15.744-17.335,14.357c8.662,1.387,11.984,19.053,11.984,19.053
						c2.172-6.844,17.344-2.087,17.344-2.087c2.827-9.066,17.899-9.402,17.899-9.402s-14.213-5.026-14.068-14.521
						C148.536,60.463,132.637,60.244,132.711,53.064z"/>
					<path style="fill:#B2D855;" d="M120.737,68.279c0,0,0.424,0.012,1.162,0.063c0.736,0.064,1.793,0.119,3.051,0.249
						c2.519,0.243,5.861,0.672,9.188,1.2c3.325,0.536,6.634,1.171,9.103,1.728c1.236,0.269,2.257,0.548,2.976,0.717
						c0.717,0.182,1.124,0.304,1.124,0.304s-0.424-0.012-1.162-0.063c-0.736-0.063-1.793-0.117-3.051-0.248
						c-2.519-0.242-5.861-0.673-9.187-1.201c-3.325-0.537-6.634-1.173-9.103-1.729c-1.236-0.269-2.257-0.547-2.976-0.716
						C121.144,68.4,120.737,68.279,120.737,68.279z"/>
				</g>
				<g>
					<path style="fill:#7B9144;" d="M116.228,89.146c0,0,3.697-16.849,11.009-18.073c-7.312,1.223-15.727-10.13-15.727-10.13
						c0.105,6.067-13.33,6.346-13.33,6.346c0.179,8.023-11.803,12.354-11.803,12.354s12.739,0.195,15.181,7.84
						C101.559,87.484,114.353,83.375,116.228,89.146z"/>
					<path style="fill:#B2D855;" d="M121.718,73.731c0,0-0.343,0.105-0.948,0.263c-0.607,0.147-1.468,0.388-2.511,0.623
						c-2.083,0.484-4.876,1.041-7.682,1.515c-2.808,0.466-5.629,0.85-7.757,1.069c-1.062,0.118-1.956,0.169-2.577,0.227
						c-0.623,0.047-0.982,0.06-0.982,0.06s0.343-0.105,0.948-0.263c0.607-0.148,1.468-0.389,2.511-0.624
						c2.083-0.485,4.876-1.041,7.683-1.514c2.808-0.466,5.63-0.848,7.757-1.068c1.063-0.117,1.955-0.17,2.577-0.228
						C121.36,73.744,121.718,73.731,121.718,73.731z"/>
				</g>
				<g>
					<path style="fill:#7B9144;" d="M141.471,77.735c0,0-21.113-0.38-23.765-10.026c2.651,9.645-13.439,20.252-13.439,20.252
						c8.129-0.978,10.358,17.016,10.358,17.016c10.745-1.348,18.212,14.137,18.212,14.137s-1.497-17.126,8.427-21.46
						C141.265,97.655,133.984,81.049,141.471,77.735z"/>
				</g>
				<circle style="fill:#B40201;" cx="110.469" cy="71.867" r="4.158"/>
				<g>
					<path style="fill:#88A34F;" d="M125.895,90.742c0,0-11.536-9.883-8.9-16.811c-2.637,6.929-17.825,6.641-17.825,6.641
						c5.29,2.973-1.254,14.71-1.254,14.71c7.015,3.897,4.703,16.426,4.703,16.426s6.602-10.897,14.433-9.144
						C117.053,102.564,119.967,89.446,125.895,90.742z"/>
					<path style="fill:#B2D855;" d="M115.363,78.219c0,0-0.083,0.349-0.252,0.951c-0.179,0.598-0.407,1.463-0.73,2.482
						c-0.634,2.043-1.563,4.734-2.572,7.396c-1.015,2.659-2.109,5.288-2.994,7.235c-0.435,0.976-0.841,1.773-1.105,2.339
						c-0.274,0.562-0.444,0.878-0.444,0.878s0.083-0.349,0.252-0.951c0.179-0.598,0.405-1.464,0.73-2.482
						c0.633-2.043,1.564-4.734,2.573-7.395c1.016-2.659,2.111-5.287,2.996-7.235c0.435-0.976,0.841-1.774,1.104-2.34
						C115.193,78.535,115.363,78.219,115.363,78.219z"/>
				</g>
				<circle style="fill:#B40201;" cx="125.163" cy="88.859" r="3.045"/>
				<circle style="fill:#B40201;" cx="116.823" cy="75.044" r="3.53"/>
				<circle style="fill:#B40201;" cx="130.15" cy="78.751" r="2.515"/>
				<circle style="fill:#B40201;" cx="125.895" cy="71.073" r="6.178"/>
				<circle style="fill:#B40201;" cx="117.706" cy="86.473" r="4.677"/>
				<circle style="fill:#B40201;" cx="130.15" cy="83.164" r="3.177"/>
				<circle style="fill:#B40201;" cx="124.413" cy="79.987" r="3.177"/>
			</g>
			<polygon style="opacity:0.12;fill:#231F20;" points="119.427,217.79 215.414,173.05 217.593,173.488 121.35,218.386 			"/>
		</g>
	</g>
</g>
<g id="Livello_1">
</g>
</svg>
