<?xml version="1.0" encoding="iso-8859-1"?>
<!-- Generator: Adobe Illustrator 18.1.0, SVG Export Plug-In . SVG Version: 6.00 Build 0)  -->
<!DOCTYPE svg PUBLIC "-//W3C//DTD SVG 1.1//EN" "http://www.w3.org/Graphics/SVG/1.1/DTD/svg11.dtd">
<svg version="1.1" xmlns="http://www.w3.org/2000/svg" xmlns:xlink="http://www.w3.org/1999/xlink" x="0px" y="0px"
	 viewBox="0 0 512 538.299" style="enable-background:new 0 0 512 538.299;" xml:space="preserve">
<pattern  x="976.648" y="994.746" width="173.207" height="138.427" patternUnits="userSpaceOnUse" id="stelline" viewBox="0 -138.427 173.207 138.427" style="overflow:visible;">
	<g>
		<polygon style="fill:none;" points="0,-138.427 173.207,-138.427 173.207,0 0,0 		"/>
		<polygon style="fill:#FFFFFF;" points="11.862,-122.756 17.195,-138.427 24.529,-126.427 37.845,-126.756 28.529,-119.094 
			33.862,-107.442 21.268,-114.427 11.862,-103.094 11.862,-114.427 0,-120.761 		"/>
		<polygon style="fill:#FFFFFF;" points="40.58,-94.874 45.667,-103.345 49.415,-94.874 57.178,-92.991 51.556,-89.54 
			55.572,-82.952 45.934,-87.658 38.706,-82.952 40.045,-88.913 33.851,-93.148 		"/>
		<polygon style="fill:#FFFFFF;" points="55.244,-118.225 53.213,-126.134 59.564,-124.338 66.826,-130.8 65.529,-121.337 
			73.461,-118.83 64.233,-111.874 64.569,-106.246 59.008,-112.871 51.203,-113.269 		"/>
		<polygon style="fill:#FFFFFF;" points="83.201,-97.081 85.164,-102.848 87.863,-98.432 92.762,-98.553 89.334,-95.734 
			91.297,-91.446 86.663,-94.016 83.201,-89.846 83.201,-94.016 78.837,-96.347 		"/>
		<polygon style="fill:#FFFFFF;" points="103.694,-73.803 108.781,-82.274 112.529,-73.803 120.292,-71.92 114.67,-68.469 
			118.686,-61.881 109.048,-66.587 101.82,-61.881 103.159,-67.842 96.965,-72.077 		"/>
		<polygon style="fill:#FFFFFF;" points="116.011,-96.721 114.524,-102.51 119.173,-101.195 124.489,-105.926 123.54,-98.998 
			129.347,-97.163 122.591,-92.07 122.837,-87.95 118.766,-92.8 113.052,-93.092 		"/>
		<polygon style="fill:#FFFFFF;" points="26.025,-60.875 31.359,-76.547 38.692,-64.547 52.008,-64.875 42.692,-57.213 
			48.025,-45.561 35.431,-52.547 26.025,-41.213 26.025,-52.547 14.163,-58.88 		"/>
		<polygon style="fill:#FFFFFF;" points="54.743,-32.993 59.83,-41.464 63.578,-32.993 71.341,-31.111 65.719,-27.66 
			69.735,-21.071 60.097,-25.777 52.869,-21.071 54.208,-27.032 48.014,-31.268 		"/>
		<polygon style="fill:#FFFFFF;" points="69.408,-56.345 67.376,-64.253 73.727,-62.457 80.989,-68.92 79.692,-59.456 
			87.624,-56.949 78.396,-49.993 78.732,-44.365 73.171,-50.99 65.366,-51.388 		"/>
		<polygon style="fill:#FFFFFF;" points="97.365,-35.201 99.327,-40.967 102.026,-36.552 106.926,-36.672 103.498,-33.853 
			105.46,-29.565 100.826,-32.136 97.365,-27.965 97.365,-32.136 93,-34.466 		"/>
		<polygon style="fill:#FFFFFF;" points="117.857,-11.922 122.944,-20.393 126.692,-11.922 134.455,-10.04 128.833,-6.589 
			132.849,0 123.212,-4.706 115.983,0 117.322,-5.961 111.129,-10.197 		"/>
		<polygon style="fill:#FFFFFF;" points="130.174,-34.84 128.687,-40.63 133.336,-39.315 138.652,-44.046 137.703,-37.118 
			143.51,-35.282 136.754,-30.19 137,-26.07 132.929,-30.92 127.215,-31.211 		"/>
		<polygon style="fill:#FFFFFF;" points="147.225,-66.602 152.558,-82.274 159.891,-70.274 173.207,-70.602 163.891,-62.94 
			169.225,-51.288 156.63,-58.274 147.225,-46.94 147.225,-58.274 135.362,-64.607 		"/>
		<polygon style="fill:#FFFFFF;" points="149.35,-107.652 154.437,-116.123 158.185,-107.652 165.948,-105.77 160.326,-102.318 
			164.342,-95.73 154.704,-100.436 147.476,-95.73 148.815,-101.691 142.621,-105.926 		"/>
		<polygon style="fill:#FFFFFF;" points="101.991,-129.957 107.077,-138.427 110.825,-129.957 118.589,-128.074 112.967,-124.623 
			116.983,-118.035 107.345,-122.741 100.117,-118.035 101.456,-123.996 95.262,-128.231 		"/>
		<polygon style="fill:#FFFFFF;" points="9.361,-88.684 11.324,-94.451 14.022,-90.035 18.922,-90.156 15.494,-87.337 
			17.457,-83.049 12.822,-85.62 9.361,-81.449 9.361,-85.62 4.996,-87.95 		"/>
		<polygon style="fill:#FFFFFF;" points="83.201,-7.909 85.164,-13.676 87.863,-9.26 92.762,-9.381 89.334,-6.562 91.297,-2.274 
			86.663,-4.845 83.201,-0.674 83.201,-4.845 78.837,-7.175 		"/>
		<polygon style="fill:#FFFFFF;" points="161.65,-31.7 163.612,-37.466 166.311,-33.051 171.211,-33.171 167.783,-30.352 
			169.745,-26.064 165.111,-28.635 161.65,-24.465 161.65,-28.635 157.285,-30.965 		"/>
		<polygon style="fill:#FFFFFF;" points="151.687,-7.909 153.649,-13.676 156.348,-9.26 161.248,-9.381 157.82,-6.562 
			159.782,-2.274 155.148,-4.845 151.687,-0.674 151.687,-4.845 147.322,-7.175 		"/>
	</g>
</pattern>
<g id="_x23_milk-biscuits">
	<g>
		<circle style="fill:#B40201;" cx="256" cy="256" r="256"/>
		<pattern  id="SVGID_1_" xlink:href="#stelline" patternTransform="matrix(1 0 0 1 29.8068 87.2944)">
		</pattern>
		<circle style="opacity:0.2;fill:url(#SVGID_1_);" cx="256" cy="256" r="256"/>
		<g>
			<path style="fill:#BC9464;" d="M236.352,508.295l-0.036,0.064c4.359-9.361,4.983-21.007,4.983-21.007
				c6.262-20.037-0.417-26.79-0.417-26.79c13.636-36.662-17.916-70.341-17.916-70.341l-14.323-3.408c0,0-0.001,7.309,11.784,18.302
				c11.491,10.718,12.941,60.112,9.601,85.576s-21.15,47.608-21.15,47.608l8.627-1.689c0,0,9.601-14.193,16.28-23.765h16.837v-4.549
				H236.352z"/>
			<rect x="250.622" y="388.835" style="fill:#D6AE78;" width="20.594" height="149.464"/>
			<path style="fill:#D6AE78;" d="M208.643,386.813l-23.509-3.989c0,0,34.217,42.951,34.773,66.328
				c0.077,3.212-3.896,12.245-3.896,12.245s3.973,9.033,3.896,12.244c-0.557,23.377-34.773,64.658-34.773,64.658h23.744
				c42.725-49.536,26.614-76.902,26.614-76.902S251.368,436.35,208.643,386.813z"/>
			<path style="fill:#BC9464;" d="M329.412,387.507l7.688-1.516c0,0-23.027,28.447-28.315,48.206c0,0-7.881,10.297-2.41,21.15
				l2.132,3.618c0,0-4.979,11.57-4.065,15.028c7.543,28.525,20.206,38.851,20.206,38.851h-11.132l-16.698-17.701l-2.226-26.438
				l-2.226-22.82l4.174-15.306l7.792-19.481C304.333,411.098,321.724,389.023,329.412,387.507z"/>
			<path style="fill:#D6AE78;" d="M309.488,386.813l23.509-3.989c0,0-34.217,42.951-34.773,66.328
				c-0.077,3.212,3.896,12.245,3.896,12.245s-3.973,9.033-3.896,12.244c0.557,23.377,34.773,64.658,34.773,64.658h-22.82
				c-42.725-49.536-27.538-76.902-27.538-76.902S266.763,436.35,309.488,386.813z"/>
			<path style="fill:#BC9464;" d="M81.419,287.814v15.668c0,22.419,16.747,49.894,37.255,58.95
				c73.993,32.674,183.518,45.07,271.283,6.88c30.672-13.347,50.463-43.673,50.463-77.123v-4.375H81.419z"/>
			<ellipse style="fill:#D6AE78;" cx="260.919" cy="287.814" rx="179.5" ry="79.314"/>
			<rect x="186.987" y="512.844" style="fill:#D6AE78;" width="147.864" height="13.06"/>
		</g>
		<g>
			<path style="opacity:0.46;fill:#FFFFFF;stroke:#FFFFFF;stroke-miterlimit:10;" d="M147.167,161.451l2.136,119.103
				c0,0,2.938,7.477,29.375,7.744c0,0,21.364,1.602,29.642-5.608l2.67-121.239C210.991,161.451,186.69,149.701,147.167,161.451z"/>
			<g>
				<path style="fill:#FFFFFF;" d="M179.028,167.267c-0.001,0-0.002,0-0.003,0c-16.912-0.001-27.74-3.583-28.193-3.735l-3.066-1.033
					l3.078-0.996c10.816-3.499,21.343-5.274,31.286-5.274c17.016,0,26.327,5.141,26.715,5.36l2.322,1.309l-2.584,0.657
					C198.89,166.018,188.945,167.267,179.028,167.267z M155.009,162.46c4.474,1.074,12.984,2.671,24.016,2.671c0,0,0.002,0,0.003,0
					c8.707,0,17.435-0.98,25.991-2.917c-3.871-1.505-11.696-3.848-22.889-3.848C173.486,158.366,164.378,159.742,155.009,162.46z"/>
			</g>
			<path style="fill:#FFFFFF;" d="M149.037,179.611c0,0,26.438-10.326,59.284-1.068
				C208.321,178.542,188.025,192.429,149.037,179.611z"/>
			<path style="fill:#FFFFFF;" d="M149.037,179.611l4.006,94c0,0,17.091,14.42,50.205,0l5.074-95.068c0,0-13.093,4.618-30.354,5.163
				C161.054,184.239,149.037,179.611,149.037,179.611z"/>
		</g>
		<g>
			<polygon style="fill:#DCE2F2;" points="241.868,157.15 241.868,243.369 293.978,257.21 293.978,164.288 			"/>
			<polygon style="fill:#C9D1E2;" points="293.978,164.288 333.953,153.581 333.953,237.1 293.978,257.21 			"/>
			<polygon style="fill:#DCE2F2;" points="241.868,157.626 271.788,126.455 293.978,164.288 			"/>
			<polygon style="fill:#C9D1E2;" points="293.978,164.288 271.788,126.455 303.972,116.461 333.953,153.581 			"/>
			<polygon style="fill:#FFFFFF;" points="241.868,167.619 293.978,173.559 293.978,209.498 241.868,205.395 			"/>
			<polygon style="fill:#DCE2F2;" points="271.788,126.455 271.788,119.078 304.985,108.736 303.972,116.461 			"/>
			<g>
				<path style="fill:#CCD0D9;" d="M262.01,195.849c-0.666,0.356-1.167,0.522-1.505,0.499c-0.245-0.017-0.611-0.175-1.101-0.475
					c0.021-0.304,0.056-0.826,0.106-1.567c0.045-0.665,0.08-1.187,0.106-1.567c0.342-5.052,0.099-7.606-0.729-7.662
					c-0.622-0.042-1.172,0.693-1.653,2.206c-0.358,1.101-0.569,2.127-0.633,3.076l-0.178,2.621
					c-0.009,0.133,0.025,0.331,0.102,0.593c0.079,0.263,0.113,0.461,0.104,0.594c-0.021,0.304-0.2,0.564-0.539,0.779
					c-0.34,0.216-0.661,0.313-0.964,0.292c-0.323-0.022-0.635-0.204-0.935-0.55c-0.302-0.345-0.442-0.669-0.422-0.973l0.359-5.298
					c0.145-2.146-0.023-3.236-0.507-3.269c-0.077-0.005-0.254,0.164-0.529,0.508c-1.496,1.731-2.315,3.641-2.456,5.729
					c-0.021,0.304-0.007,0.749,0.038,1.334c0.047,0.585,0.059,1.02,0.04,1.305c-0.026,0.38-0.165,0.685-0.42,0.916
					c-0.253,0.231-0.57,0.334-0.95,0.308c-0.437-0.03-0.778-0.206-1.024-0.526c-0.086-0.139-0.169-0.592-0.252-1.359
					c-0.067-0.709-0.091-1.196-0.073-1.461l0.42-6.196c0.031-0.455,0.186-1.054,0.465-1.796c0.347-0.89,0.681-1.325,1.005-1.303
					c0.38,0.026,0.711,0.193,0.996,0.503c0.284,0.309,0.395,0.649,0.332,1.018c0.611-0.874,1.354-1.282,2.229-1.223
					c1.082,0.073,1.917,0.855,2.502,2.345c0.418-0.83,0.782-1.397,1.089-1.7c0.512-0.519,1.119-0.754,1.821-0.707
					c0.702,0.048,1.39,0.466,2.061,1.255c1.167,1.358,1.647,3.575,1.439,6.651L262.01,195.849z"/>
				<path style="fill:#CCD0D9;" d="M268.361,185.318c-0.023,0.342-0.132,0.821-0.327,1.437c-0.194,0.616-0.303,1.096-0.327,1.437
					l-0.398,5.869c-0.024,0.361,0.051,0.938,0.226,1.733c-0.318,0.417-0.648,0.614-0.994,0.591c-1.207-0.082-1.829-0.725-1.863-1.93
					c-0.039-2.235-0.02-3.912,0.056-5.033c0.127-1.88,0.309-3.451,0.548-4.713c0.006-0.095,0.013-0.19,0.019-0.285
					c0.023-0.342,0.298-0.495,0.825-0.459c0.47,0.032,0.934,0.159,1.393,0.381C268.106,184.595,268.388,184.919,268.361,185.318z
					 M268.887,181.347c-0.028,0.418-0.193,0.75-0.497,0.997c-0.303,0.246-0.664,0.355-1.081,0.327
					c-0.494-0.033-0.943-0.236-1.347-0.606c-0.404-0.371-0.59-0.803-0.556-1.297c0.028-0.417,0.199-0.749,0.512-0.995
					c0.311-0.246,0.686-0.355,1.123-0.325c0.513,0.035,0.957,0.232,1.334,0.591C268.751,180.398,268.922,180.834,268.887,181.347z"
					/>
				<path style="fill:#CCD0D9;" d="M272.37,195.835c-0.023,0.342-0.18,0.622-0.472,0.841c-0.291,0.219-0.618,0.316-0.978,0.291
					c-1.196-0.081-1.688-1.688-1.476-4.822c0.096-1.424,0.255-3.56,0.476-6.407c0.222-2.847,0.381-4.983,0.477-6.407
					c0.015-0.228,0.009-0.562-0.017-1.003c-0.027-0.44-0.035-0.765-0.021-0.974c0.656-0.376,1.164-0.551,1.524-0.526
					c0.417,0.028,0.807,0.193,1.168,0.494s0.528,0.66,0.5,1.078c-0.014,0.209-0.078,0.452-0.193,0.731
					c-0.163,0.447-0.256,0.688-0.277,0.725c-0.327,1.161-0.564,2.824-0.711,4.989c-0.233,3.438-0.353,5.205-0.359,5.299
					c-0.105,2.397-0.018,4.082,0.259,5.054C272.347,195.471,272.38,195.683,272.37,195.835z"/>
				<path style="fill:#CCD0D9;" d="M284.708,198.331c-0.758,0.482-1.345,0.71-1.764,0.682c-0.551-0.037-1.309-0.662-2.277-1.872
					c-0.686-0.848-1.363-1.704-2.03-2.57c-0.384-0.521-1.002-1.26-1.852-2.215l-0.09,0.051l-0.17,2.507
					c-0.01,0.152,0.036,0.379,0.14,0.682c0.104,0.303,0.149,0.54,0.138,0.711c-0.018,0.266-0.172,0.489-0.46,0.67
					c-0.289,0.181-0.575,0.261-0.86,0.242c-0.494-0.033-0.89-0.222-1.191-0.567c-0.302-0.345-0.436-0.764-0.403-1.258l0.255-3.761
					c0.015-0.228,0.068-0.572,0.157-1.034c0.089-0.461,0.14-0.806,0.155-1.034l0.519-7.663c0.078-1.158,0.062-2.095-0.047-2.808
					c-0.048-0.327-0.066-0.577-0.054-0.748c0.024-0.361,0.263-0.669,0.721-0.924c0.398-0.24,0.786-0.347,1.166-0.321
					c0.285,0.019,0.585,0.149,0.903,0.39c0.318,0.241,0.468,0.494,0.45,0.76c-0.005,0.077-0.084,0.338-0.236,0.785
					c-0.153,0.447-0.261,1.146-0.325,2.096c-0.021,0.304-0.223,2.838-0.607,7.6c0.082-0.07,1.175-0.941,3.281-2.611
					c1.742-1.408,2.756-2.102,3.042-2.083c1.01,0.068,1.455,0.718,1.332,1.95l-0.019,0.285c-0.853,0.419-1.962,1.098-3.33,2.035
					c-1.729,1.162-2.607,1.952-2.635,2.369c-0.003,0.038,0.473,0.671,1.424,1.899c0.898,1.168,1.462,1.893,1.693,2.175
					c1.062,1.274,2.075,2.163,3.038,2.667L284.708,198.331z"/>
			</g>
		</g>
		<g>
			<ellipse style="fill:#DCDCD4;" cx="325.287" cy="311.71" rx="77.297" ry="29.79"/>
			<path style="opacity:0.39;fill:#A3A3A0;" d="M262.403,320c40.467,22,89.384,11.818,128.181,0.5
				C350.084,341.5,298.584,346,262.403,320z"/>
		</g>
		<g>
			<g>
				<path style="fill:#BF7533;" d="M301.702,298.213c-0.192-2.154,1.932-3.695,3.744-4.125c3.478-0.825,6.719-2.338,10.356-2.91
					c3.325-0.523,5.889-0.687,9.131,0.379c2.175,0.715,4.082,3.891,5.216,5.873c1.64,2.867,1.663,6.392-0.507,8.829
					c-2.213,2.484-3.727,5.388-7.274,5.928c-6.327,0.963-12.138-1.473-16.242-6.36c-1.408-1.676-2.348-3.806-3.399-5.72
					C302.434,299.572,301.656,297.791,301.702,298.213z"/>
				<path style="fill:#592C12;" d="M304.536,297.129c-0.007,0.602-0.062,0.937,0.421,1.312c0.547,0.424,0.766,0.313,0.914-0.312
					C306.098,297.169,305.236,296.241,304.536,297.129"/>
				<path style="fill:#592C12;" d="M311.38,301.169c-0.268,1.406,1.062,1.489,2.052,1.443c1.025-1.632-1.031-3.14-1.931-1.443"/>
				<path style="fill:#592C12;" d="M316.543,294.77c-0.164-1.703,3.391-0.703,2.333,0.866c-0.715,1.06-2.574,0.242-2.333-0.99"/>
				<path style="fill:#592C12;" d="M322.286,302.463c-1.022,1.281,1.361,2.654,2.067,1.169
					C325.035,302.196,323.019,301.334,322.286,302.463"/>
				<path style="fill:#592C12;" d="M325.202,293.463c-1.739,0.389-0.236,2.874,0.959,1.837c0.265-0.23,0.329-1.073,0.13-1.339
					c-0.19-0.254-0.83-0.292-1.006-0.498"/>
				<path style="fill:#592C12;" d="M315.286,306.879c-0.831,1.307,1.192,2.254,1.824,1.32c0.423-0.626-0.295-1.301-0.821-1.445
					c-0.565-0.155-0.772,0.109-1.17,0.125"/>
			</g>
			<path style="opacity:0.12;fill:#231F20;" d="M317.351,310.995c0,0,2.753-7.054,13.184-6.025l-0.398,0.65l-2.071,2.901
				l-6.544,4.573L317.351,310.995z"/>
			<path style="opacity:0.12;fill:#231F20;" d="M305.219,302.621c0,0,8.1-0.679,12.018,4.085c0,0,3.173,3.544,1.197,11.544
				l-1.913,1.934l-5.176-12.544L305.219,302.621z"/>
			<g>
				<path style="fill:#BF7533;" d="M289.523,322.128c-4.697-2-5.247-10.634-4.01-13.351c1.956-4.295,10.52-4.976,14.649-5.576
					c2.187-0.318,4.277-0.45,6.225-0.279c4.263,0.374,7.85,2.199,10.305,6.706c3.529,6.476,1.759,14.296-5.913,15.418
					C303.455,326.117,294.37,324.837,289.523,322.128z"/>
				<path style="fill:#592C12;" d="M291.19,315.128c0.248-0.725,0.624-0.974,1.942-0.609c2.084,2.786-1.666,3.398-1.942,0.275"/>
				<path style="fill:#592C12;" d="M305.19,307.128c3.129-0.131-0.764,4.057-1.291,0.383"/>
				<path style="fill:#592C12;" d="M303.058,314.042c-0.422,1.096,1.188,1.413,1.982,1.103c0.613-1.49-1.579-2.419-1.982-0.978"/>
				<path style="fill:#592C12;" d="M293.607,305.794c0.993-0.361,2.414-0.006,2.112,1.357c-0.338,0.059-1.749,0.397-2.087,0.125
					c-0.508-0.409-0.429-1.463,0.225-1.481"/>
				<path style="fill:#592C12;" d="M315.107,311.544c-1.27,0.035-1.642,1.878-0.123,1.499
					C315.78,312.845,315.809,311.943,315.107,311.544"/>
				<path style="fill:#592C12;" d="M304.079,320.268c0.513,0.403,2.258,1.624,2.13-0.062c-0.1-1.324-2.561-1.113-1.88,0.062"/>
			</g>
			<g>
				<path style="fill:#BF7533;" d="M354.478,303.892c-2.065-0.229-5.785,3.383-7.077,4.864c-0.892,1.023-1.322,2.018-1.829,3.21
					c-0.451,1.061-1.267,1.735-1.767,2.647c-3.44,6.272,8.308,6.606,11.339,6.403c5.931-0.397,14.28-3.291,15.23-10.255
					c0.298-2.187,0.421-4.91-1.391-6.411c-1.866-1.547-4.246-2.15-6.606-1.783C359.496,303.015,356.567,303.798,354.478,303.892z"/>
				<path style="fill:#592C12;" d="M346.954,309.476c-0.477,1.797,2.132,1.33,2.009-0.395c-0.045-0.641-0.565-1.316-1.236-0.911
					c-0.354,0.214-0.563,0.942-0.701,1.307"/>
				<path style="fill:#592C12;" d="M346.165,315.277c-0.816,1.113,0.727,2.513,1.18,1.024c0.347-1.139-1.183-1.765-1.324-0.662"/>
				<path style="fill:#592C12;" d="M355.912,307.953c1.148-1.638,2.835,1.759,0.147,1.579c-0.476-0.032-1.533,0.02-1.354-0.707
					c0.15-0.614,1.044-0.42,1.279-0.872"/>
				<path style="fill:#592C12;" d="M351.97,313.537c-0.77,1.027,1.255,1.844,1.652,0.721c0.447-1.266-1.007-1.075-1.58-0.721"/>
				<path style="fill:#592C12;" d="M363.652,303.892c0.113,0.381-1.032,0.989-0.776,1.672c0.214,0.57,1.17,0.608,1.565,0.323
					c1.071-0.774-0.231-2.537-0.789-1.85"/>
				<path style="fill:#592C12;" d="M362.003,314.842c-0.317,0.582,0.807,0.636,1.148,0.437c0.652-0.38,0.586-1.05-0.021-1.459
					c-1.126-0.758-0.798,0.489-1.279,0.951C361.884,314.904,361.92,314.789,362.003,314.842"/>
				<path style="fill:#592C12;" d="M355.983,320.498c-1.155-0.956,0.268-1.633,0.987-0.997
					C357.789,320.226,356.653,320.75,355.983,320.498"/>
			</g>
			<path style="opacity:0.12;fill:#231F20;" d="M345.681,311.71l-0.205,0.465c0,0,8.983-1.063,9.858-1.556
				c0.875-0.494,4.797-3.098,4.899-7.671l-2.19,0.385l-10.111,4.542L345.681,311.71z"/>
			<g>
				<path style="fill:#BF7533;" d="M355.945,308.452c4.041-2,4.515-10.634,3.45-13.351c-1.683-4.295-9.052-4.976-12.605-5.576
					c-6-1.013-11.145-0.14-14.224,6.427c-3.036,6.476-1.514,14.296,5.087,15.418C343.957,312.442,351.775,311.162,355.945,308.452z"
					/>
				<path style="fill:#592C12;" d="M354.511,301.452c-0.213-0.725-0.537-0.974-1.671-0.609c-1.793,2.786,1.434,3.398,1.671,0.275"/>
				<path style="fill:#592C12;" d="M342.465,293.452c-2.693-0.131,0.657,4.057,1.111,0.383"/>
				<path style="fill:#592C12;" d="M344.299,300.366c0.363,1.096-1.022,1.413-1.705,1.103c-0.528-1.49,1.358-2.419,1.705-0.978"/>
				<path style="fill:#592C12;" d="M352.432,292.119c-0.855-0.361-2.077-0.006-1.817,1.357c0.291,0.059,1.505,0.397,1.796,0.125
					c0.437-0.409,0.369-1.463-0.194-1.481"/>
				<path style="fill:#592C12;" d="M333.932,297.869c1.093,0.035,1.413,1.878,0.105,1.499
					C333.352,299.17,333.327,298.268,333.932,297.869"/>
				<path style="fill:#592C12;" d="M343.421,306.592c-0.441,0.403-1.943,1.624-1.833-0.062c0.086-1.324,2.204-1.113,1.618,0.062"/>
			</g>
			<path style="opacity:0.12;fill:#231F20;" d="M332.306,307.64l-0.699-1.612c0,0,6.259,2.778,9.228,5.681l-2.252-0.166
				L332.306,307.64z"/>
			<path style="opacity:0.12;fill:#231F20;" d="M344.108,314.135c0,0,1.511,0.861,1.962,2.363c0.451,1.502,0.275,2.815,0.238,3.502
				l-2.2-1l-1.336-2.765C342.773,316.235,343.944,314.364,344.108,314.135z"/>
			<g>
				<path style="fill:#BF7533;" d="M337.493,327.812c4.359,0.185,7.944-6.26,7.983-8.805c0.061-4.024-6.302-7.693-9.272-9.672
					c-5.014-3.34-9.952-4.864-15.118-1.123c-5.095,3.689-6.591,10.359-1.077,14.039
					C325.273,325.767,332.758,328.118,337.493,327.812z"/>
				<path style="fill:#592C12;" d="M338.768,321.812c0.074-0.649-0.125-0.979-1.277-1.181c-2.629,1.38,0.043,3.228,1.399,0.925"/>
				<path style="fill:#592C12;" d="M330.884,310.513c-2.369-1.25-0.895,3.404,0.857,0.768"/>
				<path style="fill:#592C12;" d="M330,316.618c-0.075,0.999-1.434,0.651-1.934,0.122c0.072-1.372,2.105-1.283,1.888-0.025"/>
				<path style="fill:#592C12;" d="M340.318,313.74c-0.635-0.642-1.862-0.891-2.128,0.269c0.24,0.17,1.205,0.948,1.566,0.862
					c0.542-0.128,0.866-0.969,0.368-1.223"/>
				<path style="fill:#592C12;" d="M321.61,310.271c0.968,0.493,0.581,2.048-0.454,1.199
					C320.613,311.025,320.921,310.32,321.61,310.271"/>
				<path style="fill:#592C12;" d="M326.933,321.036c-0.543,0.122-2.338,0.421-1.622-0.83c0.562-0.983,2.386,0.083,1.429,0.739"/>
			</g>
		</g>
		<g>
			<path style="fill:#FFD99B;" d="M196.935,70.833c0,0-4.74-20.132,17.606-25.302C214.541,45.531,218.604,66.77,196.935,70.833z"/>
			<polygon style="fill:#26424B;" points="205.836,47.028 216.323,53.8 220.386,49.038 209.023,42.167 			"/>
		</g>
		<g>
			<path style="fill:#FFFFFF;" d="M162.687,51.239c0,0,3.024-20.46,25.701-17.018C188.388,34.22,184.326,55.46,162.687,51.239z"/>
			<polygon style="fill:#26424B;" points="179.745,32.399 186.992,42.562 192.526,39.637 184.501,29.057 			"/>
		</g>
		<g>
			<path style="fill:#DBD093;" d="M237.205,85.839c0,0-7.358-19.329,14.11-27.406C251.315,58.433,258.148,78.95,237.205,85.839z"/>
			<polygon style="fill:#26424B;" points="242.884,61.067 254.173,66.394 257.572,61.138 245.401,55.828 			"/>
		</g>
		<g>
			<path style="fill:#C9D1E2;" d="M275.195,96.405c0,0-7.358-19.329,14.11-27.406C289.305,69,296.138,89.516,275.195,96.405z"/>
			<polygon style="fill:#26424B;" points="280.874,71.633 292.163,76.96 295.562,71.704 283.391,66.394 			"/>
		</g>
		<g>
			<path style="fill:#DB605A;" d="M313.688,111.411c0,0-7.358-19.329,14.11-27.406C327.798,84.005,334.631,104.522,313.688,111.411z
				"/>
			<polygon style="fill:#26424B;" points="319.367,86.639 330.656,91.966 334.055,86.71 321.884,81.4 			"/>
		</g>
		<g>
			<path style="fill:#FFFFFF;" d="M360.974,131.467c0,0-7.358-19.329,14.11-27.406C375.084,104.061,381.916,124.577,360.974,131.467
				z"/>
			<polygon style="fill:#26424B;" points="366.653,106.694 377.942,112.021 381.34,106.765 369.17,101.455 			"/>
		</g>
		<g>
			<path style="fill:#FFD99B;" d="M407.18,148.647c0,0-13.043-16.051,4.814-30.447C411.995,118.201,424.91,135.544,407.18,148.647z"
				/>
			<polygon style="fill:#26424B;" points="404.813,123.343 417.202,124.865 418.783,118.809 405.562,117.579 			"/>
		</g>
		<g>
			<path style="fill:#DBD093;" d="M449.382,148.472c0,0-16.486-12.488-2.566-30.718
				C446.815,117.754,463.486,131.527,449.382,148.472z"/>
			<polygon style="fill:#26424B;" points="441.063,124.457 453.459,122.988 453.554,116.73 440.419,118.68 			"/>
		</g>
		<path style="fill:none;stroke:#FFFFFF;stroke-miterlimit:10;" d="M179.917,11.5c13.486-11.809,22.108,29.75,6.088,21.383
			c3.077-13.861,39.006-0.87,31.91,11.948c-3.564,6.437-9.674-1.753,1.777-5.164c15.624-4.653,29.485,3.785,32.789,18.401
			c-2.762,0.336-3.905-1.373-3.258-4.236c1.191-5.271,10.873-5.234,15.013-5.026c11.163,0.559,32.634,9.571,32.912,23.26
			c-9.163,1.029-3.502-10.59,3.168-11.928c11.823-2.372,31.314,10.66,29.501,23.928c-7.794,0.88,1.252-7.945,3.705-9.45
			c5.899-3.62,17.035-6.375,23.314-2.453c7.234,4.518,18.506,20.965,15.082,29.445c-6.963-10.525,24.228-12.017,29.122-9.711
			c7.127,3.357,8.049,16.424,7.443,24.162c-4.171-0.397-3.582-4.877-2.493-8.382c3.027-9.745,16.562-11.541,25.36-11.553
			c10.084-0.013,17.644,2.709,16.498,14.103c-0.308,3.061-1.788,7.935-3.929,10.113c-3.386-6.352-0.845-15.959,4.823-20.567
			c2.422-1.969,5.251-2.477,6.508-4.273"/>
	</g>
</g>
<g id="Livello_1">
</g>
</svg>
