<?xml version="1.0" encoding="iso-8859-1"?>
<!-- Generator: Adobe Illustrator 18.1.0, SVG Export Plug-In . SVG Version: 6.00 Build 0)  -->
<!DOCTYPE svg PUBLIC "-//W3C//DTD SVG 1.1//EN" "http://www.w3.org/Graphics/SVG/1.1/DTD/svg11.dtd">
<svg version="1.1" xmlns="http://www.w3.org/2000/svg" xmlns:xlink="http://www.w3.org/1999/xlink" x="0px" y="0px"
	 viewBox="0 0 512 518.811" style="enable-background:new 0 0 512 518.811;" xml:space="preserve">
<g id="_x23_christmas-basket">
	<g>
		<circle style="fill:#DAC242;" cx="256" cy="262.811" r="256"/>
		<polygon style="fill:#D37B39;" points="238.136,226.608 243.169,224.112 304.325,243.612 298.825,244.849 		"/>
		<path style="fill:#BF7533;" d="M407.805,318.864"/>
		<g>
			<path style="fill:#A66933;" d="M64.437,250.643c0,0,190.375-62.47,381.093,10.183c0,0-168.555,61.951-342.809,4.435
				C89.969,261.052,77.186,256.203,64.437,250.643z"/>
			<path style="fill:#845029;" d="M91.725,261.473c0,0,84.026-22.635,161.51-22.209c0,0,69.543-4.018,172.091,26.992
				c0,0-66.469,19.211-128.473,22.398C159.469,295.715,85.197,262.806,91.725,261.473z"/>
			<g>
				<polygon style="fill:#D37B39;" points="371.615,225.666 377.115,224.429 357.865,284.62 352.882,284.62 				"/>
				<g>
					<g>
						<path style="fill:none;" d="M194.621,208.538c-7.734-1.712-14.46,1.143-17.094,3.479c-2.76,2.448-5.368,6.636-6.703,12.42
							l24.673-15.684C195.207,208.676,194.915,208.603,194.621,208.538z"/>
						<path style="fill:#FFFFFF;" d="M170.51,240.517c-0.113-0.718-0.205-1.421-0.286-2.116l-13.826,8.789
							c0.8,3.777,1.855,8.423,3.073,13.56l13.433-8.539C171.748,247.089,170.896,242.973,170.51,240.517z"/>
						<path style="fill:#FFFFFF;" d="M213.684,223.972c2.266,3.619,7.079,5.362,10.75,3.894c3.671-1.468,4.81-5.591,2.544-9.21
							c-2.725-4.352-5.606-7.944-8.53-10.91l-11.77,7.482C209.167,217.579,211.507,220.496,213.684,223.972z"/>
						<path style="fill:#FFFFFF;" d="M175.674,264.031l-13.346,8.484c1.029,4.146,2.108,8.404,3.199,12.626l13.277-8.44
							C177.708,272.357,176.65,268.076,175.674,264.031z"/>
						<path style="fill:#FFFFFF;" d="M177.527,212.017c2.634-2.336,9.36-5.191,17.094-3.479c0.294,0.065,0.585,0.138,0.876,0.215
							l13.489-8.575c-4.626-2.832-9.043-4.41-12.776-5.273l-41.007,26.067c-0.83,4.385-1.086,9.088-0.758,13.876l16.379-10.411
							C172.159,218.653,174.767,214.466,177.527,212.017z"/>
						<path style="fill:#FFFFFF;" d="M187.938,310.734l-12.981,8.252c0.512,1.606,0.98,3.003,1.395,4.149
							c0.716,1.977,2.233,3.629,4.092,4.683c1.764,1,3.837,1.463,5.825,1.157c4.082-0.629,6.261-4.262,4.866-8.116
							C190.286,318.513,189.187,315.002,187.938,310.734z"/>
						<path style="fill:#FFFFFF;" d="M181.804,288.375l-13.212,8.399c1.022,3.8,2.022,7.437,2.971,10.788l13.134-8.349
							C183.753,295.753,182.78,292.103,181.804,288.375z"/>
						<path style="fill:#DB605A;" d="M195.848,194.823c-5.911-1.308-12.039-1.258-17.721,0.145
							c-4.904,1.211-9.324,3.402-12.445,6.17c-5.028,4.46-8.45,10.628-10.172,18.334c-0.111,0.495-0.211,0.996-0.306,1.5
							l41.007-26.067C196.089,194.877,195.968,194.85,195.848,194.823z"/>
						<path style="fill:#DB605A;" d="M206.677,215.228l11.77-7.482c-3.152-3.198-6.354-5.666-9.461-7.568l-13.489,8.575
							C199.493,209.807,203.23,211.973,206.677,215.228z"/>
						<path style="fill:#DB605A;" d="M170.824,224.437l-16.379,10.411c0.121,1.766,0.321,3.543,0.6,5.319
							c0.268,1.702,0.734,4.104,1.351,7.022l13.826-8.789C169.602,233.038,169.917,228.368,170.824,224.437z"/>
						<path style="fill:#DB605A;" d="M172.904,252.211l-13.433,8.539c0.88,3.714,1.845,7.684,2.858,11.765l13.346-8.484
							C174.641,259.752,173.7,255.742,172.904,252.211z"/>
						<path style="fill:#DB605A;" d="M178.804,276.701l-13.277,8.44c1.021,3.952,2.053,7.871,3.065,11.633l13.212-8.399
							C180.795,284.521,179.785,280.588,178.804,276.701z"/>
						<path style="fill:#DB605A;" d="M184.697,299.213l-13.134,8.349c1.246,4.403,2.402,8.309,3.394,11.424l12.981-8.252
							C186.937,307.313,185.839,303.404,184.697,299.213z"/>
					</g>
					<g>
						<path style="fill:none;" d="M231.539,230.795c-7.734-1.712-14.46,1.143-17.094,3.479c-2.76,2.448-5.368,6.636-6.703,12.42
							l24.673-15.684C232.124,230.933,231.833,230.86,231.539,230.795z"/>
						<path style="fill:#FFFFFF;" d="M207.427,262.774c-0.113-0.718-0.205-1.421-0.286-2.116l-13.826,8.789
							c0.8,3.777,1.855,8.423,3.073,13.56l13.433-8.539C208.666,269.346,207.814,265.23,207.427,262.774z"/>
						<path style="fill:#FFFFFF;" d="M250.601,246.229c2.266,3.619,7.079,5.362,10.75,3.894c3.671-1.468,4.81-5.591,2.544-9.21
							c-2.725-4.352-5.606-7.944-8.53-10.91l-11.77,7.482C246.085,239.836,248.425,242.753,250.601,246.229z"/>
						<path style="fill:#FFFFFF;" d="M212.592,286.288l-13.346,8.484c1.029,4.146,2.108,8.404,3.199,12.626l13.277-8.44
							C214.626,294.615,213.568,290.333,212.592,286.288z"/>
						<path style="fill:#FFFFFF;" d="M214.445,234.274c2.634-2.336,9.36-5.191,17.094-3.479c0.294,0.065,0.585,0.138,0.876,0.215
							l13.489-8.575c-4.626-2.832-9.043-4.41-12.776-5.273l-41.007,26.067c-0.83,4.385-1.086,9.088-0.758,13.876l16.379-10.411
							C209.077,240.911,211.685,236.723,214.445,234.274z"/>
						<path style="fill:#FFFFFF;" d="M224.855,332.991l-12.981,8.252c0.512,1.606,0.98,3.003,1.395,4.149
							c0.716,1.977,2.233,3.629,4.092,4.683c1.764,1,3.837,1.463,5.825,1.157c4.082-0.629,6.261-4.262,4.866-8.116
							C227.204,340.77,226.104,337.259,224.855,332.991z"/>
						<path style="fill:#FFFFFF;" d="M218.722,310.632l-13.212,8.399c1.022,3.8,2.022,7.437,2.971,10.788l13.134-8.349
							C220.671,318.01,219.698,314.36,218.722,310.632z"/>
						<path style="fill:#DB605A;" d="M232.766,217.081c-5.911-1.308-12.039-1.258-17.721,0.145
							c-4.904,1.211-9.324,3.402-12.445,6.17c-5.028,4.46-8.45,10.628-10.172,18.334c-0.111,0.495-0.211,0.996-0.306,1.5
							l41.007-26.067C233.007,217.135,232.886,217.107,232.766,217.081z"/>
						<path style="fill:#DB605A;" d="M243.595,237.485l11.77-7.482c-3.152-3.198-6.354-5.665-9.461-7.568l-13.489,8.575
							C236.41,232.065,240.147,234.231,243.595,237.485z"/>
						<path style="fill:#DB605A;" d="M207.742,246.694l-16.379,10.411c0.121,1.766,0.321,3.543,0.6,5.319
							c0.268,1.702,0.734,4.104,1.351,7.022l13.826-8.789C206.52,255.296,206.835,250.625,207.742,246.694z"/>
						<path style="fill:#DB605A;" d="M209.821,274.468l-13.433,8.539c0.88,3.714,1.845,7.684,2.858,11.765l13.346-8.484
							C211.559,282.01,210.618,277.999,209.821,274.468z"/>
						<path style="fill:#DB605A;" d="M215.722,298.958l-13.277,8.44c1.021,3.952,2.053,7.871,3.065,11.633l13.212-8.399
							C217.713,306.778,216.703,302.845,215.722,298.958z"/>
						<path style="fill:#DB605A;" d="M221.614,321.47l-13.134,8.349c1.246,4.403,2.402,8.309,3.394,11.424l12.981-8.252
							C223.854,329.57,222.757,325.661,221.614,321.47z"/>
					</g>
					<g>
						<path style="fill:none;" d="M249.301,202.881c-7.734-1.712-14.46,1.143-17.094,3.479c-2.76,2.448-5.368,6.636-6.703,12.42
							l24.673-15.684C249.886,203.019,249.594,202.946,249.301,202.881z"/>
						<path style="fill:#FFFFFF;" d="M225.189,234.859c-0.113-0.718-0.205-1.421-0.286-2.116l-13.826,8.789
							c0.8,3.777,1.855,8.423,3.073,13.56l13.433-8.539C226.428,241.432,225.576,237.315,225.189,234.859z"/>
						<path style="fill:#FFFFFF;" d="M268.363,218.314c2.266,3.619,7.079,5.362,10.75,3.894c3.671-1.468,4.81-5.591,2.544-9.21
							c-2.725-4.352-5.606-7.944-8.53-10.91l-11.77,7.482C263.847,211.921,266.186,214.838,268.363,218.314z"/>
						<path style="fill:#FFFFFF;" d="M230.353,258.373l-13.346,8.484c1.029,4.146,2.108,8.404,3.199,12.626l13.277-8.44
							C232.388,266.7,231.33,262.418,230.353,258.373z"/>
						<path style="fill:#FFFFFF;" d="M232.207,206.36c2.634-2.336,9.36-5.191,17.094-3.479c0.294,0.065,0.585,0.138,0.876,0.215
							l13.489-8.575c-4.626-2.832-9.043-4.41-12.776-5.273l-41.007,26.067c-0.83,4.385-1.086,9.088-0.758,13.876l16.379-10.411
							C226.839,212.996,229.447,208.808,232.207,206.36z"/>
						<path style="fill:#FFFFFF;" d="M242.617,305.077l-12.981,8.252c0.512,1.606,0.98,3.003,1.395,4.149
							c0.716,1.977,2.233,3.629,4.092,4.683c1.764,1,3.837,1.463,5.825,1.157c4.082-0.629,6.261-4.262,4.866-8.116
							C244.965,312.855,243.866,309.345,242.617,305.077z"/>
						<path style="fill:#FFFFFF;" d="M236.484,282.717l-13.212,8.399c1.022,3.8,2.023,7.437,2.971,10.788l13.134-8.349
							C238.433,290.095,237.459,286.445,236.484,282.717z"/>
						<path style="fill:#DB605A;" d="M250.528,189.166c-5.911-1.308-12.039-1.258-17.721,0.145
							c-4.904,1.211-9.324,3.402-12.445,6.17c-5.028,4.46-8.45,10.628-10.172,18.334c-0.111,0.495-0.211,0.996-0.306,1.5
							l41.007-26.067C250.769,189.22,250.648,189.192,250.528,189.166z"/>
						<path style="fill:#DB605A;" d="M261.357,209.57l11.77-7.482c-3.152-3.198-6.354-5.666-9.461-7.568l-13.489,8.575
							C254.172,204.15,257.909,206.316,261.357,209.57z"/>
						<path style="fill:#DB605A;" d="M225.504,218.779l-16.379,10.411c0.121,1.766,0.321,3.543,0.6,5.319
							c0.268,1.702,0.734,4.104,1.351,7.022l13.826-8.789C224.281,227.381,224.597,222.71,225.504,218.779z"/>
						<path style="fill:#DB605A;" d="M227.583,246.553l-13.433,8.539c0.88,3.714,1.845,7.684,2.858,11.765l13.346-8.484
							C229.321,254.095,228.38,250.085,227.583,246.553z"/>
						<path style="fill:#DB605A;" d="M233.483,271.043l-13.277,8.44c1.021,3.952,2.053,7.871,3.065,11.633l13.212-8.399
							C235.475,278.864,234.464,274.93,233.483,271.043z"/>
						<path style="fill:#DB605A;" d="M239.376,293.555l-13.134,8.349c1.246,4.403,2.402,8.309,3.394,11.424l12.981-8.252
							C241.616,301.656,240.519,297.746,239.376,293.555z"/>
					</g>
					<g>
						<path style="fill:none;" d="M152.742,184.199c-7.734-1.712-14.46,1.143-17.094,3.479c-2.76,2.448-5.368,6.636-6.703,12.42
							l24.673-15.684C153.328,184.337,153.036,184.264,152.742,184.199z"/>
						<path style="fill:#FFFFFF;" d="M128.63,216.178c-0.113-0.718-0.205-1.421-0.286-2.116l-13.826,8.789
							c0.8,3.777,1.855,8.423,3.073,13.56l13.433-8.539C129.869,222.75,129.017,218.634,128.63,216.178z"/>
						<path style="fill:#FFFFFF;" d="M171.805,199.633c2.266,3.619,7.079,5.362,10.75,3.894c3.671-1.468,4.81-5.591,2.544-9.21
							c-2.725-4.352-5.606-7.944-8.53-10.91l-11.77,7.482C167.288,193.24,169.628,196.157,171.805,199.633z"/>
						<path style="fill:#FFFFFF;" d="M133.795,239.692l-13.346,8.484c1.029,4.146,2.108,8.404,3.199,12.626l13.277-8.44
							C135.829,248.018,134.771,243.737,133.795,239.692z"/>
						<path style="fill:#FFFFFF;" d="M135.648,187.678c2.634-2.336,9.36-5.191,17.094-3.479c0.294,0.065,0.585,0.138,0.876,0.215
							l13.489-8.575c-4.626-2.832-9.043-4.41-12.776-5.273l-41.007,26.067c-0.83,4.385-1.086,9.088-0.758,13.876l16.379-10.411
							C130.28,194.314,132.888,190.127,135.648,187.678z"/>
						<path style="fill:#FFFFFF;" d="M146.059,286.395l-12.981,8.252c0.512,1.606,0.98,3.003,1.395,4.149
							c0.716,1.977,2.233,3.629,4.092,4.683c1.764,1,3.837,1.463,5.825,1.157c4.082-0.629,6.261-4.262,4.866-8.116
							C148.407,294.174,147.308,290.663,146.059,286.395z"/>
						<path style="fill:#FFFFFF;" d="M139.925,264.036l-13.212,8.399c1.022,3.8,2.022,7.437,2.971,10.788l13.134-8.349
							C141.874,271.414,140.901,267.764,139.925,264.036z"/>
						<path style="fill:#DB605A;" d="M153.969,170.484c-5.911-1.308-12.039-1.258-17.721,0.145
							c-4.904,1.211-9.324,3.402-12.445,6.17c-5.028,4.46-8.45,10.628-10.172,18.334c-0.111,0.495-0.211,0.996-0.306,1.5
							l41.007-26.067C154.21,170.538,154.089,170.511,153.969,170.484z"/>
						<path style="fill:#DB605A;" d="M164.798,190.889l11.77-7.482c-3.152-3.198-6.354-5.666-9.461-7.568l-13.489,8.575
							C157.614,185.468,161.351,187.634,164.798,190.889z"/>
						<path style="fill:#DB605A;" d="M128.945,200.098l-16.379,10.411c0.121,1.766,0.321,3.543,0.6,5.319
							c0.268,1.702,0.734,4.104,1.351,7.022l13.826-8.789C127.723,208.699,128.038,204.029,128.945,200.098z"/>
						<path style="fill:#DB605A;" d="M131.024,227.872l-13.433,8.539c0.88,3.714,1.845,7.684,2.858,11.765l13.346-8.484
							C132.762,235.413,131.821,231.403,131.024,227.872z"/>
						<path style="fill:#DB605A;" d="M136.925,252.362l-13.277,8.44c1.021,3.952,2.053,7.871,3.065,11.633l13.212-8.399
							C138.916,260.182,137.906,256.249,136.925,252.362z"/>
						<path style="fill:#DB605A;" d="M142.818,274.874l-13.134,8.349c1.246,4.403,2.402,8.309,3.394,11.424l12.981-8.252
							C145.058,282.974,143.96,279.065,142.818,274.874z"/>
					</g>
					<g>
						<path style="fill:#845029;" d="M315.959,210.569l10.145-24.39l38.895,11.567c0,0-1.884,11.641,8.616,14.662l-6,15.978
							L315.959,210.569z"/>
						<path style="fill:#F29C50;" d="M283.704,288.226c0.911-4.047,27.222-80.801,27.222-80.801l60.689,18.241l-27.5,86.547
							L283.704,288.226z"/>
						<polygon style="fill:#FFFFFF;" points="296.491,257.694 308.365,222.729 364.998,238.484 354.615,272.429 						"/>
						<g>
							<path style="fill:#845029;" d="M313.804,244.309c-0.044,0.184-0.146,0.395-0.307,0.631c-0.399,0.58-0.979,0.972-1.737,1.176
								c-0.693,0.179-1.403,0.181-2.132,0.003c-1.195-0.291-2.004-0.966-2.426-2.024c-0.361-0.92-0.393-2.002-0.09-3.244
								c0.25-1.028,0.646-1.955,1.187-2.779c0.61-0.94,1.335-1.617,2.177-2.029c0.665-0.321,1.284-0.412,1.857-0.272
								c0.825,0.201,1.365,0.713,1.617,1.537c0.207,0.668,0.205,1.444-0.01,2.329c-0.098,0.398-0.322,0.874-0.673,1.426
								c-0.423,0.679-0.785,0.982-1.086,0.909c-0.341-0.083-0.546-0.359-0.616-0.83c0.113-0.044,0.277-0.123,0.49-0.236
								c0.246-0.167,0.444-0.561,0.596-1.183c0.146-0.602,0.207-1.128,0.184-1.576c-0.041-0.679-0.285-1.073-0.73-1.182
								c-0.312-0.076-0.7,0.04-1.167,0.348c-0.354,0.232-0.673,0.509-0.958,0.83c-0.703,0.815-1.223,1.917-1.561,3.303
								c-0.492,2.018,0.021,3.21,1.536,3.58c0.651,0.158,1.211,0.101,1.681-0.174c0.193-0.126,0.506-0.413,0.934-0.861
								c0.295-0.326,0.561-0.461,0.795-0.404c0.154,0.038,0.275,0.132,0.363,0.281C313.815,244.017,313.84,244.164,313.804,244.309z
								"/>
							<path style="fill:#845029;" d="M318.864,248.322c-0.229,0.14-0.494,0.173-0.796,0.1c-0.204-0.05-0.383-0.227-0.535-0.531
								c0.209-0.855,0.369-1.516,0.482-1.982c0.525-2.157,0.479-3.311-0.145-3.462c-0.641-0.156-1.174,0.635-1.597,2.375
								c-0.024,0.097-0.058,0.238-0.103,0.423s-0.08,0.325-0.104,0.422c-0.035,0.146-0.064,0.373-0.088,0.681
								c-0.024,0.308-0.053,0.535-0.088,0.681c-0.031,0.126-0.135,0.222-0.311,0.288c-0.176,0.065-0.326,0.083-0.452,0.052
								c-0.243-0.059-0.426-0.209-0.548-0.45c-0.121-0.241-0.152-0.483-0.093-0.726l2.112-8.421
								c0.008-0.029,0.018-0.068,0.029-0.117c0.012-0.048,0.02-0.083,0.024-0.102c0.085-0.35,0.322-0.478,0.711-0.384
								c0.185,0.045,0.378,0.183,0.579,0.413s0.281,0.432,0.238,0.607c-0.053,0.215-0.177,0.521-0.371,0.917
								c-0.193,0.397-0.317,0.703-0.369,0.917c-0.066,0.273-0.163,0.709-0.288,1.309c0.245-0.074,0.439-0.093,0.585-0.058
								c0.38,0.092,0.77,0.285,1.172,0.579c0.514,0.383,0.816,0.873,0.907,1.471c0.065,0.448,0.011,1.032-0.163,1.751
								L318.864,248.322z"/>
							<path style="fill:#845029;" d="M325.567,246.666c-0.213,0.875-0.614,1.569-1.202,2.085c-0.678,0.586-1.435,0.778-2.271,0.574
								c-0.855-0.208-1.43-0.657-1.726-1.347c-0.273-0.612-0.301-1.359-0.086-2.244c0.213-0.874,0.633-1.647,1.259-2.317
								c0.729-0.8,1.497-1.102,2.304-0.906c0.254,0.062,0.541,0.25,0.867,0.566C325.64,243.993,325.926,245.19,325.567,246.666z
								 M324.29,246.325c0.362-1.486,0.184-2.317-0.534-2.492c-0.516-0.125-0.981,0.096-1.397,0.664
								c-0.311,0.429-0.538,0.944-0.686,1.546c-0.314,1.292-0.088,2.032,0.68,2.219c0.496,0.121,0.93-0.057,1.304-0.532
								C323.94,247.366,324.151,246.898,324.29,246.325z"/>
							<path style="fill:#845029;" d="M331.2,249.335c-0.073,0.301-0.389,0.6-0.944,0.897c-0.5,0.28-0.924,0.429-1.273,0.446
								c-0.35,0.018-0.67-0.009-0.961-0.08c-0.768-0.187-1.309-0.576-1.623-1.167c-0.313-0.591-0.377-1.27-0.189-2.038
								c0.182-0.748,0.584-1.535,1.207-2.361c0.746-0.992,1.435-1.411,2.066-1.257c0.35,0.085,0.739,0.324,1.168,0.717
								c0.452,0.429,0.684,0.805,0.699,1.127c0.014,0.281-0.021,0.587-0.102,0.917c-0.073,0.301-0.219,0.626-0.438,0.974
								c-0.273,0.448-0.527,0.644-0.761,0.586c-0.165-0.04-0.309-0.126-0.431-0.258c-0.148-0.148-0.205-0.301-0.167-0.456
								c0.002-0.009,0.073-0.11,0.213-0.301c0.072-0.084,0.161-0.345,0.267-0.78c0.087-0.357,0.13-0.593,0.125-0.707
								c0.016-0.313-0.084-0.497-0.297-0.549c-0.477-0.116-0.947,0.206-1.408,0.965c-0.344,0.563-0.59,1.154-0.74,1.774
								c-0.253,1.037-0.049,1.635,0.611,1.796c0.263,0.064,0.596,0.001,1.002-0.188c0.373-0.177,0.654-0.381,0.845-0.613
								c0.231-0.273,0.458-0.383,0.683-0.328c0.145,0.035,0.266,0.155,0.36,0.358C331.206,249.015,331.235,249.189,331.2,249.335z"
								/>
							<path style="fill:#845029;" d="M337.458,249.562c-0.213,0.875-0.613,1.569-1.201,2.085c-0.68,0.586-1.436,0.778-2.271,0.574
								c-0.854-0.208-1.43-0.657-1.726-1.347c-0.272-0.612-0.301-1.359-0.085-2.244c0.213-0.874,0.631-1.647,1.258-2.317
								c0.729-0.8,1.498-1.102,2.305-0.906c0.254,0.062,0.541,0.25,0.866,0.566C337.533,246.889,337.818,248.085,337.458,249.562z
								 M336.183,249.22c0.362-1.486,0.183-2.317-0.535-2.492c-0.516-0.125-0.98,0.096-1.396,0.664
								c-0.312,0.429-0.539,0.944-0.686,1.546c-0.314,1.292-0.088,2.032,0.68,2.219c0.494,0.121,0.929-0.057,1.303-0.532
								C335.831,250.262,336.043,249.794,336.183,249.22z"/>
							<path style="fill:#845029;" d="M339.479,252.678c-0.042,0.175-0.149,0.306-0.319,0.394c-0.172,0.087-0.349,0.108-0.533,0.063
								c-0.612-0.149-0.723-1.025-0.332-2.628c0.177-0.729,0.45-1.82,0.819-3.274c0.37-1.454,0.644-2.545,0.821-3.273
								c0.028-0.117,0.054-0.291,0.08-0.521c0.025-0.23,0.051-0.399,0.076-0.506c0.373-0.136,0.652-0.182,0.836-0.137
								c0.213,0.052,0.4,0.172,0.561,0.36c0.16,0.188,0.215,0.39,0.163,0.604c-0.026,0.107-0.082,0.227-0.165,0.361
								c-0.125,0.216-0.195,0.333-0.21,0.351c-0.272,0.571-0.544,1.411-0.813,2.519c-0.429,1.758-0.648,2.662-0.66,2.71
								c-0.27,1.232-0.376,2.112-0.318,2.64C339.498,252.488,339.497,252.601,339.479,252.678z"/>
							<path style="fill:#845029;" d="M345.86,252.025c-0.306,1.253-0.56,2.128-0.763,2.624c-0.123,0.289-0.363,0.39-0.722,0.303
								c-0.545-0.133-0.722-0.464-0.53-0.994c-0.544,0.115-1.077,0.108-1.602-0.02c-0.505-0.123-0.955-0.367-1.35-0.73
								c-0.473-0.434-0.65-0.883-0.537-1.35c0.111-0.456,0.526-0.808,1.246-1.056c0.65-0.222,1.224-0.272,1.72-0.152l1.238,0.301
								l0.085-0.347c0.256-1.01,0.078-1.59-0.534-1.739c-0.768-0.187-1.239,0.076-1.412,0.787c-0.059,0.241-0.223,0.328-0.495,0.261
								c-0.165-0.04-0.32-0.157-0.463-0.352c-0.142-0.194-0.194-0.374-0.154-0.539c0.133-0.544,0.436-0.944,0.91-1.199
								c0.474-0.255,0.982-0.316,1.527-0.184C345.851,248.085,346.462,249.547,345.86,252.025z M344.259,252.191
								c0.047-0.194-0.074-0.327-0.367-0.398c-1.215-0.295-1.891-0.157-2.029,0.417c-0.076,0.311,0.153,0.532,0.688,0.662
								c0.33,0.08,0.663,0.064,1-0.05C343.95,252.701,344.186,252.491,344.259,252.191z"/>
							<path style="fill:#845029;" d="M350.636,250.284c-0.064,0.263-0.508,0.351-1.33,0.263c-0.072,0.209-0.199,0.692-0.383,1.451
								l-0.234,0.962c-0.048,0.194-0.088,0.488-0.123,0.881c-0.033,0.394-0.074,0.682-0.119,0.867
								c-0.037,0.155-0.148,0.275-0.333,0.359c-0.185,0.083-0.354,0.106-0.511,0.068c-0.242-0.059-0.396-0.318-0.459-0.775
								c-0.049-0.352-0.037-0.678,0.037-0.979l0.752-3.09c-0.43-0.176-0.678-0.283-0.74-0.319c-0.233-0.139-0.332-0.282-0.297-0.428
								c0.01-0.039,0.029-0.08,0.061-0.124c0.34-0.297,0.666-0.409,0.977-0.333c0.02,0.005,0.048,0.012,0.088,0.021
								c0.036,0.019,0.064,0.031,0.084,0.036c0.203,0.05,0.358-0.165,0.465-0.644l0.26-1.063c-0.023-0.119-0.025-0.217-0.006-0.295
								c0.031-0.126,0.134-0.222,0.307-0.288c0.174-0.066,0.328-0.083,0.463-0.049c0.201,0.049,0.372,0.19,0.508,0.424
								c0.139,0.234,0.18,0.458,0.128,0.671c-0.058,0.233-0.149,0.456-0.278,0.666s-0.217,0.438-0.267,0.684l-0.015,0.058
								C350.409,249.571,350.731,249.897,350.636,250.284z"/>
							<path style="fill:#845029;" d="M354.808,255.469c-0.119,0.486-0.542,0.784-1.268,0.896c-0.567,0.088-1.133,0.064-1.695-0.073
								c-1.498-0.364-2.037-1.396-1.623-3.097c0.17-0.699,0.529-1.435,1.076-2.208c0.674-0.947,1.307-1.349,1.9-1.205
								c0.533,0.13,1.052,0.509,1.552,1.135c0.501,0.626,0.689,1.197,0.563,1.712c-0.156,0.642-0.566,1.082-1.232,1.321
								c-0.587,0.217-1.23,0.241-1.931,0.07c-0.136-0.033-0.335-0.168-0.597-0.407c-0.186,0.933-0.025,1.46,0.48,1.583
								c0.428,0.104,0.877,0.085,1.349-0.057c0.473-0.143,0.767-0.2,0.883-0.171C354.684,255.069,354.865,255.236,354.808,255.469z
								 M353.89,252.327c0.059-0.242,0.045-0.49-0.043-0.743c-0.087-0.253-0.248-0.408-0.481-0.465
								c-0.32-0.078-0.603,0.002-0.847,0.242c-0.204,0.208-0.346,0.477-0.427,0.807c-0.045,0.185-0.019,0.35,0.079,0.498
								c0.098,0.147,0.244,0.245,0.438,0.292C353.319,253.13,353.745,252.92,353.89,252.327z"/>
						</g>
						<path style="fill:#6D4021;" d="M364.998,197.747l3.241-1.317c0,0-0.5,10.875,7.875,14l-2.5,1.979
							C373.615,212.408,363.632,210.189,364.998,197.747z"/>
					</g>
					<path style="fill:#BF7533;" d="M64.437,250.643c0,0,146.57,76.657,381.093,10.183c0,0,39.044,167.95-162.535,194.074
						C282.995,454.9,46.114,475.065,64.437,250.643z"/>
					<path style="fill:#BF7533;" d="M415.459,250.456c0,0-11.88-174.204-158.519-176.628
						c-58.643-0.969-151.212,42.708-165.215,187.645l-27.288-10.83c0,0-4.766-191.975,191.997-201.83
						c0,0,175.852-6.577,189.096,212.013"/>
					<g>
						<path style="fill:#DB605A;" d="M269.464,71.508c0,0,6.586,10.515,25.915,26.711c19.329,16.196,30.692,36.055,33.415,38.019
							c2.724,1.964,1.728-22.777,1.728-22.777s21.476-5.794,22.376-7.318c0.9-1.525-55.877-38.28-59.396-39.06
							c-3.519-0.78-12.84-7.286-12.84-7.286l-11.72,3.062L269.464,71.508z"/>
						<path style="fill:#B40201;" d="M190.972,57.142c0,0,19.996,14.915,55.595,5.644C246.567,62.786,201.287,43.128,190.972,57.142
							z"/>
						<path style="fill:#B40201;" d="M291.222,62.168c0,0,32.839,1.697,43.681-15.933C334.903,46.235,311.746,40.594,291.222,62.168
							z"/>
						<path style="fill:#B40201;" d="M202.91,28.894c0,0-1.715-20.233,1.714-20.936c3.43-0.703,36.003,18.474,45.533,38.083
							L202.91,28.894z"/>
						<path style="opacity:0.23;fill:#231F20;" d="M272.442,63.3l-1.036,0.894c0,0,10.136,0.412,15.018-0.64l-2.726-1.724
							l-10.808-0.003L272.442,63.3z"/>
						<path style="fill:#DB605A;" d="M252.616,61.487c0,0-26.834,1.245-76.433,42.428c0,0,20.472,2.238,21.609,4.65
							s-0.053,23.812-0.053,23.812l58.552-53.131c0,0,8.385-9.014,7.778-12.907C263.462,62.445,252.616,61.487,252.616,61.487z"/>
						<path style="fill:#B40201;" d="M311.966,0c0,0,4.805,5.663,6.804,15.762c0,0-41.166,23.322-44.147,28.804
							c-1.118,2.056-1.575,4.376-2.067,4.25C271.735,48.606,278.554,9.463,311.966,0z"/>
						<path style="opacity:0.23;fill:#231F20;" d="M246.51,61.855l-4.193,1.94c0,0,7.064,3.706,14.7,0.77l-1.881-4.47L246.51,61.855
							z"/>
						<path style="fill:#DB605A;" d="M255.352,63.678l-64.38-6.536c0,0,4.527-35.986,7.403-37.647c0,0,20.757-1.251,60.058,33.581
							L255.352,63.678z"/>
						<path style="fill:#DB605A;" d="M272.433,48.444c3.573-6.891,19.332-33.592,48.603-32.67c0.301,0.009,0.576,0.195,0.698,0.471
							l12.786,29.116c0.197,0.449-0.057,0.963-0.537,1.066c-4.887,1.044-28.116,6.345-42.598,15.636
							c-0.108,0.069-0.23,0.109-0.358,0.117l-17.812,1.074c-0.427,0.026-0.794-0.299-0.819-0.726l-0.654-10.852
							C271.673,50.553,271.915,49.442,272.433,48.444z"/>
						<path style="fill:#B40201;" d="M255.352,63.678l3.081-10.602l13.366-0.446l0.643,10.669l-3.359,2.899l-7.627,0.46
							c-0.705,0.043-1.407-0.131-2.011-0.498L255.352,63.678z"/>
					</g>
					<g>
						<g>
							<path style="fill:#7B9144;" d="M317.307,263.201c0,0-18.345,33.301-36.665,30.367c18.321,2.934,25.348,40.298,25.348,40.298
								c4.594-14.476,36.685-4.415,36.685-4.415c5.979-19.175,37.859-19.886,37.859-19.886s-30.063-10.631-29.755-30.714
								C350.779,278.852,317.15,278.388,317.307,263.201z"/>
							<path style="fill:#B2D855;" d="M291.983,295.384c0,0,0.898,0.026,2.458,0.134c1.557,0.134,3.792,0.251,6.454,0.526
								c5.328,0.514,12.397,1.421,19.433,2.538c7.033,1.134,14.032,2.476,19.254,3.654c2.614,0.569,4.774,1.159,6.295,1.518
								c1.516,0.385,2.377,0.642,2.377,0.642s-0.898-0.025-2.459-0.133c-1.557-0.134-3.793-0.248-6.454-0.524
								c-5.329-0.512-12.397-1.423-19.432-2.541c-7.032-1.136-14.031-2.482-19.253-3.658c-2.614-0.57-4.774-1.157-6.295-1.515
								C292.844,295.64,291.983,295.384,291.983,295.384z"/>
						</g>
						<g>
							<path style="fill:#7B9144;" d="M282.445,339.519c0,0,7.82-35.638,23.285-38.226c-15.465,2.587-33.264-21.426-33.264-21.426
								c0.222,12.833-28.194,13.422-28.194,13.422c0.378,16.97-24.965,26.131-24.965,26.131s26.944,0.413,32.11,16.583
								C251.418,336.003,278.478,327.313,282.445,339.519z"/>
							<path style="fill:#B2D855;" d="M294.057,306.916c0,0-0.726,0.221-2.005,0.555c-1.283,0.312-3.105,0.821-5.311,1.318
								c-4.406,1.025-10.313,2.203-16.249,3.204c-5.939,0.987-11.907,1.798-16.407,2.262c-2.247,0.249-4.136,0.358-5.451,0.481
								c-1.318,0.1-2.077,0.126-2.077,0.126s0.726-0.222,2.005-0.556c1.283-0.312,3.105-0.824,5.311-1.319
								c4.406-1.026,10.313-2.201,16.25-3.201c5.939-0.985,11.907-1.794,16.407-2.259c2.247-0.248,4.136-0.36,5.451-0.483
								C293.298,306.943,294.057,306.916,294.057,306.916z"/>
						</g>
						<g>
							<path style="fill:#7B9144;" d="M335.836,315.383c0,0-44.657-0.804-50.265-21.205c5.608,20.401-28.425,42.835-28.425,42.835
								c17.194-2.069,21.909,35.991,21.909,35.991c22.726-2.851,38.521,29.902,38.521,29.902s-3.165-36.224,17.825-45.39
								C335.401,357.516,319.999,322.393,335.836,315.383z"/>
						</g>
						<circle style="fill:#B40201;" cx="270.264" cy="302.973" r="8.795"/>
						<g>
							<path style="fill:#88A34F;" d="M302.892,342.894c0,0-24.401-20.903-18.824-35.558c-5.577,14.655-37.701,14.047-37.701,14.047
								c11.188,6.289-2.653,31.113-2.653,31.113c14.838,8.244,9.947,34.744,9.947,34.744s13.964-23.048,30.528-19.341
								C284.189,367.899,290.353,340.154,302.892,342.894z"/>
							<path style="fill:#B2D855;" d="M280.616,316.408c0,0-0.176,0.738-0.533,2.011c-0.379,1.265-0.86,3.095-1.545,5.249
								c-1.341,4.321-3.307,10.014-5.44,15.643c-2.148,5.624-4.461,11.185-6.333,15.303c-0.92,2.065-1.78,3.751-2.338,4.948
								c-0.579,1.189-0.94,1.857-0.94,1.857s0.175-0.739,0.532-2.012c0.379-1.265,0.857-3.096,1.543-5.25
								c1.34-4.321,3.308-10.013,5.443-15.642c2.149-5.623,4.465-11.183,6.336-15.302c0.921-2.065,1.778-3.752,2.336-4.948
								C280.256,317.076,280.616,316.408,280.616,316.408z"/>
						</g>
						<circle style="fill:#B40201;" cx="301.344" cy="338.913" r="6.44"/>
						<circle style="fill:#B40201;" cx="283.704" cy="309.693" r="7.467"/>
						<circle style="fill:#B40201;" cx="311.891" cy="317.533" r="5.32"/>
						<circle style="fill:#B40201;" cx="302.892" cy="301.293" r="13.067"/>
						<circle style="fill:#B40201;" cx="285.571" cy="333.866" r="9.893"/>
						<circle style="fill:#B40201;" cx="311.891" cy="326.866" r="6.72"/>
						<circle style="fill:#B40201;" cx="299.757" cy="320.146" r="6.72"/>
					</g>
				</g>
				<polygon style="fill:#6D4021;" points="326.103,186.179 329.99,184.929 368.24,196.429 364.998,197.747 				"/>
				<polygon style="fill:#6D4021;" points="368.865,224.84 373.615,212.408 376.115,210.429 371.615,224.117 				"/>
			</g>
		</g>
		<circle style="fill:#FFFFFF;" cx="37.499" cy="212.408" r="16.341"/>
		<circle style="fill:#FFFFFF;" cx="461.825" cy="169.539" r="5.235"/>
		<circle style="fill:#FFFFFF;" cx="467.059" cy="353.005" r="5.21"/>
		<circle style="fill:#FFFFFF;" cx="94.588" cy="417.561" r="7.75"/>
		<circle style="fill:#FFFFFF;" cx="495.254" cy="260.801" r="4.5"/>
		<circle style="fill:#FFFFFF;" cx="37.499" cy="317.98" r="5.49"/>
		<circle style="fill:#FFFFFF;" cx="252.15" cy="139.2" r="3.675"/>
		<circle style="fill:#FFFFFF;" cx="131.031" cy="72.218" r="5.308"/>
		<circle style="fill:#FFFFFF;" cx="284.693" cy="176.446" r="2.131"/>
		<circle style="fill:#FFFFFF;" cx="75.078" cy="162.752" r="1.809"/>
		<circle style="fill:#FFFFFF;" cx="422.035" cy="96.932" r="4.765"/>
	</g>
</g>
<g id="Livello_1">
</g>
</svg>
