<?xml version="1.0" encoding="iso-8859-1"?>
<!-- Generator: Adobe Illustrator 18.1.0, SVG Export Plug-In . SVG Version: 6.00 Build 0)  -->
<!DOCTYPE svg PUBLIC "-//W3C//DTD SVG 1.1//EN" "http://www.w3.org/Graphics/SVG/1.1/DTD/svg11.dtd">
<svg version="1.1" xmlns="http://www.w3.org/2000/svg" xmlns:xlink="http://www.w3.org/1999/xlink" x="0px" y="0px"
	 viewBox="0 0 512 515.953" style="enable-background:new 0 0 512 515.953;" xml:space="preserve">
<g id="_x23_candles">
	<g>
		<circle style="fill:#FFD99B;" cx="256" cy="259.953" r="256"/>
	</g>
	<g>
		<g>
			<g>
				<path style="fill:#BF352F;" d="M331.744,183.038c0,0-11.141-11.926-31.322-12.671l0-0.01c-0.036,0.001-0.07,0.004-0.106,0.005
					c-0.036-0.001-0.07-0.004-0.106-0.005l0,0.01c-20.182,0.745-31.322,12.671-31.322,12.671
					c-24.127,6.007-30.476,30.368-30.476,30.368l1.27,74.752l0.847,118.468c0,0,25.916,5.948,59.787,5.948
					c20.03,0,37.103-2.04,47.814-3.73c6.912-1.091,12.008-7.026,12.058-14.023l0.762-106.663l1.213-71.39
					c0.044-2.617-0.451-5.208-1.461-7.622C357.664,201.885,349.54,187.469,331.744,183.038z"/>
				<ellipse style="opacity:0.4;fill:#8E0906;" cx="300.316" cy="175.863" rx="10.846" ry="2.169"/>
				<g>
					<path style="opacity:0.4;fill:#8E0906;" d="M300.316,173.694c-5.99,0-10.846,0.971-10.846,2.169
						c0,1.116,4.215,2.034,9.634,2.155c0.272-0.812,0.771-2.398,1.241-4.324C300.335,173.694,300.326,173.694,300.316,173.694z"/>
					<path style="opacity:0.4;fill:#8E0906;" d="M311.162,175.863c0-0.99-3.319-1.823-7.85-2.083
						c-0.411,1.888-0.86,3.413-1.118,4.218C307.287,177.82,311.162,176.933,311.162,175.863z"/>
					<path style="fill:#132326;" d="M303.043,160.085c-0.933-1.981-2.438-3.331-4.474-4.009l-0.845,2.533
						c1.334,0.445,2.284,1.299,2.902,2.611c1.507,3.198,0.677,8.547-0.281,12.474c-0.47,1.926-0.969,3.512-1.241,4.324
						c0.398,0.009,0.802,0.014,1.212,0.014c0.641,0,1.266-0.013,1.877-0.035c0.259-0.805,0.707-2.33,1.118-4.218
						C304.195,169.725,304.887,164.001,303.043,160.085z"/>
				</g>
				<path style="fill:#EEB415;" d="M306.453,158.957c34.855-5.945-8.624-45.538-16.64-64.045
					C289.844,97.787,258.987,167.054,306.453,158.957z"/>
				<path style="fill:#F2E4BB;" d="M300.383,148.11c8.867-4.057,4.102-23.245-3.217-25.81
					C297.755,116.835,284.963,155.165,300.383,148.11z"/>
			</g>
			<path style="opacity:0.4;fill:#8E0906;" d="M262.463,410.22l-15.676-2.355l-12.572-0.575V191.719l19.391-1.13
				c0,0,2.899-2.125,3.914-2.753c1.04-0.643,4.304-2.328,4.304-2.328L262.463,410.22z"/>
			<g>
				<path style="fill:#BF352F;" d="M214.52,115.728c0,0-14.508-15.53-40.789-16.5l0-0.014c-0.047,0.002-0.091,0.005-0.138,0.007
					c-0.046-0.002-0.091-0.005-0.138-0.007l0,0.014c-26.281,0.97-40.789,16.5-40.789,16.5c-25.3,6.299-35.588,28.096-38.636,36.347
					c-0.697,1.887-1.039,3.878-1.005,5.889l1.608,94.655l1.023,143.208c0.047,6.538,4.766,12.103,11.211,13.203
					c13.438,2.293,37.864,5.609,66.726,5.609c44.544,0,77.789-5.658,77.789-5.658l1.171-156.363l1.654-97.345
					C254.206,155.274,245.938,123.55,214.52,115.728z"/>
				<ellipse style="opacity:0.4;fill:#8E0906;" cx="173.593" cy="106.384" rx="14.124" ry="2.825"/>
				<g>
					<path style="opacity:0.4;fill:#8E0906;" d="M173.593,103.559c-7.8,0-14.124,1.265-14.124,2.825
						c0,1.453,5.489,2.649,12.546,2.806c0.354-1.058,1.003-3.123,1.616-5.631C173.618,103.559,173.605,103.559,173.593,103.559z"/>
					<path style="opacity:0.4;fill:#8E0906;" d="M187.716,106.384c0-1.289-4.322-2.374-10.223-2.713
						c-0.536,2.458-1.12,4.444-1.456,5.492C182.67,108.932,187.716,107.777,187.716,106.384z"/>
					<path style="fill:#132326;" d="M177.144,85.837c-1.215-2.58-3.175-4.337-5.826-5.221l-1.1,3.298
						c1.737,0.579,2.974,1.692,3.779,3.4c1.963,4.165,0.882,11.131-0.366,16.245c-0.612,2.508-1.261,4.573-1.616,5.631
						c0.519,0.012,1.044,0.019,1.578,0.019c0.835,0,1.649-0.017,2.444-0.045c0.337-1.048,0.921-3.034,1.456-5.492
						C178.644,98.391,179.545,90.936,177.144,85.837z"/>
				</g>
				<path style="fill:#EEB415;" d="M183.449,83.402c9.639-8.759,13.782-23.114,10.291-35.662
					c-2.584-9.29-8.808-17.083-15.127-24.367S165.613,8.848,161.78,0c0.081,7.54-3.238,14.676-6.897,21.269
					c-3.659,6.592-7.786,13.083-9.582,20.406c-1.984,8.091-0.918,16.826,2.588,24.382s9.38,13.93,16.412,18.396
					c3.344,2.124,7.23,3.88,11.148,3.297C178.496,87.296,181.169,85.474,183.449,83.402z"/>
				<path style="fill:#EEB415;" d="M183.449,83.402c9.639-8.759,13.782-23.114,10.291-35.662
					c-2.584-9.29-8.808-17.083-15.127-24.367S165.613,8.848,161.78,0c0.081,7.54-3.238,14.676-6.897,21.269
					c-3.659,6.592-7.786,13.083-9.582,20.406c-1.984,8.091-0.918,16.826,2.588,24.382s9.38,13.93,16.412,18.396
					c3.344,2.124,7.23,3.88,11.148,3.297C178.496,87.296,181.169,85.474,183.449,83.402z"/>
				<path style="fill:#F2E4BB;" d="M173.68,70.242c2.03-0.929,3.191-3.071,4.038-5.137c2.099-5.122,3.138-10.834,1.928-16.236
					c-1.209-5.402-4.932-10.408-10.156-12.239c-0.465,4.317-1.384,8.585-2.735,12.711c-0.097-2.447-0.195-4.894-0.292-7.341
					c-3.621,3.082-5.903,7.685-6.163,12.433s1.504,9.573,4.765,13.033C167.278,69.813,170.748,71.584,173.68,70.242z"/>
			</g>
			<path style="fill:#8E0906;" d="M94.529,246.501"/>
		</g>
		<g>
			<path style="fill:#88A34F;" d="M119.632,409.295c4.465,7.673,8.192,15.775,11.113,24.159
				c-15.909,2.684-33.051-4.018-42.921-16.78c-3.853-4.982-6.691-11.658-4.347-17.503c2.918-7.277,12.87-9.535,20.088-6.476
				C110.784,395.753,115.688,402.519,119.632,409.295z"/>
			<path style="fill:#88A34F;" d="M159.017,420.737c3.411,5.804,6.259,11.932,8.49,18.273c-12.155,2.03-25.251-3.039-32.792-12.692
				c-2.943-3.768-5.112-8.818-3.321-13.239c2.229-5.504,9.832-7.212,15.348-4.898C152.258,410.494,156.005,415.611,159.017,420.737z
				"/>
			<path style="fill:#88A34F;" d="M185.148,419.463c-1.602,4.093-3.695,7.992-6.221,11.589c-5.942-6.391-8.255-15.948-5.894-24.349
				c0.796-2.831,2.177-5.636,4.568-7.349c2.391-1.712,5.956-2.011,8.177-0.085c2.094,1.816,2.44,4.92,2.282,7.687
				C187.815,411.248,186.715,415.46,185.148,419.463z"/>
			<path style="fill:#88A34F;" d="M262.279,387.124c3.163,9.219-1.278,19.558-7.993,26.622c-6.715,7.064-15.46,11.779-23.368,17.476
				c-1.2-8.96-2.232-18.097-0.671-27.001c1.56-8.905,6.075-17.685,13.777-22.42c4.076-2.506,9.517-3.686,13.566-1.138
				C259.885,382.109,261.398,384.558,262.279,387.124z"/>
			<path style="fill:#88A34F;" d="M465.299,386.222c0.284,5.471-1.994,10.848-5.375,15.158c-3.382,4.31-7.809,7.675-12.349,10.739
				c-10.776,7.273-22.499,13.142-34.779,17.412c3.112-21.87,17.683-41.78,37.586-51.362c2.667-1.284,5.672-2.413,8.528-1.637
				C462.902,377.618,465.084,382.09,465.299,386.222z"/>
			<path style="fill:#88A34F;" d="M331.439,400.648c-1.63-3.949-2.869-8.47-1.236-12.417c2.115-5.112,8.688-7.342,14.001-5.803
				c5.313,1.54,9.346,6.014,11.843,10.951c5.573,11.021,4.287,25.171-3.18,35.008C343.432,421.263,335.95,411.577,331.439,400.648z"
				/>
			<path style="fill:#88A34F;" d="M388.918,404.925c-0.078,9.675-7.426,17.466-12.705,25.574
				c-4.455-7.546-5.176-17.182-1.892-25.307c1.04-2.573,2.547-5.09,4.908-6.549c2.36-1.459,5.721-1.561,7.724,0.36
				C388.497,400.484,388.935,402.785,388.918,404.925z"/>
			<path style="fill:#88A34F;" d="M311.172,414.583c-1.984,6.924-5.448,13.421-10.092,18.927
				c-6.592-8.458-10.375-19.068-10.621-29.789c-0.088-3.846,0.413-8.041,3.106-10.788c2.982-3.043,8.104-3.351,11.827-1.278
				c3.723,2.072,6.078,6.113,6.846,10.305S312.346,410.486,311.172,414.583z"/>
			<path style="fill:#88A34F;" d="M171.585,400.798c5.091,11.238,9.577,23.009,10.33,35.324
				c-14.255-3.051-27.508-10.616-37.385-21.337c-4.384-4.759-8.218-10.371-9.196-16.768s1.541-13.648,7.248-16.698
				c5.79-3.094,13.264-1.088,18.263,3.168S168.876,394.818,171.585,400.798z"/>
			<path style="fill:#88A34F;" d="M257.196,383.163c2.333-2.427,5.718-4.193,9.013-3.505c4.998,1.044,7.271,6.844,8.066,11.888
				c2.323,14.753-0.912,30.315-8.922,42.92c-3.231-8.658-8.591-16.423-11.554-25.176
				C250.836,400.537,250.792,389.826,257.196,383.163z"/>
			<path style="fill:#88A34F;" d="M188.747,380.777c3.041-1.241,6.675-0.063,9.055,2.201s3.7,5.422,4.585,8.584
				c3.868,13.817,0.54,28.507-2.792,42.463c-10.25-10.925-16.238-25.749-16.453-40.728
				C183.072,388.429,184.239,382.618,188.747,380.777z"/>
			<path style="fill:#88A34F;" d="M412.647,373.556c3.333,9.436,2.016,20.047-1.786,29.304c-3.802,9.257-9.918,17.365-16.314,25.062
				c-9.873-15.969-11.432-36.782-4.048-54.044c2.112-4.939,5.861-10.181,11.232-10.245
				C406.988,363.57,410.897,368.599,412.647,373.556z"/>
			<path style="fill:#88A34F;" d="M94.086,442.519c0.777,4.619,5.619,7.812,10.303,7.787c4.684-0.025,9.031-2.66,12.262-6.052
				c3.231-3.392,5.552-7.524,8.048-11.488c2.496-3.964,5.283-7.886,9.141-10.542c-11.499-2.223-23.903,0.759-33.136,7.965
				C96.839,433.207,93.273,437.684,94.086,442.519z"/>
			<path style="fill:#88A34F;" d="M123.19,454.86c7.671,1.763,15.608-2.504,20.954-8.281c5.346-5.777,8.843-12.984,13.33-19.451
				c-12.632-3.098-26.657,0.165-36.625,8.519c-3.586,3.005-6.88,7.399-5.87,11.968C115.81,451.377,119.435,453.997,123.19,454.86z"
				/>
			<path style="fill:#88A34F;" d="M151.745,460.633c7.692-0.075,14.952-4.645,19.252-11.022c4.301-6.377,5.849-14.341,5.366-22.018
				c-10.99,3.567-21.177,9.583-29.607,17.485c-2.796,2.621-5.61,6.167-4.684,9.885C143.047,458.88,147.709,460.672,151.745,460.633z
				"/>
			<path style="fill:#88A34F;" d="M173.639,434.704c-0.483,5.795,5.858,10.492,11.644,9.901c5.785-0.591,10.534-5.034,13.445-10.068
				c2.912-5.034,4.41-10.74,6.626-16.116c-8.458-0.177-16.953,2.131-24.159,6.564C177.565,427.217,173.993,430.456,173.639,434.704z
				"/>
			<path style="fill:#88A34F;" d="M225.178,425.932c0.297-2.258,0.437-4.537,0.414-6.816c-4.031-0.387-8.064,1.164-11.353,3.526
				c-3.289,2.363-5.936,5.496-8.468,8.657c-3.2,3.995-6.406,8.431-6.666,13.544s3.845,10.729,8.923,10.082
				c3.043-0.388,5.412-2.781,7.289-5.207c5.79-7.486,10.242-17.888,14.121-26.527c4.589-10.219,2.649-23.544-3.137-32.862
				c-2.745-4.42-7.054-8.547-12.257-8.517c-5.56,0.032-10.161,5.109-11.15,10.58c-0.989,5.471,0.914,11.084,3.612,15.945
				c5.716,10.3,15.209,18.448,26.256,22.535"/>
			<path style="fill:#88A34F;" d="M247.122,443.271c1.964-6.243,3.62-12.594,4.641-19.058c0.297-1.881-0.004-4.517-1.899-4.699
				c-0.848-0.081-1.625,0.439-2.304,0.953c-5.568,4.213-10.201,9.656-13.47,15.825c-1.62,3.058-2.936,6.475-2.483,9.906
				c0.452,3.431,3.192,6.758,6.652,6.814c2.362,0.038,4.55-1.423,5.967-3.313C245.641,447.809,246.413,445.525,247.122,443.271z"/>
			<path style="fill:#88A34F;" d="M286.879,404.46c0.975,8.554-0.263,17.35-3.562,25.302c-4.837-5.391-9.032-11.356-12.471-17.731
				c-2.046-3.792-3.864-7.922-3.667-12.226c0.198-4.304,2.985-8.762,7.221-9.554c3.489-0.652,7.082,1.343,9.169,4.214
				C285.656,397.337,286.476,400.934,286.879,404.46z"/>
			<path style="fill:#88A34F;" d="M315.572,430.435c-2.235-2.876-4.501-5.805-5.822-9.199s-1.587-7.383,0.151-10.584
				c1.738-3.201,5.818-5.22,9.208-3.889c4.31,1.693,5.391,7.586,3.825,11.943S318.006,426.497,315.572,430.435z"/>
			<path style="fill:#88A34F;" d="M334.072,425.281c-2.883-2.62-5.9-5.453-6.913-9.215c-1.013-3.762,1.004-8.603,4.87-9.083
				c4.032-0.5,7.189,4.098,6.826,8.144s-3.042,7.457-5.609,10.606"/>
			<path style="fill:#88A34F;" d="M356.607,429.479c-0.538-4.447,1.153-9.108,4.416-12.176c1.843-1.733,4.425-3.002,6.871-2.358
				c2.913,0.767,4.6,4.173,4.088,7.142c-0.512,2.969-2.771,5.402-5.401,6.872c-2.63,1.47-5.624,2.124-8.569,2.76"/>
			<path style="fill:#88A34F;" d="M276.601,425.474c-5.326,2.57-9.972,6.532-13.352,11.384c-1.148,1.649-2.18,3.482-2.302,5.488
				s0.903,4.201,2.799,4.867c2.841,0.999,5.582-1.7,7.134-4.281c3.382-5.624,5.281-12.131,5.457-18.692"/>
			<path style="fill:#88A34F;" d="M292.173,422.355c-6.769,4.265-10.751,12.578-9.833,20.525c6.928-4.016,9.962-13.604,6.606-20.875
				"/>
			<path style="fill:#88A34F;" d="M340.396,418.347c-6.954,4.034-11.642,11.724-12.042,19.753
				c8.759-3.313,14.788-12.747,14.114-22.087"/>
			<path style="fill:#88A34F;" d="M419.392,432.742c-6.612-3.363-12.261-8.593-16.124-14.926c-1.087-1.782-2.056-3.725-2.142-5.81
				c-0.086-2.085,0.919-4.337,2.839-5.155c1.701-0.725,3.656-0.205,5.4,0.411c7.302,2.577,14.042,6.734,19.624,12.101
				c3.339,3.211,6.42,8.193,4.066,12.183c-1.284,2.176-3.927,3.286-6.453,3.288C424.076,434.835,421.644,433.887,419.392,432.742z"
				/>
			<path style="fill:#88A34F;" d="M397.143,441.457c-2.823,3.546-8.864,2.785-11.981-0.507c-3.116-3.292-3.922-8.132-3.999-12.664
				s0.418-9.146-0.686-13.542c6.401,2.467,11.253,7.848,14.975,13.611C398.009,432.317,400.079,437.768,397.143,441.457z"/>
			<path style="fill:#88A34F;" d="M345.854,436.767c-2.498-4.679-3.566-10.11-3.024-15.386c0.184-1.788,0.827-3.883,2.556-4.374
				c1.332-0.378,2.7,0.397,3.817,1.215c5.171,3.786,9.095,9.247,11.031,15.356c0.783,2.47,1.197,5.338-0.213,7.511
				c-1.627,2.507-5.264,3.11-8.023,1.961S347.262,439.404,345.854,436.767z"/>
			<path style="fill:#88A34F;" d="M301.647,417.403c8.189-0.079,15.606,5.02,21.067,11.124c2.164,2.419,4.119,5.024,5.836,7.778
				c0.704,1.129,1.38,2.556,0.748,3.727c-0.592,1.095-2.021,1.371-3.265,1.437c-12.145,0.646-24.134-8.148-27.167-19.925
				c-0.306-1.187-0.46-2.63,0.433-3.469C299.906,417.503,300.813,417.411,301.647,417.403z"/>
			<path style="fill:#88A34F;" d="M218.323,421.832c-3.176,4.654-6.955,8.896-11.211,12.588c-1.789-4.59-3.465-9.281-4.033-14.175
				c-0.569-4.894,0.05-10.06,2.595-14.278c2.199-3.645,6.385-6.557,10.539-5.631c4.164,0.928,6.751,5.48,6.692,9.746
				S220.728,418.308,218.323,421.832z"/>
		</g>
		<g>
			<path style="fill:#88A34F;" d="M164.974,477.485c3.388-8.206,5.987-16.737,7.749-25.438
				c-16.126-0.512-32.206,8.443-40.263,22.421c-3.145,5.456-5.055,12.455-1.944,17.93c3.873,6.816,14.039,7.71,20.779,3.705
				C158.035,492.098,161.982,484.732,164.974,477.485z"/>
			<path style="fill:#88A34F;" d="M202.495,461.128c2.597-6.211,4.591-12.668,5.945-19.252c-12.317-0.371-24.61,6.42-30.778,17.003
				c-2.408,4.131-3.874,9.427-1.503,13.566c2.952,5.153,10.716,5.818,15.868,2.782C197.18,472.189,200.202,466.613,202.495,461.128z
				"/>
			<path style="fill:#88A34F;" d="M228.558,458.862c-2.14-3.839-4.74-7.42-7.729-10.643c-5.025,7.134-6.027,16.917-2.553,24.921
				c1.171,2.698,2.918,5.291,5.518,6.665c2.6,1.374,6.173,1.189,8.114-1.02c1.829-2.082,1.753-5.204,1.223-7.924
				C232.309,466.642,230.651,462.616,228.558,458.862z"/>
			<path style="fill:#88A34F;" d="M309.349,480.491c1.889-9.561-3.907-19.206-11.514-25.299
				c-7.607-6.093-16.909-9.584-25.514-14.161c0.021,9.04,0.232,18.232,2.98,26.845c2.748,8.613,8.407,16.703,16.677,20.354
				c4.377,1.933,9.928,2.368,13.595-0.704C307.654,485.783,308.823,483.153,309.349,480.491z"/>
			<path style="fill:#88A34F;" d="M510.632,453.974c-0.457-5.459-3.44-10.479-7.372-14.293c-3.932-3.814-8.773-6.55-13.686-8.974
				c-11.66-5.752-24.067-9.984-36.811-12.557c6.037,21.249,23.162,39.01,44.177,45.817c2.816,0.912,5.945,1.625,8.671,0.47
				C509.419,462.824,510.977,458.098,510.632,453.974z"/>
			<path style="fill:#88A34F;" d="M376.05,457.753c-1.082,4.133-1.699,8.779,0.452,12.47c2.786,4.78,9.599,6.102,14.656,3.859
				c5.057-2.243,8.449-7.221,10.256-12.45c4.034-11.673,0.85-25.519-7.877-34.258C385.15,435.708,379.044,446.315,376.05,457.753z"
				/>
			<path style="fill:#88A34F;" d="M432.425,445.755c-1.384-9.576-9.716-16.303-16.042-23.624
				c-3.396,8.079-2.809,17.724,1.542,25.331c1.378,2.409,3.211,4.699,5.747,5.826c2.536,1.127,5.88,0.774,7.605-1.4
				C432.607,450.213,432.731,447.873,432.425,445.755z"/>
			<path style="fill:#88A34F;" d="M354.087,446.683c-2.901-6.593-7.21-12.562-12.555-17.391c-5.39,9.271-7.705,20.294-6.502,30.95
				c0.432,3.822,1.495,7.911,4.534,10.27c3.366,2.613,8.482,2.226,11.891-0.33c3.409-2.556,5.197-6.878,5.392-11.134
				C357.043,454.79,355.803,450.583,354.087,446.683z"/>
			<path style="fill:#88A34F;" d="M217.639,479.186c3.527-11.823,6.383-24.091,5.466-36.395
				c-13.712,4.948-25.823,14.232-34.162,26.189c-3.702,5.307-6.742,11.386-6.848,17.856s3.369,13.315,9.436,15.567
				c6.155,2.284,13.289-0.713,17.668-5.605C213.579,491.907,215.762,485.478,217.639,479.186z"/>
			<path style="fill:#88A34F;" d="M237.347,496.707c3.18,0.819,6.622-0.839,8.675-3.403s2.934-5.871,3.384-9.125
				c1.967-14.213-3.313-28.319-8.5-41.698c-8.681,12.209-12.613,27.706-10.803,42.576
				C230.692,489.892,232.632,495.492,237.347,496.707z"/>
			<path style="fill:#88A34F;" d="M460.172,473.634c2.028-9.8-0.709-20.135-5.726-28.795s-12.171-15.867-19.548-22.63
				c-7.626,17.156-6.361,37.989,3.285,54.096c2.76,4.608,7.182,9.296,12.513,8.634C455.913,484.292,459.107,478.781,460.172,473.634
				z"/>
			<path style="fill:#88A34F;" d="M135.177,448.014c0.146-4.682,4.513-8.499,9.158-9.107c4.645-0.608,9.307,1.417,12.966,4.341
				c3.659,2.924,6.517,6.705,9.525,10.296s6.299,7.1,10.481,9.211c-11.094,3.755-23.786,2.476-33.908-3.418
				C139.161,456.87,135.023,452.916,135.177,448.014z"/>
			<path style="fill:#88A34F;" d="M162.348,431.857c7.363-2.782,15.803,0.374,21.88,5.376c6.077,5.002,10.515,11.671,15.834,17.473
				c-12.098,4.775-26.435,3.436-37.44-3.496c-3.959-2.494-7.816-6.403-7.432-11.065
				C155.506,436.305,158.744,433.219,162.348,431.857z"/>
			<path style="fill:#88A34F;" d="M189.903,422.579c7.631-0.964,15.442,2.584,20.564,8.322c5.122,5.738,7.732,13.42,8.289,21.092
				c-11.371-2.05-22.277-6.636-31.696-13.328c-3.124-2.219-6.391-5.353-5.976-9.162C181.521,425.49,185.898,423.085,189.903,422.579
				z"/>
			<path style="fill:#88A34F;" d="M215.097,445.314c-1.261-5.677,4.388-11.187,10.2-11.382s11.117,3.566,14.682,8.161
				s5.819,10.046,8.741,15.074c-8.357,1.317-17.086,0.177-24.824-3.242C219.997,452.202,216.021,449.475,215.097,445.314z"/>
			<path style="fill:#88A34F;" d="M267.348,447.047c0.599,2.198,1.046,4.437,1.33,6.698c-3.942,0.927-8.147-0.064-11.725-1.961
				c-3.578-1.897-6.624-4.644-9.559-7.434c-3.71-3.527-7.486-7.489-8.434-12.52c-0.948-5.03,2.362-11.15,7.48-11.194
				c3.067-0.027,5.738,2.025,7.925,4.176c6.748,6.635,12.563,16.341,17.573,24.378c5.927,9.506,5.803,22.971,1.329,32.984
				c-2.123,4.75-5.836,9.421-10.995,10.094c-5.513,0.719-10.757-3.69-12.476-8.978s-0.59-11.106,1.426-16.287
				c4.273-10.977,12.579-20.332,22.974-25.874"/>
			<path style="fill:#88A34F;" d="M286.75,426.904c2.789,5.92,5.287,11.99,7.172,18.257c0.548,1.824,0.606,4.476-1.248,4.912
				c-0.829,0.195-1.67-0.216-2.412-0.633c-6.086-3.423-11.411-8.19-15.483-13.861c-2.018-2.811-3.783-6.019-3.798-9.48
				c-0.015-3.461,2.251-7.127,5.672-7.65c2.335-0.357,4.7,0.796,6.359,2.477S285.743,424.767,286.75,426.904z"/>
			<path style="fill:#88A34F;" d="M331.383,459.992c-0.189-8.607-2.603-17.156-6.945-24.589c-4.065,5.995-7.417,12.472-9.963,19.252
				c-1.515,4.034-2.759,8.371-1.982,12.609c0.777,4.238,4.141,8.279,8.444,8.492c3.545,0.175,6.836-2.287,8.516-5.414
				S331.46,463.541,331.383,459.992z"/>
			<path style="fill:#88A34F;" d="M356.307,430.381c-1.827,3.151-3.676,6.359-4.527,9.901c-0.851,3.542-0.576,7.529,1.578,10.466
				c2.154,2.937,6.47,4.387,9.649,2.61c4.042-2.259,4.318-8.244,2.178-12.35C363.045,436.903,359.25,433.955,356.307,430.381z"/>
			<path style="fill:#88A34F;" d="M375.333,432.99c-2.503,2.986-5.11,6.2-5.606,10.064c-0.496,3.864,2.156,8.389,6.052,8.342
				c4.063-0.049,6.57-5.031,5.664-8.991c-0.906-3.961-4.021-6.978-6.99-9.752"/>
			<path style="fill:#88A34F;" d="M397.095,425.789c0.068,4.479,2.372,8.869,6.019,11.468c2.06,1.468,4.79,2.377,7.126,1.409
				c2.783-1.153,3.995-4.756,3.087-7.628s-3.475-4.979-6.279-6.08c-2.804-1.101-5.86-1.345-8.863-1.578"/>
			<path style="fill:#88A34F;" d="M318.362,440.558c-5.624-1.828-10.763-5.126-14.767-9.477c-1.361-1.479-2.63-3.156-3.022-5.127
				c-0.392-1.971,0.328-4.284,2.116-5.2c2.681-1.373,5.76,0.931,7.646,3.279c4.11,5.116,6.871,11.307,7.931,17.784"/>
			<path style="fill:#88A34F;" d="M458.865,414.079c-6.097,4.225-10.989,10.17-13.961,16.966c-0.836,1.912-1.534,3.968-1.338,6.046
				c0.197,2.078,1.496,4.173,3.509,4.724c1.784,0.489,3.65-0.291,5.295-1.136c6.887-3.54,13.005-8.568,17.811-14.64
				c2.875-3.632,5.255-8.985,2.384-12.62c-1.566-1.983-4.335-2.726-6.838-2.386C463.223,411.372,460.941,412.64,458.865,414.079z"/>
			<path style="fill:#88A34F;" d="M435.642,408.447c-3.276-3.133-9.159-1.563-11.802,2.119s-2.789,8.587-2.253,13.088
				c0.536,4.501,1.649,9.006,1.148,13.51c6.01-3.308,10.091-9.296,13-15.508C437.735,417.387,439.05,411.706,435.642,408.447z"/>
			<path style="fill:#88A34F;" d="M385.456,420.018c-1.844,4.973-2.168,10.499-0.919,15.654c0.423,1.747,1.344,3.736,3.124,3.989
				c1.371,0.195,2.622-0.758,3.618-1.719c4.613-4.449,7.763-10.391,8.857-16.705c0.442-2.553,0.465-5.451-1.225-7.414
				c-1.95-2.265-5.635-2.371-8.214-0.86C388.118,414.474,386.495,417.216,385.456,420.018z"/>
			<path style="fill:#88A34F;" d="M344.268,445.174c8.125-1.028,14.786-7.081,19.372-13.866c1.818-2.689,3.403-5.534,4.733-8.494
				c0.545-1.214,1.023-2.719,0.238-3.794c-0.734-1.005-2.188-1.085-3.429-0.983c-12.121,1-22.813,11.332-24.228,23.411
				c-0.143,1.217-0.101,2.668,0.897,3.379C342.53,445.31,343.441,445.279,344.268,445.174z"/>
		</g>
	</g>
	<g>
		<circle style="fill:#FFFFFF;" cx="381.511" cy="88.7" r="12.103"/>
		<circle style="fill:#FFFFFF;" cx="348.8" cy="109.563" r="5.096"/>
		<circle style="fill:#FFFFFF;" cx="333.509" cy="64.662" r="17.205"/>
	</g>
	<g>
		<circle style="fill:#FFFFFF;" cx="449.931" cy="174.697" r="12.103"/>
		<circle style="fill:#FFFFFF;" cx="417.22" cy="195.559" r="5.096"/>
		<circle style="fill:#FFFFFF;" cx="401.93" cy="150.658" r="17.205"/>
	</g>
	<g>
		<circle style="fill:#FFFFFF;" cx="37.463" cy="232.876" r="9.075"/>
		<circle style="fill:#FFFFFF;" cx="26.489" cy="205.935" r="3.821"/>
		<circle style="fill:#FFFFFF;" cx="61.67" cy="200.715" r="12.901"/>
	</g>
	<g>
		<circle style="fill:#FFFFFF;" cx="406.528" cy="306.839" r="12.103"/>
		<circle style="fill:#FFFFFF;" cx="391.892" cy="270.908" r="5.096"/>
		<circle style="fill:#FFFFFF;" cx="438.812" cy="263.946" r="17.205"/>
	</g>
	<g>
		<circle style="fill:#FFFFFF;" cx="71.214" cy="332.39" r="9.075"/>
		<circle style="fill:#FFFFFF;" cx="42.808" cy="338.662" r="3.821"/>
		<circle style="fill:#FFFFFF;" cx="43.597" cy="303.105" r="12.901"/>
	</g>
</g>
<g id="Livello_1">
</g>
</svg>
