<?xml version="1.0" encoding="iso-8859-1"?>
<!-- Generator: Adobe Illustrator 18.1.0, SVG Export Plug-In . SVG Version: 6.00 Build 0)  -->
<!DOCTYPE svg PUBLIC "-//W3C//DTD SVG 1.1//EN" "http://www.w3.org/Graphics/SVG/1.1/DTD/svg11.dtd">
<svg version="1.1" xmlns="http://www.w3.org/2000/svg" xmlns:xlink="http://www.w3.org/1999/xlink" x="0px" y="0px"
	 viewBox="0 0 512 535.048" style="enable-background:new 0 0 512 535.048;" xml:space="preserve">
<g id="_x23_christmas-hut">
	<g>
		<circle style="fill:#DAC242;" cx="256" cy="279.048" r="256"/>
		<g>
			<g>
				<g>
					<path style="fill:#BF352F;" d="M236.172,221.258c11.81-8.407,24.427-15.886,34.108-27.119
						c9.681-11.233,16.073-27.448,12.112-42.31c-5.341-20.039-25.824-29.037-43.392-36.886
						c-38.652-17.27-74.732-41.891-104.983-73.526c28.107-1.096,56.361,2.494,83.504,10.61c46.989,14.05,90.543,41.5,138.64,49.834
						c27.712,4.801,58.275,3.907,80.443,22.846c21.076,18.007,28.655,50.211,25.823,79.428
						c-2.832,29.217-14.428,56.395-25.663,83.045c-11.235,26.649-22.446,54.11-24.42,83.412c-0.53,7.862-0.819,16.83-6.311,21.885
						c-3.358,3.091-7.929,3.919-12.268,4.54c-85.726,12.257-175.451-13.67-244.679-70.704
						C169.302,283.849,199.615,247.281,236.172,221.258z"/>
					<path style="fill:#8E0906;" d="M192.052,46.21c0.812,0.778,0.549,2.187-0.148,3.07c-0.697,0.883-1.713,1.453-2.507,2.25
						c-2.938,2.945,2.011,6.371-1.118,11.856c-2.787,4.888,2.446,10.986,3.409,16.53c0.316,1.816,2.178,6.925,0.866,8.22
						c-1.095,1.081-4.594-1.865-5.956-2.581c-1.362-0.716-2.315-2.026-3.026-3.39c-1.526-2.925-2.147-6.224-2.749-9.468
						c-1.194-6.432-2.389-12.865-3.583-19.297c-0.355-1.914-0.712-3.872-0.42-5.797c0.291-1.925,1.357-3.846,3.135-4.638
						c1.963-0.874,4.263-0.202,6.19,0.748S189.925,45.904,192.052,46.21z"/>
					<path style="fill:#F8F8F8;" d="M184.463,83.123c-1.66,0.241-3.375,0.059-4.971-0.513c-2.058-0.738-4.158,1.043-4.176,3.427
						l-0.072,9.464c-0.012,1.541-0.9,2.945-2.238,3.394c-1.322,0.444-2.776,0.445-4.101,0.008c-1.479-0.487-3.08,0.33-3.746,1.864
						c-2.309,5.317-5.577,10.128-9.545,14.082c-1.656,1.65-4.255,1.08-5.199-1.149c-1.164-2.748-3.87-5.07-6.707-5.506
						c-4.737-0.729-9.328,1.71-13.906,3.238c-12.165,4.058-25.982,1.374-36.254-6.829c-1.691-1.351-1.755-4.143-0.153-5.619
						c0.452-0.417,0.935-0.794,1.441-1.128c1.757-1.158,2.08-3.824,0.687-5.479C82.703,77.144,76.207,55.64,78.069,34.978
						c0.217-2.408,2.475-3.877,4.513-2.972c2.125,0.943,4.839,0.902,6.844-0.394c3.894-2.518,5.839-7.419,8.384-11.529
						c6.32-10.208,17.145-16.168,28.153-18.531c9.182-1.971,18.595-1.725,27.959-1.105c2.497,0.165,3.898,3.248,2.533,5.557l0,0
						c-1.431,2.422,0.18,5.588,2.803,5.556c7.271-0.088,14.583,2.669,20.169,7.816c6.159,5.675,10.094,14.139,10.838,22.932
						c0.208,2.453-1.764,4.443-3.949,3.917l-2.924-0.704c-2.756-0.663-4.905,2.559-3.539,5.278c4.388,8.732,6.954,18.578,7.4,28.547
						C187.337,81.209,186.141,82.879,184.463,83.123z"/>
				</g>
				<path style="fill:#8E0906;" d="M153.824,316.835l13.84-23.632c0,0,24.243,25.462,32.243,30.266s52.926,11.667,67,15
					c14.074,3.333,53.5,20.5,84.5,20.333c18.773-0.101,40.454,6,62.227,0c0,0-7.106,16.323,0,27.495c0,0-121.56,13.838-187.56-6.828
					C160.074,358.802,153.824,316.835,153.824,316.835z"/>
				<path style="fill:#FFFFFF;" d="M442.802,376.231c0.957,2.071,1.397,4.343,1.452,6.624c0.352,14.508,0.454,31.445-9.614,42.43
					c-8.011,8.74-21.635,15.727-33.234,18.184c-64.963,13.756-110.166,10.164-162.667-5.164
					c-52.958-15.461-101.504-41.959-152.189-77.141c-5.079-3.526-6.649-10.341-3.643-15.745l0.064-0.114
					c8.485-15.202,20.935-28.168,35.779-37.265c8.171-5.007,17.819-8.945,27.175-6.869c10.41,2.309,17.712,11.29,25.424,18.653
					c25.493,24.34,61.233,34.055,95.482,42.383c49.129,11.947,100.999,22.796,149.653,9.042
					C425.897,368.59,437.931,365.692,442.802,376.231z"/>
			</g>
			<path style="fill:#EAEAEA;" d="M422.071,417.18c-3.881-3.967-56.394,12.239-66.314,12.215
				c-27.085-0.066-55.295-5.315-82.263-9.418c-33.729-5.131-66.996-14.677-97.308-30.682c-11.833-6.248-68.746-48.02-82.172-34.521
				c-12.627,12.695,138.772,75.31,156.892,80.12c33.282,8.834,64.745,14.518,98.986,11.338
				C357.776,445.499,439.966,435.47,422.071,417.18C418.998,414.039,424.698,419.864,422.071,417.18z"/>
		</g>
	</g>
</g>
<g id="Livello_1">
</g>
</svg>
