<?xml version="1.0" encoding="iso-8859-1"?>
<!-- Generator: Adobe Illustrator 18.1.0, SVG Export Plug-In . SVG Version: 6.00 Build 0)  -->
<!DOCTYPE svg PUBLIC "-//W3C//DTD SVG 1.1//EN" "http://www.w3.org/Graphics/SVG/1.1/DTD/svg11.dtd">
<svg version="1.1" xmlns="http://www.w3.org/2000/svg" xmlns:xlink="http://www.w3.org/1999/xlink" x="0px" y="0px"
	 viewBox="0 0 512 535.044" style="enable-background:new 0 0 512 535.044;" xml:space="preserve">
<pattern  x="976.648" y="991.49" width="262.503" height="330.421" patternUnits="userSpaceOnUse" id="alberelli_2" viewBox="0 -330.42 262.503 330.421" style="overflow:visible;">
	<g>
		<polygon style="fill:none;" points="0,-330.42 262.503,-330.42 262.503,0 0,0 		"/>
		<polygon style="fill:#FFFFFF;" points="33.5,-257.136 44.926,-286.107 69,-263.256 56.351,-257.136 61.656,-248.975 
			49.414,-245.302 48.598,-256.727 		"/>
		<path style="fill:#FFFFFF;" d="M87.922-301.135c0.318-1.91,0-29.285,0-29.285l17.189,24.192l-4.775,1.273l4.775,9.868l-6.366,1.91
			L96.517-304L87.922-301.135z"/>
		<polygon style="fill:#FFFFFF;" points="101,-231.802 98.5,-263.802 129.5,-245.302 118.5,-239.302 129.5,-230.302 116.5,-223.302 
			113,-236.802 		"/>
		<polygon style="fill:#FFFFFF;" points="142.742,-279.354 146.621,-309.742 167.742,-286.682 160.845,-282.371 167.742,-272.026 
			156.966,-270.302 155.242,-281.94 		"/>
		<polygon style="fill:#FFFFFF;" points="75.653,-184.777 74.114,-212.882 96.137,-194.281 88.183,-190.704 96.517,-178.917 
			88.183,-176.342 83.902,-188.913 		"/>
		<polygon style="fill:#FFFFFF;" points="175.759,-230.57 158.058,-248.357 157.242,-222.67 164.357,-225.805 167.193,-213.251 
			173.871,-217.237 168.097,-227.573 		"/>
		<polygon style="fill:#FFFFFF;" points="165.5,-173.136 176.926,-202.107 201,-179.256 188.351,-173.136 193.656,-164.975 
			181.414,-161.302 180.598,-172.727 		"/>
		<path style="fill:#FFFFFF;" d="M219.922-217.135c0.318-1.91,0-29.285,0-29.285l17.189,24.192l-4.775,1.273l4.775,9.868
			l-6.366,1.91L228.517-220L219.922-217.135z"/>
		<polygon style="fill:#FFFFFF;" points="115.694,-140.99 113.194,-172.99 144.194,-154.49 133.194,-148.49 144.194,-139.49 
			131.194,-132.49 127.694,-145.99 		"/>
		<polygon style="fill:#FFFFFF;" points="228.517,-147.618 232.396,-178.006 253.517,-154.946 246.62,-150.636 253.517,-140.291 
			242.741,-138.567 241.017,-150.205 		"/>
		<polygon style="fill:#FFFFFF;" points="5.838,-184.777 4.299,-212.882 26.321,-194.281 18.367,-190.704 26.702,-178.917 
			18.367,-176.342 14.086,-188.913 		"/>
		<polygon style="fill:#FFFFFF;" points="64.492,-140.499 46.79,-158.286 45.974,-132.599 53.089,-135.735 55.925,-123.181 
			62.604,-127.166 56.83,-137.502 		"/>
		<path style="fill:#FFFFFF;" d="M82.422-77.833c0.318-1.91,0-29.285,0-29.285l17.189,24.192l-4.775,1.273l4.775,9.868l-6.366,1.91
			l-2.228-10.823L82.422-77.833z"/>
		<polygon style="fill:#FFFFFF;" points="95.5,-8.5 93,-40.5 124,-22 113,-16 124,-7 111,0 107.5,-13.5 		"/>
		<polygon style="fill:#FFFFFF;" points="137.242,-56.051 141.121,-86.439 162.242,-63.379 155.345,-59.069 162.242,-48.724 
			151.466,-47 149.742,-58.638 		"/>
		<polygon style="fill:#FFFFFF;" points="36.311,-41.769 34.773,-69.875 56.795,-51.274 48.841,-47.697 57.175,-35.91 
			48.841,-33.335 44.56,-45.906 		"/>
		<polygon style="fill:#FFFFFF;" points="210.259,-29.8 192.558,-47.587 191.742,-21.9 198.857,-25.035 201.693,-12.481 
			208.371,-16.467 202.597,-26.803 		"/>
		<polygon style="fill:#FFFFFF;" points="177.75,-93.981 189.176,-122.952 213.25,-100.102 200.601,-93.981 205.906,-85.82 
			193.664,-82.148 192.848,-93.573 		"/>
		<path style="fill:#FFFFFF;" d="M245.314-71.484c0.318-1.91,0-29.285,0-29.285l17.189,24.192l-4.775,1.273l4.775,9.868l-6.366,1.91
			l-2.228-10.823L245.314-71.484z"/>
		<polygon style="fill:#FFFFFF;" points="2.5,-111.202 0,-143.202 31,-124.702 20,-118.702 31,-109.702 18,-102.702 14.5,-116.202 
					"/>
		<polygon style="fill:#FFFFFF;" points="197.018,-275.439 200.897,-305.827 222.018,-282.766 215.121,-278.456 222.018,-268.111 
			211.242,-266.387 209.518,-278.025 		"/>
	</g>
</pattern>
<g id="_x23_paper-bag">
	<circle style="fill:#CE5959;" cx="256" cy="279.044" r="256"/>
	<pattern  id="SVGID_1_" xlink:href="#alberelli_2" patternTransform="matrix(1 0 0 1 78.9542 155.045)">
	</pattern>
	<circle style="opacity:0.3;fill:url(#SVGID_1_);" cx="256" cy="279.044" r="256"/>
	<g>
		<polygon style="fill:#CCA672;" points="156.081,122.323 296.459,71.479 380.235,80.988 380.235,103.406 292.804,152.615 
			153.006,146.784 		"/>
		<polygon style="fill:#B28C5F;" points="296.459,71.479 272.544,153.919 380.235,166.348 421.463,75.635 		"/>
		<polygon style="fill:#FFD99B;" points="156.081,122.323 231.066,117.202 294.013,125.824 277.631,488.819 112.946,465.539 		"/>
		<polygon style="fill:#EAC081;" points="294.013,125.824 421.463,75.635 402.879,397.511 277.631,488.819 		"/>
		<path style="fill:#EAC081;" d="M115.964,464.246l77.169-31.471c0,0,80.467,60.16,80.758,55.516
			C274.182,483.646,115.964,464.246,115.964,464.246z"/>
		<polygon style="fill:#F4C689;" points="117.257,459.504 159.937,128.842 225.897,122.806 194.928,428.464 		"/>
		<g>
			<path style="fill:#C1BDB9;" d="M310.594,120.202c-8.268-21.897-14.833-45.775-19.161-68.78
				c-1.665-8.847-3.134-19.043,0.52-28.067c4.121-10.181,13.619-16.283,20.861-19.609c3.372-1.548,7.831-3.247,12.455-2.628
				c4.729,0.633,9.231,3.593,13.766,9.048c14.527,17.483,18.705,41.752,22.062,61.253l5.998,25.626l-4.043,0.649
				c-0.261,0.805-1.426,0.718-1.564-0.117l-4.213-25.5c-3.45-20.037-7.359-42.746-21.223-59.431
				c-3.883-4.672-7.578-7.185-11.296-7.682c-3.637-0.483-7.424,0.979-10.321,2.309c-6.603,3.033-15.24,8.537-18.883,17.539
				c-3.26,8.051-1.937,17.206-0.303,25.893c4.286,22.782,10.635,46.005,18.822,67.69L310.594,120.202z"/>
		</g>
		<g>
			<path style="fill:#C1BDB9;" d="M197.897,106.838l-1.005,0.921c-0.827,0.757-2.154,0.132-2.087-0.987
				c0.755-12.631,0.224-27.808-0.713-39.984c-0.157-2.041-0.338-4.089-0.519-6.141c-1.024-11.607-2.084-23.609,1.147-35.05
				c3.745-13.262,15.819-26.73,30.867-25.519c9.019,0.714,17.83,6.979,22.993,16.348c4.782,8.679,6.16,18.635,6.877,27.23
				c1.071,12.827,0.916,30.821-0.46,43.624l-4.133,1.078c1.35-12.558,1.777-31.798,0.727-44.379
				c-0.683-8.187-1.979-17.64-6.409-25.68c-4.541-8.241-12.167-13.74-19.901-14.354c-12.958-1.012-23.501,10.931-26.827,22.707
				c-3.037,10.755-2.009,22.397-1.016,33.654c0.183,2.067,0.365,4.13,0.523,6.185C198.991,79.88,198.969,93.455,197.897,106.838z"/>
		</g>
		<path style="fill:#CE5959;" d="M367.825,253.208c6.805-1.112,13.687-2.248,14.204-2.38c0.576-0.147-7.074-6.907-14.429-13.269
			c6.985-0.949,14.313-1.958,14.845-2.085c1.026-0.246-26.341-27.934-26.341-27.934l-0.408,0.137c0,0-29.947,50.761-28.959,50.2
			c0.513-0.291,7.69-5.087,14.622-9.733c-7.917,12.362-16.044,25.18-15.491,24.882c0.498-0.268,7.212-4.482,13.936-8.714
			c-9.53,12.035-19.728,25.028-19.042,24.698c1.086-0.522,27.304-14.95,32.363-17.734c4.577-1.054,31.891-7.35,33.047-7.697
			C386.893,263.364,376.956,258.01,367.825,253.208z"/>
	</g>
</g>
<g id="Livello_1">
</g>
</svg>
