<?xml version="1.0" encoding="iso-8859-1"?>
<!-- Generator: Adobe Illustrator 18.1.0, SVG Export Plug-In . SVG Version: 6.00 Build 0)  -->
<!DOCTYPE svg PUBLIC "-//W3C//DTD SVG 1.1//EN" "http://www.w3.org/Graphics/SVG/1.1/DTD/svg11.dtd">
<svg version="1.1" xmlns="http://www.w3.org/2000/svg" xmlns:xlink="http://www.w3.org/1999/xlink" x="0px" y="0px"
	 viewBox="0 0 512 584.178" style="enable-background:new 0 0 512 584.178;" xml:space="preserve">
<pattern  x="976.648" y="1040.625" width="173.207" height="138.427" patternUnits="userSpaceOnUse" id="stelline" viewBox="0 -138.427 173.207 138.427" style="overflow:visible;">
	<g>
		<polygon style="fill:none;" points="0,-138.427 173.207,-138.427 173.207,0 0,0 		"/>
		<polygon style="fill:#FFFFFF;" points="11.862,-122.756 17.195,-138.427 24.529,-126.427 37.845,-126.756 28.529,-119.094 
			33.862,-107.442 21.268,-114.427 11.862,-103.094 11.862,-114.427 0,-120.761 		"/>
		<polygon style="fill:#FFFFFF;" points="40.58,-94.874 45.667,-103.345 49.415,-94.874 57.178,-92.991 51.556,-89.54 
			55.572,-82.952 45.934,-87.658 38.706,-82.952 40.045,-88.913 33.851,-93.148 		"/>
		<polygon style="fill:#FFFFFF;" points="55.244,-118.225 53.213,-126.134 59.564,-124.338 66.826,-130.8 65.529,-121.337 
			73.461,-118.83 64.233,-111.874 64.569,-106.246 59.008,-112.871 51.203,-113.269 		"/>
		<polygon style="fill:#FFFFFF;" points="83.201,-97.081 85.164,-102.848 87.863,-98.432 92.762,-98.553 89.334,-95.734 
			91.297,-91.446 86.663,-94.016 83.201,-89.846 83.201,-94.016 78.837,-96.347 		"/>
		<polygon style="fill:#FFFFFF;" points="103.694,-73.803 108.781,-82.274 112.529,-73.803 120.292,-71.92 114.67,-68.469 
			118.686,-61.881 109.048,-66.587 101.82,-61.881 103.159,-67.842 96.965,-72.077 		"/>
		<polygon style="fill:#FFFFFF;" points="116.011,-96.721 114.524,-102.51 119.173,-101.195 124.489,-105.926 123.54,-98.998 
			129.347,-97.163 122.591,-92.07 122.837,-87.95 118.766,-92.8 113.052,-93.092 		"/>
		<polygon style="fill:#FFFFFF;" points="26.025,-60.875 31.359,-76.547 38.692,-64.547 52.008,-64.875 42.692,-57.213 
			48.025,-45.561 35.431,-52.547 26.025,-41.213 26.025,-52.547 14.163,-58.88 		"/>
		<polygon style="fill:#FFFFFF;" points="54.743,-32.993 59.83,-41.464 63.578,-32.993 71.341,-31.111 65.719,-27.66 
			69.735,-21.071 60.097,-25.777 52.869,-21.071 54.208,-27.032 48.014,-31.268 		"/>
		<polygon style="fill:#FFFFFF;" points="69.408,-56.345 67.376,-64.253 73.727,-62.457 80.989,-68.92 79.692,-59.456 
			87.624,-56.949 78.396,-49.993 78.732,-44.365 73.171,-50.99 65.366,-51.388 		"/>
		<polygon style="fill:#FFFFFF;" points="97.365,-35.201 99.327,-40.967 102.026,-36.552 106.926,-36.672 103.498,-33.853 
			105.46,-29.565 100.826,-32.136 97.365,-27.965 97.365,-32.136 93,-34.466 		"/>
		<polygon style="fill:#FFFFFF;" points="117.857,-11.922 122.944,-20.393 126.692,-11.922 134.455,-10.04 128.833,-6.589 
			132.849,0 123.212,-4.706 115.983,0 117.322,-5.961 111.129,-10.197 		"/>
		<polygon style="fill:#FFFFFF;" points="130.174,-34.84 128.687,-40.63 133.336,-39.315 138.652,-44.046 137.703,-37.118 
			143.51,-35.282 136.754,-30.19 137,-26.07 132.929,-30.92 127.215,-31.211 		"/>
		<polygon style="fill:#FFFFFF;" points="147.225,-66.602 152.558,-82.274 159.891,-70.274 173.207,-70.602 163.891,-62.94 
			169.225,-51.288 156.63,-58.274 147.225,-46.94 147.225,-58.274 135.362,-64.607 		"/>
		<polygon style="fill:#FFFFFF;" points="149.35,-107.652 154.437,-116.123 158.185,-107.652 165.948,-105.77 160.326,-102.318 
			164.342,-95.73 154.704,-100.436 147.476,-95.73 148.815,-101.691 142.621,-105.926 		"/>
		<polygon style="fill:#FFFFFF;" points="101.991,-129.957 107.077,-138.427 110.825,-129.957 118.589,-128.074 112.967,-124.623 
			116.983,-118.035 107.345,-122.741 100.117,-118.035 101.456,-123.996 95.262,-128.231 		"/>
		<polygon style="fill:#FFFFFF;" points="9.361,-88.684 11.324,-94.451 14.022,-90.035 18.922,-90.156 15.494,-87.337 
			17.457,-83.049 12.822,-85.62 9.361,-81.449 9.361,-85.62 4.996,-87.95 		"/>
		<polygon style="fill:#FFFFFF;" points="83.201,-7.909 85.164,-13.676 87.863,-9.26 92.762,-9.381 89.334,-6.562 91.297,-2.274 
			86.663,-4.845 83.201,-0.674 83.201,-4.845 78.837,-7.175 		"/>
		<polygon style="fill:#FFFFFF;" points="161.65,-31.7 163.612,-37.466 166.311,-33.051 171.211,-33.171 167.783,-30.352 
			169.745,-26.064 165.111,-28.635 161.65,-24.465 161.65,-28.635 157.285,-30.965 		"/>
		<polygon style="fill:#FFFFFF;" points="151.687,-7.909 153.649,-13.676 156.348,-9.26 161.248,-9.381 157.82,-6.562 
			159.782,-2.274 155.148,-4.845 151.687,-0.674 151.687,-4.845 147.322,-7.175 		"/>
	</g>
</pattern>
<g id="_x23_champagne">
	<circle style="fill:#CE5959;" cx="256" cy="309.788" r="256"/>
	<pattern  id="SVGID_1_" xlink:href="#stelline" patternTransform="matrix(1 0 0 1 36.3315 99.2016)">
	</pattern>
	<circle style="opacity:0.2;fill:url(#SVGID_1_);" cx="256" cy="309.788" r="256"/>
	<g>
		<g>
			<path style="fill:#FFFFFF;" d="M111.559,332.893v9.321c30.214-5.265,53.821-50.48,53.821-105.485
				c0-20.887-3.406-40.361-9.283-56.774H55.207c-5.877,16.413-9.283,35.887-9.283,56.774c0,55.004,23.607,100.22,53.821,105.485
				v-9.321H111.559z"/>
			<path style="fill:#FFFFFF;" d="M111.559,465.491V342.214c-1.943,0.339-3.914,0.516-5.907,0.516s-3.964-0.177-5.907-0.516v123.345
				C103.689,465.288,107.641,465.265,111.559,465.491z"/>
			<path style="fill:#FFFFFF;" d="M111.559,342.214v-9.321H99.744v9.321c1.943,0.339,3.914,0.516,5.907,0.516
				S109.615,342.552,111.559,342.214z"/>
			<path style="fill:#FFFFFF;" d="M111.559,473.999H99.744v-8.441c-13.971,0.956-27.808,4.965-39.381,11.69
				c26.762,4.45,61.268,2.285,90.576,1.378c-11.022-8.065-24.949-12.304-39.381-13.136V473.999z"/>
			<path style="fill:#FFFFFF;" d="M111.559,473.999v-8.509c-3.917-0.226-7.87-0.202-11.814,0.068v8.441H111.559z"/>
		</g>
		<path style="fill:#BF352F;" d="M54.073,231.478c0,0-2.062,83.052,41.598,100.061c2.371,0.924,4.907,1.354,7.452,1.354
			c0,0,53.833,6.227,52.356-101.415H54.073z"/>
	</g>
	<g>
		<g>
			<g>
				<g>
					<path style="fill:#32585B;" d="M474.529,208.207c-1.466-35.967-52.835-49.872-52.835-49.872l-3.339-127.436l6.541-1.313
						c0,0,0,0-0.714-17.069c-0.714-17.069-67.12-16.494-67.485,0.582c-0.365,17.077-0.365,17.077-0.365,17.077l6.567,1.22
						l-0.73,127.465c0,0-51.077,14.637-51.807,50.62l4.378,323.236c0,0,4.378,22.566,25.538,27.445
						c21.16,4.879,90.461,4.284,111.519-0.897c21.057-5.181,24.973-27.806,24.973-27.806L474.529,208.207z"/>
				</g>
				<path style="fill:#FFFFFF;" d="M312.52,293.809c6.833,0.851,107.503,0,107.503,0l-4.378,131.284H314.65"/>
				<g>
					<path style="fill:#DAC242;" d="M419.127,30.899l6.68-1.313c0,0,0,0-0.73-17.069c-0.73-17.069-68.549-16.494-68.921,0.582
						c-0.373,17.077-0.373,17.077-0.373,17.077l6.707,1.22l0.391,7.884l56.414-2.066L419.127,30.899z"/>
				</g>
			</g>
			<polygon style="opacity:0.28;fill:#231F20;" points="362.881,39.28 362.881,45.422 418.709,45.422 418.05,37.213 			"/>
		</g>
		<g style="opacity:0.1;">
			<path style="fill:#FFFFFF;" d="M356.695,13.099c-0.365,17.077-0.365,17.077-0.365,17.077l6.567,1.22l-0.73,127.465
				c0,0-51.077,14.637-51.807,50.62l4.378,323.236c0,0,4.378,22.566,25.538,27.445c9.755,2.249,29.743,3.334,50.517,3.344V0.003
				C373.897,0.066,356.88,4.478,356.695,13.099z"/>
		</g>
	</g>
	<g>
		<g>
			<path style="fill:#FFFFFF;" d="M212.766,431.165l2.721,8.915c27.36-13.856,36.738-63.994,20.679-116.602
				c-6.098-19.977-15.041-37.608-25.454-51.591l-96.494,29.455c-0.829,17.414,1.598,37.034,7.697,57.011
				c16.059,52.608,51.838,88.961,82.272,85.176l-2.721-8.915L212.766,431.165z"/>
			<path style="fill:#FFFFFF;" d="M251.478,557.986L215.487,440.08c-1.76,0.891-3.593,1.636-5.499,2.218
				c-1.907,0.582-3.843,0.988-5.8,1.231L240.198,561.5C243.892,560.09,247.665,558.914,251.478,557.986z"/>
			<path style="fill:#FFFFFF;" d="M215.487,440.08l-2.721-8.915l-11.3,3.449l2.721,8.915c1.958-0.243,3.894-0.649,5.8-1.231
				C211.894,441.715,213.727,440.971,215.487,440.08z"/>
			<path style="fill:#FFFFFF;" d="M253.962,566.124l-11.3,3.449l-2.464-8.073c-13.083,4.993-25.147,12.867-34.252,22.678
				c26.895-3.557,59.266-15.702,87.033-25.126c-12.896-4.496-27.454-4.484-41.5-1.066L253.962,566.124z"/>
			<path style="fill:#FFFFFF;" d="M253.962,566.124l-2.484-8.138c-3.813,0.928-7.586,2.104-11.28,3.514l2.464,8.073L253.962,566.124
				z"/>
		</g>
		<path style="fill:#BF352F;" d="M128.177,350.951c0,0,22.275,80.036,68.999,83.557c2.537,0.191,5.089-0.138,7.522-0.881
			c0,0,53.305-9.761,20.467-112.282L128.177,350.951z"/>
	</g>
	<polygon style="fill:#BF352F;" points="421.33,144.469 362.35,127.116 362.168,158.861 421.693,158.335 	"/>
	<path style="fill:#BF352F;" d="M362.168,131.779l-45.71-23.699c-8.69-4.505-19.273,0.341-21.594,9.85
		c-1.428,5.853-2.784,12.555-3.544,19.235c-1.437,12.633,10.666,22.555,22.836,18.873l48.012-14.527V131.779z"/>
	<path style="opacity:0.25;fill:#231F20;" d="M299.773,155.014c0,0,1.656-10.61,7.031-14.86c4.44-3.51,10.25-4.125,15.5-3.25
		s29.082,8.207,29.082,8.207l-5.207,0.918l-6.875,9.125l-38.625,1.125l-0.125-2.125L299.773,155.014z"/>
	<path style="fill:#BF352F;" d="M362.168,148.377c0,0-49.536-16.648-55.947-5.388c-6.411,11.26-17.333,29.809-5.333,36.966
		c12,7.157,55.227-12.012,61.28-21.094C368.221,149.779,362.168,148.377,362.168,148.377z"/>
	<polygon style="fill:#BF352F;" points="355.783,161.076 276.221,237.779 304.221,251.779 362.168,165.112 	"/>
	<path style="opacity:0.25;fill:#231F20;" d="M316.607,233.254c1.333,0.421,12.972-18.454,12.972-18.454l21-50"/>
	<polygon style="fill:#BF352F;" points="366.271,128.27 350.578,164.871 296.736,290.445 334.221,281.753 377.579,131.597 	"/>
	<path style="opacity:0.15;fill:#FFFFFF;" d="M121.817,333.681c-0.626,2.783-0.611,5.665,0.044,8.441
		c3.332,14.119,15.112,59.017,33.649,75.657c22.123,19.859,37.378,29.199,48.678,25.75s-4.633-25.838-15.966-39.127
		c-11.333-13.29-50.667-74.814-53.333-94.718c0,0-11.203-3.333-13.53,6.095L121.817,333.681z"/>
	<path style="opacity:0.15;fill:#FFFFFF;" d="M60.363,189.779c0,0-13.729,9.136-13.939,33.295s7.538,66.062,13.939,80.082
		c6.401,14.02,17.853,30.253,34.524,34.655c16.671,4.402,8.38-4.699,4.857-11.366c-3.523-6.667-24.19-13.091-32.19-69.879
		S74.506,194.445,60.363,189.779z"/>
</g>
<g id="Livello_1">
</g>
</svg>
