<?xml version="1.0" encoding="iso-8859-1"?>
<!-- Generator: Adobe Illustrator 18.1.0, SVG Export Plug-In . SVG Version: 6.00 Build 0)  -->
<!DOCTYPE svg PUBLIC "-//W3C//DTD SVG 1.1//EN" "http://www.w3.org/Graphics/SVG/1.1/DTD/svg11.dtd">
<svg version="1.1" xmlns="http://www.w3.org/2000/svg" xmlns:xlink="http://www.w3.org/1999/xlink" x="0px" y="0px"
	 viewBox="0 0 512 512" style="enable-background:new 0 0 512 512;" xml:space="preserve">
<pattern  x="976.648" y="968.447" width="173.207" height="138.427" patternUnits="userSpaceOnUse" id="stelline" viewBox="0 -138.427 173.207 138.427" style="overflow:visible;">
	<g>
		<polygon style="fill:none;" points="0,-138.427 173.207,-138.427 173.207,0 0,0 		"/>
		<polygon style="fill:#FFFFFF;" points="11.862,-122.756 17.195,-138.427 24.529,-126.427 37.845,-126.756 28.529,-119.094 
			33.862,-107.442 21.268,-114.427 11.862,-103.094 11.862,-114.427 0,-120.761 		"/>
		<polygon style="fill:#FFFFFF;" points="40.58,-94.874 45.667,-103.345 49.415,-94.874 57.178,-92.991 51.556,-89.54 
			55.572,-82.952 45.934,-87.658 38.706,-82.952 40.045,-88.913 33.851,-93.148 		"/>
		<polygon style="fill:#FFFFFF;" points="55.244,-118.225 53.213,-126.134 59.564,-124.338 66.826,-130.8 65.529,-121.337 
			73.461,-118.83 64.233,-111.874 64.569,-106.246 59.008,-112.871 51.203,-113.269 		"/>
		<polygon style="fill:#FFFFFF;" points="83.201,-97.081 85.164,-102.848 87.863,-98.432 92.762,-98.553 89.334,-95.734 
			91.297,-91.446 86.663,-94.016 83.201,-89.846 83.201,-94.016 78.837,-96.347 		"/>
		<polygon style="fill:#FFFFFF;" points="103.694,-73.803 108.781,-82.274 112.529,-73.803 120.292,-71.92 114.67,-68.469 
			118.686,-61.881 109.048,-66.587 101.82,-61.881 103.159,-67.842 96.965,-72.077 		"/>
		<polygon style="fill:#FFFFFF;" points="116.011,-96.721 114.524,-102.51 119.173,-101.195 124.489,-105.926 123.54,-98.998 
			129.347,-97.163 122.591,-92.07 122.837,-87.95 118.766,-92.8 113.052,-93.092 		"/>
		<polygon style="fill:#FFFFFF;" points="26.025,-60.875 31.359,-76.547 38.692,-64.547 52.008,-64.875 42.692,-57.213 
			48.025,-45.561 35.431,-52.547 26.025,-41.213 26.025,-52.547 14.163,-58.88 		"/>
		<polygon style="fill:#FFFFFF;" points="54.743,-32.993 59.83,-41.464 63.578,-32.993 71.341,-31.111 65.719,-27.66 
			69.735,-21.071 60.097,-25.777 52.869,-21.071 54.208,-27.032 48.014,-31.268 		"/>
		<polygon style="fill:#FFFFFF;" points="69.408,-56.345 67.376,-64.253 73.727,-62.457 80.989,-68.92 79.692,-59.456 
			87.624,-56.949 78.396,-49.993 78.732,-44.365 73.171,-50.99 65.366,-51.388 		"/>
		<polygon style="fill:#FFFFFF;" points="97.365,-35.201 99.327,-40.967 102.026,-36.552 106.926,-36.672 103.498,-33.853 
			105.46,-29.565 100.826,-32.136 97.365,-27.965 97.365,-32.136 93,-34.466 		"/>
		<polygon style="fill:#FFFFFF;" points="117.857,-11.922 122.944,-20.393 126.692,-11.922 134.455,-10.04 128.833,-6.589 
			132.849,0 123.212,-4.706 115.983,0 117.322,-5.961 111.129,-10.197 		"/>
		<polygon style="fill:#FFFFFF;" points="130.174,-34.84 128.687,-40.63 133.336,-39.315 138.652,-44.046 137.703,-37.118 
			143.51,-35.282 136.754,-30.19 137,-26.07 132.929,-30.92 127.215,-31.211 		"/>
		<polygon style="fill:#FFFFFF;" points="147.225,-66.602 152.558,-82.274 159.891,-70.274 173.207,-70.602 163.891,-62.94 
			169.225,-51.288 156.63,-58.274 147.225,-46.94 147.225,-58.274 135.362,-64.607 		"/>
		<polygon style="fill:#FFFFFF;" points="149.35,-107.652 154.437,-116.123 158.185,-107.652 165.948,-105.77 160.326,-102.318 
			164.342,-95.73 154.704,-100.436 147.476,-95.73 148.815,-101.691 142.621,-105.926 		"/>
		<polygon style="fill:#FFFFFF;" points="101.991,-129.957 107.077,-138.427 110.825,-129.957 118.589,-128.074 112.967,-124.623 
			116.983,-118.035 107.345,-122.741 100.117,-118.035 101.456,-123.996 95.262,-128.231 		"/>
		<polygon style="fill:#FFFFFF;" points="9.361,-88.684 11.324,-94.451 14.022,-90.035 18.922,-90.156 15.494,-87.337 
			17.457,-83.049 12.822,-85.62 9.361,-81.449 9.361,-85.62 4.996,-87.95 		"/>
		<polygon style="fill:#FFFFFF;" points="83.201,-7.909 85.164,-13.676 87.863,-9.26 92.762,-9.381 89.334,-6.562 91.297,-2.274 
			86.663,-4.845 83.201,-0.674 83.201,-4.845 78.837,-7.175 		"/>
		<polygon style="fill:#FFFFFF;" points="161.65,-31.7 163.612,-37.466 166.311,-33.051 171.211,-33.171 167.783,-30.352 
			169.745,-26.064 165.111,-28.635 161.65,-24.465 161.65,-28.635 157.285,-30.965 		"/>
		<polygon style="fill:#FFFFFF;" points="151.687,-7.909 153.649,-13.676 156.348,-9.26 161.248,-9.381 157.82,-6.562 
			159.782,-2.274 155.148,-4.845 151.687,-0.674 151.687,-4.845 147.322,-7.175 		"/>
	</g>
</pattern>
<g id="_x23_angel">
	<g>
		<circle style="fill:#26424B;" cx="256" cy="256" r="256"/>
		<pattern  id="SVGID_1_" xlink:href="#stelline" patternTransform="matrix(1 0 0 1 -83.8671 81.414)">
		</pattern>
		<circle style="fill:url(#SVGID_1_);" cx="256" cy="256" r="256"/>
		<g>
			<path style="fill:#EDB81D;" d="M274.829,152.216c-0.298-0.932,0.192-1.912,0.644-2.78c1.344-2.583,2.486-5.345,2.66-8.252
				c0.174-2.907-0.751-5.997-2.965-7.888c-1.445-1.234-3.32-1.872-5.202-2.129c-4.331-0.59-9.201,1.056-11.345,4.864
				c-3.741-0.338-7.574,1.945-9.059,5.395c-1.485,3.45-0.508,7.803,2.308,10.288c-5.652,2.716-7.931,10.729-4.554,16.014
				c0.954,1.493,2.335,3.027,1.995,4.766c-0.159,0.812-0.68,1.497-1.173,2.161c-1.657,2.235-3.213,4.861-2.85,7.619
				c0.507,3.852,4.396,6.185,7.859,7.945c-2.417,1.849-5.113,4.392-4.481,7.37c0.47,2.218,2.625,3.599,4.59,4.73
				c2.397,1.38,4.794,2.759,7.191,4.139c-1.396,1.841-2.818,3.732-3.494,5.942s-0.462,4.838,1.128,6.514
				c1.89,1.991,4.985,2.06,7.729,1.992c-0.94,1.247-1.896,2.526-2.369,4.014c-0.473,1.488-0.381,3.252,0.631,4.441
				c0.937,1.103,2.473,1.513,3.92,1.534c3.17,0.046,6.424-1.721,7.686-4.63c1.262-2.909,0.085-6.788-2.787-8.13
				c3.122-3.814,3.058-9.871-0.143-13.618c3.319-3.514,5.135-8.404,4.914-13.233c-0.22-4.829-2.473-9.532-6.098-12.73
				c3.972-2.635,6.768-6.978,7.522-11.684c0.754-4.706-0.545-9.705-3.495-13.449C275.292,153.045,274.974,152.67,274.829,152.216z"
				/>
			<path style="fill:#FFFFFF;" d="M294.495,244.361c0,0,72.269-173.079,79.824-167.379s2.608,8.302,5.156,16.411
				c2.547,8.109,7.102,12.968,8.776,19.779c1.674,6.811-7.677,17.086-1.585,21.462c6.091,4.376,16.141,4.669,17.888,15.235
				c1.747,10.566-8.802,17.025-0.503,21.755c8.299,4.73,18.045,16.343,15.222,24.567c-2.824,8.224,2.226,32.64,4.632,36.964
				c2.407,4.324-0.88,20.555-6.727,20.296c-5.847-0.26,0.844,6.024-2.672,13.182c-9.845,20.039-110.075,21.639-110.075,21.639
				L294.495,244.361z"/>
			<path style="fill:#FFFFFF;" d="M339.599,239.721c0,0,120.819-143.464,126.319-135.762s0,8.702,0,17.202s2.889,14.5,2.444,21.5
				c-0.444,7-12.444,14-7.944,20s14,9.292,12.5,19.896s-13.5,13.604-7,20.604s12.318,21,7.159,28
				c-5.159,7-7.659,31.806-6.659,36.653s-7,19.347-12.5,17.347s-1,6-6.5,11.775c-15.398,16.167-111.5-12.346-111.5-12.346
				L339.599,239.721z"/>
			<path style="fill:#FFE2C5;" d="M342.95,247.785l26.919,16.904c0.92,0.578,2.11,0.486,2.93-0.227l20.668-17.951
				c0.294-0.255,0.522-0.573,0.668-0.934c0.905-2.243,4.349-10.594,4.783-8.885c0.184,0.725,0.233,1.995,0.22,3.311
				c-0.018,1.956,2.143,3.151,3.793,2.099l4.09-2.608c8.593-4.584,7.192,2.71,7.292,2.697c2.493-0.325,0.996,6.024-1.096,7.419
				c-3.859,2.575-9.341,5.857-11.8,5.55l-2.819-0.352c-0.746-0.093-1.494,0.159-2.032,0.685l-19.051,18.646
				c-0.353,0.346-0.797,0.578-1.284,0.664c-1.887,0.336-6.814,1.057-8.815-0.143c-2.155-1.293-22.379-16.693-27.925-20.922
				c-0.841-0.641-1.174-1.743-0.836-2.745l0.643-1.908C339.809,247.574,341.599,246.936,342.95,247.785z"/>
			<path style="fill:#FFE2C5;" d="M330.272,138.22c-36.719-27.532-89.524,7.307-74.406,52.569
				c12.875,38.546,70.707,44.68,85.692,3.59c15.226,30.09,37.319-39.748,7.231-23.948
				C353.242,156.341,339.915,145.45,330.272,138.22z"/>
			<path style="opacity:0.04;fill:#231F20;" d="M278.465,182.557c0,0,0.662,5.104,4.557,7.104s9.396,8.736,7.896,13.118
				s-1.836,18.315-3.412,17.826s-44.386-17.444-30.987-62.444s29.022-28.33,30.987-25
				C289.47,136.491,289.012,174.453,278.465,182.557z"/>
			<path style="fill:#EDB81D;" d="M364.57,179.208c-9,0.027-16.479,10.016-13.971,18.66c-2.499-3.594-8.228-4.34-11.564-1.506
				c-3.336,2.834-3.525,8.609-0.383,11.655c-4.113,4.529,0.355,13.318,6.438,12.664c-2.101,2.796-4.271,5.758-4.745,9.224
				c-0.473,3.465,1.434,7.523,4.874,8.152c3.208,0.587,6.302-2.091,7.278-5.202c0.975-3.112,0.346-6.482-0.45-9.644
				c4.841-3.51,7.668-9.624,7.206-15.586c5.549,0.599,11.333-1.849,14.766-6.251c3.433-4.401,4.399-10.607,2.466-15.843
				c9.961-5.032,12.179-19.107,7.771-29.36c-1.733-4.03-4.408-7.851-8.295-9.885s-9.13-1.856-12.231,1.247
				c9.186-13.85,3.71-35.138-11.019-42.836c-4.032-2.108-9.698-2.946-12.565,0.587c-2.972-5.561-7.818-10.402-13.91-12.028
				c-6.092-1.626-13.385,0.64-16.451,6.15c-6.656-4.659-14.593-8.313-22.662-7.362c-8.068,0.951-15.785,7.912-15.168,16.013
				c-4.203-3.204-10.651-3.001-14.644,0.462c-3.993,3.462-5.108,9.816-2.533,14.431c0.74,1.327,1.767,2.58,1.915,4.092
				c0.106,1.079-0.257,2.141-0.447,3.209c-1.131,6.338,4.623,12.645,11.046,13.082c6.423,0.437,12.544-4.143,15.016-10.088
				c10.207,6.636,24.76,5.637,33.964-2.332c0.127,11.725,12.862,21.529,24.229,18.654c-2.441,2.077-3.409,5.719-2.32,8.734
				c1.089,3.014,4.161,5.198,7.366,5.235c-4.428,2.222-6.743,7.936-5.11,12.613c1.373,2.259,5.112,1.722,6.731-0.368
				c1.619-2.09,1.696-4.954,1.614-7.595c2.899,1.476,6.74,0.788,8.947-1.601C358.183,171.482,360.714,176.154,364.57,179.208z"/>
			<path style="fill:#FFE2C5;" d="M327.418,349.122c0,0,8.5,71.042,8.5,74.594c0,3.552,10,51.506,10,53.874c0,0,1,20.721,0,26.049
				c-1,5.328,5.5,3.552,6.5,0s6.859-18.353,7.179-24.273s-2.179-8.88-4.679-10.656s-4-40.257-9-47.954
				c0,0-2.793-72.226-2.396-74.594C343.918,343.793,327.418,349.122,327.418,349.122z"/>
			<path style="fill:#FFE2C5;" d="M303.711,346.511c0,0,8.5,71.042,8.5,74.594c0,3.552,10,51.506,10,53.874c0,0,1,20.721,0,26.049
				c-1,5.328,5.5,3.552,6.5,0c1-3.552,6.859-18.353,7.179-24.273s-2.179-8.88-4.679-10.656s-4-40.257-9-47.954
				c0,0-2.793-72.226-2.396-74.594C320.211,341.182,303.711,346.511,303.711,346.511z"/>
			<path style="fill:#A1BBC6;" d="M295.918,235.4c0,0,9-9.261,41-2c0,0-4.797,8.792-20,8.792
				C316.918,242.192,297.251,243.806,295.918,235.4z"/>
			<path style="fill:#FFE2C5;" d="M304.795,216.901c-0.228,5.167-3.08,25.291-3.08,25.291s17.001,0,19.71-1.886
				c2.709-1.886-2.709-32.029-2.709-32.029L304.795,216.901z"/>
			<path style="fill:#CDDFE8;" d="M303.711,239.328c0,0-7.793-6.605-8.793-2.636s-3.5,33.469,0,46.469s4.349,19.173,4.349,19.173
				h32.651c0,0,15-57.694,5-68.933C336.918,233.4,323.339,244.661,303.711,239.328z"/>
			<path style="fill:#CDDFE8;" d="M299.267,302.334c0,0-14.349,76.792-11.349,92.364s11.349,6.813,11.349,6.813
				s5.267,1.99,8.959,2.455c3.692,0.465,16.616,0,16.616,0s22.132,2.281,24.076,0.207c9.849-10.51,11.334-15.314,9.667-24.073
				c-1.667-8.759-16.178-71.47-25.673-80.504C323.418,290.562,299.267,302.334,299.267,302.334z"/>
			<path style="fill:#FFE2C5;" d="M294.495,239.238l-28.577,22.923l-35-22.923c0,0,2.5-13.077,0-11.577s-3,5.634-3,5.634
				s-14.691-11.907-17.5-8.658c-1.75,2.024-8.5-2.078-6.5,6.524c1.044,4.49,19,12.687,21.5,11.843
				c2.5-0.843,40.5,31.657,40.5,31.657l28.577-28.5V239.238z"/>
			<path style="fill:#FFFFFF;" d="M278.465,203.411c0,0,40,0,46.5-8C324.965,195.411,315.918,233.295,278.465,203.411z"/>
			<circle style="fill:#540508;" cx="313.043" cy="169.286" r="2.578"/>
			<circle style="fill:#540508;" cx="273.366" cy="167.713" r="2.698"/>
		</g>
		<g>
			<path style="fill:#F9CC07;" d="M0,54.05c0,0,0.719,0.231,2.141,0.433c1.406,0.212,3.469,0.522,6.094,0.917
				c5.236,0.821,12.681,2.209,21.406,4.572c4.351,1.221,9.041,2.599,13.9,4.34c4.863,1.721,9.931,3.682,15.045,5.985
				c5.142,2.232,10.297,4.872,15.46,7.641c5.109,2.88,10.242,5.879,15.149,9.22c1.229,0.832,2.478,1.626,3.685,2.484l3.597,2.593
				c2.42,1.681,4.693,3.552,6.997,5.324c4.557,3.618,8.876,7.37,12.924,11.13c4.023,3.789,7.823,7.531,11.239,11.261
				c0.864,0.92,1.716,1.828,2.555,2.721c0.805,0.927,1.598,1.84,2.378,2.737c1.544,1.809,3.084,3.503,4.471,5.215
				c2.725,3.47,5.336,6.531,7.399,9.462c2.101,2.897,4.015,5.343,5.41,7.506c2.874,4.245,4.517,6.67,4.517,6.67l15.785-11.452
				c0,0-2.013-2.412-5.535-6.632c-1.713-2.14-4.024-4.565-6.569-7.414c-2.504-2.882-5.623-5.889-8.882-9.265
				c-1.655-1.666-3.477-3.313-5.307-5.062c-0.922-0.866-1.86-1.747-2.812-2.642c-0.986-0.86-1.987-1.732-3.001-2.617
				c-4.013-3.578-8.435-7.138-13.078-10.702c-4.67-3.535-9.611-7.022-14.772-10.334c-2.607-1.619-5.176-3.325-7.887-4.835
				l-4.026-2.327c-1.348-0.767-2.738-1.468-4.104-2.204c-5.456-2.959-11.102-5.541-16.675-7.978
				c-5.628-2.328-11.198-4.503-16.703-6.262c-5.477-1.831-10.855-3.312-15.977-4.564c-5.118-1.271-10.017-2.19-14.532-2.979
				c-9.055-1.498-16.655-2.134-21.966-2.428c-2.654-0.13-4.739-0.232-6.16-0.302C0.751,54.209,0,54.05,0,54.05z"/>
			<path style="fill:#F9CC07;" d="M129.416,154.262c32.105,6.42,37.31,11.624,43.73,43.73c6.42-32.105,11.624-37.31,43.73-43.73
				c-32.105-6.42-37.31-11.624-43.73-43.73C166.726,142.637,161.521,147.842,129.416,154.262z"/>
			<path style="fill:#F9E27D;" d="M137.12,168.309c17.532,3.506,20.374,6.348,23.88,23.88c3.506-17.532,6.348-20.374,23.88-23.88
				c-17.532-3.506-20.374-6.348-23.88-23.88C157.494,161.961,154.652,164.803,137.12,168.309z"/>
		</g>
	</g>
</g>
<g id="Livello_1">
</g>
</svg>
