<?xml version="1.0" encoding="iso-8859-1"?>
<!-- Generator: Adobe Illustrator 18.1.0, SVG Export Plug-In . SVG Version: 6.00 Build 0)  -->
<!DOCTYPE svg PUBLIC "-//W3C//DTD SVG 1.1//EN" "http://www.w3.org/Graphics/SVG/1.1/DTD/svg11.dtd">
<svg version="1.1" xmlns="http://www.w3.org/2000/svg" xmlns:xlink="http://www.w3.org/1999/xlink" x="0px" y="0px"
	 viewBox="0 0 596.44 580.415" style="enable-background:new 0 0 596.44 580.415;" xml:space="preserve">
<g id="_x23_cookies">
	<g>
		<circle style="fill:#BF352F;" cx="298.909" cy="324.415" r="256"/>
		<g>
			<path style="fill:#996402;" d="M506.663,572.639c-4.204,0-8.371-0.55-12.386-1.634c-13.557-3.662-24.004-12.14-32.397-18.953
				l-69.332-56.272c-2.166-1.758-4.39-3.578-6.613-5.484c-4.778,1.151-9.595,2.021-14.472,2.86l-88.003,15.132
				c-6.358,1.094-14.272,2.454-22.398,2.454c-5.431,0-10.38-0.584-15.129-1.785c-18.205-4.605-31.725-19.472-32.88-36.155
				l-0.107-1.551l0.171-1.545c3.586-32.323,33.942-51.748,61.154-59.149c19.813-5.388,24.73-8.072,43.026-18.057l1.94-1.059
				c21.067-11.492,23.595-18.036,23.887-19.231c0.141-0.575-0.458-1.632-0.985-2.417c-9.913-14.774-16.701-19.885-27.93-21.033
				c-33.903-3.465-56.575-19.504-60.648-42.902c-2.205-12.67,1.604-25.581,10.726-36.355c7.538-8.904,18.394-15.729,29.783-18.725
				c6.603-1.737,13.616-2.581,21.44-2.581c9.142,0,17.939,1.141,26.447,2.245c2.576,0.334,5.145,0.668,7.704,0.964
				c5.055,0.585,9.424,0.869,13.353,0.869c1.548,0,3.032-0.044,4.454-0.133c-6.015-11.274-9.676-24.109-10.484-37.411
				c-1.384-22.737,5.669-45.135,19.35-61.451c16.609-19.81,50.306-39.864,82.572-39.864c5.51,0,10.788,0.611,15.729,1.818
				c19.835,0.109,39.128,9.95,54.363,27.74c12.619,14.734,21.975,34.434,25.671,54.049c3.943,20.924-0.87,43.908-13.207,63.057
				c-7.215,11.2-16.689,20.6-27.45,27.486c5.221,3.386,11.007,6.038,15.883,8.078c2.38,0.996,4.786,1.964,7.198,2.934
				c13.685,5.506,29.196,11.747,41.584,23.73c8.466,8.188,14.591,19.453,16.806,30.908c2.679,13.86-0.319,26.983-8.443,36.951
				c-6.042,7.413-17.379,16.251-37.077,16.251c-14.196,0-27.853-4.636-36.809-8.524c-4.067-1.766-7.331-2.589-10.273-2.589
				c-5.002,0-10.591,2.382-20.487,7.388c-0.793,0.401-1.324,0.739-1.661,0.982c0.383,4.016,5.512,13.675,8.657,19.597
				c1.058,1.993,2.129,4.01,3.181,6.045c5.241,10.141,9.199,15.612,13.39,21.403c4.807,6.642,9.778,13.51,15.368,25.745
				c2.221,4.86,5.246,9.908,8.448,15.253c9.978,16.654,22.397,37.381,12.328,61.126l-0.607,1.431l-0.852,1.3
				c-7.011,10.686-19.715,17.066-33.982,17.066C506.664,572.639,506.664,572.639,506.663,572.639z"/>
			<path style="fill:#E2AD69;" d="M505.625,483.64c-9.444-20.668-16.325-23.046-28.393-46.396
				c-10.704-20.712-23.435-39.438-2.631-49.961c17.202-8.701,27.75-12.908,45.432-5.229c17.683,7.678,41.445,12.147,53.624-2.796
				c10.435-12.803,4.89-33.054-6.983-44.538c-11.873-11.483-28.207-16.769-43.444-23.147c-15.237-6.377-30.893-15.179-37.828-30.17
				c34.48-8.436,58.872-46.299,52.298-81.182c-6.22-33.013-31.864-69.028-65.21-67.683c-26.375-7.865-65.065,10.536-82.925,31.837
				c-22.807,27.201-20.072,72.157,5.865,96.392c-13.386,9.677-31.346,9.689-47.754,7.792c-16.408-1.898-33.239-5.284-49.214-1.081
				c-15.974,4.202-30.723,19.146-27.89,35.42c3.306,18.991,26.215,26.726,45.392,28.686c19.177,1.96,29.772,12.582,40.513,28.59
				c12.99,19.36-8.505,35.262-28.973,46.427c-20.467,11.164-26.206,14.501-48.703,20.62c-22.497,6.118-45.954,21.218-48.524,44.391
				c0.705,10.182,9.994,18.104,19.888,20.607c9.895,2.503,20.308,0.783,30.368-0.947c29.334-5.043,58.669-10.088,88.004-15.132
				c7.334-1.261,14.902-2.642,21.898-5.133c4.063,4.057,8.57,7.777,12.994,11.367c23.111,18.758,46.222,37.515,69.333,56.272
				c7.924,6.432,16.164,13.029,26.017,15.69c9.853,2.661,21.831,0.3,27.429-8.233C535.311,524.637,515.315,504.845,505.625,483.64z"
				/>
			<circle style="fill:#FFFFFF;" cx="429.788" cy="199.887" r="10.958"/>
			<circle style="fill:#FFFFFF;" cx="484.746" cy="216.233" r="10.347"/>
			<path style="fill:#FFFFFF;" d="M464.425,246.709c-2.475,7.444-11.638,9.87-18.539,7.759c-4.006-1.226-7.547-3.666-10.527-6.569
				c-2.437-2.374-8.197-7.753-7.47-11.557c1.323-6.925-9.292-9.965-10.628-2.978c-1.466,7.673,2.755,13.918,7.599,19.496
				c4.793,5.52,10.991,10.107,18.048,12.236c12.918,3.897,27.77-2.254,32.144-15.409
				C477.295,242.942,466.662,239.981,464.425,246.709z"/>
			<path style="fill:#FFFFFF;" d="M390.864,279.009c0.051-7.094-10.988-7.17-11.04-0.046c-0.151,20.906-6.447,43.61-26.693,53.41
				c-6.406,3.101-0.966,12.706,5.409,9.621C382.301,330.492,390.686,303.682,390.864,279.009z"/>
			<path style="fill:#FFFFFF;" d="M482.381,298.846c-6.82,1.076-13.473,7.059-17.896,12.073
				c-4.882,5.535-8.571,11.885-11.084,18.819c-5.021,13.854-4.357,29.237,1.962,42.527c3.055,6.427,12.659,0.983,9.62-5.409
				c-4.903-10.312-4.989-22.207-1.375-32.936c1.709-5.073,4.337-9.95,7.725-14.105c3.301-4.048,8.471-9.442,13.84-10.29
				C492.181,308.419,489.354,297.745,482.381,298.846z"/>
			<path style="fill:#FFFFFF;" d="M465.488,438.08c-9.92,5.182-21.2,6.685-32.163,8.14c-12.138,1.611-24.819,2.747-36.958,0.559
				c-23.758-4.282-41.721-21.41-58.458-37.565c-5.111-4.933-13.053,2.734-7.935,7.674c18.502,17.859,38.696,36.588,65.083,40.802
				c13.127,2.097,26.255,1.128,39.367-0.568c12.553-1.624,25.122-3.492,36.474-9.421
				C477.206,444.405,471.783,434.791,465.488,438.08z"/>
		</g>
		<g>
			<path style="fill:#996402;" d="M209.337,208.239c-9.241-0.001-18.096-3.543-24.936-9.974l-11.027-10.37
				c-0.889-0.835-2.052-1.296-3.275-1.296c-0.82,0-1.601,0.204-2.321,0.606l-13.217,7.378c-5.507,3.074-11.675,4.699-17.837,4.699
				c-11.068,0-21.827-5.242-28.781-14.022c-6.926-8.745-9.419-20.048-6.84-31.011l3.468-14.735c0.479-2.034-0.406-4.12-2.2-5.191
				l-12.998-7.756c-12.637-7.542-19.367-21.3-17.565-35.905c1.802-14.605,11.675-26.314,25.767-30.558l14.494-4.365
				c2-0.602,3.364-2.41,3.394-4.499l0.219-15.136c0.147-10.146,4.276-19.476,11.626-26.27C134.17,3.492,143.082,0,152.407,0
				c9.241,0,18.097,3.542,24.937,9.974l11.027,10.37c0.889,0.836,2.052,1.296,3.274,1.296c0.82,0,1.601-0.204,2.321-0.606
				l13.217-7.378c5.507-3.074,11.675-4.699,17.837-4.699c11.068,0,21.826,5.242,28.78,14.022c6.927,8.745,9.42,20.048,6.841,31.011
				l-3.468,14.735c-0.478,2.033,0.406,4.119,2.2,5.19l12.998,7.757c12.637,7.542,19.367,21.3,17.565,35.906
				c-1.802,14.605-11.675,26.314-25.767,30.557l-14.492,4.364c-2.001,0.602-3.366,2.411-3.396,4.501l-0.219,15.135
				c-0.147,10.146-4.275,19.475-11.626,26.27c-6.859,6.341-15.771,9.833-25.095,9.833
				C209.339,208.239,209.338,208.239,209.337,208.239z"/>
			<path style="fill:#E2AD69;" d="M264.216,95.336l-12.998-7.757c-7.741-4.62-11.599-13.722-9.534-22.498l3.467-14.734
				c4.118-17.501-14.515-31.561-30.214-22.797l-13.217,7.378c-7.872,4.394-17.683,3.183-24.251-2.993l-11.027-10.37
				c-13.098-12.317-34.59-3.209-34.85,14.768l-0.219,15.135c-0.13,9.014-6.084,16.906-14.717,19.505l-14.494,4.365
				c-17.216,5.184-20.075,28.351-4.636,37.565l12.998,7.757c7.741,4.62,11.599,13.722,9.534,22.498l-3.467,14.734
				c-4.118,17.502,14.515,31.561,30.214,22.797l13.217-7.378c7.872-4.395,17.683-3.184,24.25,2.992l11.027,10.37
				c13.098,12.317,34.59,3.209,34.85-14.768l0.219-15.135c0.13-9.014,6.085-16.906,14.717-19.505l14.494-4.365
				C276.797,127.716,279.656,104.55,264.216,95.336z"/>
			<path style="fill:#FFFFFF;" d="M241.088,108.985c-2.296-0.182-4.592-0.377-6.886-0.579c2.391-2.339,4.877-4.579,7.481-6.696
				c2.002-1.627,1.691-5.059,0-6.75c-1.979-1.979-4.744-1.632-6.75,0c-4.609,3.747-8.88,7.846-12.82,12.288
				c-9.434-0.976-18.849-2.119-28.241-3.444c7.296-10.172,13.122-21.19,18.391-32.527c0.686,0.5,1.542,0.833,2.577,0.899
				c4.502,0.289,8.643,1.691,12.495,4.013c5.275,3.18,10.08-5.072,4.818-8.243c-4.945-2.981-10.337-4.659-16.04-5.199
				c1.147-2.605,2.279-5.22,3.403-7.839c2.047-4.772-3.655-9.015-6.867-6.636c-0.118-0.551-0.235-1.103-0.368-1.652
				c-1.436-5.971-10.644-3.442-9.206,2.538c1.292,5.371,1.711,10.724,1.389,16.236c-0.004,0.063,0,0.12-0.002,0.181
				c-5.903,12.895-12.506,25.459-21.278,36.638c-0.854-0.133-1.708-0.262-2.562-0.398c-3.908-9.515-7.663-19.093-11.268-28.729
				c3.814-6.261,7.628-12.521,11.442-18.782c3.205-5.261-5.048-10.063-8.243-4.818c-2.466,4.048-4.933,8.097-7.399,12.146
				c-0.235-0.655-0.48-1.307-0.713-1.963c-1.893-5.318-9.928-3.592-9.481,1.297l-5.066-3.31c-5.158-3.37-9.947,4.892-4.818,8.243
				c4.867,3.179,9.734,6.359,14.6,9.539c0.167,0.11,0.334,0.205,0.501,0.291c3.028,8.119,6.153,16.201,9.397,24.236
				c-6.61-1.154-13.206-2.385-19.784-3.709c-4.159-0.838-8.469-1.56-12.654-2.639c0.114-5.11,0.991-10.069,2.666-15.042
				c1.965-5.836-7.252-8.34-9.206-2.538c-1.553,4.614-2.515,9.362-2.872,14.172c-1.346-0.682-2.654-1.447-3.902-2.333
				c-5.018-3.564-9.792,4.711-4.818,8.243c1.437,1.021,2.939,1.906,4.488,2.686c-2.52,1.701-5.041,3.402-7.561,5.103
				c-5.065,3.419-0.293,11.693,4.818,8.243c4.348-2.935,8.696-5.869,13.043-8.803c0.483-0.084,0.946-0.236,1.369-0.453
				c3.506,0.865,7.068,1.546,10.563,2.258c9.338,1.9,18.713,3.619,28.114,5.173c0.274,0.658,0.538,1.32,0.814,1.978
				c-8.546,9.65-17.559,18.944-26.554,28.217c-3.719-3.051-7.438-6.102-11.157-9.153c-1.992-1.633-4.802-1.949-6.75,0
				c-1.685,1.686-2.003,5.107,0,6.751c3.76,3.084,7.519,6.169,11.279,9.253c-2.409,2.497-4.812,4.997-7.192,7.51
				c-4.224,4.459,2.515,11.222,6.75,6.75c1.01-1.066,2.03-2.128,3.047-3.191c0.151,1.764,0.465,3.522,0.957,5.268
				c1.663,5.904,10.876,3.395,9.206-2.538c-0.886-3.146-1.004-6.244-0.247-9.432c0.294-1.237,0.127-2.324-0.326-3.222
				c8.484-8.723,17.012-17.453,25.135-26.488c3.851,8.903,7.849,17.741,11.964,26.526c-3.526,4.089-6.759,8.422-9.665,12.977
				c-3.314,5.195,4.945,9.988,8.243,4.818c1.838-2.882,3.826-5.634,5.936-8.294c0.849,1.763,1.689,3.53,2.549,5.288
				c2.7,5.518,10.936,0.684,8.243-4.818c-0.859-1.756-1.696-3.522-2.542-5.284c4.826-0.029,9.641,0.185,14.457,0.648
				c6.112,0.587,6.071-8.964,0-9.547c-6.307-0.606-12.612-0.787-18.944-0.55c-4.596-9.827-9.033-19.726-13.292-29.7
				c0.473-0.557,0.939-1.118,1.409-1.678c11.322,1.674,22.68,3.104,34.063,4.293c-0.391,4.654-0.782,9.309-1.173,13.963
				c-0.514,6.122,9.035,6.088,9.547,0l1.095-13.037c3.464,0.32,6.93,0.625,10.399,0.9
				C247.213,119.017,247.181,109.468,241.088,108.985z"/>
		</g>
		<g>
			<path style="fill:#996402;" d="M101.449,448.118c-79.087-57.225-79.561-57.586-79.718-57.705l-0.725-0.551l-0.093-0.093
				c-11.457-9.103-18.726-22.076-20.503-36.635c-3.701-30.324,17.956-58.004,48.276-61.704c13.725-1.675,27.491,1.806,38.76,9.801
				c1.887,1.339,3.677,2.785,5.365,4.328c1.267-1.904,2.657-3.738,4.166-5.491c9.014-10.471,21.536-17.16,35.26-18.835
				c30.323-3.701,58.004,17.959,61.704,48.282c1.78,14.585-2.174,28.952-11.14,40.555l-0.044,0.072l-0.545,0.685
				c-0.145,0.18-0.485,0.603-63.053,75.101l-7.838,9.332L101.449,448.118z"/>
			<path style="fill:#E2AD69;" d="M133.824,294.238c-21.761,2.656-37.634,21.397-37.163,42.865
				c-4.706-20.951-24.62-35.325-46.387-32.669c-23.186,2.83-39.689,23.92-36.859,47.113c1.431,11.723,7.536,21.74,16.216,28.408
				l0.03,0.03c0.507,0.386,79.468,57.519,79.468,57.519c5.157-6.14,62.48-74.395,62.88-74.891l0.022-0.036
				c6.821-8.56,10.338-19.751,8.908-31.474C178.108,307.911,157.017,291.408,133.824,294.238z"/>
			<path style="fill:#FFFFFF;" d="M153.149,320.814c-9.62-8.849-23.346-7.896-33.954-1.459c-5.983,3.631-11.006,8.884-15.448,14.24
				c-2.896,3.491-5.439,7.292-7.126,11.45c-0.271-0.22-0.545-0.437-0.811-0.664c-0.418-0.357-0.904-0.613-1.424-0.784
				c-4.84-3.279-8.623-7.069-12.733-11.301c-4.069-4.19-9.109-7.106-14.816-8.419c-11.068-2.546-22.889,2.64-28.289,12.661
				c-2.857,5.301-3.525,12.061-2.942,17.974c0.636,6.448,3.78,11.896,8.093,16.599c8.514,9.284,19.105,16.028,29.59,22.836
				c6.155,3.997,12.204,8.148,18.223,12.347c5.275,3.68,11.738,7.339,14.745,13.278c0.334,0.66,0.758,1.187,1.237,1.601
				c1.639,4.813,9.951,3.354,9.489-2.472c-0.508-6.409,2.717-11.151,7.294-15.289c4.796-4.336,9.218-8.78,13.14-13.94
				c7.913-10.408,16.223-21.607,21.433-33.666C163.999,343.893,163.112,329.979,153.149,320.814z M145.269,360.609
				c-5.891,9.894-12.582,19.9-20.245,28.517c-4.02,4.521-9.237,7.963-12.852,12.845c-1.273,1.719-2.294,3.554-3.079,5.468
				c-5.165-5.137-11.717-9.049-17.642-13.128c-9.293-6.396-19.039-12.174-28.111-18.883c-8.314-6.149-18.386-13.77-18.095-25.121
				c0.12-4.709,1.208-9.442,4.684-12.819c3.046-2.959,7.308-4.601,11.548-4.468c5.265,0.165,10.075,2.765,13.618,6.554
				c4.509,4.822,8.849,9.016,14.457,12.576c0.244,0.155,0.497,0.289,0.753,0.408c1.941,1.587,4.035,2.941,6.233,4.157
				c0.259,0.143,0.534,0.246,0.816,0.32c2.712,1.298,6.571,0.36,7.083-3.491c0.692-5.205,3.444-9.491,6.709-13.488
				c3.322-4.068,6.97-7.949,11.232-11.045c8.206-5.96,19.81-7.423,26.473,1.59C155.939,340.191,150.594,351.666,145.269,360.609z"/>
		</g>
	</g>
</g>
<g id="Livello_1">
</g>
</svg>
