<?xml version="1.0" encoding="iso-8859-1"?>
<!-- Generator: Adobe Illustrator 18.1.0, SVG Export Plug-In . SVG Version: 6.00 Build 0)  -->
<!DOCTYPE svg PUBLIC "-//W3C//DTD SVG 1.1//EN" "http://www.w3.org/Graphics/SVG/1.1/DTD/svg11.dtd">
<svg version="1.1" xmlns="http://www.w3.org/2000/svg" xmlns:xlink="http://www.w3.org/1999/xlink" x="0px" y="0px"
	 viewBox="0 0 576.528 512" style="enable-background:new 0 0 576.528 512;" xml:space="preserve">
<g id="_x23_santa-moon">
	<circle style="fill:#346066;" cx="292.844" cy="256" r="256"/>
	<g>
		<path style="fill:#346066;" d="M133.332,318.013l27.141-19.235l3.105,5.111l6.198-13.53l29.999,32.344l52.497-131.139
			c0,0,24.107,68.24,37.553,95.81c1.332,2.731,2.798,4.841,4.368,6.449l12.363-25.577c0,0,4.965,11.641,11.473,26.041
			c9.425-4.394,18.53-10.553,24.239-7.257c11.999,6.926,27.979,44.379,36.489,45.834s38.508-113.723,38.508-113.723l36.041,76.064
			c1.285-3.969,2.038-6.363,2.038-6.363l6.612,11.556l43.31-118.633c0,0,18.493,15.842,28.993,37.376
			c2.858,5.861,8.827,18.632,14.581,36.411C548.595,114.373,434.079,0,292.844,0c-141.385,0-256,114.615-256,256
			c0,15.25,1.34,30.187,3.897,44.705l49.538-68.261L133.332,318.013z"/>
		<path style="fill:#346066;" d="M232.161,342.031l27.052,24.157l34.979-72.366c-1.57-1.607-3.037-3.717-4.368-6.449
			c-13.445-27.57-37.553-95.81-37.553-95.81l-52.497,131.139l-29.999-32.344l-6.198,13.53l46.942,77.27L232.161,342.031z"/>
		<path style="opacity:0.25;fill:#231F20;" d="M232.161,342.031l27.052,24.157l34.979-72.366c-1.57-1.607-3.037-3.717-4.368-6.449
			c-13.445-27.57-37.553-95.81-37.553-95.81l-52.497,131.139l-29.999-32.344l-6.198,13.53l46.942,77.27L232.161,342.031z"/>
		<path style="fill:#346066;" d="M505.264,181.764l-43.31,118.633l31.262,54.642l31.305-81.078c-1.28-8.231,4.26-11.035,4.26-11.035
			l-4.26,11.035c0.422,2.713,1.583,6.015,3.93,10.002c2.928,4.974,7.953,18.795,11.704,38.341
			c5.656-21.149,8.689-43.371,8.689-66.304c0-0.15-0.005-0.299-0.006-0.449c-5.754-17.779-11.723-30.55-14.581-36.411
			C523.758,197.607,505.264,181.764,505.264,181.764z"/>
		<path style="opacity:0.25;fill:#231F20;" d="M505.264,181.764l-43.31,118.633l31.262,54.642l31.305-81.078
			c-1.28-8.231,4.26-11.035,4.26-11.035l-4.26,11.035c0.422,2.713,1.583,6.015,3.93,10.002c2.928,4.974,7.953,18.795,11.704,38.341
			c5.656-21.149,8.689-43.371,8.689-66.304c0-0.15-0.005-0.299-0.006-0.449c-5.754-17.779-11.723-30.55-14.581-36.411
			C523.758,197.607,505.264,181.764,505.264,181.764z"/>
		<path style="fill:#346066;" d="M387.712,339.545c10.821,5.173,25.231,33.146,32.905,34.232
			c6.396,0.906,26.253-58.699,32.688-78.573l-36.041-76.064c0,0-29.998,115.178-38.508,113.723s-24.489-38.909-36.489-45.834
			c-5.709-3.295-14.814,2.863-24.239,7.257c7.11,15.735,16.061,34.765,22.392,45.516
			C352.544,360.393,376.891,334.372,387.712,339.545z"/>
		<path style="opacity:0.25;fill:#231F20;" d="M387.712,339.545c10.821,5.173,25.231,33.146,32.905,34.232
			c6.396,0.906,26.253-58.699,32.688-78.573l-36.041-76.064c0,0-29.998,115.178-38.508,113.723s-24.489-38.909-36.489-45.834
			c-5.709-3.295-14.814,2.863-24.239,7.257c7.11,15.735,16.061,34.765,22.392,45.516
			C352.544,360.393,376.891,334.372,387.712,339.545z"/>
		<path style="fill:#346066;" d="M133.332,318.013l-43.052-85.569l-49.538,68.261c4.185,23.76,11.65,46.387,21.905,67.405
			L133.332,318.013z"/>
		<path style="opacity:0.25;fill:#231F20;" d="M133.332,318.013l-43.052-85.569l-49.538,68.261
			c4.185,23.76,11.65,46.387,21.905,67.405L133.332,318.013z"/>
		<path style="fill:#346066;" d="M318.027,294.286c-6.507-14.4-11.473-26.041-11.473-26.041l-12.363,25.577
			C300.931,300.722,309.606,298.213,318.027,294.286z"/>
		<path style="opacity:0.25;fill:#231F20;" d="M318.027,294.286c-6.507-14.4-11.473-26.041-11.473-26.041l-12.363,25.577
			C300.931,300.722,309.606,298.213,318.027,294.286z"/>
		<path style="fill:#346066;" d="M461.954,300.398l-6.612-11.556c0,0-0.753,2.394-2.038,6.363l5.957,12.571L461.954,300.398z"/>
		<path style="opacity:0.25;fill:#231F20;" d="M461.954,300.398l-6.612-11.556c0,0-0.753,2.394-2.038,6.363l5.957,12.571
			L461.954,300.398z"/>
		<polygon style="fill:#346066;" points="163.577,303.889 160.472,298.778 133.332,318.013 145.776,342.748 		"/>
		<polygon style="opacity:0.25;fill:#231F20;" points="163.577,303.889 160.472,298.778 133.332,318.013 145.776,342.748 		"/>
		<path style="fill:#346066;" d="M524.52,273.961l-31.305,81.078l-31.262-54.642l-2.693,7.377l-5.957-12.571
			c-6.435,19.874-26.292,79.479-32.688,78.573c-7.673-1.087-22.084-29.06-32.905-34.232c-10.821-5.172-35.168,20.849-47.293,0.258
			c-6.331-10.751-15.282-29.781-22.392-45.516c-8.422,3.926-17.097,6.436-23.835-0.464l-34.979,72.366l-27.052-24.157
			l-21.642,39.127l-46.942-77.27l-17.801,38.859l-12.445-24.735L62.646,368.11C104.214,453.302,191.67,512,292.844,512
			c118.452,0,218.096-80.456,247.311-189.696c-3.751-19.546-8.776-33.367-11.704-38.341
			C526.103,279.976,524.942,276.674,524.52,273.961z"/>
		<path style="opacity:0.25;fill:#231F20;" d="M524.52,273.961l-31.305,81.078l-31.262-54.642l-2.693,7.377l-5.957-12.571
			c-6.435,19.874-26.292,79.479-32.688,78.573c-7.673-1.087-22.084-29.06-32.905-34.232c-10.821-5.172-35.168,20.849-47.293,0.258
			c-6.331-10.751-15.282-29.781-22.392-45.516c-8.422,3.926-17.097,6.436-23.835-0.464l-34.979,72.366l-27.052-24.157
			l-21.642,39.127l-46.942-77.27l-17.801,38.859l-12.445-24.735L62.646,368.11C104.214,453.302,191.67,512,292.844,512
			c118.452,0,218.096-80.456,247.311-189.696c-3.751-19.546-8.776-33.367-11.704-38.341
			C526.103,279.976,524.942,276.674,524.52,273.961z"/>
		<path style="opacity:0.25;fill:#231F20;" d="M524.52,273.961l-31.305,81.078l-31.262-54.642l-2.693,7.377l-5.957-12.571
			c-6.435,19.874-26.292,79.479-32.688,78.573c-7.673-1.087-22.084-29.06-32.905-34.232c-10.821-5.172-35.168,20.849-47.293,0.258
			c-6.331-10.751-15.282-29.781-22.392-45.516c-8.422,3.926-17.097,6.436-23.835-0.464l-34.979,72.366l-27.052-24.157
			l-21.642,39.127l-46.942-77.27l-17.801,38.859l-12.445-24.735L62.646,368.11C104.214,453.302,191.67,512,292.844,512
			c118.452,0,218.096-80.456,247.311-189.696c-3.751-19.546-8.776-33.367-11.704-38.341
			C526.103,279.976,524.942,276.674,524.52,273.961z"/>
		<path style="fill:#346066;" d="M524.52,273.961l4.26-11.035C528.781,262.926,523.24,265.73,524.52,273.961z"/>
		<path style="opacity:0.25;fill:#231F20;" d="M524.52,273.961l4.26-11.035C528.781,262.926,523.24,265.73,524.52,273.961z"/>
		<path style="opacity:0.25;fill:#231F20;" d="M524.52,273.961l4.26-11.035C528.781,262.926,523.24,265.73,524.52,273.961z"/>
	</g>
	<circle style="fill:#FFE48F;" cx="391.884" cy="150.186" r="81.596"/>
	<circle style="fill:#FFFFFF;" cx="175.001" cy="144.3" r="2.25"/>
	<circle style="fill:#FFFFFF;" cx="133.001" cy="170.3" r="2.25"/>
	<circle style="fill:#FFFFFF;" cx="89.751" cy="197.05" r="1.5"/>
	<circle style="fill:#FFFFFF;" cx="241.001" cy="213.3" r="1.75"/>
	<circle style="fill:#FFFFFF;" cx="475.371" cy="127.93" r="3.12"/>
	<circle style="fill:#FFFFFF;" cx="491.251" cy="174.05" r="1.5"/>
	<circle style="fill:#FFFFFF;" cx="425.324" cy="208.978" r="2.572"/>
	<circle style="fill:#FFFFFF;" cx="231.421" cy="139.416" r="1.831"/>
	<g>
		<g>
			<g>
				<path style="fill:#231F20;" d="M464.45,161.176c-3.07,0.785-6.056,4.074-8.479,6.376c-5.347,5.082-1.388,2.03-1.159,5.197
					c0.29,3.995-0.047,9.903,4.04,12.55c10.565,6.843,26.302-7.492,21.105-18.743C477.628,161.512,467.68,157.768,464.45,161.176z"
					/>
				<path style="fill:#231F20;" d="M465.438,161.736c-3.363-3.578,4.37-4.269,6.245-4.859c3.727-1.172,8.876-2.187,7.06-6.397
					c-2.807-6.511-17.881-5.003-13.73-12.301c1.442-2.536,6.942-5.344,9.472-2.947c1.747,1.656,0.202,3.712,0.72,5.683
					c0.66,2.511,0.129,1.801,2.685,4.323c4.761,4.7,19.888,5.918,14.743,15.26c-1.353,2.456-10.147,11.388-12.854,12.074
					c-5.645,1.431-5.473-3.323-7.909-6.427c-1.327-1.69-4.285-3.296-5.944-4.511C465.354,161.975,465.164,162.516,465.438,161.736z"
					/>
				<path style="fill:#231F20;" d="M455.161,173.402c-3.222,5.155-9.335,13.216-9.61,19.759c2.946-0.347,6.74,1.16,10.487,0.552
					c3.218-0.523,6.28-3.535,8.935-5.682C472.633,181.834,456.723,172.864,455.161,173.402z"/>
				<polygon style="fill:#231F20;" points="393.963,174.086 392.809,180.471 451.801,197.001 452.082,191.67 				"/>
				<polygon style="fill:#231F20;" points="448.301,197.452 395.462,186.789 395.195,191.861 451.421,204.228 451.728,198.395 				
					"/>
				<path style="fill:#231F20;" d="M392.948,179.704c-1.235,0.22-3.29,1.288-4.521,0.745c-1.186-0.523-1.862-1.997,0.091-2.332
					c-2.567-0.341-8.488-3.455-8.517-6.437c-0.028-2.938,3.976-2.085,5.929-1.76c2.188,0.364,5.305,1.954,6.843,3.617
					C394.324,175.214,393.97,177.905,392.948,179.704z"/>
				<path style="fill:#231F20;" d="M395.649,188.07c-0.235-0.097-6.236-4.485-4.369-0.961c-2.267-2.046-15.436-5.318-11.229,1.412
					c2.915,4.663,11.578,4.05,16.149,2.839c0.176-0.996,0.047-2-0.104-2.967C395.783,188.172,395.599,188.351,395.649,188.07z"/>
				<path style="fill:#231F20;" d="M449.089,192.154c-0.606,4.404-5.962,8.702-7.849,12.796c-1.551,3.365-4.186,6.527-4.585,10.161
					c-2.352,0.025-2.163,4.039-2.52,5.71c1.403,0.28,1.176,5.504,1.635,6.995c0.849,2.758,0.527,5.64,2.374,8.02
					c2.1,2.705,5.411,3.512,8.653,4.362c6.016,1.578,9.717,4.709,15.942,1.649c4.046-1.989,8.19-3.13,11.158-6.683
					c2.582-3.09,3.689-8.712,3.365-12.775c-0.39-4.9-3.369-8.645-3.107-13.674c0.243-4.664-1.435-8.073-2.853-12.355
					c-0.784-2.367-0.732-6.948-2.897-8.48c-3.62-2.562-10.349,2.392-13.538,3.837c-1.871,0.847-3.421,0.829-5.46,0.689
					C449.179,192.819,448.962,193.238,449.089,192.154z"/>
				<path style="fill:#231F20;" d="M437.104,226.615c-0.304-0.638-6.168-0.879-6.86-0.978c-4.988-0.711-9.976-1.422-14.963-2.133
					c-4.964-0.708-9.927-1.415-14.891-2.123c-0.915-0.131-4.1-1.116-4.918-0.621c-2.165,1.31,1.258,6.084-2.315,7.622
					c-2.444,1.051-7.351-0.288-9.986-0.574c0.001-1.896-0.141-4.232,0.576-5.996c0.474,0.123,1.165-0.122,1.64,0.009
					c0.797-4.062,2.87-16.961,8.122-17.587c4.46-0.532,5.041,5.014,4.68,8.072c-0.392,3.326-2.881,5.84-3.526,9.048
					c-0.418,2.078-0.234,4.447-0.345,6.57l45.764,4.951C440.08,232.874,437.106,226.619,437.104,226.615z"/>
				<path style="fill:#231F20;" d="M442.799,231.157c-0.543-0.453-5.969,1.786-6.639,1.986c-4.827,1.444-9.654,2.888-14.481,4.332
					c-4.803,1.437-9.607,2.874-14.41,4.311c-0.886,0.265-4.19,0.704-4.726,1.497c-1.417,2.097,3.691,4.997,1.091,7.891
					c-1.779,1.978-6.795,2.818-9.307,3.663c-0.794-1.722-1.901-3.784-1.989-5.685c0.482-0.087,1.007-0.599,1.493-0.679
					c-0.978-4.022-4.501-16.603,0.006-19.372c3.827-2.352,6.678,2.44,7.631,5.368c1.037,3.185-0.169,6.51,0.589,9.693
					c0.491,2.062,1.651,4.136,2.439,6.11l43.628-14.678C448.124,235.594,442.802,231.16,442.799,231.157z"/>
			</g>
			<g>
				<g>
					<path style="fill:#231F20;" d="M535.525,221.318c-6.562,1.565-16.16,12.278-26.535,29.855
						c-10.304,17.457-18.109,35.957-18.187,36.142l-1.446,3.442l-118.225-23.539c-2.476-0.493-4.083-2.9-3.591-5.376
						c0.493-2.476,2.9-4.083,5.376-3.59l110.947,22.091c2.779-6.27,9.18-20.129,17.21-33.744
						c15.435-26.168,28.506-37.318,39.951-34.087c10.466,2.955,15.882,5.901,18.696,10.171c2.984,4.528,2.246,9.463,1.466,14.687
						c-0.208,1.387-0.422,2.821-0.595,4.362c-0.282,2.509-2.559,4.313-5.052,4.033c-2.509-0.281-4.314-2.543-4.033-5.052
						c0.191-1.702,0.427-3.284,0.636-4.681c1.902-12.73-7.032-9.74-14.756-16.269c-5.995-5.067-11.73-16.854-5.776-24.068
						c2.384-2.889,15.271-5.288,19.411-1.862c7.536,6.236,0.885,13.741-0.797,20.111c-2.751,10.418,2.684,18.601,8.197,28.438
						c14.009,24.997,27.638,48.384,9.096,74.729c-23.18,32.934-64.298-1.979-66.867-31.599c-1.646-18.971,2.78-35.415,16.673-48.481
						c6.446-6.063,20.856-14.018,19.312-24.404c-1.33-0.499-4.15-1.212-3.969-1.211"/>
				</g>
			</g>
			<g>
				<path style="fill:#231F20;" d="M364.86,293.837c-7.138-0.375-8.925-5.404-10.405-9.566c-0.806-2.265-1.567-4.405-3.064-5.814
					c-0.817-0.769-0.856-2.054-0.088-2.872c0.77-0.817,2.056-0.856,2.872-0.088c2.213,2.082,3.22,4.914,4.109,7.412
					c1.671,4.702,2.779,7.807,10.22,6.652c4.044-0.628,11.24-5.857,14.455-11.658c1.032-1.861,2.061-4.547,1.107-6.774
					c-0.441-1.031,0.037-2.225,1.068-2.667c1.032-0.442,2.226,0.036,2.667,1.068c1.267,2.959,0.821,6.536-1.29,10.343
					c-3.618,6.527-11.579,12.802-17.385,13.703C367.522,293.826,366.108,293.903,364.86,293.837z"/>
			</g>
			<g>
				<path style="fill:#231F20;" d="M458.337,314.395c-5.761-0.303-12.902-3.02-16.297-6.734c-2.442-2.671-2.974-5.721-1.499-8.59
					c0.513-0.998,1.738-1.391,2.735-0.878c0.998,0.513,1.391,1.738,0.878,2.736c-0.427,0.831-0.8,2.149,0.885,3.992
					c3.792,4.148,13.538,6.525,17.283,5.007c7.096-2.876,15.582-16.492,15.39-24.694c-0.026-1.122,0.861-2.052,1.983-2.079
					c1.119-0.028,2.053,0.862,2.078,1.983c0.235,10.052-9.146,24.997-17.926,28.555
					C462.362,314.294,460.441,314.505,458.337,314.395z"/>
			</g>
			<g>
				<path style="fill:#231F20;" d="M369.624,277.497c-2.442-0.129-4.781-1.159-6.64-2.998c-3.852-3.811-3.4-9.325-3.037-13.755
					c0.07-0.856,0.136-1.664,0.175-2.444c0.055-1.121,1.008-1.984,2.129-1.929c0.002,0,0.005,0,0.007,0
					c1.117,0.059,1.977,1.01,1.922,2.129c-0.042,0.846-0.114,1.726-0.183,2.576c-0.325,3.96-0.66,8.056,1.845,10.535
					c1.673,1.655,3.974,2.233,6.156,1.547c2.309-0.727,3.958-2.639,4.41-5.113c0.201-1.103,1.255-1.835,2.363-1.634
					c1.104,0.202,1.835,1.26,1.633,2.363c-0.716,3.924-3.47,7.088-7.186,8.258C372.025,277.409,370.813,277.56,369.624,277.497z"/>
			</g>
			<g>
				<path style="fill:#231F20;" d="M453.116,298.149c-1.17-0.062-2.281-0.252-3.289-0.584c-3.646-1.203-5.744-4.034-5.907-7.972
					c-0.046-1.121,0.825-2.067,1.946-2.114c1.11-0.048,2.067,0.825,2.114,1.946c0.093,2.25,1.084,3.61,3.12,4.282
					c4.353,1.436,11.88-0.934,14.915-4.697c1.581-1.961,1.102-3.311,0.605-4.155c-0.569-0.967-0.247-2.212,0.72-2.781
					c0.968-0.569,2.213-0.247,2.782,0.72c1.643,2.791,1.299,5.986-0.944,8.767C465.816,295.729,458.78,298.447,453.116,298.149z"/>
			</g>
			<g>
				<path style="fill:#231F20;" d="M132.79,138.899c-6.532,0.415-12.625,5.21-19.354,5.903c-3.682,0.379-17.599,0.286-10.074,7.534
					c5.898,27.169,49.918,18.933,55.204-4.9c1.547-6.975,6.461-19.107-0.636-24.161c-3.864,3.003-4.622,8.627-8.166,11.428
					c-2.791-0.863-6.05-0.796-9.109-1.057c0.477-5.94-1.477-9.861-6.969-12.014C131.115,127.085,128.866,134.249,132.79,138.899z"/>
				<g>
					<path style="fill:#231F20;" d="M142.55,136.758L142.55,136.758c-0.803-0.043-1.419-0.728-1.376-1.53
						c0.722-13.62-4.018-27.277-13.706-39.495c-3.672-4.631-8.464-8.149-13.099-11.553c-4.522-3.32-9.198-6.754-12.963-11.268
						c-1.907-2.287-3.668-5.13-4.709-7.604c-0.223-0.529-0.352-1.117-0.476-1.684c-0.098-0.446-0.276-1.257-0.455-1.498
						c-0.761-0.148-1.277-0.872-1.16-1.646c0.12-0.794,0.856-1.341,1.657-1.22c2.047,0.31,2.5,2.374,2.8,3.74
						c0.096,0.44,0.196,0.895,0.316,1.18c0.922,2.191,2.555,4.823,4.262,6.87c3.538,4.242,7.867,7.42,12.45,10.786
						c4.789,3.517,9.741,7.153,13.656,12.09c10.136,12.782,15.092,27.118,14.332,41.457
						C144.037,136.184,143.353,136.8,142.55,136.758z"/>
				</g>
				<g>
					<path style="fill:#231F20;" d="M126.018,93.428c-0.137-0.007-0.276-0.034-0.413-0.083c-2.065-0.737-2.882-4.583-4.527-14.577
						c-0.618-3.755-1.51-9.176-2.307-11.176c-0.425,0.157-0.918,0.113-1.321-0.16c-0.665-0.451-0.839-1.356-0.388-2.021
						c0.849-1.253,1.835-1.25,2.343-1.139c2.13,0.468,2.896,4.012,4.544,14.023c0.694,4.217,1.849,11.233,2.805,12.383
						c0.643,0.327,0.959,1.088,0.71,1.785C127.243,93.084,126.644,93.461,126.018,93.428z"/>
				</g>
				<g>
					<path style="fill:#231F20;" d="M117.867,86.338c-0.3-0.016-0.598-0.125-0.848-0.331c-2.007-1.656-5.293-1.977-8.771-2.316
						c-3.322-0.324-6.756-0.66-9.432-2.253c-0.704-0.419-1.516-1.254-2.783-2.58c-1.014-1.062-3.125-3.273-3.874-3.419
						c-0.799-0.087-1.37-0.805-1.283-1.604c0.088-0.799,0.807-1.375,1.61-1.287c1.605,0.176,3.28,1.817,5.652,4.301
						c0.788,0.825,1.768,1.852,2.167,2.089c2.117,1.26,5.223,1.564,8.227,1.857c3.76,0.367,7.648,0.746,10.341,2.968
						c0.62,0.512,0.707,1.428,0.196,2.048C118.761,86.181,118.311,86.362,117.867,86.338z"/>
				</g>
				<g>
					<path style="fill:#231F20;" d="M138.571,113.369c-0.568-0.03-1.09-0.393-1.294-0.962c-1.788-4.984,0.578-9.898,2.866-14.649
						c2.311-4.8,4.494-9.333,2.5-13.67c-0.336-0.73-0.016-1.594,0.714-1.93c0.731-0.335,1.594-0.016,1.93,0.714
						c2.566,5.581-0.021,10.953-2.522,16.148c-2.122,4.406-4.126,8.567-2.75,12.404c0.272,0.756-0.122,1.589-0.878,1.861
						C138.951,113.352,138.758,113.379,138.571,113.369z"/>
				</g>
				<g>
					<path style="fill:#231F20;" d="M134.312,104.703c-0.169-0.009-0.34-0.048-0.505-0.12c-2.777-1.211-6.806-1.593-10.702-1.961
						c-4.24-0.402-8.624-0.817-11.914-2.303c-0.732-0.331-1.058-1.192-0.727-1.925c0.331-0.732,1.192-1.058,1.925-0.727
						c2.849,1.287,6.988,1.679,10.991,2.058c4.124,0.39,8.388,0.794,11.591,2.191c0.737,0.321,1.073,1.179,0.752,1.915
						C135.474,104.403,134.901,104.734,134.312,104.703z"/>
				</g>
				<g>
					<path style="fill:#231F20;" d="M148.667,136.808c-0.398-0.021-0.787-0.203-1.059-0.533c-1.687-2.044-0.398-6.673,2.57-14.5
						c0.317-0.834,0.59-1.555,0.741-2.008c3.063-9.143,8.09-15.501,14.695-22.235c3.689-3.761,7.77-6.96,11.717-10.054
						c2.379-1.865,4.839-3.794,7.181-5.821c4.098-3.547,5.797-7.293,7.765-11.63c0.974-2.147,1.981-4.367,3.351-6.7
						c0.407-0.693,1.298-0.925,1.991-0.518c0.693,0.407,0.925,1.298,0.518,1.991c-1.292,2.202-2.268,4.351-3.211,6.43
						c-2.021,4.455-3.93,8.663-8.51,12.627c-2.396,2.074-4.884,4.025-7.291,5.911c-3.873,3.037-7.879,6.177-11.435,9.802
						c-6.324,6.447-11.128,12.506-14.013,21.121c-0.17,0.508-0.439,1.217-0.78,2.116c-2.564,6.76-3.584,10.675-3.032,11.636
						c0.511,0.62,0.416,1.527-0.203,2.038C149.374,136.72,149.017,136.826,148.667,136.808z"/>
				</g>
				<g>
					<path style="fill:#231F20;" d="M184.205,85.218c-0.219-0.011-0.437-0.073-0.641-0.188c-0.667-0.378-0.92-1.204-0.598-1.886
						c0.213-0.791,0.217-4.499,0.221-7.487c0.012-9.823,0.203-12.62,1.527-13.586c0.456-0.332,1.022-0.425,1.557-0.254
						c0.766,0.245,1.188,1.063,0.943,1.829c-0.114,0.356-0.352,0.638-0.651,0.813c-0.453,1.664-0.461,7.574-0.465,11.201
						c-0.007,6.288-0.073,7.982-0.549,8.822C185.267,84.978,184.738,85.246,184.205,85.218z"/>
				</g>
				<g>
					<path style="fill:#231F20;" d="M179.211,89.245c-0.778-0.041-1.39-0.691-1.378-1.476c0.013-0.803,0.674-1.444,1.478-1.432
						c1.291,0.02,2.54,0.066,3.748,0.11c6.993,0.255,12.517,0.456,18.267-4.347c0.617-0.515,1.534-0.433,2.049,0.184
						c0.515,0.617,0.433,1.534-0.184,2.049c-6.606,5.518-12.924,5.288-20.239,5.022c-1.193-0.043-2.426-0.088-3.688-0.108
						C179.247,89.246,179.229,89.246,179.211,89.245z"/>
				</g>
				<g>
					<path style="fill:#231F20;" d="M164.078,102.091c-0.795-0.042-1.41-0.716-1.377-1.514c0.039-0.922,0.037-1.915,0.035-2.966
						c-0.007-3.365-0.014-7.18,1.308-10.735c0.28-0.753,1.118-1.136,1.871-0.857c0.753,0.28,1.137,1.118,0.856,1.871
						c-1.138,3.062-1.131,6.597-1.125,9.715c0.002,1.084,0.004,2.108-0.037,3.094c-0.034,0.803-0.712,1.426-1.515,1.393
						C164.088,102.091,164.083,102.091,164.078,102.091z"/>
				</g>
				<g>
					<path style="fill:#231F20;" d="M166.361,114.412c-2.875-0.151-5.844-1.017-9.851-3.089c-0.714-0.369-0.993-1.247-0.624-1.961
						c0.369-0.714,1.247-0.993,1.961-0.624c7.309,3.778,10.167,3.157,17.805,1.496l1.512-0.327c0.787-0.169,1.559,0.332,1.728,1.117
						c0.168,0.786-0.332,1.559-1.117,1.728l-1.503,0.326C172.329,113.934,169.397,114.572,166.361,114.412z"/>
				</g>
				<path style="fill:#231F20;" d="M138.132,162.218c1.696,5.819,1.389,11.576,0.866,17.863c-0.766,9.203,5.21,12.12,11.824,15.481
					c17.336,8.81,38.205,5.121,56.032-1.292c5.301-1.907,17.757-3.647,17.897-12.306c3.276-1.438,4.648-6.028,1.808-9.349
					c-1.883-2.202-2.885-0.972-2.658,2.295c-3.873-12.191-13.991-17.088-24.151-16.737c-6.11,0.211-11.413,2.578-17.086,5.307
					c-6.565,3.159-14.2,3.698-21.154,4.3c-7.433,0.644-10.492-4.899-15.791-9.646C140.787,153.715,141.259,162.124,138.132,162.218z
					"/>
				<path style="fill:#231F20;" d="M138.998,180.081c0,0-30.906-10.818-32.676-4.863c-1.77,5.955,11.401,30.793,21.289,37.557
					l8.253-7.475l-19.155-22.238l25.794,4.688L138.998,180.081z"/>
				<path style="fill:#231F20;" d="M148.577,190.983l-20.212,7.467c0,0,1.448,15.69,21.427,24.234l3.811-8.541l-13.284-11.522
					l14.485-11.31L148.577,190.983z"/>
				<path style="fill:#231F20;" d="M205.418,180.629l16.509,12.076l-5.629,37.146l13.17-3.838l-1.476-33.272
					c-0.051-1.142-0.545-2.218-1.377-3.002l-14.512-13.656L205.418,180.629z"/>
				<path style="fill:#231F20;" d="M201.92,189.053l7.246,11.109l-12.9,25.153l9.866-2.653l10.33-23.446
					c0.593-1.346,0.372-2.911-0.57-4.04l-6.94-8.314L201.92,189.053z"/>
			</g>
			<g>
				<path style="fill:#231F20;" d="M41.924,174.77c-6.532,0.415-12.625,5.21-19.354,5.903c-3.682,0.379-17.599,0.286-10.074,7.534
					c5.898,27.169,49.918,18.933,55.204-4.9c1.547-6.975,6.461-19.107-0.636-24.161c-3.864,3.003-4.622,8.627-8.166,11.428
					c-2.791-0.863-6.05-0.796-9.109-1.057c0.477-5.94-1.477-9.861-6.969-12.014C40.249,162.956,38,170.121,41.924,174.77z"/>
				<g>
					<path style="fill:#231F20;" d="M51.684,172.629L51.684,172.629c-0.803-0.043-1.419-0.728-1.376-1.53
						c0.722-13.62-4.018-27.277-13.706-39.495c-3.672-4.631-8.464-8.149-13.099-11.553c-4.522-3.32-9.198-6.754-12.963-11.268
						c-1.907-2.287-3.668-5.13-4.709-7.604c-0.223-0.529-0.352-1.117-0.476-1.684c-0.098-0.446-0.276-1.257-0.455-1.498
						c-0.761-0.148-1.277-0.872-1.16-1.646c0.12-0.794,0.856-1.341,1.657-1.22c2.047,0.31,2.5,2.374,2.8,3.74
						c0.096,0.44,0.196,0.895,0.316,1.18c0.922,2.191,2.555,4.823,4.262,6.87c3.538,4.242,7.867,7.42,12.45,10.786
						c4.789,3.517,9.741,7.153,13.656,12.09c10.136,12.782,15.092,27.118,14.332,41.457
						C53.171,172.055,52.486,172.671,51.684,172.629z"/>
				</g>
				<g>
					<path style="fill:#231F20;" d="M35.152,129.299c-0.137-0.007-0.276-0.034-0.413-0.083c-2.065-0.737-2.882-4.583-4.527-14.577
						c-0.618-3.755-1.51-9.176-2.307-11.176c-0.425,0.157-0.918,0.113-1.321-0.16c-0.665-0.451-0.839-1.356-0.388-2.021
						c0.849-1.253,1.835-1.25,2.343-1.139c2.13,0.468,2.896,4.012,4.544,14.023c0.694,4.217,1.849,11.233,2.805,12.383
						c0.643,0.327,0.959,1.088,0.71,1.785C36.377,128.955,35.778,129.332,35.152,129.299z"/>
				</g>
				<g>
					<path style="fill:#231F20;" d="M27,122.21c-0.3-0.016-0.598-0.125-0.848-0.331c-2.007-1.656-5.293-1.977-8.771-2.316
						c-3.322-0.324-6.756-0.66-9.432-2.253c-0.704-0.419-1.516-1.254-2.783-2.58c-1.014-1.062-3.125-3.273-3.874-3.419
						c-0.799-0.087-1.37-0.805-1.283-1.604c0.088-0.799,0.807-1.375,1.61-1.287c1.605,0.176,3.28,1.817,5.652,4.301
						c0.788,0.825,1.768,1.852,2.167,2.089c2.117,1.26,5.223,1.564,8.227,1.857c3.76,0.367,7.648,0.746,10.341,2.968
						c0.62,0.511,0.707,1.428,0.196,2.048C27.895,122.053,27.445,122.233,27,122.21z"/>
				</g>
				<g>
					<path style="fill:#231F20;" d="M47.705,149.24c-0.568-0.03-1.09-0.393-1.294-0.962c-1.788-4.984,0.578-9.898,2.866-14.649
						c2.311-4.8,4.494-9.333,2.5-13.67c-0.336-0.73-0.016-1.594,0.714-1.93c0.731-0.335,1.594-0.016,1.93,0.714
						c2.566,5.581-0.021,10.953-2.522,16.148c-2.122,4.406-4.126,8.567-2.75,12.404c0.272,0.756-0.122,1.589-0.878,1.861
						C48.084,149.224,47.892,149.25,47.705,149.24z"/>
				</g>
				<g>
					<path style="fill:#231F20;" d="M43.446,140.574c-0.169-0.009-0.34-0.048-0.505-0.12c-2.777-1.211-6.806-1.593-10.702-1.961
						c-4.24-0.402-8.624-0.817-11.914-2.303c-0.732-0.331-1.058-1.192-0.727-1.925s1.192-1.058,1.925-0.727
						c2.849,1.287,6.988,1.679,10.991,2.058c4.124,0.391,8.388,0.794,11.591,2.191c0.737,0.321,1.073,1.179,0.752,1.915
						C44.608,140.274,44.035,140.605,43.446,140.574z"/>
				</g>
				<g>
					<path style="fill:#231F20;" d="M57.801,172.679c-0.398-0.021-0.787-0.203-1.059-0.533c-1.687-2.044-0.399-6.673,2.57-14.5
						c0.317-0.834,0.59-1.555,0.741-2.008c3.063-9.143,8.09-15.501,14.695-22.235c3.689-3.761,7.77-6.96,11.717-10.054
						c2.379-1.865,4.839-3.794,7.181-5.821c4.098-3.547,5.797-7.293,7.765-11.63c0.974-2.147,1.981-4.367,3.351-6.7
						c0.407-0.693,1.298-0.925,1.991-0.518c0.693,0.407,0.925,1.298,0.518,1.991c-1.292,2.202-2.268,4.351-3.211,6.43
						c-2.021,4.455-3.93,8.663-8.51,12.627c-2.396,2.074-4.884,4.025-7.291,5.911c-3.873,3.037-7.879,6.177-11.435,9.802
						c-6.324,6.447-11.128,12.506-14.013,21.121c-0.17,0.508-0.439,1.217-0.78,2.116c-2.564,6.76-3.584,10.675-3.032,11.636
						c0.511,0.62,0.416,1.527-0.203,2.038C58.508,172.591,58.151,172.697,57.801,172.679z"/>
				</g>
				<g>
					<path style="fill:#231F20;" d="M93.339,121.089c-0.219-0.011-0.437-0.073-0.641-0.188c-0.667-0.378-0.92-1.204-0.598-1.886
						c0.213-0.791,0.217-4.499,0.221-7.487c0.012-9.823,0.203-12.62,1.527-13.586c0.456-0.332,1.022-0.425,1.557-0.254
						c0.766,0.245,1.188,1.063,0.943,1.829c-0.114,0.356-0.352,0.638-0.651,0.813c-0.453,1.664-0.461,7.574-0.465,11.201
						c-0.007,6.288-0.073,7.982-0.549,8.822C94.401,120.85,93.872,121.117,93.339,121.089z"/>
				</g>
				<g>
					<path style="fill:#231F20;" d="M88.345,125.116c-0.778-0.041-1.39-0.691-1.378-1.476c0.013-0.803,0.674-1.444,1.478-1.432
						c1.291,0.02,2.54,0.066,3.748,0.11c6.993,0.255,12.517,0.456,18.267-4.347c0.617-0.515,1.534-0.433,2.049,0.184
						c0.515,0.617,0.433,1.534-0.184,2.049c-6.606,5.518-12.924,5.288-20.239,5.022c-1.193-0.043-2.426-0.088-3.688-0.108
						C88.381,125.118,88.363,125.117,88.345,125.116z"/>
				</g>
				<g>
					<path style="fill:#231F20;" d="M73.212,137.962c-0.795-0.042-1.41-0.716-1.377-1.514c0.039-0.922,0.037-1.915,0.035-2.966
						c-0.007-3.365-0.014-7.18,1.308-10.735c0.28-0.753,1.118-1.136,1.871-0.857c0.753,0.28,1.137,1.118,0.856,1.871
						c-1.138,3.062-1.131,6.597-1.125,9.715c0.002,1.084,0.004,2.108-0.037,3.094c-0.034,0.803-0.712,1.426-1.515,1.393
						C73.222,137.963,73.217,137.962,73.212,137.962z"/>
				</g>
				<g>
					<path style="fill:#231F20;" d="M75.495,150.283c-2.875-0.151-5.844-1.017-9.851-3.089c-0.714-0.369-0.993-1.247-0.624-1.961
						c0.369-0.714,1.247-0.993,1.961-0.624c7.309,3.778,10.167,3.157,17.805,1.496l1.512-0.327c0.787-0.169,1.559,0.332,1.728,1.117
						c0.168,0.786-0.332,1.559-1.117,1.728l-1.503,0.326C81.463,149.806,78.531,150.443,75.495,150.283z"/>
				</g>
				<path style="fill:#231F20;" d="M47.266,198.089c1.696,5.819,1.389,11.576,0.866,17.863c-0.766,9.203,5.21,12.12,11.824,15.481
					c17.336,8.81,38.205,5.121,56.032-1.292c5.301-1.907,17.757-3.647,17.897-12.306c3.276-1.438,4.648-6.028,1.808-9.349
					c-1.883-2.202-2.885-0.972-2.658,2.295c-3.873-12.191-13.991-17.088-24.151-16.737c-6.11,0.211-11.413,2.578-17.086,5.307
					c-6.565,3.159-14.2,3.698-21.154,4.3c-7.433,0.644-10.492-4.899-15.791-9.646C49.921,189.587,50.393,197.996,47.266,198.089z"/>
				<path style="fill:#231F20;" d="M48.132,215.952c0,0-30.906-10.818-32.676-4.863c-1.77,5.955,11.401,30.793,21.29,37.557
					l8.253-7.475l-19.155-22.238l25.794,4.688L48.132,215.952z"/>
				<path style="fill:#231F20;" d="M57.711,226.854l-20.212,7.467c0,0,1.448,15.69,21.427,24.234l3.811-8.541l-13.284-11.522
					l14.485-11.31L57.711,226.854z"/>
				<path style="fill:#231F20;" d="M114.552,216.501l16.509,12.076l-5.629,37.146l13.17-3.838l-1.476-33.272
					c-0.051-1.142-0.545-2.218-1.377-3.002l-14.512-13.656L114.552,216.501z"/>
				<path style="fill:#231F20;" d="M111.054,224.924l7.246,11.109l-12.9,25.153l9.866-2.653l10.33-23.446
					c0.593-1.346,0.372-2.911-0.57-4.04l-6.94-8.314L111.054,224.924z"/>
			</g>
			<line style="fill:#231F20;" x1="382.095" y1="169.591" x2="147.892" y2="162.541"/>
			<line style="fill:#231F20;" x1="380.051" y1="188.521" x2="57.006" y2="198.426"/>
			<polygon style="fill:#231F20;" points="380.52,161.693 376.723,195.69 382.218,195.979 386.492,162.007 			"/>
		</g>
		<line style="fill:#231F20;" x1="371.133" y1="267.217" x2="147.892" y2="176.083"/>
		<line style="fill:#231F20;" x1="378.771" y1="266.411" x2="63.218" y2="211.954"/>
	</g>
</g>
<g id="Livello_1">
</g>
</svg>
