<?xml version="1.0" encoding="iso-8859-1"?>
<!-- Generator: Adobe Illustrator 18.1.0, SVG Export Plug-In . SVG Version: 6.00 Build 0)  -->
<!DOCTYPE svg PUBLIC "-//W3C//DTD SVG 1.1//EN" "http://www.w3.org/Graphics/SVG/1.1/DTD/svg11.dtd">
<svg version="1.1" xmlns="http://www.w3.org/2000/svg" xmlns:xlink="http://www.w3.org/1999/xlink" x="0px" y="0px"
	 viewBox="0 0 555.305 647.355" style="enable-background:new 0 0 555.305 647.355;" xml:space="preserve">
<pattern  x="976.648" y="1103.802" width="661.591" height="688.215" patternUnits="userSpaceOnUse" id="alberelli01" viewBox="0 -688.215 661.591 688.215" style="overflow:visible;">
	<g>
		<polygon style="fill:none;" points="0,-688.215 661.59,-688.215 661.59,0 0,0 		"/>
		<path style="fill:#FFFFFF;" d="M13-434.144c0.236-1.417,40.63-63.071,40.63-63.071l34.961,66.378l-28.11,1.289L67.094-407H39.929
			l6.85-21.84L13-434.144z"/>
		<path style="fill:#FFFFFF;" d="M466-337.38c0.116-0.693,19.864-30.835,19.864-30.835l17.092,32.451l-13.743,0.685L492.446-324
			h-13.281l3.349-10.732L466-337.38z"/>
		<path style="fill:#FFFFFF;" d="M568-431.38c0.115-0.693,19.864-30.835,19.864-30.835l17.092,32.451l-13.743,0.685L594.446-418
			h-13.281l3.349-10.732L568-431.38z"/>
		<path style="fill:#FFFFFF;" d="M191-68.144c0.236-1.417,40.63-63.071,40.63-63.071l34.961,66.378l-28.11,1.289L245.094-41h-27.165
			l6.85-21.84L191-68.144z"/>
		<path style="fill:#FFFFFF;" d="M413-579.144c0.236-1.417,40.63-63.071,40.63-63.071l34.961,66.378l-28.11,1.289L467.094-552
			h-27.165l6.85-21.84L413-579.144z"/>
		<path style="fill:#FFFFFF;" d="M434-27.144c0.236-1.417,40.63-63.071,40.63-63.071l34.961,66.378l-28.11,1.289L488.094,0h-27.165
			l6.85-21.84L434-27.144z"/>
		<path style="fill:#FFFFFF;" d="M586-232.144c0.236-1.417,40.63-63.071,40.63-63.071l34.961,66.378l-28.11,1.289L640.094-205
			h-27.165l6.85-21.84L586-232.144z"/>
		<path style="fill:#FFFFFF;" d="M575-133.38c0.115-0.693,19.864-30.835,19.864-30.835l17.092,32.451l-13.743,0.685L601.446-120
			h-13.281l3.349-10.732L575-133.38z"/>
		<path style="fill:#FFFFFF;" d="M192-455.38c0.115-0.693,19.864-30.835,19.864-30.835l17.092,32.451l-13.743,0.685L218.446-442
			h-13.281l3.349-10.732L192-455.38z"/>
		<path style="fill:#FFFFFF;" d="M247-255.38c0.115-0.693,19.864-30.835,19.864-30.835l17.092,32.451l-13.743,0.685L273.446-242
			h-13.281l3.349-10.732L247-255.38z"/>
		<path style="fill:#FFFFFF;" d="M376-258.38c0.116-0.693,19.864-30.835,19.864-30.835l17.092,32.451l-13.743,0.685L402.446-245
			h-13.281l3.349-10.732L376-258.38z"/>
		<path style="fill:#FFFFFF;" d="M445-444.38c0.116-0.693,19.864-30.835,19.864-30.835l17.092,32.451l-13.743,0.685L471.446-431
			h-13.281l3.349-10.732L445-444.38z"/>
		<path style="fill:#FFFFFF;" d="M164-535.38c0.115-0.693,19.864-30.835,19.864-30.835l17.092,32.451l-13.743,0.685L190.446-522
			h-13.281l3.349-10.732L164-535.38z"/>
		<path style="fill:#FFFFFF;" d="M163-340.38c0.115-0.693,19.864-30.835,19.864-30.835l17.092,32.451l-13.743,0.685L189.446-327
			h-13.281l3.349-10.732L163-340.38z"/>
		<path style="fill:#FFFFFF;" d="M371-149.38c0.116-0.693,19.864-30.835,19.864-30.835l17.092,32.451l-13.743,0.685L397.446-136
			h-13.281l3.349-10.732L371-149.38z"/>
		<path style="fill:#FFFFFF;" d="M503-275.957c0.08-0.478,13.694-21.258,13.694-21.258l11.783,22.373l-9.475,0.339l2.229,7.504
			h-9.156l2.309-7.265L503-275.957z"/>
		<path style="fill:#FFFFFF;" d="M528-558.957c0.08-0.478,13.694-21.258,13.694-21.258l11.783,22.373l-9.475,0.339l2.229,7.504
			h-9.156l2.309-7.265L528-558.957z"/>
		<path style="fill:#FFFFFF;" d="M346-498.957c0.08-0.478,13.694-21.258,13.694-21.258l11.783,22.373l-9.475,0.339l2.229,7.504
			h-9.156l2.309-7.265L346-498.957z"/>
		<path style="fill:#FFFFFF;" d="M317-405.957c0.08-0.478,13.694-21.258,13.694-21.258l11.783,22.373l-9.475,0.339l2.229,7.504
			h-9.156l2.309-7.265L317-405.957z"/>
		<path style="fill:#FFFFFF;" d="M129-165.957c0.08-0.478,13.694-21.258,13.694-21.258l11.783,22.373l-9.475,0.339l2.229,7.504
			h-9.156l2.309-7.265L129-165.957z"/>
		<path style="fill:#FFFFFF;" d="M317-94.957c0.08-0.478,13.694-21.258,13.694-21.258l11.783,22.373l-9.475,0.339L335.232-86h-9.156
			l2.309-7.265L317-94.957z"/>
		<path style="fill:#FFFFFF;" d="M562-297.957c0.08-0.478,13.694-21.258,13.694-21.258l11.783,22.373l-9.475,0.339l2.229,7.504
			h-9.156l2.309-7.265L562-297.957z"/>
		<path style="fill:#FFFFFF;" d="M0-558.957c0.08-0.478,13.694-21.258,13.694-21.258l11.783,22.373l-9.475,0.339L18.232-550H9.076
			l2.309-7.265L0-558.957z"/>
		<path style="fill:#FFFFFF;" d="M619-375.957c0.08-0.478,13.694-21.258,13.694-21.258l11.783,22.373l-9.475,0.339l2.229,7.504
			h-9.156l2.309-7.265L619-375.957z"/>
		<path style="fill:#FFFFFF;" d="M504-666.957c0.08-0.478,13.694-21.258,13.694-21.258l11.783,22.373l-9.475,0.339l2.229,7.504
			h-9.156l2.309-7.265L504-666.957z"/>
		<path style="fill:#FFFFFF;" d="M274-613.957c0.08-0.478,13.694-21.258,13.694-21.258l11.783,22.373l-9.475,0.339l2.229,7.504
			h-9.156l2.309-7.265L274-613.957z"/>
		<path style="fill:#FFFFFF;" d="M55-605.957c0.08-0.478,13.694-21.258,13.694-21.258l11.783,22.373l-9.475,0.339L73.232-597h-9.156
			l2.309-7.265L55-605.957z"/>
		<path style="fill:#FFFFFF;" d="M68-257.957c0.08-0.478,13.694-21.258,13.694-21.258l11.783,22.373l-9.475,0.339L86.232-249h-9.156
			l2.309-7.265L68-257.957z"/>
		<path style="fill:#FFFFFF;" d="M463-124.957c0.08-0.478,13.694-21.258,13.694-21.258l11.783,22.373l-9.475,0.339l2.229,7.504
			h-9.156l2.309-7.265L463-124.957z"/>
		<path style="fill:#FFFFFF;" d="M174-643.957c0.08-0.478,13.694-21.258,13.694-21.258l11.783,22.373l-9.475,0.339l2.229,7.504
			h-9.156l2.309-7.265L174-643.957z"/>
	</g>
</pattern>
<g id="_x23_decorations">
	<g>
		<circle style="fill:#FFD99B;" cx="289.55" cy="349.168" r="256"/>
	</g>
	<g style="opacity:0.62;">
		<pattern  id="SVGID_1_" xlink:href="#alberelli01" patternTransform="matrix(1 0 0 1 230.2137 553.4261)"  style="opacity:0.62;">
		</pattern>
		<circle style="fill:url(#SVGID_1_);" cx="289.55" cy="349.168" r="256"/>
	</g>
	<g>
		<path style="fill:#88A34F;" d="M382.544,256.951c8.486-10.014,3.513-22.288,0.967-33.402c1.675,8.186,10.525,11.773,18.707,9.884
			c8.182-1.889,15.643-7.961,22.143-14.476c9.961-9.982,18.62-21.515,25.495-33.953c-6.038,18.706-8.477,38.542-4.22,55.875
			c4.257,17.333,15.827,31.805,32.082,35.939c-12.12,2.716-23.26,12.739-30.317,24.539c-7.057,11.799-10.486,25.205-12.296,38.268
			c-1.861,13.428-1.868,27.794,5.238,37.311c3.243,4.343,8.426,6.991,13.931,7.545l-0.189,0.089
			c-23.524,12.494-44.243,33.805-56.528,58.928l-0.001,0c-11.097-5.784-23.529-9.197-36.521-10.025l0,0
			c2.495-3.094,1.28-7.301-0.102-10.463c-11.828-27.047-24.416-53.606-37.745-79.634c10.471,5.304,24.816,3.052,35.69-5.602
			c10.874-8.654,17.775-23.312,17.171-36.468c-0.783-17.036-12.604-28.774-24.003-38.955
			C360.089,269.043,374.34,266.633,382.544,256.951z"/>
		<path style="fill:#88A34F;" d="M504.078,399.025c7.053-5.613,14.349-0.733,21.127,2.189c-5.01-1.999-6.494-9.083-4.586-15.175
			c1.908-6.093,6.387-11.267,11.061-15.668c7.162-6.744,15.186-12.356,23.625-16.523c-12.314,2.978-25.024,3.105-35.57-1.671
			c-10.546-4.776-18.649-14.894-19.828-27.691c-2.774,9.032-10.065,16.674-18.117,21.038c-8.052,4.363-16.798,5.811-25.187,6.05
			c-8.623,0.246-17.674-1.008-23.046-7.278c-2.452-2.862-3.665-7.058-3.532-11.318l-0.073,0.137
			c-9.934,16.898-54.58,59.442-71.485,66.636c2.671,8.995,33.135-9.762,32.518,0.249h0c2.168-1.637,4.712-0.339,6.583,0.996
			c16.002,11.419,31.63,23.376,46.858,35.853c-2.423-8.474,0.253-19.249,6.658-26.808c6.405-7.558,16.245-11.552,24.48-9.936
			c10.664,2.092,17.022,12.164,22.436,21.775C494.491,415.14,497.259,404.451,504.078,399.025z"/>
	</g>
	<g>
		<path style="fill:#88A34F;" d="M367.151,600.178c10.096,6.873,6.93,20.624,6.04,32.398c0.452-8.602,8.855-15.185,17.413-16.17
			c8.558-0.985,17.02,2.381,24.578,6.511c11.582,6.33,22.084,14.63,30.919,24.438c-8.939-16.239-14.411-34.832-12.735-53.294
			c1.676-18.462,11.178-36.654,26.985-46.339c-12.664,1.539-25.444-4.423-34.367-13.54c-8.922-9.117-14.421-21.066-18.231-33.241
			c-3.916-12.515-6.102-26.591-0.36-38.38c2.62-5.38,7.459-9.772,12.94-12.223l-0.205-0.021
			c-25.674-4.091-49.849-17.794-66.076-38.157l-0.001,0c-10.342,9.515-22.391,17.167-35.4,22.482l0,0
			c2.991,2.168,2.401,6.711,1.483,10.289c-7.857,30.606-16.557,60.995-26.086,91.122c9.781-8.827,24.624-11.592,36.928-6.88
			c12.304,4.712,21.503,16.685,22.886,29.787c1.791,16.967-8.38,32.567-18.361,46.495
			C342.618,596.11,357.39,593.533,367.151,600.178z"/>
		<path style="fill:#88A34F;" d="M468.475,418.825c7.98,3.056,14.616-4.255,21.026-9.468c-4.762,3.695-5.188,11.152-2.336,16.461
			c2.852,5.31,8.164,8.828,13.556,11.521c8.262,4.127,17.225,6.845,26.387,8.005c-12.9,1.349-25.767,5.63-35.704,13.966
			c-9.937,8.335-16.595,21.06-15.847,34.009c-4.173-7.89-12.702-12.852-21.503-14.338c-8.801-1.485-17.862,0.127-26.378,2.8
			c-8.754,2.748-17.714,7.113-22.194,15.12c-2.045,3.654-2.635,8.187-1.855,12.315l-0.094-0.109
			c-12.603-13.117-64.185-39.336-82.364-40.527c1.337-9.741,34.976-1.918,32.835-11.514l0,0c2.44,0.853,4.814-1.3,6.503-3.257
			c14.446-16.736,28.431-33.87,41.935-51.376c-1.165,9.145,3.173,18.776,10.794,23.964c7.621,5.187,18.173,5.691,26.253,1.253
			c10.463-5.746,15.364-17.82,19.38-29.116C456.341,406.355,460.759,415.87,468.475,418.825z"/>
	</g>
	<path style="fill:#88A34F;" d="M107.285,274.096"/>
	<g>
		<g>
			<path style="fill:#563E03;" d="M278.648,5.926c0-3.273-2.889-5.926-6.452-5.926c-3.563,0-6.452,2.654-6.452,5.926
				c0,2.613,1.844,4.827,4.4,5.615v278.854h4.779V11.291C277.121,10.347,278.648,8.303,278.648,5.926z"/>
			<circle style="fill:#DAC242;" cx="272.196" cy="370.733" r="96.804"/>
			<g>
				<path style="fill:#FFFFFF;" d="M241.846,432.504l-2.615-2.427c7.588-8.178,13.693-18.014,17.655-28.443l0.749-1.971
					l40.332,23.597l19.449-32.65l1.598,1.27c5.682,4.515,22.483,17.315,27.927,21.456c2.759-5.535,9.407-18.45,12.53-20.848
					l2.174,2.83c-2.268,1.742-8.845,14.131-12.458,21.531l-0.953,1.952l-1.729-1.314c-0.213-0.162-19.909-15.129-28.108-21.55
					l-19.176,32.191l-39.77-23.268C255.326,414.985,249.267,424.506,241.846,432.504z"/>
			</g>
			<g>
				<path style="fill:#FFFFFF;" d="M191.987,375.328l-3.503-3.251c10.164-10.954,18.341-24.128,23.647-38.097l1.003-2.64
					l54.021,31.607l26.05-43.732l2.14,1.701c7.61,6.047,30.115,23.191,37.406,28.739c3.695-7.414,12.6-24.712,16.782-27.925
					l2.911,3.79c-3.038,2.333-11.847,18.927-16.686,28.839l-1.276,2.614l-2.316-1.76c-0.285-0.217-26.667-20.264-37.648-28.865
					l-25.685,43.117L215.567,338.3C210.042,351.862,201.927,364.615,191.987,375.328z"/>
			</g>
			<path style="opacity:0.28;fill:#563E03;" d="M188.324,321.927l4.548-6.691c0,0,30.34,18.161,46.829,56.634
				c0,0,17.453,33.693,8.248,75.751l-4.291,15.64l-15.905-5.843l-52.361-127.366L188.324,321.927z"/>
			<path style="fill:#FCF7EB;fill-opacity:0.24;" d="M297.048,299.982c0,0,32.414,12.815,47.113,69.35
				c0,0,11.307-34.675-4.523-54.274C339.637,315.058,327.577,298.098,297.048,299.982z"/>
		</g>
		<g>
			<path style="fill:#563E03;" d="M126.672,85.834c0-2.639-2.889-4.779-6.452-4.779c-3.563,0-6.452,2.14-6.452,4.779
				c0,2.107,1.844,3.892,4.4,4.528v224.874h4.779V90.161C125.146,89.399,126.672,87.75,126.672,85.834z"/>
			<circle style="fill:#BF352F;" cx="120.558" cy="419.867" r="120.558"/>
			<path style="fill:#FCF7EB;fill-opacity:0.24;" d="M132.257,325.045c0,0,54.802,21.666,79.654,117.25
				c0,0,19.117-58.625-7.647-91.761C204.264,350.535,183.873,321.859,132.257,325.045z"/>
			<g>
				<g>
					<path style="fill:#FFFFFF;" d="M56.828,442.379c-0.319,0-0.637-0.007-0.957-0.021c-8.064-0.362-15.526-5.301-19.011-12.582
						c-2.134-4.458-2.616-9.203-3.081-13.792c-0.147-1.45-0.286-2.82-0.475-4.182c-0.602-4.339-2.18-9.996-6.277-12.301
						c-3.246-1.826-8.001-1.205-11.565,1.511c-3.233,2.464-5.705,6.443-7.345,11.826l-6.401-1.95
						c2.058-6.753,5.318-11.867,9.691-15.199c5.713-4.354,13.31-5.165,18.901-2.02c5.134,2.889,8.462,8.841,9.624,17.212
						c0.206,1.484,0.358,2.98,0.505,4.427c0.427,4.203,0.829,8.173,2.46,11.579c2.396,5.006,7.732,8.537,13.277,8.786
						c5.531,0.249,11.175-2.789,14.011-7.561c2.292-3.856,2.961-8.676,3.669-13.78c0.963-6.935,1.958-14.106,7.251-19.456
						c4.132-4.178,10.424-5.816,16.827-4.38c6.403,1.435,11.393,5.601,13.347,11.143c1.531,4.343,1.294,8.75,1.064,13.012
						c-0.21,3.907-0.41,7.598,0.825,10.739c1.67,4.251,6.366,7.221,10.923,6.905c4.557-0.314,8.8-3.9,9.871-8.341
						c0.835-3.465,0.008-7.316-0.867-11.394c-1.068-4.974-2.172-10.116-0.503-15.375c2.452-7.728,11.037-13.039,19.524-12.1
						c7.664,0.85,14.685,6.359,17.888,14.035c1.445,3.464,2.069,7.081,2.673,10.58c0.725,4.199,1.409,8.165,3.429,11.347
						c2.505,3.947,7.288,6.431,11.938,6.193c4.665-0.245,9.13-3.228,11.109-7.423c1.934-4.099,1.703-9.253,1.479-14.236
						l-0.023-0.512c-0.27-6.094-0.253-12.504,3.105-18.019c2.143-3.52,5.982-6.19,10.019-6.966c3.31-0.637,6.501,0.038,8.983,1.901
						c2.378,1.785,3.692,4.26,4.851,6.445c0.227,0.428,0.454,0.856,0.687,1.275c1.169,2.09,2.414,3.324,3.507,3.473
						c0.212,0.011,0.705-0.326,0.798-0.558c-0.039,0.097-0.048,0.392,0.105,0.635l5.659-3.57c1.267,2.007,1.204,4.477-0.167,6.608
						c-1.595,2.48-4.527,3.89-7.298,3.515c-3.321-0.452-6.162-2.753-8.445-6.838c-0.258-0.461-0.507-0.931-0.757-1.403
						c-0.911-1.718-1.773-3.341-2.957-4.23c-1.222-0.917-2.688-0.877-3.703-0.682c-2.208,0.424-4.393,1.946-5.568,3.875
						c-2.38,3.909-2.36,9.179-2.135,14.242l0.023,0.508c0.248,5.528,0.529,11.793-2.112,17.391
						c-3.048,6.458-9.646,10.874-16.81,11.25c-7.078,0.369-14.12-3.275-17.937-9.289c-2.736-4.312-3.569-9.133-4.373-13.795
						c-0.566-3.278-1.1-6.373-2.255-9.141c-2.246-5.381-7.249-9.384-12.451-9.961c-5.344-0.593-10.913,2.76-12.409,7.474
						c-1.132,3.566-0.258,7.637,0.667,11.946c0.994,4.631,2.022,9.419,0.829,14.366c-1.754,7.277-8.447,12.933-15.914,13.448
						c-7.47,0.516-14.874-4.166-17.612-11.133c-1.767-4.496-1.518-9.097-1.278-13.547c0.203-3.775,0.396-7.34-0.693-10.427
						c-1.165-3.305-4.422-5.925-8.5-6.839c-4.08-0.915-8.143,0.066-10.607,2.557c-3.727,3.768-4.53,9.55-5.38,15.671
						c-0.769,5.536-1.564,11.261-4.545,16.278C71.974,438.196,64.553,442.379,56.828,442.379z"/>
				</g>
			</g>
			<g>
				<path style="fill:#FFFFFF;" d="M68.125,501.596c-5.012,0-9.945-3.331-12.837-7.454c-2.372-3.382-3.804-7.248-5.189-10.987
					c-0.67-1.808-1.362-3.678-2.145-5.44c-1.613-3.629-5.217-9.887-11.227-11.033c-3.257-0.62-6.81,0.905-9.274,3.983
					c-2.464,3.077-3.176,6.879-1.858,9.92l-2.631,1.14c-1.741-4.019-0.879-8.944,2.251-12.853c3.129-3.909,7.747-5.828,12.049-5.007
					c7.293,1.389,11.47,8.544,13.31,12.684c0.82,1.845,1.529,3.759,2.214,5.609c1.382,3.732,2.688,7.257,4.847,10.336
					c2.959,4.218,8.7,7.627,13.512,5.64c4.804-1.984,6.434-8.148,6.977-11.646c0.2-1.287,0.351-2.631,0.496-3.932
					c0.444-3.973,0.903-8.081,2.84-11.763c3.195-6.073,10.187-9.758,17.002-8.96c6.816,0.797,12.768,5.996,14.475,12.643
					c0.541,2.106,0.659,4.246,0.774,6.315c0.081,1.462,0.157,2.842,0.371,4.208c0.213,1.362,1.175,5.906,4.601,7.189
					c1.341,0.502,2.764,0.404,4.23-0.289c2.399-1.135,4.589-3.743,5.579-6.645c0.708-2.075,1.067-4.246,1.448-6.546
					c0.486-2.937,0.988-5.974,2.282-8.803c1.879-4.109,5.892-7.415,10.474-8.628c3.881-1.027,7.626-0.437,10.542,1.664
					c4.236,3.053,5.838,8.31,7.251,12.948c0.157,0.515,0.313,1.027,0.471,1.533c1.971,6.295,4.83,9.88,8.496,10.652
					c4.992,1.053,9.779-3.696,11.921-8.932c0.808-1.976,1.43-4.115,2.031-6.185c1.094-3.764,2.226-7.657,4.554-11.008
					c2.352-3.385,6.605-5.791,10.585-5.988c2.893-0.14,5.406,0.881,7.112,2.882c2.428,2.847,2.526,6.582,2.621,10.193
					c0.089,3.397,0.174,6.607,2.239,8.556c1.227,1.159,2.791,1.559,4.644,1.192c3.215-0.636,6.635-3.51,8.133-6.832
					c0.989-2.194,1.639-4.649,2.267-7.023c1.005-3.798,2.044-7.725,4.51-11.006l2.293,1.723c-2.13,2.834-3.053,6.323-4.031,10.017
					c-0.658,2.487-1.339,5.058-2.425,7.468c-1.879,4.169-6.07,7.65-10.19,8.466c-2.779,0.55-5.257-0.114-7.17-1.92
					c-2.931-2.767-3.036-6.732-3.137-10.566c-0.085-3.257-0.167-6.332-1.937-8.408c-1.43-1.678-3.395-1.947-4.789-1.879
					c-3.088,0.153-6.53,2.11-8.372,4.76c-2.061,2.966-3.078,6.466-4.156,10.172c-0.622,2.141-1.266,4.354-2.131,6.47
					c-2.512,6.141-8.327,12.096-15.166,10.652c-4.756-1.003-8.337-5.243-10.641-12.601c-0.161-0.513-0.319-1.032-0.478-1.555
					c-1.343-4.41-2.733-8.97-6.185-11.458c-2.206-1.59-5.094-2.023-8.132-1.219c-3.773,0.999-7.069,3.7-8.6,7.048
					c-1.135,2.482-1.585,5.2-2.061,8.078c-0.382,2.313-0.778,4.705-1.562,7.004c-1.247,3.654-3.955,6.839-7.067,8.311
					c-2.163,1.023-4.398,1.155-6.462,0.382c-3.294-1.234-5.697-4.759-6.429-9.431c-0.236-1.508-0.32-3.026-0.401-4.493
					c-0.112-2.02-0.217-3.928-0.688-5.76c-1.396-5.437-6.456-9.856-12.031-10.508c-5.575-0.652-11.518,2.48-14.131,7.447
					c-1.685,3.203-2.095,6.867-2.528,10.746c-0.148,1.33-0.302,2.706-0.512,4.053c-0.637,4.093-2.615,11.336-8.716,13.856
					C70.891,501.344,69.505,501.596,68.125,501.596z"/>
			</g>
		</g>
	</g>
	<g>
		<circle style="fill:#BF352F;" cx="394.698" cy="396.286" r="9.408"/>
		<circle style="fill:#BF352F;" cx="415.693" cy="416.284" r="14.263"/>
		<circle style="opacity:0.3;fill:#132326;" cx="386.297" cy="408.842" r="15.236"/>
		<circle style="fill:#BF352F;" cx="384.896" cy="411.524" r="15.236"/>
		<circle style="opacity:0.3;fill:#132326;" cx="411.116" cy="394.253" r="17.892"/>
		<circle style="fill:#BF352F;" cx="413.353" cy="394.872" r="17.892"/>
		<circle style="opacity:0.3;fill:#132326;" cx="392.763" cy="424.094" r="14.479"/>
		<circle style="fill:#BF352F;" cx="394.752" cy="430.454" r="17.505"/>
	</g>
	<g>
		
			<ellipse transform="matrix(-0.9833 0.1822 -0.1822 -0.9833 792.8498 848.8432)" style="fill:#BF352F;" cx="357.435" cy="460.839" rx="9.442" ry="9.408"/>
		
			<ellipse transform="matrix(-0.9833 0.1822 -0.1822 -0.9833 823.2961 897.9324)" style="fill:#BF352F;" cx="370.404" cy="486.782" rx="14.314" ry="14.263"/>
		
			<ellipse transform="matrix(-0.9833 0.1822 -0.1822 -0.9833 820.8643 837.577)" style="opacity:0.3;fill:#132326;" cx="371.96" cy="456.493" rx="15.29" ry="15.236"/>
		
			<ellipse transform="matrix(-0.9833 0.1822 -0.1822 -0.9833 826.6847 835.936)" style="fill:#BF352F;" cx="374.946" cy="455.94" rx="15.29" ry="15.236"/>
		
			<ellipse transform="matrix(-0.9833 0.1822 -0.1822 -0.9833 782.1058 880.032)" style="opacity:0.3;fill:#132326;" cx="350.631" cy="475.94" rx="17.956" ry="17.892"/>
		
			<ellipse transform="matrix(-0.9833 0.1822 -0.1822 -0.9833 782.3944 884.6461)" style="fill:#BF352F;" cx="350.563" cy="478.26" rx="17.956" ry="17.892"/>
		
			<ellipse transform="matrix(-0.9833 0.1822 -0.1822 -0.9833 848.019 856.3985)" style="opacity:0.3;fill:#132326;" cx="384.673" cy="467.151" rx="14.531" ry="14.479"/>
		
			<ellipse transform="matrix(-0.9833 0.1822 -0.1822 -0.9833 859.6351 862.8674)" style="fill:#BF352F;" cx="390.184" cy="470.919" rx="17.568" ry="17.505"/>
	</g>
</g>
<g id="Livello_1">
</g>
</svg>
