<?xml version="1.0" encoding="iso-8859-1"?>
<!-- Generator: Adobe Illustrator 18.1.0, SVG Export Plug-In . SVG Version: 6.00 Build 0)  -->
<!DOCTYPE svg PUBLIC "-//W3C//DTD SVG 1.1//EN" "http://www.w3.org/Graphics/SVG/1.1/DTD/svg11.dtd">
<svg version="1.1" xmlns="http://www.w3.org/2000/svg" xmlns:xlink="http://www.w3.org/1999/xlink" x="0px" y="0px"
	 viewBox="0 0 516.793 541.163" style="enable-background:new 0 0 516.793 541.163;" xml:space="preserve">
<g id="_x23_snowman">
	<g>
		<g>
			<circle style="fill:#132326;" cx="256" cy="284.195" r="256"/>
		</g>
		<g>
			<path style="fill:#F8F8F8;" d="M255.959,541.163c83.604,0,157.857-40.898,204.698-102.638c-1.125-1.735-2.718-3.088-4.739-3.661
				c-2.398-0.68-5-0.204-7.418-0.81c-2.106-0.528-3.915-1.834-5.866-2.787c-12.388-6.047-26.908,2.933-40.671,2.045
				c-8.294-0.535-16.9-4.641-24.544-1.384c-4.289,1.828-7.651,5.822-12.264,6.508c-4.27,0.635-8.322-1.742-12.201-3.632
				c-11.069-5.394-23.807-7.316-35.979-5.429c-3.201,0.496-6.43,1.251-9.643,0.841c-2.713-0.346-5.291-1.512-8.022-1.659
				c-6.861-0.367-12.431,5.586-19.151,7.016c-9.612,2.045-18.941-5.457-28.757-4.976c-7.135,0.35-13.535,4.882-20.663,5.355
				c-5.845,0.388-11.48-1.986-17.259-2.939c-13.586-2.241-28.308,3.304-40.919-2.214c-2.524-1.105-4.889-2.635-7.567-3.287
				c-11.396-2.779-23.386,10.93-33.719,5.388c-2.408-1.292-4.216-3.479-6.541-4.914c-11.223-6.925-24.894,6.608-38.033,5.381
				c-6.461-0.603-11.948-4.726-17.759-7.607c-5.812-2.881-13.419-4.351-18.349-0.141c-2.129,1.818-3.267,4.313-3.668,7.036
				C93.443,497.729,169.732,541.163,255.959,541.163z"/>
		</g>
		<ellipse style="fill:#F8F8F8;" cx="238.423" cy="190.608" rx="70.75" ry="65.5"/>
		<path style="fill:#FF7800;" d="M265.63,217.738c-4.091,0.998-8.051-2.779-9.197-8.84c-1.071-5.667-1.727-12.015-0.005-14.539
			c3.411-5,77.948-5,82.064,0C342.051,198.681,286.185,212.722,265.63,217.738z"/>
		<path style="fill:#BF352F;" d="M217.476,179.196c-7.057,9.099,14.67,14.828,14.89,2.632c0.135-7.473-14.776-7.616-14.34-1.965"/>
		<path style="opacity:0.12;fill:#231F20;" d="M149.74,428.628c0,0-1.605,4.136,0,8.544s7.123,10.616,13.745,10.031
			c6.622-0.585,23.728,1.934,32.005,3.194c8.277,1.259,38.235,7.557,50.019,5.038c11.784-2.519,39.927-3.779,49.307-5.668
			c9.381-1.889,22.073,1.8,29.798-2.564c7.725-4.363,12.455-7.512,13.953-10.031s4.257-5.753-6.779-8.544
			S174.071,413.156,149.74,428.628z"/>
		<path style="fill:#BF352F;" d="M269.159,176.789c-2.724,3.82,11.906,11.246,14.073,1.315c2.046-9.381-14.641-9.088-15.12,1.226"/>
		<path style="fill:#F8F8F8;" d="M351.923,335.453c-6.75,118.905-47.906,106.5-107,106.5s-105.417,12.405-107-106.5
			c-0.783-58.813,47.906-106.5,107-106.5S355.257,276.729,351.923,335.453z"/>
		<path style="fill:#BF352F;" d="M167.667,256.108c0,0,0.431-16.056,8.007-31.517c0,0,4.5-2.043,15,4.362
			c10.5,6.405,87.502,6.46,103.164-0.517c0,0,6.574-9.004,8.836-3.845c2.263,5.159,7.632,5.644,6.5,14.767
			c-1.132,9.123,10.497,14.536,10.5,16.75c0.011,8.25-61.557,11-81.25,12.75s-44.25-5.724-55.25-6.112
			c-11-0.388-20.092,4.109-20.5,0C162.553,261.541,167.667,256.108,167.667,256.108z"/>
		<path style="fill:#8E0906;" d="M269.573,239.725c0,0-8.811-8.059-2.495-6.93c6.316,1.129,22.004-7.588,28.626-3.947
			c6.622,3.641,29.577,85.976,35.012,94.193c5.435,8.217,10.87,18.103,6.114,17.427c-4.756-0.676-17.157,18.89-51.517,6.107
			C279.781,344.517,278.406,242.764,269.573,239.725z"/>
		<path style="opacity:0.35;fill:#231F20;" d="M177.621,308.849c1.61-0.08,5.61,1.254,5.27,2.621c-0.34,1.367-6.8,3.75-7.82,2.559
			c-1.02-1.192-0.792-3.792-0.562-3.667C174.738,310.487,176.731,308.894,177.621,308.849z"/>
		<path style="fill:#A66933;" d="M181.507,312.373c-2-1.015-40.667-39.015-40.667-39.015l5.333-11.163l-8.397-6.087l-4.27,13.015
			L102.84,246.06l-5.333,10.049l21.333,13.015l-14.667,4.902l5.333,8.995l11.333-8.329l56,37.681H181.507z"/>
		<path style="fill:#A66933;" d="M329.316,272.975c0.361,0.494,30.857-24.116,30.857-24.116l24.5-8.5h11.5v5.701h-11.5l-14,4.299
			l11,1l-1,5.312l-9.5-0.562l-8.429,0.562l3.929,7.188l-6,1l-3-8.188l-24.181,22.546L329.316,272.975z"/>
		<circle style="fill:#F8F8F8;" cx="435.508" cy="281.527" r="2.668"/>
		<circle style="fill:#F8F8F8;" cx="56.84" cy="312.846" r="4"/>
		<circle style="fill:#F8F8F8;" cx="66.71" cy="177.191" r="5.87"/>
		<circle style="fill:#F8F8F8;" cx="136.84" cy="127.775" r="2.667"/>
		<circle style="fill:#F8F8F8;" cx="72.442" cy="368.423" r="5.732"/>
		<circle style="fill:#F8F8F8;" cx="425.528" cy="363.069" r="5.354"/>
		<circle style="fill:#F8F8F8;" cx="443.426" cy="171.941" r="5.25"/>
		<circle style="fill:#F8F8F8;" cx="364.059" cy="209.472" r="5.219"/>
		<circle style="fill:#F8F8F8;" cx="487.507" cy="326.025" r="4"/>
		<g>
			<path style="fill:#F9CC07;" d="M516.793,0c0,0-0.719,0.231-2.141,0.433c-1.406,0.212-3.469,0.522-6.094,0.917
				c-5.236,0.821-12.681,2.209-21.406,4.572c-4.351,1.221-9.041,2.599-13.9,4.34c-4.863,1.721-9.931,3.682-15.045,5.985
				c-5.142,2.232-10.297,4.872-15.46,7.641c-5.109,2.88-10.242,5.879-15.149,9.22c-1.229,0.832-2.478,1.626-3.685,2.484
				l-3.597,2.593c-2.42,1.681-4.693,3.552-6.997,5.324c-4.557,3.618-8.876,7.37-12.924,11.13
				c-4.023,3.789-7.823,7.531-11.239,11.261c-0.864,0.92-1.716,1.828-2.555,2.721c-0.805,0.927-1.598,1.84-2.378,2.737
				c-1.544,1.809-3.084,3.503-4.471,5.215c-2.725,3.47-5.336,6.531-7.399,9.462c-2.101,2.897-4.015,5.343-5.41,7.506
				c-2.874,4.245-4.517,6.67-4.517,6.67l-15.785-11.452c0,0,2.013-2.412,5.535-6.632c1.713-2.14,4.024-4.565,6.569-7.414
				c2.504-2.882,5.623-5.889,8.882-9.265c1.655-1.666,3.477-3.313,5.307-5.062c0.922-0.866,1.86-1.747,2.812-2.642
				c0.986-0.86,1.987-1.732,3.001-2.617c4.013-3.578,8.435-7.138,13.078-10.702c4.67-3.535,9.611-7.022,14.772-10.334
				c2.607-1.619,5.176-3.325,7.887-4.835l4.026-2.327c1.348-0.767,2.738-1.468,4.104-2.204c5.456-2.959,11.102-5.541,16.675-7.978
				c5.628-2.328,11.198-4.503,16.703-6.262c5.477-1.831,10.855-3.312,15.977-4.564c5.118-1.271,10.017-2.19,14.532-2.979
				c9.055-1.498,16.655-2.134,21.966-2.428c2.654-0.13,4.739-0.232,6.16-0.302C516.042,0.158,516.793,0,516.793,0z"/>
			<path style="fill:#F9CC07;" d="M387.377,100.211c-32.105,6.42-37.31,11.624-43.73,43.73c-6.42-32.105-11.624-37.31-43.73-43.73
				c32.105-6.42,37.31-11.624,43.73-43.73C350.068,88.587,355.272,93.791,387.377,100.211z"/>
			<path style="fill:#F9E27D;" d="M379.674,114.258c-17.532,3.506-20.374,6.348-23.88,23.88c-3.506-17.532-6.348-20.374-23.88-23.88
				c17.532-3.506,20.374-6.348,23.88-23.88C359.3,107.911,362.142,110.753,379.674,114.258z"/>
		</g>
	</g>
</g>
<g id="Livello_1">
</g>
</svg>
