<?xml version="1.0" encoding="iso-8859-1"?>
<!-- Generator: Adobe Illustrator 18.1.0, SVG Export Plug-In . SVG Version: 6.00 Build 0)  -->
<!DOCTYPE svg PUBLIC "-//W3C//DTD SVG 1.1//EN" "http://www.w3.org/Graphics/SVG/1.1/DTD/svg11.dtd">
<svg version="1.1" xmlns="http://www.w3.org/2000/svg" xmlns:xlink="http://www.w3.org/1999/xlink" x="0px" y="0px"
	 viewBox="0 0 535.251 590.771" style="enable-background:new 0 0 535.251 590.771;" xml:space="preserve">
<g id="_x23_christmastree">
	<polygon style="display:none;fill:#FFDDAA;" points="270.441,0 422.847,78.724 416.694,100.477 238.093,35.011 	"/>
	<g>
		<g>
			<g>
				<circle style="fill:#DAC242;" cx="256" cy="334.771" r="256"/>
			</g>
		</g>
		<g>
			<ellipse style="opacity:0.26;fill:#231F20;" cx="340.364" cy="538.82" rx="50.745" ry="10.665"/>
			<g>
				<path style="fill:#788E42;" d="M277.596,204.365c0,0-20.748,38.888-46.436,41.488c0,0-2.202,11.25,58.714,6.558
					c60.916-4.691,36.696-21.446,36.696-21.446l-2.936-22.765L277.596,204.365z"/>
				<path style="fill:#788E42;" d="M212.445,418.764c0,0-12.925,30.825-49.948,28.623c0,0,41.262,22.324,76.43,12.813
					c35.168-9.511,23.058-30.428,23.058-30.428L212.445,418.764z"/>
				<path style="fill:#788E42;" d="M245.472,318.582c0,0-47.338,26.788-67.154,30.458c0,0,50.641,14.848,91.374,8.807
					c40.733-6.041,27.942-39.265,27.942-39.265H245.472z"/>
				<path style="fill:#788E42;" d="M405.101,204.365l40.733,30.042c0,0-42.935,31.333-72.659,24.727
					c-29.724-6.605-22.018-30.174-22.018-30.174l14.312-26.594L405.101,204.365z"/>
				<path style="fill:#788E42;" d="M411.707,313.164l79.264,30.175l-57.282,15.905c-17.567,4.877-36.357-1.068-47.921-15.163
					l-13.693-16.691L411.707,313.164z"/>
				<path style="fill:#788E42;" d="M452.44,418.764c0,0,14.312,27.282,44.036,21.898c0,0-24.22,24.846-60.549,17.437
					c-36.329-7.409-20.917-33.83-20.917-33.83S442.44,406.558,452.44,418.764z"/>
				<polygon style="fill:#996402;" points="324.736,477.329 307.619,537.934 372.074,537.934 357.763,469.405 				"/>
				<path style="opacity:0.31;fill:#231F20;" d="M322.508,485.218l-2.406,8.519c0,0,31.617-2.421,43.067,1.555l-3.248-15.554
					h-37.968L322.508,485.218z"/>
				<path style="fill:#88A34F;" d="M436.691,432.874c42.549,3.195,82.132-28.368,82.132-28.368s-156.383-87.331-119.94-79.666
					c36.443,7.666,86.768-17.671,86.768-17.671c-55.919-11.283-95.648-82.036-95.648-82.036l55.345-16.688
					C398.079,184.053,340.115,62.959,340.115,62.959s-58.385,121.094-105.654,145.485l23.121,10.942l31.926,5.746
					c0,0-39.432,70.753-95.351,82.036c0,0,50.325,25.337,86.768,17.671c36.443-7.666-119.94,79.666-119.94,79.666
					s39.583,31.564,82.132,28.368c-15.953,14.434-54.414,43.654-98.56,37.186c0,0,37.725,48.352,181.702,18.043
					c1.354-0.285,10.328-0.577,13.645-0.876c3.317,0.299,12.291,0.591,13.645,0.876c143.977,30.309,181.702-18.043,181.702-18.043
					C491.104,476.528,452.644,447.308,436.691,432.874z"/>
			</g>
		</g>
		<g>
			<g>
				<circle style="fill:#BF352F;" cx="178.317" cy="414.472" r="14.189"/>
			</g>
			<ellipse style="opacity:0.2;fill:#FCF7EB;" cx="178.317" cy="405.68" rx="7.995" ry="4.372"/>
		</g>
		<g>
			<g>
				<circle style="fill:#BF352F;" cx="440.298" cy="217.267" r="12.681"/>
			</g>
			<ellipse style="opacity:0.2;fill:#FCF7EB;" cx="440.298" cy="209.409" rx="7.145" ry="3.908"/>
		</g>
		<g>
			<g>
				<circle style="fill:#BF352F;" cx="225.93" cy="322.824" r="12.681"/>
			</g>
			<ellipse style="opacity:0.2;fill:#FCF7EB;" cx="225.93" cy="314.966" rx="7.145" ry="3.908"/>
		</g>
		<g>
			<g>
				<circle style="fill:#BF352F;" cx="242.862" cy="216.506" r="9.788"/>
			</g>
			<ellipse style="opacity:0.2;fill:#FCF7EB;" cx="242.862" cy="210.441" rx="5.515" ry="3.016"/>
		</g>
		<g>
			<path style="fill:#FCF7EB;" d="M433.153,423.456c-8.02,0-14.521,6.501-14.521,14.521c0,8.02,6.501,14.521,14.521,14.521
				c8.02,0,14.521-6.501,14.521-14.521C447.674,429.958,441.173,423.456,433.153,423.456z M433.153,444.719
				c-3.717,0-6.741-3.024-6.741-6.742c0-3.717,3.024-6.742,6.741-6.742c3.718,0,6.742,3.025,6.742,6.742
				C439.895,441.695,436.871,444.719,433.153,444.719z"/>
			<path style="fill:#FCF7EB;" d="M252.65,354.736c-8.02,0-14.521,6.501-14.521,14.521c0,8.02,6.501,14.521,14.521,14.521
				c8.02,0,14.521-6.501,14.521-14.521C267.171,361.237,260.67,354.736,252.65,354.736z M252.65,375.998
				c-3.717,0-6.741-3.024-6.741-6.742c0-3.717,3.024-6.742,6.741-6.742c3.718,0,6.742,3.025,6.742,6.742
				C259.392,372.974,256.368,375.998,252.65,375.998z"/>
			<path style="fill:#FCF7EB;" d="M275.487,367.284c-5.145,0-9.316,4.171-9.316,9.316c0,5.145,4.171,9.316,9.316,9.316
				s9.316-4.171,9.316-9.316C284.802,371.455,280.632,367.284,275.487,367.284z M275.487,380.926c-2.385,0-4.325-1.94-4.325-4.325
				c0-2.385,1.94-4.325,4.325-4.325c2.385,0,4.325,1.94,4.325,4.325C279.812,378.985,277.872,380.926,275.487,380.926z"/>
			<path style="fill:#FCF7EB;" d="M298.537,369.256c-8.02,0-14.521,6.501-14.521,14.521c0,8.02,6.501,14.521,14.521,14.521
				c8.02,0,14.521-6.501,14.521-14.521C313.058,375.758,306.556,369.256,298.537,369.256z M298.537,390.519
				c-3.717,0-6.741-3.024-6.741-6.742c0-3.717,3.024-6.742,6.741-6.742c3.718,0,6.742,3.025,6.742,6.742
				C305.279,387.495,302.254,390.519,298.537,390.519z"/>
			<path style="fill:#FCF7EB;" d="M321.112,384.777c-5.145,0-9.316,4.171-9.316,9.316c0,5.145,4.171,9.316,9.316,9.316
				s9.316-4.171,9.316-9.316C330.428,388.948,326.257,384.777,321.112,384.777z M321.112,398.418c-2.385,0-4.325-1.94-4.325-4.325
				c0-2.385,1.94-4.325,4.325-4.325c2.385,0,4.325,1.94,4.325,4.325C325.437,396.478,323.497,398.418,321.112,398.418z"/>
			<path style="fill:#FCF7EB;" d="M344.162,386.749c-8.02,0-14.521,6.501-14.521,14.521c0,8.02,6.501,14.521,14.521,14.521
				c8.02,0,14.521-6.501,14.521-14.521C358.683,393.25,352.182,386.749,344.162,386.749z M344.162,408.011
				c-3.717,0-6.741-3.024-6.741-6.742c0-3.717,3.024-6.742,6.741-6.742c3.718,0,6.742,3.025,6.742,6.742
				C350.904,404.987,347.88,408.011,344.162,408.011z"/>
			<path style="fill:#FCF7EB;" d="M367.999,400.284c-5.145,0-9.316,4.171-9.316,9.316c0,5.145,4.171,9.316,9.316,9.316
				s9.316-4.171,9.316-9.316C377.315,404.455,373.144,400.284,367.999,400.284z M367.999,413.925c-2.385,0-4.325-1.94-4.325-4.325
				c0-2.385,1.94-4.325,4.325-4.325c2.385,0,4.325,1.94,4.325,4.325C372.324,411.985,370.384,413.925,367.999,413.925z"/>
			<path style="fill:#FCF7EB;" d="M391.049,402.256c-8.02,0-14.521,6.501-14.521,14.521c0,8.02,6.501,14.521,14.521,14.521
				c8.02,0,14.521-6.501,14.521-14.521C405.57,408.757,399.069,402.256,391.049,402.256z M391.049,423.518
				c-3.717,0-6.741-3.024-6.741-6.742c0-3.717,3.024-6.742,6.741-6.742c3.718,0,6.742,3.025,6.742,6.742
				C397.791,420.494,394.767,423.518,391.049,423.518z"/>
			<path style="fill:#FCF7EB;" d="M411.762,419.345c-5.145,0-9.316,4.171-9.316,9.316c0,5.145,4.171,9.316,9.316,9.316
				c5.145,0,9.316-4.171,9.316-9.316C421.078,423.516,416.907,419.345,411.762,419.345z M411.762,432.987
				c-2.385,0-4.325-1.94-4.325-4.325c0-2.385,1.94-4.325,4.325-4.325c2.385,0,4.325,1.94,4.325,4.325
				C416.087,431.046,414.147,432.987,411.762,432.987z"/>
		</g>
		<g>
			<g>
				<circle style="fill:#BF352F;" cx="442.941" cy="432.449" r="9.788"/>
			</g>
			<ellipse style="opacity:0.2;fill:#FCF7EB;" cx="442.941" cy="426.384" rx="5.515" ry="3.016"/>
		</g>
		<g>
			<g>
				<circle style="fill:#BF352F;" cx="514.263" cy="490.759" r="17.788"/>
			</g>
			<ellipse style="opacity:0.2;fill:#FCF7EB;" cx="514.263" cy="479.737" rx="10.022" ry="5.481"/>
		</g>
		<g>
			<g>
				<circle style="fill:#BF352F;" cx="186.312" cy="356.903" r="6.958"/>
			</g>
			<ellipse style="opacity:0.2;fill:#FCF7EB;" cx="186.312" cy="352.591" rx="3.921" ry="2.144"/>
		</g>
		<g>
			<g>
				<circle style="fill:#BF352F;" cx="484.013" cy="349.945" r="6.958"/>
			</g>
			<ellipse style="opacity:0.2;fill:#FCF7EB;" cx="484.013" cy="345.633" rx="3.921" ry="2.144"/>
		</g>
		<g>
			<g>
				<circle style="fill:#BF352F;" cx="154.773" cy="487.514" r="13.708"/>
			</g>
			<ellipse style="opacity:0.2;fill:#FCF7EB;" cx="154.773" cy="479.02" rx="7.724" ry="4.224"/>
		</g>
		<g>
			<g>
				<circle style="fill:#BF352F;" cx="496.475" cy="449.195" r="6.958"/>
			</g>
			<ellipse style="opacity:0.2;fill:#FCF7EB;" cx="496.475" cy="444.883" rx="3.921" ry="2.144"/>
		</g>
		<g>
			<path style="fill:#FCF7EB;" d="M272.918,253.556c-8.02,0-14.521,6.501-14.521,14.521c0,8.02,6.501,14.521,14.521,14.521
				c8.02,0,14.521-6.501,14.521-14.521C287.438,260.057,280.937,253.556,272.918,253.556z M272.917,274.819
				c-3.717,0-6.741-3.024-6.741-6.742c0-3.717,3.024-6.742,6.741-6.742c3.718,0,6.742,3.025,6.742,6.742
				C279.659,271.794,276.635,274.819,272.917,274.819z"/>
			<path style="fill:#FCF7EB;" d="M295.754,266.105c-5.145,0-9.316,4.171-9.316,9.316c0,5.145,4.171,9.316,9.316,9.316
				c5.145,0,9.316-4.171,9.316-9.316C305.07,270.276,300.899,266.105,295.754,266.105z M295.754,279.746
				c-2.385,0-4.325-1.94-4.325-4.325c0-2.385,1.94-4.325,4.325-4.325c2.385,0,4.325,1.94,4.325,4.325
				C300.079,277.806,298.139,279.746,295.754,279.746z"/>
			<path style="fill:#FCF7EB;" d="M318.804,268.077c-8.02,0-14.521,6.501-14.521,14.521c0,8.02,6.501,14.521,14.521,14.521
				c8.02,0,14.521-6.501,14.521-14.521C333.325,274.578,326.824,268.077,318.804,268.077z M318.804,289.339
				c-3.717,0-6.741-3.024-6.741-6.742c0-3.717,3.024-6.742,6.741-6.742c3.718,0,6.742,3.025,6.742,6.742
				C325.546,286.315,322.522,289.339,318.804,289.339z"/>
			<path style="fill:#FCF7EB;" d="M341.38,283.597c-5.145,0-9.316,4.171-9.316,9.316c0,5.145,4.171,9.316,9.316,9.316
				c5.145,0,9.316-4.171,9.316-9.316C350.695,287.768,346.525,283.597,341.38,283.597z M341.379,297.238
				c-2.385,0-4.325-1.94-4.325-4.325c0-2.385,1.94-4.325,4.325-4.325c2.385,0,4.325,1.94,4.325,4.325
				C345.705,295.298,343.765,297.238,341.379,297.238z"/>
			<path style="fill:#FCF7EB;" d="M364.43,285.569c-8.02,0-14.521,6.501-14.521,14.521c0,8.02,6.501,14.521,14.521,14.521
				c8.02,0,14.521-6.501,14.521-14.521C378.951,292.07,372.449,285.569,364.43,285.569z M364.43,306.832
				c-3.717,0-6.741-3.024-6.741-6.742c0-3.717,3.024-6.742,6.741-6.742c3.718,0,6.742,3.025,6.742,6.742
				C371.172,303.808,368.147,306.832,364.43,306.832z"/>
			<path style="fill:#FCF7EB;" d="M388.266,299.104c-5.145,0-9.316,4.171-9.316,9.316c0,5.145,4.171,9.316,9.316,9.316
				s9.316-4.171,9.316-9.316C397.582,303.275,393.411,299.104,388.266,299.104z M388.266,312.745c-2.385,0-4.325-1.94-4.325-4.325
				c0-2.385,1.94-4.325,4.325-4.325c2.385,0,4.325,1.94,4.325,4.325C392.592,310.805,390.651,312.745,388.266,312.745z"/>
			<path style="fill:#FCF7EB;" d="M411.316,301.076c-8.02,0-14.521,6.501-14.521,14.521c0,8.02,6.501,14.521,14.521,14.521
				c8.02,0,14.521-6.501,14.521-14.521C425.837,307.577,419.336,301.076,411.316,301.076z M411.316,322.339
				c-3.717,0-6.741-3.024-6.741-6.742c0-3.717,3.024-6.742,6.741-6.742c3.718,0,6.742,3.025,6.742,6.742
				C418.058,319.314,415.034,322.339,411.316,322.339z"/>
		</g>
		<g>
			<g>
				<circle style="fill:#BF352F;" cx="404.79" cy="334.264" r="15.681"/>
			</g>
			<ellipse style="opacity:0.2;fill:#FCF7EB;" cx="404.79" cy="324.547" rx="8.835" ry="4.832"/>
		</g>
		<g>
			<path style="fill:#FCF7EB;" d="M297.019,140.203c-7.864-1.574-15.514,3.526-17.088,11.389
				c-1.574,7.864,3.526,15.514,11.389,17.088c7.864,1.574,15.514-3.526,17.088-11.39
				C309.982,149.427,304.883,141.776,297.019,140.203z M292.847,161.052c-3.645-0.729-6.017-4.288-5.287-7.934
				c0.729-3.645,4.288-6.017,7.933-5.288c3.646,0.729,6.018,4.289,5.288,7.934C300.051,159.409,296.492,161.781,292.847,161.052z"/>
			<path style="fill:#FCF7EB;" d="M316.949,156.988c-5.045-1.01-9.953,2.262-10.963,7.307c-1.01,5.045,2.262,9.953,7.307,10.963
				c5.045,1.01,9.953-2.262,10.963-7.307C325.266,162.906,321.994,157.998,316.949,156.988z M314.273,170.364
				c-2.338-0.468-3.86-2.751-3.392-5.09c0.468-2.338,2.751-3.86,5.089-3.392c2.339,0.468,3.861,2.751,3.393,5.09
				C318.895,169.31,316.612,170.832,314.273,170.364z"/>
			<path style="fill:#FCF7EB;" d="M339.165,163.445c-7.864-1.574-15.514,3.526-17.088,11.389
				c-1.574,7.864,3.526,15.514,11.389,17.088c7.864,1.574,15.514-3.526,17.088-11.39
				C352.127,172.669,347.028,165.018,339.165,163.445z M334.992,184.294c-3.645-0.729-6.017-4.288-5.287-7.934
				c0.729-3.645,4.288-6.017,7.933-5.288c3.646,0.729,6.018,4.289,5.288,7.934C342.197,182.651,338.638,185.024,334.992,184.294z"/>
			<path style="fill:#FCF7EB;" d="M358.256,183.093c-5.045-1.01-9.953,2.262-10.963,7.307c-1.01,5.045,2.262,9.953,7.307,10.963
				c5.045,1.01,9.953-2.262,10.963-7.307C366.572,189.011,363.301,184.102,358.256,183.093z M355.579,196.469
				c-2.338-0.468-3.86-2.751-3.392-5.09c0.468-2.338,2.751-3.86,5.089-3.392c2.339,0.468,3.861,2.751,3.393,5.09
				C360.201,195.415,357.918,196.937,355.579,196.469z"/>
			<path style="fill:#FCF7EB;" d="M380.471,189.549c-7.864-1.574-15.514,3.526-17.088,11.389
				c-1.574,7.864,3.526,15.514,11.389,17.088c7.864,1.574,15.514-3.526,17.088-11.39
				C393.434,198.773,388.335,191.123,380.471,189.549z M376.299,210.399c-3.645-0.729-6.017-4.288-5.287-7.934
				c0.729-3.645,4.288-6.017,7.933-5.288c3.646,0.729,6.018,4.289,5.288,7.934C383.503,208.756,379.944,211.128,376.299,210.399z"/>
			<path style="fill:#FCF7EB;" d="M401.188,207.498c-5.045-1.01-9.953,2.262-10.963,7.307c-1.01,5.045,2.262,9.953,7.307,10.963
				c5.045,1.01,9.953-2.262,10.963-7.307C409.505,213.416,406.233,208.508,401.188,207.498z M398.512,220.874
				c-2.338-0.468-3.86-2.751-3.392-5.09c0.468-2.338,2.751-3.86,5.089-3.392c2.339,0.468,3.861,2.751,3.393,5.09
				C403.134,219.82,400.85,221.342,398.512,220.874z"/>
		</g>
		<polygon style="fill:#FCF7EB;" points="93.601,324.675 96.458,316.383 101.22,324.675 108.839,324.675 104.077,329.318 
			108.839,336.461 98.839,332.175 89.792,340.211 92.649,332.175 85.506,328.297 		"/>
		<polygon style="fill:#FCF7EB;" points="149.185,176.227 143.967,156.805 135.27,176.227 121.354,176.227 130.052,187.101 
			121.354,203.832 139.618,193.794 156.143,212.615 150.925,193.794 163.971,184.71 		"/>
		<polygon style="fill:#FCF7EB;" points="150.048,263.143 155.85,246.306 165.52,263.143 180.991,263.143 171.322,272.571 
			180.991,287.075 160.685,278.373 142.313,294.69 148.115,278.373 133.61,270.498 		"/>
		<polygon style="fill:#EEB415;" points="330.793,46.914 343.134,25.189 352.13,50.902 373.467,54.89 357.701,65.4 367.298,87.896 
			341.537,70.66 311.993,88.428 324.2,67.42 306.227,52.821 		"/>
		<polygon style="fill:#FCF7EB;" points="209.677,528.533 212.534,520.242 217.296,528.533 224.915,528.533 220.153,533.176 
			224.915,540.319 214.915,536.033 205.867,544.069 208.725,536.033 201.582,532.156 		"/>
		<polygon style="fill:#FCF7EB;" points="90.01,397.123 84.791,377.702 76.094,397.123 62.179,397.123 70.876,407.998 
			62.179,424.728 80.443,414.69 96.967,433.512 91.749,414.69 104.795,405.607 		"/>
		<polygon style="fill:#FCF7EB;" points="50.79,251.132 54.953,239.05 61.892,251.132 72.994,251.132 66.055,257.898 
			72.994,268.306 58.423,262.061 45.239,273.77 49.402,262.061 38.994,256.41 		"/>
		<polygon style="fill:#FCF7EB;" points="225.946,114.775 230.109,102.693 237.048,114.775 248.15,114.775 241.211,121.54 
			248.15,131.948 233.579,125.704 220.395,137.413 224.558,125.704 214.15,120.053 		"/>
	</g>
</g>
<g id="Livello_1">
</g>
</svg>
