<?xml version="1.0" encoding="iso-8859-1"?>
<!-- Generator: Adobe Illustrator 18.1.0, SVG Export Plug-In . SVG Version: 6.00 Build 0)  -->
<!DOCTYPE svg PUBLIC "-//W3C//DTD SVG 1.1//EN" "http://www.w3.org/Graphics/SVG/1.1/DTD/svg11.dtd">
<svg version="1.1" xmlns="http://www.w3.org/2000/svg" xmlns:xlink="http://www.w3.org/1999/xlink" x="0px" y="0px"
	 viewBox="0 0 515.27 512" style="enable-background:new 0 0 515.27 512;" xml:space="preserve">
<g id="_x23_socks">
	<g>
		<circle style="fill:#FFD99B;" cx="256" cy="256" r="256"/>
	</g>
	<g>
		<g>
			<rect x="5.175" y="110.709" style="fill:#8E0906;" width="505.523" height="4"/>
		</g>
		<g>
			<g>
				<circle style="fill:#8E0906;" cx="5.416" cy="112.709" r="4.812"/>
			</g>
		</g>
		<g>
			<g>
				<circle style="fill:#8E0906;" cx="510.458" cy="112.709" r="4.812"/>
			</g>
		</g>
	</g>
	<g>
		<g>
			<path style="fill:#BF352F;" d="M244.784,334.748c2.711-1.841,5.515-3.779,7.144-6.623c2.384-4.163,1.762-9.328,1.005-14.066
				c-8.477-53.098-24.879-104.923-48.494-153.23c-1.044-2.136-2.253-4.417-4.406-5.425c-2.393-1.12-5.2-0.331-7.717,0.471
				c-25.819,8.23-51.637,16.461-77.456,24.691c11.21,39.864,22.419,79.727,33.629,119.591
				c-19.861,9.791-38.278,22.505-54.474,37.606c-8.409,7.841-16.72,17.492-16.814,28.989c-0.156,19.091,22.001,30.597,41.078,31.346
				c11.338,0.445,22.758-1.272,33.463-5.032c14.692-5.16,27.76-14.001,40.643-22.747
				C209.852,358.463,227.318,346.605,244.784,334.748z"/>
			<path style="opacity:0.26;fill:#231F20;" d="M116.311,189.426l5.716,16.628c0,0,27.211-9.269,46.024-16.628
				c11.991-4.69,17.818-5.482,24.671-5.482s20.807-3.536,20.807-3.536l-9.09-19.578L116.311,189.426z"/>
			<path style="fill:#FCF7EB;" d="M213.529,129.119c6.784,9.951,10.374,25.729-6.252,38.433c-11.477,8.77-25.782,6.111-38.414,9.374
				c-20.667,5.338-68.491,33.826-76.546,7.698c-8.66-28.093,2.711-51.408,23.994-52.764
				C134.765,130.685,186.897,90.057,213.529,129.119z"/>
			<path style="fill:#EAEAEA;" d="M103.291,186.685c0,0,15.419-1.028,24.328-4.797c8.909-3.769,29.125-14.391,40.09-15.419
				c10.965-1.028,27.002-0.529,31.866-3.084c4.865-2.555,12.146-10.965,13.954-11.307s4.372,1.769,4.372,1.769
				s-6.15,18.91-38.794,21.42c0,0-13.56,1.787-46.06,14.998c0,0-21.302,8.919-34.096,3.013
				C98.953,193.276,94.567,187.656,103.291,186.685z"/>
			<path style="fill:#8E0906;" d="M98.272,332.692c0,0-31.988,22.584-19.157,46.997c0,0,11.155,25.36,59.455,17.639L98.272,332.692z
				"/>
			<path style="fill:#8E0906;" d="M229.423,346.359c0,0-25.761-36.321,20.84-53.225l4.569,27.869c0,0,1.371,6.396-4.112,10.051
				C245.237,334.709,229.423,346.359,229.423,346.359z"/>
			<g>
				<path style="fill:#FFFBF5;" d="M148.42,235.349l-20.038-11.661l2.069-3.554l17.142,9.976l15.759-17.598
					c0.744-0.832,1.87-2.088,3.59-2.418c1.941-0.37,3.622,0.638,4.623,1.243l15.125,9.117c0.736,0.444,1.032,0.537,1.15,0.537
					c0.023-0.053,0.236-0.384,0.53-0.953l9.015-17.4c0.442-0.852,1.181-2.279,2.72-2.91c2.158-0.885,4.223,0.435,5.106,0.999
					l20.697,13.192l-2.211,3.467l-20.697-13.193c-0.949-0.606-1.289-0.655-1.371-0.652c-0.134,0.102-0.479,0.769-0.593,0.988
					l-9.015,17.4c-0.431,0.831-1.233,2.378-2.89,2.956c-1.934,0.677-3.712-0.396-4.564-0.911l-15.126-9.117
					c-0.432-0.261-1.329-0.799-1.725-0.726c-0.356,0.068-0.97,0.754-1.301,1.123L148.42,235.349z"/>
			</g>
			<g>
				<path style="fill:#FFFBF5;" d="M158.97,274.746c-0.323,0-0.649-0.076-0.952-0.235c-6.555-3.43-17.372-9.031-18.5-9.458
					l0.608-1.607v-2.407c0.617,0,0.997,0,18.202,8.993l15.239-21.655c0.59-0.841,1.713-1.115,2.627-0.642l26.064,13.509
					l9.355-24.078c0.229-0.589,0.716-1.04,1.321-1.223c0.605-0.183,1.26-0.079,1.777,0.285l24.766,17.389l-2.364,3.365
					l-22.618-15.882l-9.234,23.767c-0.211,0.544-0.644,0.973-1.19,1.179c-0.547,0.206-1.154,0.171-1.673-0.098l-26.503-13.736
					l-15.243,21.661C160.256,274.437,159.62,274.746,158.97,274.746z"/>
			</g>
		</g>
		<g>
			<path style="fill:#A66933;" d="M174.567,80.163c-0.333,1.667-11.333,43.667-11.333,43.667l20,2.333l6.264-44L174.567,80.163z"/>
			<g>
				<path style="fill:#5E3517;" d="M185.735,113.779c-0.054,0-0.108-0.004-0.164-0.014l-19.167-3.167
					c-0.545-0.09-0.913-0.605-0.823-1.15c0.09-0.544,0.596-0.917,1.149-0.823l19.167,3.167c0.545,0.09,0.913,0.605,0.823,1.15
					C186.639,113.431,186.215,113.779,185.735,113.779z"/>
			</g>
		</g>
	</g>
	<g>
		<g>
			<path style="fill:#BF352F;" d="M429.768,335.262c2.711-1.841,5.515-3.779,7.144-6.623c2.384-4.163,1.762-9.328,1.005-14.066
				c-8.477-53.098-24.879-104.923-48.494-153.23c-1.044-2.136-2.253-4.417-4.406-5.425c-2.393-1.12-5.2-0.331-7.717,0.471
				c-25.819,8.23-51.637,16.461-77.456,24.691c11.21,39.864,22.419,79.727,33.629,119.591
				c-19.861,9.791-38.278,22.505-54.474,37.606c-8.409,7.841-16.72,17.492-16.814,28.989c-0.156,19.091,22.001,30.597,41.078,31.346
				c11.338,0.445,22.758-1.272,33.463-5.032c14.692-5.16,27.76-14.001,40.643-22.747
				C394.836,358.976,412.302,347.119,429.768,335.262z"/>
			<path style="opacity:0.26;fill:#231F20;" d="M301.295,189.939l5.716,16.628c0,0,27.211-9.269,46.024-16.628
				c11.991-4.69,17.818-5.482,24.671-5.482c6.853,0,20.807-3.536,20.807-3.536l-9.09-19.578L301.295,189.939z"/>
			<path style="fill:#FCF7EB;" d="M398.513,129.633c6.784,9.951,10.374,25.729-6.252,38.433c-11.478,8.77-25.782,6.111-38.414,9.374
				c-20.667,5.338-68.491,33.826-76.546,7.698c-8.66-28.093,2.711-51.408,23.994-52.764
				C319.749,131.199,371.881,90.571,398.513,129.633z"/>
			<path style="fill:#EAEAEA;" d="M288.275,187.198c0,0,15.419-1.028,24.328-4.797c8.909-3.769,29.125-14.391,40.09-15.419
				c10.965-1.028,27.002-0.529,31.866-3.084c4.865-2.555,12.146-10.965,13.954-11.307s4.372,1.769,4.372,1.769
				s-6.15,18.91-38.794,21.42c0,0-13.56,1.787-46.06,14.998c0,0-21.302,8.919-34.096,3.013
				C283.937,193.79,279.551,188.169,288.275,187.198z"/>
			<path style="fill:#8E0906;" d="M283.256,333.206c0,0-31.988,22.584-19.157,46.997c0,0,11.155,25.36,59.455,17.639
				L283.256,333.206z"/>
			<path style="fill:#8E0906;" d="M414.407,346.873c0,0-25.761-36.321,20.84-53.225l4.569,27.869c0,0,1.371,6.396-4.112,10.051
				C430.221,335.223,414.407,346.873,414.407,346.873z"/>
			<g>
				<path style="fill:#FFFBF5;" d="M333.404,235.862l-20.038-11.661l2.069-3.554l17.142,9.976l15.759-17.598
					c0.744-0.832,1.87-2.088,3.59-2.418c1.941-0.37,3.622,0.638,4.623,1.243l15.125,9.117c0.736,0.444,1.032,0.537,1.15,0.537
					c0.023-0.053,0.236-0.384,0.53-0.953l9.015-17.4c0.442-0.852,1.181-2.279,2.72-2.91c2.158-0.885,4.223,0.435,5.106,0.999
					l20.697,13.192l-2.211,3.467l-20.697-13.193c-0.949-0.606-1.289-0.655-1.371-0.652c-0.134,0.102-0.479,0.769-0.593,0.988
					l-9.015,17.4c-0.431,0.831-1.233,2.378-2.89,2.956c-1.934,0.677-3.712-0.396-4.564-0.911l-15.126-9.117
					c-0.432-0.261-1.329-0.799-1.725-0.726c-0.356,0.068-0.97,0.754-1.301,1.123L333.404,235.862z"/>
			</g>
			<g>
				<path style="fill:#FFFBF5;" d="M343.954,275.259c-0.323,0-0.649-0.076-0.952-0.235c-6.555-3.43-17.372-9.031-18.5-9.458
					l0.608-1.607v-2.407c0.617,0,0.997,0,18.202,8.993l15.239-21.655c0.59-0.841,1.713-1.115,2.627-0.642l26.064,13.509
					l9.355-24.078c0.229-0.589,0.716-1.04,1.321-1.223c0.605-0.183,1.259-0.079,1.777,0.285l24.766,17.389l-2.364,3.365
					l-22.618-15.882l-9.234,23.767c-0.211,0.544-0.644,0.973-1.19,1.179c-0.547,0.206-1.154,0.171-1.673-0.098l-26.503-13.736
					l-15.243,21.661C345.24,274.95,344.604,275.259,343.954,275.259z"/>
			</g>
		</g>
		<g>
			<path style="fill:#A66933;" d="M364.438,85.611c-0.333,1.667-11.333,43.667-11.333,43.667l20,2.333l6.264-44L364.438,85.611z"/>
			<g>
				<path style="fill:#5E3517;" d="M375.606,119.227c-0.054,0-0.108-0.004-0.164-0.014l-19.167-3.167
					c-0.545-0.09-0.913-0.605-0.823-1.15c0.09-0.544,0.596-0.917,1.149-0.823l19.167,3.167c0.545,0.09,0.913,0.605,0.823,1.15
					C376.51,118.879,376.086,119.227,375.606,119.227z"/>
			</g>
		</g>
	</g>
	<path style="fill:#FFFFFF;" d="M74.55,231.458c-0.767-0.061-1.533-0.126-2.299-0.193c0.798-0.781,1.628-1.528,2.497-2.235
		c0.668-0.543,0.564-1.689,0-2.253c-0.661-0.661-1.583-0.545-2.253,0c-1.538,1.251-2.964,2.619-4.279,4.102
		c-3.149-0.326-6.292-0.707-9.427-1.149c2.436-3.395,4.38-7.073,6.139-10.857c0.229,0.167,0.515,0.278,0.86,0.3
		c1.503,0.097,2.885,0.564,4.171,1.339c1.761,1.061,3.364-1.693,1.608-2.751c-1.651-0.995-3.45-1.555-5.354-1.736
		c0.383-0.87,0.761-1.742,1.136-2.616c0.683-1.593-1.22-3.009-2.292-2.215c-0.04-0.184-0.079-0.368-0.123-0.552
		c-0.479-1.993-3.553-1.149-3.073,0.847c0.431,1.793,0.571,3.58,0.464,5.42c-0.001,0.021,0,0.04-0.001,0.061
		c-1.97,4.304-4.175,8.498-7.103,12.229c-0.285-0.044-0.57-0.088-0.855-0.133c-1.305-3.176-2.558-6.373-3.761-9.59
		c1.273-2.09,2.546-4.18,3.819-6.269c1.07-1.756-1.685-3.359-2.752-1.608c-0.823,1.351-1.646,2.703-2.47,4.054
		c-0.078-0.219-0.16-0.436-0.238-0.655c-0.632-1.775-3.314-1.199-3.165,0.433l-1.691-1.105c-1.722-1.125-3.32,1.633-1.608,2.752
		c1.625,1.061,3.249,2.123,4.874,3.184c0.056,0.037,0.112,0.069,0.167,0.097c1.011,2.71,2.054,5.408,3.137,8.09
		c-2.206-0.385-4.408-0.796-6.604-1.238c-1.388-0.28-2.827-0.521-4.224-0.881c0.038-1.706,0.331-3.361,0.89-5.021
		c0.656-1.948-2.421-2.784-3.073-0.847c-0.519,1.54-0.84,3.125-0.959,4.73c-0.449-0.228-0.886-0.483-1.302-0.779
		c-1.675-1.19-3.268,1.573-1.608,2.751c0.48,0.341,0.981,0.636,1.498,0.897c-0.841,0.568-1.682,1.136-2.524,1.703
		c-1.691,1.141-0.098,3.903,1.608,2.752c1.451-0.98,2.903-1.959,4.354-2.939c0.161-0.028,0.316-0.079,0.457-0.151
		c1.17,0.289,2.359,0.516,3.526,0.754c3.117,0.634,6.246,1.208,9.384,1.727c0.092,0.22,0.18,0.441,0.272,0.66
		c-2.852,3.221-5.861,6.323-8.864,9.419c-1.241-1.018-2.483-2.037-3.724-3.055c-0.665-0.545-1.603-0.651-2.253,0
		c-0.563,0.563-0.669,1.705,0,2.253c1.255,1.03,2.51,2.059,3.765,3.089c-0.804,0.833-1.606,1.668-2.401,2.507
		c-1.41,1.488,0.84,3.746,2.253,2.253c0.337-0.356,0.677-0.71,1.017-1.065c0.05,0.589,0.155,1.176,0.319,1.758
		c0.555,1.971,3.63,1.133,3.073-0.847c-0.296-1.05-0.335-2.084-0.082-3.148c0.098-0.413,0.043-0.776-0.109-1.076
		c2.832-2.912,5.678-5.826,8.39-8.842c1.286,2.972,2.62,5.922,3.993,8.854c-1.177,1.365-2.256,2.811-3.226,4.332
		c-1.106,1.734,1.651,3.334,2.752,1.608c0.614-0.962,1.277-1.881,1.982-2.768c0.283,0.588,0.564,1.178,0.851,1.765
		c0.901,1.842,3.65,0.228,2.752-1.608c-0.287-0.586-0.566-1.176-0.849-1.764c1.611-0.01,3.218,0.062,4.826,0.216
		c2.04,0.196,2.027-2.992,0-3.187c-2.105-0.202-4.21-0.263-6.323-0.183c-1.534-3.28-3.015-6.584-4.437-9.914
		c0.158-0.186,0.314-0.373,0.47-0.56c3.779,0.559,7.57,1.036,11.37,1.433c-0.131,1.554-0.261,3.107-0.392,4.661
		c-0.172,2.043,3.016,2.032,3.187,0l0.366-4.352c1.156,0.107,2.313,0.209,3.471,0.301C76.594,234.807,76.584,231.62,74.55,231.458z"
		/>
	<path style="fill:#FFFFFF;" d="M231.128,441.527c-0.35,0.685-0.704,1.367-1.06,2.049c-0.415-1.036-0.788-2.089-1.107-3.163
		c-0.245-0.825-1.343-1.169-2.081-0.864c-0.863,0.357-1.11,1.254-0.864,2.081c0.565,1.9,1.282,3.741,2.148,5.525
		c-1.508,2.783-3.065,5.54-4.675,8.266c-2.202-3.551-4.854-6.757-7.675-9.832c0.242-0.147,0.454-0.369,0.607-0.679
		c0.665-1.351,1.627-2.448,2.836-3.339c1.655-1.219-0.274-3.756-1.925-2.54c-1.552,1.143-2.759,2.591-3.656,4.28
		c-0.656-0.687-1.318-1.371-1.981-2.052c-1.209-1.242-3.247-0.027-2.925,1.268c-0.185-0.034-0.37-0.069-0.556-0.098
		c-2.024-0.321-2.423,2.841-0.396,3.163c1.821,0.289,3.525,0.845,5.183,1.649c0.019,0.009,0.037,0.015,0.056,0.024
		c3.22,3.47,6.248,7.113,8.572,11.248c-0.15,0.246-0.299,0.493-0.451,0.739c-3.433-0.013-6.867-0.081-10.299-0.202
		c-1.442-1.977-2.884-3.954-4.326-5.931c-1.212-1.661-3.748,0.269-2.54,1.925c0.932,1.278,1.865,2.557,2.798,3.835
		c-0.232-0.011-0.464-0.019-0.697-0.031c-1.882-0.097-2.378,2.601-0.813,3.089l-1.669,1.138c-1.699,1.159,0.235,3.693,1.925,2.54
		c1.603-1.094,3.206-2.187,4.809-3.281c0.055-0.038,0.106-0.077,0.154-0.117c2.891,0.105,5.782,0.176,8.674,0.204
		c-1.201,1.89-2.425,3.766-3.675,5.625c-0.79,1.175-1.565,2.411-2.433,3.564c-1.561-0.689-2.977-1.594-4.296-2.747
		c-1.548-1.353-3.499,1.169-1.96,2.513c1.224,1.069,2.565,1.973,4.002,2.699c-0.383,0.328-0.786,0.633-1.218,0.904
		c-1.741,1.091,0.199,3.622,1.925,2.54c0.499-0.312,0.964-0.662,1.402-1.04c0.202,0.995,0.404,1.989,0.606,2.984
		c0.406,1.999,3.567,1.587,3.158-0.431c-0.348-1.716-0.697-3.432-1.045-5.148c0.036-0.16,0.048-0.322,0.035-0.48
		c0.715-0.97,1.381-1.981,2.048-2.967c1.781-2.636,3.51-5.306,5.193-8.005c0.238,0,0.476,0.003,0.714,0.002
		c1.881,3.869,3.593,7.837,5.301,11.797c-1.416,0.756-2.833,1.512-4.25,2.268c-0.758,0.405-1.215,1.231-0.864,2.081
		c0.304,0.735,1.318,1.271,2.081,0.864c1.432-0.764,2.864-1.529,4.296-2.293c0.461,1.062,0.925,2.123,1.395,3.178
		c0.834,1.873,3.781,0.661,2.945-1.217c-0.199-0.448-0.396-0.898-0.594-1.348c0.563,0.179,1.145,0.307,1.747,0.379
		c2.033,0.243,2.439-2.919,0.396-3.163c-1.083-0.129-2.053-0.489-2.94-1.131c-0.344-0.249-0.7-0.337-1.035-0.312
		c-1.604-3.732-3.204-7.478-4.95-11.138c3.237-0.048,6.474-0.149,9.709-0.294c0.81,1.61,1.731,3.162,2.764,4.64
		c1.177,1.686,3.712-0.246,2.54-1.925c-0.653-0.936-1.248-1.9-1.797-2.891c0.652-0.036,1.304-0.069,1.956-0.109
		c2.047-0.126,1.61-3.284-0.431-3.158c-0.651,0.04-1.303,0.072-1.954,0.108c0.609-1.492,1.291-2.949,2.05-4.374
		c0.963-1.809-1.986-3.019-2.943-1.222c-0.994,1.867-1.857,3.788-2.594,5.77c-3.618,0.159-7.237,0.26-10.857,0.297
		c-0.111-0.217-0.225-0.433-0.337-0.649c1.965-3.276,3.859-6.595,5.682-9.952c1.385,0.716,2.77,1.432,4.155,2.148
		c1.821,0.942,3.033-2.006,1.222-2.943l-3.879-2.006c0.542-1.027,1.08-2.057,1.608-3.091
		C235.004,440.922,232.056,439.71,231.128,441.527z"/>
	<path style="fill:#FFFFFF;" d="M321.406,47.563c-0.322,0.698-0.647,1.395-0.975,2.09c-0.457-1.018-0.872-2.055-1.236-3.115
		c-0.279-0.815-1.39-1.113-2.115-0.778c-0.848,0.392-1.058,1.298-0.778,2.115c0.643,1.876,1.435,3.686,2.372,5.432
		c-1.393,2.843-2.836,5.661-4.333,8.45c-2.346-3.458-5.126-6.552-8.071-9.509c0.236-0.157,0.439-0.387,0.579-0.704
		c0.609-1.377,1.526-2.513,2.697-3.452c1.604-1.286-0.427-3.742-2.027-2.459c-1.504,1.206-2.651,2.701-3.477,4.426
		c-0.684-0.66-1.373-1.315-2.064-1.969c-1.259-1.191-3.245,0.106-2.87,1.387c-0.186-0.026-0.373-0.053-0.56-0.075
		c-2.036-0.238-2.305,2.938-0.266,3.176c1.831,0.214,3.557,0.7,5.246,1.436c0.019,0.008,0.038,0.014,0.057,0.021
		c3.36,3.335,6.534,6.851,9.026,10.888c-0.14,0.252-0.279,0.505-0.42,0.757c-3.431,0.128-6.864,0.2-10.299,0.22
		c-1.522-1.916-3.044-3.832-4.566-5.749c-1.279-1.61-3.734,0.422-2.459,2.027c0.984,1.239,1.968,2.478,2.952,3.717
		c-0.232-0.002-0.465,0-0.697-0.003c-1.884-0.02-2.269,2.696-0.686,3.119l-1.62,1.206c-1.65,1.228,0.386,3.68,2.027,2.459
		c1.557-1.158,3.114-2.317,4.671-3.475c0.054-0.04,0.103-0.081,0.149-0.123c2.892-0.013,5.784-0.061,8.675-0.151
		c-1.123,1.938-2.269,3.862-3.442,5.77c-0.742,1.206-1.465,2.473-2.285,3.66c-1.588-0.624-3.04-1.471-4.405-2.568
		c-1.602-1.288-3.448,1.311-1.856,2.591c1.266,1.018,2.643,1.867,4.109,2.533c-0.369,0.343-0.759,0.665-1.18,0.954
		c-1.695,1.161,0.348,3.61,2.027,2.459c0.485-0.333,0.936-0.701,1.359-1.096c0.242,0.986,0.485,1.971,0.727,2.957
		c0.487,1.981,3.629,1.439,3.138-0.56c-0.418-1.7-0.837-3.4-1.255-5.101c0.03-0.161,0.035-0.323,0.016-0.481
		c0.675-0.999,1.299-2.036,1.924-3.049c1.671-2.706,3.29-5.445,4.86-8.211c0.238-0.01,0.476-0.016,0.713-0.027
		c2.038,3.789,3.911,7.684,5.78,11.57c-1.384,0.814-2.769,1.627-4.153,2.441c-0.741,0.436-1.164,1.28-0.778,2.115
		c0.334,0.722,1.369,1.216,2.115,0.778c1.399-0.822,2.799-1.645,4.198-2.467c0.505,1.043,1.011,2.083,1.524,3.119
		c0.91,1.837,3.805,0.505,2.892-1.337c-0.218-0.439-0.433-0.881-0.648-1.322c0.57,0.156,1.157,0.26,1.761,0.307
		c2.041,0.159,2.317-3.016,0.266-3.176c-1.088-0.085-2.072-0.405-2.983-1.01c-0.354-0.235-0.713-0.308-1.047-0.269
		c-1.755-3.663-3.507-7.34-5.402-10.926c3.233-0.181,6.462-0.414,9.689-0.691c0.875,1.576,1.86,3.088,2.952,4.523
		c1.246,1.637,3.699-0.398,2.459-2.027c-0.691-0.908-1.324-1.848-1.914-2.815c0.65-0.063,1.301-0.122,1.95-0.189
		c2.04-0.21,1.475-3.347-0.56-3.138c-0.649,0.067-1.299,0.126-1.948,0.188c0.547-1.515,1.169-2.999,1.869-4.455
		c0.888-1.847-2.108-2.935-2.991-1.1c-0.917,1.906-1.7,3.86-2.355,5.871c-3.608,0.307-7.22,0.557-10.836,0.742
		c-0.12-0.212-0.242-0.423-0.363-0.635c1.829-3.354,3.586-6.747,5.27-10.176c1.413,0.659,2.826,1.318,4.239,1.976
		c1.858,0.866,2.948-2.129,1.1-2.991l-3.958-1.845c0.5-1.048,0.994-2.099,1.48-3.154C325.255,46.8,322.26,45.71,321.406,47.563z"/>
	<path style="fill:#FFFFFF;" d="M497.967,269.71c-0.522-0.041-1.043-0.086-1.565-0.132c0.543-0.532,1.108-1.04,1.7-1.521
		c0.455-0.37,0.384-1.15,0-1.534c-0.45-0.45-1.078-0.371-1.534,0c-1.047,0.851-2.018,1.783-2.913,2.792
		c-2.144-0.222-4.283-0.482-6.417-0.783c1.658-2.311,2.982-4.815,4.179-7.391c0.156,0.114,0.35,0.189,0.586,0.204
		c1.023,0.066,1.964,0.384,2.839,0.912c1.199,0.723,2.29-1.152,1.095-1.873c-1.124-0.677-2.349-1.059-3.645-1.181
		c0.261-0.592,0.518-1.186,0.773-1.781c0.465-1.084-0.83-2.048-1.56-1.508c-0.027-0.125-0.053-0.251-0.083-0.375
		c-0.326-1.357-2.419-0.782-2.092,0.577c0.294,1.22,0.389,2.437,0.316,3.689c-0.001,0.014,0,0.027,0,0.041
		c-1.341,2.93-2.842,5.785-4.835,8.325c-0.194-0.03-0.388-0.06-0.582-0.09c-0.888-2.162-1.741-4.338-2.56-6.528
		c0.867-1.423,1.733-2.845,2.6-4.268c0.728-1.195-1.147-2.287-1.873-1.095c-0.56,0.92-1.121,1.84-1.681,2.76
		c-0.053-0.149-0.109-0.297-0.162-0.446c-0.43-1.208-2.256-0.816-2.154,0.295l-1.151-0.752c-1.172-0.766-2.26,1.112-1.095,1.873
		c1.106,0.722,2.212,1.445,3.318,2.168c0.038,0.025,0.076,0.047,0.114,0.066c0.688,1.845,1.398,3.681,2.135,5.507
		c-1.502-0.262-3.001-0.542-4.495-0.843c-0.945-0.19-1.924-0.354-2.875-0.6c0.026-1.161,0.225-2.288,0.606-3.418
		c0.446-1.326-1.648-1.895-2.092-0.577c-0.353,1.048-0.572,2.127-0.653,3.22c-0.306-0.155-0.603-0.329-0.887-0.53
		c-1.14-0.81-2.225,1.07-1.095,1.873c0.327,0.232,0.668,0.433,1.02,0.61c-0.573,0.387-1.145,0.773-1.718,1.16
		c-1.151,0.777-0.067,2.657,1.095,1.873c0.988-0.667,1.976-1.334,2.964-2c0.11-0.019,0.215-0.054,0.311-0.103
		c0.797,0.196,1.606,0.351,2.4,0.513c2.122,0.432,4.252,0.822,6.388,1.176c0.062,0.15,0.122,0.3,0.185,0.449
		c-1.942,2.193-3.99,4.304-6.034,6.412c-0.845-0.693-1.69-1.386-2.535-2.08c-0.453-0.371-1.091-0.443-1.534,0
		c-0.383,0.383-0.455,1.161,0,1.534c0.854,0.701,1.709,1.402,2.563,2.103c-0.547,0.567-1.094,1.136-1.634,1.706
		c-0.96,1.013,0.572,2.55,1.534,1.534c0.23-0.242,0.461-0.484,0.692-0.725c0.034,0.401,0.106,0.8,0.217,1.197
		c0.378,1.342,2.471,0.772,2.092-0.577c-0.201-0.715-0.228-1.419-0.056-2.143c0.067-0.281,0.029-0.528-0.074-0.732
		c1.928-1.982,3.866-3.966,5.711-6.019c0.875,2.023,1.783,4.031,2.718,6.027c-0.801,0.929-1.536,1.914-2.196,2.949
		c-0.753,1.18,1.124,2.27,1.873,1.095c0.418-0.655,0.869-1.28,1.349-1.885c0.193,0.401,0.384,0.802,0.579,1.201
		c0.614,1.254,2.485,0.156,1.873-1.095c-0.195-0.399-0.385-0.8-0.578-1.201c1.097-0.007,2.191,0.042,3.285,0.147
		c1.389,0.133,1.38-2.037,0-2.169c-1.433-0.138-2.866-0.179-4.304-0.125c-1.044-2.233-2.052-4.482-3.02-6.749
		c0.107-0.126,0.213-0.254,0.32-0.381c2.573,0.38,5.153,0.705,7.74,0.975c-0.089,1.058-0.178,2.115-0.267,3.173
		c-0.117,1.391,2.053,1.383,2.169,0l0.249-2.962c0.787,0.073,1.575,0.142,2.363,0.205C499.358,271.99,499.351,269.82,497.967,269.71
		z"/>
	<path style="fill:#FFFFFF;" d="M152.005,417.607c0.096-0.33,0.193-0.659,0.292-0.988c0.269,0.419,0.521,0.85,0.752,1.293
		c0.177,0.341,0.688,0.399,0.985,0.203c0.348-0.229,0.381-0.643,0.203-0.985c-0.408-0.785-0.878-1.532-1.408-2.241
		c0.427-1.348,0.877-2.687,1.353-4.018c1.265,1.371,2.698,2.553,4.194,3.664c-0.094,0.085-0.168,0.2-0.209,0.349
		c-0.178,0.648-0.507,1.211-0.962,1.703c-0.623,0.674,0.437,1.624,1.058,0.952c0.584-0.632,0.991-1.368,1.242-2.185
		c0.346,0.246,0.693,0.49,1.042,0.733c0.635,0.443,1.426-0.262,1.175-0.802c0.084-0.001,0.168-0.001,0.252-0.004
		c0.915-0.03,0.823-1.45-0.093-1.42c-0.823,0.027-1.617-0.073-2.412-0.286c-0.009-0.002-0.018-0.004-0.026-0.006
		c-1.704-1.25-3.339-2.592-4.707-4.209c0.045-0.121,0.09-0.241,0.135-0.362c1.506-0.284,3.018-0.543,4.533-0.78
		c0.799,0.745,1.598,1.49,2.397,2.236c0.671,0.626,1.621-0.434,0.952-1.058c-0.517-0.482-1.033-0.964-1.55-1.446
		c0.103-0.015,0.205-0.031,0.308-0.045c0.833-0.116,0.823-1.341,0.096-1.423l0.636-0.64c0.647-0.651-0.414-1.599-1.058-0.952
		c-0.611,0.615-1.221,1.229-1.832,1.844c-0.021,0.021-0.04,0.043-0.058,0.064c-1.276,0.197-2.55,0.41-3.82,0.642
		c0.367-0.93,0.746-1.856,1.137-2.776c0.247-0.582,0.483-1.189,0.766-1.768c0.742,0.17,1.44,0.448,2.115,0.842
		c0.793,0.463,1.436-0.807,0.648-1.267c-0.627-0.366-1.291-0.649-1.982-0.846c0.14-0.176,0.291-0.344,0.458-0.499
		c0.671-0.625-0.393-1.571-1.058-0.952c-0.192,0.179-0.367,0.372-0.527,0.574c-0.172-0.419-0.345-0.838-0.517-1.257
		c-0.346-0.842-1.698-0.395-1.348,0.455c0.297,0.723,0.595,1.446,0.892,2.169c-0.002,0.073,0.006,0.145,0.025,0.214
		c-0.232,0.486-0.439,0.985-0.648,1.474c-0.559,1.306-1.092,2.622-1.602,3.948c-0.104,0.02-0.209,0.039-0.313,0.059
		c-1.151-1.538-2.236-3.133-3.319-4.725c0.557-0.451,1.115-0.902,1.672-1.353c0.298-0.241,0.429-0.642,0.203-0.985
		c-0.195-0.297-0.685-0.446-0.985-0.203c-0.563,0.456-1.127,0.912-1.69,1.368c-0.292-0.427-0.584-0.853-0.88-1.276
		c-0.524-0.751-1.714,0.029-1.189,0.782c0.125,0.18,0.249,0.36,0.374,0.541c-0.262-0.031-0.528-0.038-0.798-0.019
		c-0.912,0.065-0.823,1.485,0.093,1.42c0.486-0.035,0.942,0.041,1.384,0.248c0.172,0.08,0.335,0.089,0.48,0.049
		c1.018,1.501,2.035,3.009,3.109,4.466c-1.415,0.294-2.826,0.611-4.232,0.947c-0.491-0.638-1.026-1.24-1.603-1.801
		c-0.658-0.64-1.607,0.421-0.952,1.058c0.365,0.355,0.707,0.728,1.032,1.116c-0.283,0.071-0.566,0.14-0.849,0.213
		c-0.887,0.228-0.429,1.576,0.455,1.348c0.282-0.073,0.565-0.142,0.848-0.212c-0.141,0.705-0.317,1.402-0.53,2.091
		c-0.27,0.874,1.125,1.156,1.393,0.287c0.278-0.902,0.495-1.817,0.651-2.748c1.573-0.375,3.151-0.724,4.735-1.046
		c0.067,0.086,0.135,0.171,0.202,0.256c-0.585,1.602-1.136,3.217-1.652,4.842c-0.668-0.197-1.335-0.394-2.003-0.592
		c-0.878-0.259-1.161,1.135-0.287,1.393l1.87,0.552c-0.151,0.496-0.3,0.993-0.445,1.491
		C150.356,418.199,151.751,418.482,152.005,417.607z"/>
	<path style="fill:#FFFFFF;" d="M176.85,37.402c-0.342-0.027-0.684-0.056-1.026-0.086c0.356-0.349,0.727-0.682,1.115-0.998
		c0.298-0.243,0.252-0.754,0-1.006c-0.295-0.295-0.707-0.243-1.006,0c-0.687,0.558-1.323,1.169-1.911,1.831
		c-1.406-0.145-2.809-0.316-4.209-0.513c1.087-1.516,1.956-3.158,2.741-4.848c0.102,0.074,0.23,0.124,0.384,0.134
		c0.671,0.043,1.288,0.252,1.862,0.598c0.786,0.474,1.502-0.756,0.718-1.228c-0.737-0.444-1.541-0.694-2.391-0.775
		c0.171-0.388,0.34-0.778,0.507-1.168c0.305-0.711-0.545-1.344-1.023-0.989c-0.018-0.082-0.035-0.164-0.055-0.246
		c-0.214-0.89-1.586-0.513-1.372,0.378c0.193,0.8,0.255,1.598,0.207,2.42c-0.001,0.009,0,0.018,0,0.027
		c-0.88,1.922-1.864,3.794-3.171,5.46c-0.127-0.02-0.255-0.039-0.382-0.059c-0.582-1.418-1.142-2.845-1.679-4.282
		c0.568-0.933,1.137-1.866,1.705-2.799c0.478-0.784-0.752-1.5-1.229-0.718c-0.368,0.603-0.735,1.207-1.103,1.81
		c-0.035-0.098-0.071-0.195-0.106-0.293c-0.282-0.793-1.48-0.535-1.413,0.193l-0.755-0.493c-0.769-0.502-1.482,0.729-0.718,1.229
		c0.725,0.474,1.451,0.948,2.176,1.422c0.025,0.016,0.05,0.031,0.075,0.043c0.451,1.21,0.917,2.414,1.4,3.612
		c-0.985-0.172-1.968-0.355-2.948-0.553c-0.62-0.125-1.262-0.232-1.886-0.393c0.017-0.762,0.148-1.501,0.397-2.242
		c0.293-0.87-1.081-1.243-1.372-0.378c-0.232,0.688-0.375,1.395-0.428,2.112c-0.201-0.102-0.396-0.216-0.581-0.348
		c-0.748-0.531-1.459,0.702-0.718,1.228c0.214,0.152,0.438,0.284,0.669,0.4c-0.376,0.254-0.751,0.507-1.127,0.761
		c-0.755,0.51-0.044,1.743,0.718,1.229c0.648-0.437,1.296-0.875,1.944-1.312c0.072-0.012,0.141-0.035,0.204-0.068
		c0.523,0.129,1.053,0.23,1.574,0.336c1.392,0.283,2.789,0.539,4.19,0.771c0.041,0.098,0.08,0.197,0.121,0.295
		c-1.274,1.438-2.617,2.823-3.957,4.205c-0.554-0.455-1.109-0.909-1.663-1.364c-0.297-0.243-0.716-0.29-1.006,0
		c-0.251,0.251-0.298,0.761,0,1.006c0.56,0.46,1.121,0.919,1.681,1.379c-0.359,0.372-0.717,0.745-1.072,1.119
		c-0.629,0.665,0.375,1.672,1.006,1.006c0.151-0.159,0.302-0.317,0.454-0.476c0.022,0.263,0.069,0.525,0.143,0.785
		c0.248,0.88,1.621,0.506,1.372-0.378c-0.132-0.469-0.15-0.931-0.037-1.406c0.044-0.184,0.019-0.346-0.049-0.48
		c1.264-1.3,2.535-2.601,3.746-3.948c0.574,1.327,1.17,2.644,1.783,3.953c-0.525,0.609-1.007,1.255-1.44,1.934
		c-0.494,0.774,0.737,1.489,1.229,0.718c0.274-0.43,0.57-0.84,0.885-1.236c0.127,0.263,0.252,0.526,0.38,0.788
		c0.402,0.822,1.63,0.102,1.229-0.718c-0.128-0.262-0.253-0.525-0.379-0.788c0.719-0.004,1.437,0.028,2.155,0.097
		c0.911,0.087,0.905-1.336,0-1.423c-0.94-0.09-1.88-0.117-2.823-0.082c-0.685-1.465-1.346-2.94-1.981-4.426
		c0.07-0.083,0.14-0.167,0.21-0.25c1.687,0.249,3.38,0.463,5.076,0.64c-0.058,0.694-0.117,1.387-0.175,2.081
		c-0.077,0.912,1.347,0.907,1.423,0l0.163-1.943c0.516,0.048,1.033,0.093,1.55,0.134C177.763,38.898,177.758,37.474,176.85,37.402z"
		/>
	<path style="fill:#FFFFFF;" d="M275.681,233.234c-0.201-0.016-0.401-0.033-0.602-0.051c0.209-0.204,0.426-0.4,0.654-0.585
		c0.175-0.142,0.148-0.442,0-0.59c-0.173-0.173-0.415-0.143-0.59,0c-0.403,0.327-0.776,0.686-1.121,1.074
		c-0.825-0.085-1.648-0.185-2.468-0.301c0.638-0.889,1.147-1.852,1.607-2.843c0.06,0.044,0.135,0.073,0.225,0.079
		c0.394,0.025,0.755,0.148,1.092,0.351c0.461,0.278,0.881-0.443,0.421-0.72c-0.432-0.261-0.904-0.407-1.402-0.454
		c0.1-0.228,0.199-0.456,0.297-0.685c0.179-0.417-0.319-0.788-0.6-0.58c-0.01-0.048-0.021-0.096-0.032-0.144
		c-0.126-0.522-0.93-0.301-0.805,0.222c0.113,0.469,0.15,0.937,0.121,1.419c0,0.005,0,0.01,0,0.016
		c-0.516,1.127-1.093,2.225-1.86,3.202c-0.075-0.012-0.149-0.023-0.224-0.035c-0.342-0.832-0.67-1.669-0.985-2.511
		c0.333-0.547,0.667-1.094,1-1.642c0.28-0.46-0.441-0.88-0.72-0.421c-0.216,0.354-0.431,0.708-0.647,1.062
		c-0.021-0.057-0.042-0.114-0.062-0.172c-0.165-0.465-0.868-0.314-0.829,0.113l-0.443-0.289c-0.451-0.295-0.869,0.428-0.421,0.721
		c0.425,0.278,0.851,0.556,1.276,0.834c0.015,0.01,0.029,0.018,0.044,0.025c0.265,0.71,0.538,1.416,0.821,2.118
		c-0.578-0.101-1.154-0.208-1.729-0.324c-0.363-0.073-0.74-0.136-1.106-0.231c0.01-0.447,0.087-0.88,0.233-1.315
		c0.172-0.51-0.634-0.729-0.805-0.222c-0.136,0.403-0.22,0.818-0.251,1.239c-0.118-0.06-0.232-0.126-0.341-0.204
		c-0.439-0.312-0.856,0.412-0.421,0.72c0.126,0.089,0.257,0.167,0.392,0.235c-0.22,0.149-0.441,0.297-0.661,0.446
		c-0.443,0.299-0.026,1.022,0.421,0.721c0.38-0.257,0.76-0.513,1.14-0.769c0.042-0.007,0.083-0.021,0.12-0.04
		c0.306,0.076,0.618,0.135,0.923,0.197c0.816,0.166,1.636,0.316,2.457,0.452c0.024,0.058,0.047,0.115,0.071,0.173
		c-0.747,0.843-1.535,1.656-2.321,2.466c-0.325-0.267-0.65-0.533-0.975-0.8c-0.174-0.143-0.42-0.17-0.59,0
		c-0.147,0.147-0.175,0.446,0,0.59c0.329,0.27,0.657,0.539,0.986,0.809c-0.211,0.218-0.421,0.437-0.629,0.656
		c-0.369,0.39,0.22,0.981,0.59,0.59c0.088-0.093,0.177-0.186,0.266-0.279c0.013,0.154,0.041,0.308,0.084,0.46
		c0.145,0.516,0.951,0.297,0.805-0.222c-0.077-0.275-0.088-0.546-0.022-0.824c0.026-0.108,0.011-0.203-0.029-0.282
		c0.742-0.762,1.487-1.525,2.197-2.315c0.337,0.778,0.686,1.551,1.046,2.319c-0.308,0.357-0.591,0.736-0.845,1.134
		c-0.29,0.454,0.432,0.873,0.721,0.421c0.161-0.252,0.334-0.492,0.519-0.725c0.074,0.154,0.148,0.309,0.223,0.462
		c0.236,0.482,0.956,0.06,0.721-0.421c-0.075-0.153-0.148-0.308-0.222-0.462c0.422-0.003,0.843,0.016,1.264,0.057
		c0.534,0.051,0.531-0.783,0-0.834c-0.551-0.053-1.102-0.069-1.656-0.048c-0.402-0.859-0.79-1.724-1.162-2.596
		c0.041-0.049,0.082-0.098,0.123-0.147c0.99,0.146,1.982,0.271,2.977,0.375c-0.034,0.407-0.068,0.814-0.103,1.22
		c-0.045,0.535,0.79,0.532,0.834,0l0.096-1.139c0.303,0.028,0.606,0.055,0.909,0.079
		C276.217,234.111,276.214,233.276,275.681,233.234z"/>
	<path style="fill:#FFFFFF;" d="M412.669,394.472c-0.201-0.016-0.401-0.033-0.602-0.051c0.209-0.204,0.426-0.4,0.654-0.585
		c0.175-0.142,0.148-0.442,0-0.59c-0.173-0.173-0.415-0.143-0.59,0c-0.403,0.327-0.776,0.686-1.121,1.074
		c-0.825-0.085-1.648-0.185-2.468-0.301c0.638-0.889,1.147-1.852,1.607-2.843c0.06,0.044,0.135,0.073,0.225,0.079
		c0.394,0.025,0.755,0.148,1.092,0.351c0.461,0.278,0.881-0.443,0.421-0.72c-0.432-0.261-0.904-0.407-1.402-0.454
		c0.1-0.228,0.199-0.456,0.297-0.685c0.179-0.417-0.319-0.788-0.6-0.58c-0.01-0.048-0.021-0.096-0.032-0.144
		c-0.126-0.522-0.93-0.301-0.805,0.222c0.113,0.469,0.15,0.937,0.121,1.419c0,0.005,0,0.01,0,0.016
		c-0.516,1.127-1.093,2.225-1.86,3.202c-0.075-0.012-0.149-0.023-0.224-0.035c-0.342-0.832-0.67-1.669-0.985-2.511
		c0.333-0.547,0.667-1.094,1-1.642c0.28-0.46-0.441-0.88-0.72-0.421c-0.216,0.354-0.431,0.708-0.647,1.062
		c-0.021-0.057-0.042-0.114-0.062-0.172c-0.165-0.465-0.868-0.314-0.829,0.113l-0.443-0.289c-0.451-0.295-0.869,0.428-0.421,0.721
		c0.425,0.278,0.851,0.556,1.276,0.834c0.015,0.01,0.029,0.018,0.044,0.025c0.265,0.71,0.538,1.416,0.821,2.118
		c-0.578-0.101-1.154-0.208-1.729-0.324c-0.363-0.073-0.74-0.136-1.106-0.231c0.01-0.447,0.087-0.88,0.233-1.315
		c0.172-0.51-0.634-0.729-0.805-0.222c-0.136,0.403-0.22,0.818-0.251,1.239c-0.118-0.06-0.232-0.126-0.341-0.204
		c-0.439-0.312-0.856,0.412-0.421,0.72c0.126,0.089,0.257,0.167,0.392,0.235c-0.22,0.149-0.441,0.297-0.661,0.446
		c-0.443,0.299-0.026,1.022,0.421,0.721c0.38-0.257,0.76-0.513,1.14-0.769c0.042-0.007,0.083-0.021,0.12-0.04
		c0.306,0.076,0.618,0.135,0.923,0.197c0.816,0.166,1.636,0.316,2.457,0.452c0.024,0.058,0.047,0.115,0.071,0.173
		c-0.747,0.843-1.535,1.656-2.321,2.466c-0.325-0.267-0.65-0.533-0.975-0.8c-0.174-0.143-0.42-0.17-0.59,0
		c-0.147,0.147-0.175,0.446,0,0.59c0.329,0.27,0.657,0.539,0.986,0.809c-0.211,0.218-0.421,0.437-0.629,0.656
		c-0.369,0.39,0.22,0.981,0.59,0.59c0.088-0.093,0.177-0.186,0.266-0.279c0.013,0.154,0.041,0.308,0.084,0.46
		c0.145,0.516,0.951,0.297,0.805-0.222c-0.077-0.275-0.088-0.546-0.022-0.824c0.026-0.108,0.011-0.203-0.029-0.282
		c0.742-0.762,1.487-1.525,2.197-2.315c0.337,0.778,0.686,1.551,1.046,2.319c-0.308,0.357-0.591,0.736-0.845,1.134
		c-0.29,0.454,0.432,0.873,0.721,0.421c0.161-0.252,0.334-0.492,0.519-0.725c0.074,0.154,0.148,0.309,0.223,0.462
		c0.236,0.482,0.956,0.06,0.721-0.421c-0.075-0.153-0.148-0.308-0.222-0.462c0.422-0.003,0.843,0.016,1.264,0.057
		c0.534,0.051,0.531-0.783,0-0.834c-0.551-0.053-1.102-0.069-1.656-0.048c-0.402-0.859-0.79-1.724-1.162-2.596
		c0.041-0.049,0.082-0.098,0.123-0.147c0.99,0.146,1.982,0.271,2.977,0.375c-0.034,0.407-0.068,0.814-0.103,1.22
		c-0.045,0.535,0.79,0.532,0.834,0l0.096-1.139c0.303,0.028,0.606,0.055,0.909,0.079
		C413.204,395.348,413.201,394.514,412.669,394.472z"/>
	<path style="fill:#FFFFFF;" d="M332.793,473.911c0.096-0.33,0.193-0.659,0.292-0.988c0.269,0.419,0.521,0.85,0.752,1.293
		c0.177,0.341,0.688,0.399,0.985,0.203c0.348-0.229,0.381-0.643,0.203-0.985c-0.408-0.785-0.878-1.532-1.408-2.241
		c0.427-1.348,0.877-2.687,1.353-4.018c1.265,1.371,2.698,2.553,4.194,3.664c-0.094,0.085-0.168,0.2-0.209,0.349
		c-0.178,0.648-0.507,1.211-0.962,1.703c-0.623,0.674,0.437,1.624,1.058,0.952c0.584-0.632,0.991-1.368,1.242-2.185
		c0.346,0.246,0.693,0.49,1.042,0.733c0.635,0.443,1.426-0.262,1.175-0.802c0.084-0.001,0.168-0.001,0.252-0.004
		c0.915-0.03,0.823-1.45-0.093-1.42c-0.823,0.027-1.617-0.073-2.412-0.286c-0.009-0.002-0.018-0.004-0.026-0.006
		c-1.704-1.25-3.339-2.592-4.707-4.209c0.045-0.121,0.09-0.241,0.135-0.362c1.506-0.284,3.017-0.543,4.533-0.78
		c0.799,0.745,1.598,1.49,2.397,2.236c0.671,0.626,1.621-0.434,0.952-1.058c-0.517-0.482-1.033-0.964-1.55-1.446
		c0.103-0.015,0.205-0.031,0.308-0.045c0.833-0.116,0.823-1.341,0.096-1.423l0.636-0.64c0.647-0.651-0.414-1.599-1.058-0.952
		c-0.611,0.615-1.221,1.229-1.832,1.844c-0.021,0.021-0.04,0.043-0.058,0.064c-1.276,0.197-2.55,0.41-3.82,0.642
		c0.367-0.93,0.746-1.856,1.137-2.776c0.247-0.582,0.483-1.189,0.766-1.768c0.742,0.17,1.44,0.448,2.115,0.842
		c0.793,0.463,1.436-0.807,0.648-1.267c-0.627-0.366-1.291-0.649-1.982-0.846c0.14-0.176,0.291-0.344,0.458-0.499
		c0.671-0.625-0.393-1.571-1.058-0.952c-0.192,0.179-0.367,0.372-0.527,0.574c-0.172-0.419-0.345-0.838-0.517-1.257
		c-0.346-0.842-1.698-0.395-1.348,0.455c0.297,0.723,0.595,1.446,0.892,2.169c-0.002,0.073,0.006,0.145,0.025,0.214
		c-0.232,0.486-0.439,0.985-0.648,1.474c-0.559,1.306-1.092,2.622-1.602,3.948c-0.104,0.02-0.209,0.039-0.313,0.059
		c-1.151-1.538-2.236-3.133-3.319-4.725c0.557-0.451,1.115-0.902,1.672-1.353c0.298-0.241,0.429-0.642,0.203-0.985
		c-0.195-0.297-0.685-0.446-0.985-0.203c-0.563,0.456-1.127,0.912-1.69,1.368c-0.292-0.427-0.585-0.853-0.88-1.276
		c-0.524-0.751-1.714,0.029-1.189,0.782c0.125,0.18,0.249,0.36,0.374,0.541c-0.262-0.031-0.528-0.038-0.798-0.019
		c-0.912,0.065-0.823,1.485,0.093,1.42c0.486-0.035,0.942,0.041,1.384,0.248c0.172,0.08,0.335,0.089,0.48,0.049
		c1.018,1.501,2.035,3.009,3.109,4.466c-1.415,0.294-2.826,0.611-4.232,0.947c-0.491-0.638-1.026-1.24-1.603-1.801
		c-0.658-0.64-1.607,0.421-0.952,1.058c0.365,0.355,0.707,0.728,1.032,1.116c-0.283,0.071-0.566,0.14-0.849,0.213
		c-0.887,0.228-0.429,1.576,0.455,1.348c0.282-0.073,0.565-0.142,0.848-0.212c-0.141,0.705-0.317,1.402-0.53,2.091
		c-0.27,0.874,1.125,1.156,1.393,0.287c0.278-0.902,0.495-1.817,0.651-2.748c1.573-0.375,3.151-0.724,4.735-1.046
		c0.067,0.086,0.135,0.171,0.202,0.256c-0.585,1.602-1.136,3.217-1.652,4.842c-0.668-0.197-1.335-0.394-2.003-0.592
		c-0.878-0.259-1.161,1.135-0.287,1.393l1.87,0.552c-0.151,0.496-0.3,0.993-0.445,1.491
		C331.144,474.503,332.539,474.786,332.793,473.911z"/>
</g>
<g id="Livello_1">
</g>
</svg>
