<?xml version="1.0" encoding="iso-8859-1"?>
<!-- Generator: Adobe Illustrator 18.1.0, SVG Export Plug-In . SVG Version: 6.00 Build 0)  -->
<!DOCTYPE svg PUBLIC "-//W3C//DTD SVG 1.1//EN" "http://www.w3.org/Graphics/SVG/1.1/DTD/svg11.dtd">
<svg version="1.1" xmlns="http://www.w3.org/2000/svg" xmlns:xlink="http://www.w3.org/1999/xlink" x="0px" y="0px"
	 viewBox="0 0 512 512" style="enable-background:new 0 0 512 512;" xml:space="preserve">
<g id="_x23_fireplace">
	<circle style="fill:#BF352F;" cx="256" cy="256" r="256"/>
	<g>
		<rect x="66.03" y="125.559" style="fill:#A66933;" width="379" height="308"/>
		<g>
			<rect x="65.915" y="161.391" style="fill:#C17B46;" width="379" height="5"/>
		</g>
		<g>
			<rect x="66.5" y="197.857" style="fill:#C17B46;" width="379" height="5"/>
		</g>
		<g>
			<rect x="65.623" y="234.322" style="fill:#C17B46;" width="379" height="5"/>
		</g>
		<g>
			<rect x="66.208" y="270.788" style="fill:#C17B46;" width="379" height="5"/>
		</g>
		<g>
			<rect x="65.769" y="307.253" style="fill:#C17B46;" width="379" height="5"/>
		</g>
		<g>
			<rect x="66.354" y="343.719" style="fill:#C17B46;" width="379" height="5"/>
		</g>
		<g>
			<rect x="65.477" y="380.184" style="fill:#C17B46;" width="379" height="5"/>
		</g>
		<g>
			<line style="fill:#C17B46;" x1="130.104" y1="161.392" x2="130.104" y2="125.559"/>
			<rect x="127.104" y="125.559" style="fill:#C17B46;" width="6" height="35.833"/>
		</g>
		<g>
			<line style="fill:#C17B46;" x1="219.437" y1="161.392" x2="219.437" y2="125.559"/>
			<rect x="216.438" y="125.559" style="fill:#C17B46;" width="6" height="35.833"/>
		</g>
		<g>
			<line style="fill:#C17B46;" x1="309.437" y1="161.392" x2="309.437" y2="125.559"/>
			<rect x="306.438" y="125.559" style="fill:#C17B46;" width="6" height="35.833"/>
		</g>
		<g>
			<line style="fill:#C17B46;" x1="392.771" y1="161.392" x2="392.771" y2="125.559"/>
			<rect x="389.771" y="125.559" style="fill:#C17B46;" width="6" height="35.833"/>
		</g>
		<g>
			<line style="fill:#C17B46;" x1="85.104" y1="202.224" x2="85.104" y2="166.392"/>
			<rect x="82.104" y="166.391" style="fill:#C17B46;" width="6" height="35.833"/>
		</g>
		<g>
			<line style="fill:#C17B46;" x1="174.437" y1="202.224" x2="174.437" y2="166.392"/>
			<rect x="171.438" y="166.392" style="fill:#C17B46;" width="6" height="35.833"/>
		</g>
		<g>
			<line style="fill:#C17B46;" x1="264.437" y1="202.224" x2="264.437" y2="166.392"/>
			<rect x="261.438" y="166.392" style="fill:#C17B46;" width="6" height="35.833"/>
		</g>
		<g>
			<line style="fill:#C17B46;" x1="347.771" y1="202.224" x2="347.771" y2="166.392"/>
			<rect x="344.771" y="166.392" style="fill:#C17B46;" width="6" height="35.833"/>
		</g>
		<g>
			<line style="fill:#C17B46;" x1="130.104" y1="236.189" x2="130.104" y2="200.357"/>
			<rect x="127.104" y="200.357" style="fill:#C17B46;" width="6" height="35.833"/>
		</g>
		<g>
			<line style="fill:#C17B46;" x1="219.437" y1="236.189" x2="219.437" y2="200.357"/>
			<rect x="216.438" y="200.357" style="fill:#C17B46;" width="6" height="35.833"/>
		</g>
		<g>
			<line style="fill:#C17B46;" x1="309.437" y1="236.189" x2="309.437" y2="200.357"/>
			<rect x="306.438" y="200.357" style="fill:#C17B46;" width="6" height="35.833"/>
		</g>
		<g>
			<line style="fill:#C17B46;" x1="392.771" y1="236.189" x2="392.771" y2="200.357"/>
			<rect x="389.771" y="200.357" style="fill:#C17B46;" width="6" height="35.833"/>
		</g>
		<g>
			<line style="fill:#C17B46;" x1="163.1" y1="273.916" x2="163.1" y2="238.084"/>
			<rect x="160.1" y="238.084" style="fill:#C17B46;" width="6" height="35.833"/>
		</g>
		<g>
			<line style="fill:#C17B46;" x1="252.433" y1="273.916" x2="252.433" y2="238.084"/>
			<rect x="249.434" y="238.084" style="fill:#C17B46;" width="6" height="35.833"/>
		</g>
		<g>
			<line style="fill:#C17B46;" x1="342.433" y1="273.916" x2="342.433" y2="238.084"/>
			<rect x="339.434" y="238.084" style="fill:#C17B46;" width="6" height="35.833"/>
		</g>
		<g>
			<line style="fill:#C17B46;" x1="425.767" y1="273.916" x2="425.767" y2="238.084"/>
			<rect x="422.767" y="238.084" style="fill:#C17B46;" width="6" height="35.833"/>
		</g>
		<g>
			<line style="fill:#C17B46;" x1="96.771" y1="309.12" x2="96.771" y2="273.288"/>
			<rect x="93.771" y="273.288" style="fill:#C17B46;" width="6" height="35.833"/>
		</g>
		<g>
			<line style="fill:#C17B46;" x1="186.104" y1="309.12" x2="186.104" y2="273.288"/>
			<rect x="183.104" y="273.288" style="fill:#C17B46;" width="6" height="35.833"/>
		</g>
		<g>
			<line style="fill:#C17B46;" x1="276.104" y1="309.12" x2="276.104" y2="273.288"/>
			<rect x="273.104" y="273.288" style="fill:#C17B46;" width="6" height="35.833"/>
		</g>
		<g>
			<line style="fill:#C17B46;" x1="359.437" y1="309.12" x2="359.437" y2="273.288"/>
			<rect x="356.437" y="273.288" style="fill:#C17B46;" width="6" height="35.833"/>
		</g>
		<g>
			<line style="fill:#C17B46;" x1="141.771" y1="345.586" x2="141.771" y2="309.753"/>
			<rect x="138.771" y="309.753" style="fill:#C17B46;" width="6" height="35.833"/>
		</g>
		<g>
			<line style="fill:#C17B46;" x1="231.104" y1="345.586" x2="231.104" y2="309.753"/>
			<rect x="228.104" y="309.753" style="fill:#C17B46;" width="6" height="35.833"/>
		</g>
		<g>
			<line style="fill:#C17B46;" x1="321.104" y1="345.586" x2="321.104" y2="309.753"/>
			<rect x="318.104" y="309.753" style="fill:#C17B46;" width="6" height="35.833"/>
		</g>
		<rect x="65.884" y="408.73" style="opacity:0.3;fill:#231F20;" width="379.292" height="23.612"/>
		<g>
			<line style="fill:#C17B46;" x1="404.437" y1="345.586" x2="404.437" y2="309.753"/>
			<rect x="401.437" y="309.753" style="fill:#C17B46;" width="6" height="35.833"/>
		</g>
		<g>
			<line style="fill:#C17B46;" x1="102.771" y1="384.551" x2="102.771" y2="348.719"/>
			<rect x="99.771" y="348.719" style="fill:#C17B46;" width="6" height="35.833"/>
		</g>
		<g>
			<line style="fill:#C17B46;" x1="192.104" y1="384.551" x2="192.104" y2="348.719"/>
			<rect x="189.104" y="348.719" style="fill:#C17B46;" width="6" height="35.833"/>
		</g>
		<g>
			<line style="fill:#C17B46;" x1="282.104" y1="384.551" x2="282.104" y2="348.719"/>
			<rect x="279.104" y="348.719" style="fill:#C17B46;" width="6" height="35.833"/>
		</g>
		<rect x="33.446" y="416.597" style="fill:#A66933;" width="444.168" height="52.253"/>
		<g>
			<line style="fill:#C17B46;" x1="365.437" y1="384.551" x2="365.437" y2="348.719"/>
			<rect x="362.437" y="348.719" style="fill:#C17B46;" width="6" height="35.833"/>
		</g>
		<rect x="119.197" y="202.857" style="fill:#132326;" width="272.667" height="201.873"/>
		<polygon style="fill:#FFD99B;" points="149.197,385.184 149.197,382.685 149.197,232.857 361.864,232.857 361.864,385.184 		"/>
		<rect x="65.33" y="130.079" style="opacity:0.3;fill:#231F20;" width="379.292" height="17.899"/>
		<path style="fill:#EEB415;" d="M226.258,369.535c-11.068-10.171-20.664-23.889-19.98-39.576
			c0.725-16.64,16.649-27.139,17.199-43.333c0.257,5.647,1.846,10.889,4.769,15.727c-0.329-21.909,24.148-34.627,25.502-56.14
			c-1.442,18.778,16.659,31.849,21.15,48.972c4.737-1.386,7.39-4.53,7.957-9.434c15.29,25.578,40.225,52.012,15.572,79.223
			C278.688,386.762,248.165,389.667,226.258,369.535z"/>
		<path style="fill:#D96B2B;" d="M239.106,363.345c-8.002-5.786-13.433-15.53-12.989-25.727
			c0.471-10.817,10.823-17.643,11.18-28.169c0.167,3.671,1.2,7.079,3.1,10.224c-0.214-14.242,15.698-22.51,16.578-36.495
			c-0.937,12.207,10.829,20.704,13.749,31.835c3.08-0.901,26.072,22.357,10.046,40.046
			C267.939,369.221,252.227,372.834,239.106,363.345z"/>
		<rect x="49.206" y="115.32" style="fill:#A66933;" width="410.342" height="20.479"/>
		<g>
			<g>
				<path style="fill:#132326;" d="M178.094,381.765c-1.877,0-3.766-0.418-5.486-1.28c-4.285-2.146-7.156-6.89-7.145-11.804
					c0.007-3.432,1.453-6.343,3.867-7.787c1.888-1.13,4.368-1.357,7.175-0.657c3.335,0.833,5.557,2.745,6.094,5.246
					c0.474,2.204-0.926,4.254-2.553,5.141c-1.59,0.867-3.387,0.66-4.577-0.526l2.824-2.833c-0.069-0.069-0.211-0.117-0.284-0.103
					c0.089-0.014,0.344-0.158,0.53-0.429c0.133-0.194,0.162-0.351,0.149-0.41c-0.237-1.105-1.784-1.864-3.152-2.205
					c-1.225-0.306-2.94-0.518-4.152,0.208c-1.411,0.844-1.917,2.808-1.92,4.364c-0.008,3.433,1.976,6.736,4.937,8.219
					c2.977,1.491,6.847,0.977,9.202-1.224c1.951-1.824,3.117-4.82,3.563-9.158c0.102-0.993,0.172-1.992,0.242-2.992
					c0.202-2.888,0.412-5.875,1.375-8.776c1.241-3.738,4.503-8.28,9.61-8.782l0.391,3.981c-2.994,0.294-5.273,3.256-6.205,6.061
					c-0.804,2.423-0.987,5.033-1.181,7.795c-0.073,1.043-0.146,2.087-0.253,3.123c-0.549,5.341-2.123,9.158-4.811,11.67
					C184.118,380.678,181.12,381.765,178.094,381.765z"/>
			</g>
			<g>
				<path style="fill:#132326;" d="M332.133,381.765c1.877,0,3.766-0.418,5.486-1.28c4.285-2.146,7.156-6.89,7.145-11.804
					c-0.007-3.432-1.453-6.343-3.867-7.787c-1.888-1.13-4.368-1.357-7.175-0.657c-3.335,0.833-5.557,2.745-6.094,5.246
					c-0.474,2.204,0.926,4.254,2.553,5.141c1.59,0.867,3.387,0.66,4.577-0.526l-2.824-2.833c0.069-0.069,0.211-0.117,0.284-0.103
					c-0.089-0.014-0.344-0.158-0.53-0.429c-0.133-0.194-0.162-0.351-0.149-0.41c0.237-1.105,1.784-1.864,3.152-2.205
					c1.225-0.306,2.94-0.518,4.152,0.208c1.411,0.844,1.917,2.808,1.92,4.364c0.008,3.433-1.976,6.736-4.937,8.219
					c-2.977,1.491-6.847,0.977-9.202-1.224c-1.951-1.824-3.117-4.82-3.563-9.158c-0.102-0.993-0.172-1.992-0.242-2.992
					c-0.202-2.888-0.412-5.875-1.375-8.776c-1.241-3.738-4.503-8.28-9.61-8.782l-0.391,3.981c2.994,0.294,5.273,3.256,6.205,6.061
					c0.804,2.423,0.987,5.033,1.181,7.795c0.073,1.043,0.146,2.087,0.253,3.123c0.549,5.341,2.123,9.158,4.811,11.67
					C326.108,380.678,329.106,381.765,332.133,381.765z"/>
			</g>
			<rect x="195.104" y="344.058" style="fill:#132326;" width="120.54" height="11"/>
		</g>
		<g>
			<g>
				<path style="fill:#BF352F;" d="M106.494,195.928c-0.995-0.676-2.025-1.387-2.623-2.432c-0.875-1.529-0.647-3.425-0.369-5.164
					c3.112-19.494,9.134-38.521,17.804-56.257c0.383-0.784,0.827-1.622,1.618-1.992c0.878-0.411,1.909-0.122,2.833,0.173
					c9.479,3.022,18.958,6.043,28.437,9.065c-4.115,14.635-8.231,29.271-12.346,43.906c7.292,3.595,14.053,8.263,20,13.807
					c3.087,2.879,6.139,6.422,6.173,10.643c0.057,7.009-8.077,11.233-15.081,11.508c-4.163,0.163-8.355-0.467-12.286-1.847
					c-5.394-1.894-10.192-5.14-14.922-8.351C119.319,204.635,112.906,200.282,106.494,195.928z"/>
				<path style="opacity:0.26;fill:#231F20;" d="M153.661,142.575l-2.099,6.105c0,0-9.99-3.403-16.897-6.105
					c-4.402-1.722-6.542-2.013-9.058-2.013s-7.639-1.298-7.639-1.298l3.337-7.188L153.661,142.575z"/>
				<path style="fill:#FCF7EB;" d="M117.969,120.434c-2.491,3.653-3.809,9.446,2.295,14.11c4.214,3.22,9.466,2.244,14.103,3.442
					c7.588,1.96,25.146,12.419,28.103,2.826c3.179-10.314-0.995-18.874-8.809-19.372
					C146.886,121.009,127.746,106.093,117.969,120.434z"/>
				<path style="fill:#EAEAEA;" d="M158.442,141.568c0,0-5.661-0.377-8.932-1.761s-10.693-5.284-14.719-5.661
					c-4.026-0.377-9.913-0.194-11.699-1.132c-1.786-0.938-4.459-4.026-5.123-4.151c-0.664-0.126-1.605,0.649-1.605,0.649
					s2.258,6.943,14.243,7.864c0,0,4.979,0.656,16.91,5.506c0,0,7.821,3.275,12.518,1.106
					C160.034,143.988,161.644,141.925,158.442,141.568z"/>
				<path style="fill:#8E0906;" d="M160.284,195.174c0,0,11.744,8.292,7.033,17.254c0,0-4.095,9.311-21.828,6.476L160.284,195.174z"
					/>
				<path style="fill:#8E0906;" d="M112.134,200.191c0,0,9.458-13.335-7.651-19.541l-1.677,10.232c0,0-0.503,2.348,1.51,3.69
					C106.328,195.914,112.134,200.191,112.134,200.191z"/>
			</g>
		</g>
		<g>
			<g>
				<path style="fill:#88A34F;" d="M222.215,195.489c-0.995-0.676-2.025-1.387-2.623-2.432c-0.875-1.529-0.647-3.425-0.369-5.164
					c3.112-19.494,9.134-38.521,17.804-56.257c0.383-0.784,0.827-1.622,1.618-1.992c0.878-0.411,1.909-0.122,2.833,0.173
					c9.479,3.022,18.958,6.043,28.437,9.065c-4.115,14.635-8.231,29.271-12.346,43.906c7.292,3.595,14.053,8.263,20,13.807
					c3.087,2.879,6.138,6.422,6.173,10.643c0.057,7.009-8.078,11.233-15.081,11.508c-4.163,0.163-8.355-0.467-12.286-1.847
					c-5.394-1.894-10.192-5.14-14.922-8.351C235.04,204.196,228.628,199.842,222.215,195.489z"/>
				<path style="opacity:0.26;fill:#231F20;" d="M269.383,142.136l-2.099,6.105c0,0-9.99-3.403-16.897-6.105
					c-4.402-1.722-6.542-2.013-9.058-2.013c-2.516,0-7.639-1.298-7.639-1.298l3.337-7.188L269.383,142.136z"/>
				<path style="fill:#FCF7EB;" d="M233.69,119.995c-2.491,3.653-3.809,9.446,2.295,14.11c4.214,3.22,9.466,2.244,14.103,3.442
					c7.588,1.96,25.146,12.419,28.103,2.826c3.179-10.314-0.995-18.874-8.809-19.372C262.608,120.57,243.468,105.654,233.69,119.995
					z"/>
				<path style="fill:#EAEAEA;" d="M274.163,141.129c0,0-5.661-0.377-8.932-1.761c-3.271-1.384-10.693-5.284-14.719-5.661
					c-4.026-0.377-9.913-0.194-11.699-1.132c-1.786-0.938-4.459-4.026-5.123-4.151c-0.664-0.126-1.605,0.649-1.605,0.649
					s2.258,6.943,14.243,7.864c0,0,4.979,0.656,16.91,5.506c0,0,7.821,3.275,12.518,1.106
					C275.756,143.549,277.366,141.486,274.163,141.129z"/>
				<path style="fill:#78913C;" d="M276.006,194.734c0,0,11.744,8.292,7.033,17.254c0,0-4.095,9.311-21.828,6.476L276.006,194.734z"
					/>
				<path style="fill:#78913C;" d="M227.855,199.752c0,0,9.458-13.335-7.651-19.541l-1.677,10.232c0,0-0.503,2.348,1.51,3.69
					S227.855,199.752,227.855,199.752z"/>
			</g>
		</g>
		<g>
			<g>
				<path style="fill:#EEB415;" d="M331.663,195.489c-0.995-0.676-2.025-1.387-2.623-2.432c-0.875-1.529-0.647-3.425-0.369-5.164
					c3.112-19.494,9.134-38.521,17.804-56.257c0.383-0.784,0.827-1.622,1.618-1.992c0.878-0.411,1.909-0.122,2.833,0.173
					c9.479,3.022,18.958,6.043,28.437,9.065c-4.115,14.635-8.231,29.271-12.346,43.906c7.292,3.595,14.053,8.263,20,13.807
					c3.087,2.879,6.138,6.422,6.173,10.643c0.057,7.009-8.078,11.233-15.081,11.508c-4.163,0.163-8.355-0.467-12.286-1.847
					c-5.394-1.894-10.192-5.14-14.922-8.351C344.488,204.196,338.076,199.842,331.663,195.489z"/>
				<path style="opacity:0.26;fill:#231F20;" d="M378.831,142.136l-2.099,6.105c0,0-9.99-3.403-16.897-6.105
					c-4.402-1.722-6.542-2.013-9.058-2.013s-7.639-1.298-7.639-1.298l3.337-7.188L378.831,142.136z"/>
				<path style="fill:#FCF7EB;" d="M343.138,119.995c-2.491,3.653-3.809,9.446,2.295,14.11c4.214,3.22,9.466,2.244,14.103,3.442
					c7.588,1.96,25.146,12.419,28.103,2.826c3.179-10.314-0.995-18.874-8.809-19.372
					C372.056,120.57,352.916,105.654,343.138,119.995z"/>
				<path style="fill:#EAEAEA;" d="M383.611,141.129c0,0-5.661-0.377-8.932-1.761c-3.271-1.384-10.693-5.284-14.719-5.661
					s-9.913-0.194-11.699-1.132c-1.786-0.938-4.459-4.026-5.123-4.151s-1.605,0.649-1.605,0.649s2.258,6.943,14.243,7.864
					c0,0,4.979,0.656,16.91,5.506c0,0,7.821,3.275,12.518,1.106C385.204,143.549,386.814,141.486,383.611,141.129z"/>
				<path style="fill:#DBA41B;" d="M385.454,194.734c0,0,11.744,8.292,7.033,17.254c0,0-4.095,9.311-21.828,6.476L385.454,194.734z"
					/>
				<path style="fill:#DBA41B;" d="M337.303,199.752c0,0,9.458-13.335-7.651-19.541l-1.677,10.232c0,0-0.503,2.348,1.51,3.69
					C331.497,195.475,337.303,199.752,337.303,199.752z"/>
			</g>
		</g>
		<path style="fill:#6A7F26;" d="M240.771,34.558c-0.333,1.5-39.5,33.5-39.5,33.5s24.392,2,23.196,2.5s-34.029,23.5-32.363,23.5
			s34.559,2.5,32.363,3.5s-25.684,17.761-25.684,17.761l85.371-1.099l-26.62-18.162l27.57-7l-28.86-19.5l19.917-3L240.771,34.558z"
			/>
		<polygon style="fill:#EEB415;" points="241.337,13.994 245.427,22.28 254.571,23.609 247.954,30.058 249.516,39.165 
			241.337,34.866 233.159,39.165 234.721,30.058 228.104,23.609 237.248,22.28 		"/>
	</g>
</g>
<g id="Livello_1">
</g>
</svg>
